<svg width="15" height="8" viewBox="0 0 15 8" fill="none" xmlns="http://www.w3.org/2000/svg">
<path d="M7.79102 8C7.6236 8 7.46163 7.96946 7.3051 7.9084C7.14773 7.84733 7.01673 7.7659 6.91209 7.66412L1.13631 2.0458C0.906112 1.82188 0.791016 1.53689 0.791016 1.19084C0.791016 0.844783 0.906112 0.559796 1.13631 0.335877C1.3665 0.111959 1.65948 0 2.01523 0C2.37099 0 2.66396 0.111959 2.89415 0.335877L7.79102 5.09924L12.6879 0.335877C12.9181 0.111959 13.211 0 13.5668 0C13.9226 0 14.2155 0.111959 14.4457 0.335877C14.6759 0.559796 14.791 0.844783 14.791 1.19084C14.791 1.53689 14.6759 1.82188 14.4457 2.0458L8.66994 7.66412C8.54438 7.78626 8.40835 7.87257 8.26187 7.92305C8.11538 7.97435 7.95843 8 7.79102 8Z" fill="#77787D"/>
</svg>
