<svg width="439" height="146" viewBox="0 0 439 146" fill="none" xmlns="http://www.w3.org/2000/svg">
<path d="M413.765 141.139V142.283H407.358C407.349 141.997 407.396 141.721 407.497 141.457C407.66 141.02 407.92 140.591 408.277 140.167C408.639 139.744 409.159 139.255 409.838 138.7C410.891 137.836 411.603 137.152 411.973 136.65C412.344 136.143 412.529 135.665 412.529 135.215C412.529 134.744 412.359 134.347 412.02 134.025C411.685 133.699 411.246 133.536 410.704 133.536C410.131 133.536 409.672 133.708 409.329 134.052C408.985 134.395 408.811 134.871 408.806 135.48L407.583 135.354C407.667 134.442 407.982 133.747 408.529 133.271C409.075 132.791 409.809 132.551 410.73 132.551C411.66 132.551 412.396 132.809 412.939 133.324C413.481 133.84 413.752 134.479 413.752 135.242C413.752 135.63 413.673 136.011 413.514 136.386C413.355 136.76 413.091 137.155 412.72 137.569C412.355 137.983 411.744 138.552 410.889 139.275C410.175 139.874 409.716 140.282 409.514 140.498C409.311 140.71 409.143 140.923 409.011 141.139H413.765ZM415.048 137.503C415.048 136.357 415.165 135.436 415.398 134.739C415.636 134.038 415.987 133.498 416.449 133.119C416.917 132.74 417.503 132.551 418.208 132.551C418.728 132.551 419.185 132.657 419.577 132.868C419.969 133.075 420.293 133.377 420.549 133.774C420.804 134.166 421.005 134.647 421.15 135.215C421.296 135.779 421.369 136.542 421.369 137.503C421.369 138.64 421.252 139.559 421.018 140.26C420.785 140.956 420.434 141.496 419.967 141.88C419.504 142.259 418.918 142.448 418.208 142.448C417.274 142.448 416.54 142.114 416.006 141.444C415.367 140.637 415.048 139.323 415.048 137.503ZM416.271 137.503C416.271 139.094 416.456 140.154 416.826 140.683C417.201 141.208 417.662 141.47 418.208 141.47C418.755 141.47 419.213 141.205 419.583 140.677C419.958 140.148 420.145 139.09 420.145 137.503C420.145 135.907 419.958 134.847 419.583 134.323C419.213 133.798 418.75 133.536 418.195 133.536C417.648 133.536 417.212 133.767 416.886 134.23C416.476 134.821 416.271 135.912 416.271 137.503ZM428.84 141.139V142.283H422.433C422.424 141.997 422.471 141.721 422.572 141.457C422.735 141.02 422.995 140.591 423.352 140.167C423.714 139.744 424.234 139.255 424.912 138.7C425.966 137.836 426.678 137.152 427.048 136.65C427.418 136.143 427.603 135.665 427.603 135.215C427.603 134.744 427.434 134.347 427.094 134.025C426.759 133.699 426.321 133.536 425.779 133.536C425.206 133.536 424.747 133.708 424.403 134.052C424.06 134.395 423.885 134.871 423.881 135.48L422.658 135.354C422.742 134.442 423.057 133.747 423.603 133.271C424.15 132.791 424.884 132.551 425.805 132.551C426.735 132.551 427.471 132.809 428.013 133.324C428.556 133.84 428.827 134.479 428.827 135.242C428.827 135.63 428.747 136.011 428.589 136.386C428.43 136.76 428.165 137.155 427.795 137.569C427.429 137.983 426.819 138.552 425.964 139.275C425.25 139.874 424.791 140.282 424.589 140.498C424.386 140.71 424.218 140.923 424.086 141.139H428.84ZM436.377 141.139V142.283H429.97C429.962 141.997 430.008 141.721 430.109 141.457C430.272 141.02 430.532 140.591 430.889 140.167C431.251 139.744 431.771 139.255 432.45 138.7C433.503 137.836 434.215 137.152 434.585 136.65C434.956 136.143 435.141 135.665 435.141 135.215C435.141 134.744 434.971 134.347 434.632 134.025C434.297 133.699 433.858 133.536 433.316 133.536C432.743 133.536 432.285 133.708 431.941 134.052C431.597 134.395 431.423 134.871 431.418 135.48L430.195 135.354C430.279 134.442 430.594 133.747 431.141 133.271C431.687 132.791 432.421 132.551 433.342 132.551C434.273 132.551 435.009 132.809 435.551 133.324C436.093 133.84 436.364 134.479 436.364 135.242C436.364 135.63 436.285 136.011 436.126 136.386C435.967 136.76 435.703 137.155 435.333 137.569C434.967 137.983 434.356 138.552 433.501 139.275C432.787 139.874 432.329 140.282 432.126 140.498C431.923 140.71 431.756 140.923 431.623 141.139H436.377Z" fill="#4F4F4F"/>
<path d="M330.715 141.139V142.283H324.308C324.299 141.997 324.345 141.721 324.447 141.457C324.61 141.02 324.87 140.591 325.227 140.167C325.588 139.744 326.109 139.255 326.787 138.7C327.841 137.836 328.553 137.152 328.923 136.65C329.293 136.143 329.478 135.665 329.478 135.215C329.478 134.744 329.309 134.347 328.969 134.025C328.634 133.699 328.196 133.536 327.654 133.536C327.081 133.536 326.622 133.708 326.278 134.052C325.934 134.395 325.76 134.871 325.756 135.48L324.533 135.354C324.617 134.442 324.932 133.747 325.478 133.271C326.025 132.791 326.759 132.551 327.68 132.551C328.61 132.551 329.346 132.809 329.888 133.324C330.43 133.84 330.702 134.479 330.702 135.242C330.702 135.63 330.622 136.011 330.464 136.386C330.305 136.76 330.04 137.155 329.67 137.569C329.304 137.983 328.694 138.552 327.839 139.275C327.125 139.874 326.666 140.282 326.463 140.498C326.261 140.71 326.093 140.923 325.961 141.139H330.715ZM331.997 137.503C331.997 136.357 332.114 135.436 332.348 134.739C332.586 134.038 332.936 133.498 333.399 133.119C333.866 132.74 334.453 132.551 335.158 132.551C335.678 132.551 336.134 132.657 336.527 132.868C336.919 133.075 337.243 133.377 337.498 133.774C337.754 134.166 337.955 134.647 338.1 135.215C338.246 135.779 338.318 136.542 338.318 137.503C338.318 138.64 338.201 139.559 337.968 140.26C337.734 140.956 337.384 141.496 336.917 141.88C336.454 142.259 335.868 142.448 335.158 142.448C334.223 142.448 333.49 142.114 332.956 141.444C332.317 140.637 331.997 139.323 331.997 137.503ZM333.221 137.503C333.221 139.094 333.406 140.154 333.776 140.683C334.151 141.208 334.611 141.47 335.158 141.47C335.704 141.47 336.163 141.205 336.533 140.677C336.908 140.148 337.095 139.09 337.095 137.503C337.095 135.907 336.908 134.847 336.533 134.323C336.163 133.798 335.7 133.536 335.145 133.536C334.598 133.536 334.162 133.767 333.836 134.23C333.426 134.821 333.221 135.912 333.221 137.503ZM345.79 141.139V142.283H339.383C339.374 141.997 339.42 141.721 339.522 141.457C339.685 141.02 339.945 140.591 340.302 140.167C340.663 139.744 341.183 139.255 341.862 138.7C342.916 137.836 343.628 137.152 343.998 136.65C344.368 136.143 344.553 135.665 344.553 135.215C344.553 134.744 344.383 134.347 344.044 134.025C343.709 133.699 343.27 133.536 342.728 133.536C342.155 133.536 341.697 133.708 341.353 134.052C341.009 134.395 340.835 134.871 340.831 135.48L339.608 135.354C339.691 134.442 340.006 133.747 340.553 133.271C341.1 132.791 341.834 132.551 342.755 132.551C343.685 132.551 344.421 132.809 344.963 133.324C345.505 133.84 345.776 134.479 345.776 135.242C345.776 135.63 345.697 136.011 345.538 136.386C345.38 136.76 345.115 137.155 344.745 137.569C344.379 137.983 343.769 138.552 342.913 139.275C342.199 139.874 341.741 140.282 341.538 140.498C341.335 140.71 341.168 140.923 341.036 141.139H345.79ZM351.555 142.283H350.365V134.7C350.078 134.973 349.702 135.246 349.234 135.519C348.771 135.793 348.355 135.998 347.985 136.134V134.984C348.65 134.671 349.232 134.292 349.73 133.847C350.228 133.401 350.581 132.969 350.788 132.551H351.555V142.283Z" fill="#4F4F4F"/>
<path d="M247.663 141.139V142.283H241.256C241.247 141.997 241.294 141.721 241.395 141.457C241.558 141.02 241.818 140.591 242.175 140.167C242.537 139.744 243.057 139.255 243.736 138.7C244.789 137.836 245.501 137.152 245.871 136.65C246.241 136.143 246.427 135.665 246.427 135.215C246.427 134.744 246.257 134.347 245.918 134.025C245.583 133.699 245.144 133.536 244.602 133.536C244.029 133.536 243.57 133.708 243.227 134.052C242.883 134.395 242.709 134.871 242.704 135.48L241.481 135.354C241.565 134.442 241.88 133.747 242.427 133.271C242.973 132.791 243.707 132.551 244.628 132.551C245.558 132.551 246.294 132.809 246.837 133.324C247.379 133.84 247.65 134.479 247.65 135.242C247.65 135.63 247.57 136.011 247.412 136.386C247.253 136.76 246.989 137.155 246.618 137.569C246.253 137.983 245.642 138.552 244.787 139.275C244.073 139.874 243.614 140.282 243.412 140.498C243.209 140.71 243.041 140.923 242.909 141.139H247.663ZM248.946 137.503C248.946 136.357 249.063 135.436 249.296 134.739C249.534 134.038 249.885 133.498 250.347 133.119C250.815 132.74 251.401 132.551 252.106 132.551C252.626 132.551 253.082 132.657 253.475 132.868C253.867 133.075 254.191 133.377 254.447 133.774C254.702 134.166 254.903 134.647 255.048 135.215C255.194 135.779 255.267 136.542 255.267 137.503C255.267 138.64 255.15 139.559 254.916 140.26C254.682 140.956 254.332 141.496 253.865 141.88C253.402 142.259 252.816 142.448 252.106 142.448C251.172 142.448 250.438 142.114 249.904 141.444C249.265 140.637 248.946 139.323 248.946 137.503ZM250.169 137.503C250.169 139.094 250.354 140.154 250.724 140.683C251.099 141.208 251.56 141.47 252.106 141.47C252.653 141.47 253.111 141.205 253.481 140.677C253.856 140.148 254.043 139.09 254.043 137.503C254.043 135.907 253.856 134.847 253.481 134.323C253.111 133.798 252.648 133.536 252.093 133.536C251.546 133.536 251.11 133.767 250.784 134.23C250.374 134.821 250.169 135.912 250.169 137.503ZM262.738 141.139V142.283H256.331C256.322 141.997 256.368 141.721 256.47 141.457C256.633 141.02 256.893 140.591 257.25 140.167C257.611 139.744 258.132 139.255 258.81 138.7C259.864 137.836 260.576 137.152 260.946 136.65C261.316 136.143 261.501 135.665 261.501 135.215C261.501 134.744 261.332 134.347 260.992 134.025C260.657 133.699 260.219 133.536 259.677 133.536C259.104 133.536 258.645 133.708 258.301 134.052C257.958 134.395 257.783 134.871 257.779 135.48L256.556 135.354C256.64 134.442 256.955 133.747 257.501 133.271C258.048 132.791 258.782 132.551 259.703 132.551C260.633 132.551 261.369 132.809 261.911 133.324C262.453 133.84 262.725 134.479 262.725 135.242C262.725 135.63 262.645 136.011 262.487 136.386C262.328 136.76 262.063 137.155 261.693 137.569C261.327 137.983 260.717 138.552 259.862 139.275C259.148 139.874 258.689 140.282 258.486 140.498C258.284 140.71 258.116 140.923 257.984 141.139H262.738ZM264.02 137.503C264.02 136.357 264.137 135.436 264.371 134.739C264.609 134.038 264.959 133.498 265.422 133.119C265.889 132.74 266.476 132.551 267.181 132.551C267.701 132.551 268.157 132.657 268.55 132.868C268.942 133.075 269.266 133.377 269.521 133.774C269.777 134.166 269.978 134.647 270.123 135.215C270.269 135.779 270.341 136.542 270.341 137.503C270.341 138.64 270.225 139.559 269.991 140.26C269.757 140.956 269.407 141.496 268.94 141.88C268.477 142.259 267.891 142.448 267.181 142.448C266.246 142.448 265.513 142.114 264.979 141.444C264.34 140.637 264.02 139.323 264.02 137.503ZM265.244 137.503C265.244 139.094 265.429 140.154 265.799 140.683C266.174 141.208 266.634 141.47 267.181 141.47C267.727 141.47 268.186 141.205 268.556 140.677C268.931 140.148 269.118 139.09 269.118 137.503C269.118 135.907 268.931 134.847 268.556 134.323C268.186 133.798 267.723 133.536 267.168 133.536C266.621 133.536 266.185 133.767 265.859 134.23C265.449 134.821 265.244 135.912 265.244 137.503Z" fill="#4F4F4F"/>
<path d="M163.711 141.139V142.283H157.304C157.295 141.997 157.342 141.721 157.443 141.457C157.606 141.02 157.866 140.591 158.223 140.167C158.585 139.744 159.105 139.255 159.783 138.7C160.837 137.836 161.549 137.152 161.919 136.65C162.289 136.143 162.474 135.665 162.474 135.215C162.474 134.744 162.305 134.347 161.965 134.025C161.63 133.699 161.192 133.536 160.65 133.536C160.077 133.536 159.618 133.708 159.274 134.052C158.931 134.395 158.756 134.871 158.752 135.48L157.529 135.354C157.613 134.442 157.928 133.747 158.474 133.271C159.021 132.791 159.755 132.551 160.676 132.551C161.606 132.551 162.342 132.809 162.884 133.324C163.427 133.84 163.698 134.479 163.698 135.242C163.698 135.63 163.618 136.011 163.46 136.386C163.301 136.76 163.036 137.155 162.666 137.569C162.3 137.983 161.69 138.552 160.835 139.275C160.121 139.874 159.662 140.282 159.46 140.498C159.257 140.71 159.089 140.923 158.957 141.139H163.711ZM164.994 137.503C164.994 136.357 165.11 135.436 165.344 134.739C165.582 134.038 165.932 133.498 166.395 133.119C166.862 132.74 167.449 132.551 168.154 132.551C168.674 132.551 169.13 132.657 169.523 132.868C169.915 133.075 170.239 133.377 170.495 133.774C170.75 134.166 170.951 134.647 171.096 135.215C171.242 135.779 171.314 136.542 171.314 137.503C171.314 138.64 171.198 139.559 170.964 140.26C170.73 140.956 170.38 141.496 169.913 141.88C169.45 142.259 168.864 142.448 168.154 142.448C167.22 142.448 166.486 142.114 165.952 141.444C165.313 140.637 164.994 139.323 164.994 137.503ZM166.217 137.503C166.217 139.094 166.402 140.154 166.772 140.683C167.147 141.208 167.607 141.47 168.154 141.47C168.701 141.47 169.159 141.205 169.529 140.677C169.904 140.148 170.091 139.09 170.091 137.503C170.091 135.907 169.904 134.847 169.529 134.323C169.159 133.798 168.696 133.536 168.141 133.536C167.594 133.536 167.158 133.767 166.832 134.23C166.422 134.821 166.217 135.912 166.217 137.503ZM177.014 142.283H175.824V134.7C175.537 134.973 175.16 135.246 174.693 135.519C174.23 135.793 173.814 135.998 173.443 136.134V134.984C174.109 134.671 174.691 134.292 175.189 133.847C175.687 133.401 176.04 132.969 176.247 132.551H177.014V142.283ZM180.247 140.042L181.391 139.936C181.488 140.474 181.673 140.864 181.946 141.106C182.219 141.349 182.57 141.47 182.997 141.47C183.363 141.47 183.683 141.386 183.956 141.219C184.234 141.051 184.461 140.829 184.637 140.551C184.813 140.269 184.961 139.89 185.08 139.414C185.199 138.938 185.259 138.453 185.259 137.959C185.259 137.906 185.256 137.827 185.252 137.721C185.014 138.1 184.688 138.409 184.273 138.647C183.863 138.88 183.418 138.997 182.938 138.997C182.136 138.997 181.457 138.706 180.901 138.124C180.346 137.543 180.068 136.776 180.068 135.824C180.068 134.841 180.357 134.049 180.934 133.45C181.516 132.85 182.244 132.551 183.116 132.551C183.747 132.551 184.322 132.72 184.842 133.06C185.367 133.399 185.763 133.884 186.032 134.514C186.305 135.14 186.442 136.048 186.442 137.238C186.442 138.477 186.308 139.464 186.039 140.201C185.77 140.932 185.369 141.49 184.835 141.873C184.306 142.257 183.685 142.448 182.971 142.448C182.213 142.448 181.593 142.239 181.113 141.82C180.633 141.397 180.344 140.804 180.247 140.042ZM185.12 135.764C185.12 135.081 184.937 134.539 184.571 134.138C184.209 133.736 183.773 133.536 183.262 133.536C182.733 133.536 182.272 133.752 181.88 134.184C181.488 134.616 181.292 135.176 181.292 135.863C181.292 136.48 181.477 136.983 181.847 137.371C182.222 137.754 182.682 137.946 183.229 137.946C183.78 137.946 184.232 137.754 184.584 137.371C184.941 136.983 185.12 136.447 185.12 135.764Z" fill="#4F4F4F"/>
<path d="M81.5634 141.139V142.283H75.1566C75.1478 141.997 75.1941 141.721 75.2955 141.457C75.4586 141.02 75.7186 140.591 76.0757 140.167C76.4371 139.744 76.9572 139.255 77.636 138.7C78.6895 137.836 79.4014 137.152 79.7716 136.65C80.1419 136.143 80.327 135.665 80.327 135.215C80.327 134.744 80.1573 134.347 79.8179 134.025C79.4829 133.699 79.0443 133.536 78.5022 133.536C77.9292 133.536 77.4707 133.708 77.1269 134.052C76.7831 134.395 76.609 134.871 76.6046 135.48L75.3814 135.354C75.4652 134.442 75.7803 133.747 76.3269 133.271C76.8735 132.791 77.6074 132.551 78.5286 132.551C79.4587 132.551 80.1948 132.809 80.7369 133.324C81.2791 133.84 81.5502 134.479 81.5502 135.242C81.5502 135.63 81.4708 136.011 81.3122 136.386C81.1535 136.76 80.889 137.155 80.5188 137.569C80.1529 137.983 79.5424 138.552 78.6873 139.275C77.9732 139.874 77.5148 140.282 77.3121 140.498C77.1093 140.71 76.9418 140.923 76.8096 141.139H81.5634ZM82.8461 137.503C82.8461 136.357 82.9629 135.436 83.1965 134.739C83.4345 134.038 83.785 133.498 84.2478 133.119C84.715 132.74 85.3013 132.551 86.0065 132.551C86.5266 132.551 86.9828 132.657 87.3751 132.868C87.7674 133.075 88.0914 133.377 88.3471 133.774C88.6027 134.166 88.8033 134.647 88.9487 135.215C89.0942 135.779 89.1669 136.542 89.1669 137.503C89.1669 138.64 89.0501 139.559 88.8165 140.26C88.5829 140.956 88.2325 141.496 87.7652 141.88C87.3024 142.259 86.7162 142.448 86.0065 142.448C85.072 142.448 84.3381 142.114 83.8048 141.444C83.1657 140.637 82.8461 139.323 82.8461 137.503ZM84.0693 137.503C84.0693 139.094 84.2544 140.154 84.6247 140.683C84.9993 141.208 85.4599 141.47 86.0065 141.47C86.5531 141.47 87.0115 141.205 87.3817 140.677C87.7564 140.148 87.9437 139.09 87.9437 137.503C87.9437 135.907 87.7564 134.847 87.3817 134.323C87.0115 133.798 86.5487 133.536 85.9933 133.536C85.4467 133.536 85.0103 133.767 84.6842 134.23C84.2742 134.821 84.0693 135.912 84.0693 137.503ZM94.8662 142.283H93.6761V134.7C93.3896 134.973 93.0128 135.246 92.5455 135.519C92.0827 135.793 91.6662 135.998 91.2959 136.134V134.984C91.9615 134.671 92.5433 134.292 93.0414 133.847C93.5395 133.401 93.8921 132.969 94.0993 132.551H94.8662V142.283ZM99.7523 137.027C99.2586 136.846 98.8928 136.588 98.6548 136.253C98.4168 135.918 98.2977 135.517 98.2977 135.05C98.2977 134.345 98.5512 133.752 99.0581 133.271C99.565 132.791 100.239 132.551 101.081 132.551C101.928 132.551 102.609 132.798 103.124 133.291C103.64 133.78 103.898 134.378 103.898 135.083C103.898 135.533 103.779 135.925 103.541 136.26C103.307 136.59 102.95 136.846 102.47 137.027C103.065 137.221 103.517 137.534 103.825 137.966C104.138 138.398 104.295 138.913 104.295 139.513C104.295 140.342 104.001 141.038 103.415 141.602C102.829 142.166 102.058 142.448 101.101 142.448C100.145 142.448 99.3733 142.166 98.787 141.602C98.2008 141.034 97.9076 140.326 97.9076 139.48C97.9076 138.85 98.0663 138.323 98.3837 137.9C98.7055 137.472 99.1617 137.181 99.7523 137.027ZM99.5143 135.01C99.5143 135.469 99.662 135.843 99.9573 136.134C100.253 136.425 100.636 136.571 101.108 136.571C101.566 136.571 101.941 136.427 102.232 136.141C102.527 135.85 102.675 135.495 102.675 135.076C102.675 134.64 102.523 134.274 102.219 133.979C101.919 133.679 101.544 133.529 101.095 133.529C100.641 133.529 100.264 133.675 99.9639 133.966C99.6642 134.257 99.5143 134.605 99.5143 135.01ZM99.1308 139.486C99.1308 139.826 99.2102 140.154 99.3688 140.472C99.5319 140.789 99.7722 141.036 100.09 141.212C100.407 141.384 100.748 141.47 101.114 141.47C101.683 141.47 102.152 141.287 102.523 140.921C102.893 140.555 103.078 140.09 103.078 139.526C103.078 138.953 102.886 138.479 102.503 138.105C102.124 137.73 101.648 137.543 101.075 137.543C100.515 137.543 100.05 137.728 99.6796 138.098C99.3137 138.468 99.1308 138.931 99.1308 139.486Z" fill="#4F4F4F"/>
<path d="M8.44232 141.139V142.283H2.03554C2.02672 141.997 2.07301 141.721 2.17439 141.457C2.33747 141.02 2.59754 140.591 2.95457 140.167C3.31601 139.744 3.83614 139.255 4.51494 138.7C5.56841 137.836 6.28028 137.152 6.65054 136.65C7.02079 136.143 7.20592 135.665 7.20592 135.215C7.20592 134.744 7.03622 134.347 6.69682 134.025C6.36182 133.699 5.92324 133.536 5.38108 133.536C4.80806 133.536 4.34965 133.708 4.00584 134.052C3.66203 134.395 3.48792 134.871 3.48351 135.48L2.26034 135.354C2.34409 134.442 2.65925 133.747 3.20582 133.271C3.75239 132.791 4.48629 132.551 5.40753 132.551C6.33758 132.551 7.07369 132.809 7.61585 133.324C8.15801 133.84 8.4291 134.479 8.4291 135.242C8.4291 135.63 8.34976 136.011 8.19107 136.386C8.03239 136.76 7.76792 137.155 7.39766 137.569C7.03181 137.983 6.42133 138.552 5.56621 139.275C4.85214 139.874 4.39373 140.282 4.19097 140.498C3.98821 140.71 3.82071 140.923 3.68847 141.139H8.44232ZM9.725 137.503C9.725 136.357 9.84181 135.436 10.0754 134.739C10.3134 134.038 10.6639 133.498 11.1267 133.119C11.5939 132.74 12.1802 132.551 12.8854 132.551C13.4055 132.551 13.8617 132.657 14.254 132.868C14.6463 133.075 14.9703 133.377 15.226 133.774C15.4816 134.166 15.6822 134.647 15.8276 135.215C15.9731 135.779 16.0458 136.542 16.0458 137.503C16.0458 138.64 15.929 139.559 15.6954 140.26C15.4618 140.956 15.1114 141.496 14.6441 141.88C14.1813 142.259 13.5951 142.448 12.8854 142.448C11.951 142.448 11.217 142.114 10.6837 141.444C10.0446 140.637 9.725 139.323 9.725 137.503ZM10.9482 137.503C10.9482 139.094 11.1333 140.154 11.5036 140.683C11.8782 141.208 12.3388 141.47 12.8854 141.47C13.432 141.47 13.8904 141.205 14.2607 140.677C14.6353 140.148 14.8227 139.09 14.8227 137.503C14.8227 135.907 14.6353 134.847 14.2607 134.323C13.8904 133.798 13.4276 133.536 12.8722 133.536C12.3256 133.536 11.8892 133.767 11.5631 134.23C11.1531 134.821 10.9482 135.912 10.9482 137.503ZM21.7452 142.283H20.555V134.7C20.2685 134.973 19.8917 135.246 19.4244 135.519C18.9616 135.793 18.5451 135.998 18.1748 136.134V134.984C18.8404 134.671 19.4222 134.292 19.9203 133.847C20.4184 133.401 20.771 132.969 20.9782 132.551H21.7452V142.283ZM24.8791 133.86V132.716H31.1537V133.642C30.5366 134.298 29.9239 135.171 29.3156 136.26C28.7117 137.349 28.2445 138.468 27.9139 139.619C27.6759 140.43 27.5238 141.318 27.4577 142.283H26.2345C26.2478 141.521 26.3976 140.599 26.6841 139.519C26.9706 138.44 27.3806 137.399 27.9139 136.399C28.4517 135.394 29.0225 134.547 29.6264 133.86H24.8791Z" fill="#4F4F4F"/>
<line x1="18.2262" y1="113.255" x2="81.4653" y2="101.127" stroke="#F52525" stroke-width="2.70817" stroke-linecap="round"/>
<line x1="83.7942" y1="100.437" x2="163.433" y2="68.056" stroke="#F52525" stroke-width="2.70817" stroke-linecap="round"/>
<line x1="163.845" y1="67.4467" x2="189.122" y2="67.4467" stroke="#F52525" stroke-width="2.70817" stroke-linecap="round"/>
<line x1="273.977" y1="45.7826" x2="287.518" y2="45.7826" stroke="#F52525" stroke-width="2.70817" stroke-linecap="round"/>
<line x1="189.65" y1="67.1563" x2="272.783" y2="46.1542" stroke="#F52525" stroke-width="2.70817" stroke-linecap="round"/>
<line x1="288.846" y1="45.4342" x2="424.384" y2="2.02668" stroke="#F52525" stroke-width="2.70817" stroke-linecap="round"/>
<circle cx="16.7008" cy="113.965" r="4.96498" fill="#F52525"/>
<circle cx="89.82" cy="113.486" r="4.96498" fill="#F52525"/>
<circle cx="172.872" cy="113.486" r="4.96498" fill="#F52525"/>
<circle cx="255.922" cy="113.486" r="4.96498" fill="#F52525"/>
<circle cx="422.024" cy="113.486" r="4.96498" fill="#F52525"/>
<circle cx="338.973" cy="113.486" r="4.96498" fill="#F52525"/>
<path d="M14.4438 87.1372C14.4438 80.9992 19.4196 76.0234 25.5576 76.0234H38.5364C44.6743 76.0234 49.6501 80.9992 49.6501 87.1372V87.4778C49.6501 93.6158 44.6743 98.5915 38.5364 98.5915H14.4438V87.1372Z" fill="#F52525"/>
<path d="M24.085 91.6563C23.63 91.6563 23.2256 91.6057 22.8717 91.5046C22.5251 91.3963 22.2326 91.2482 21.9943 91.0605C21.7559 90.8655 21.5754 90.638 21.4526 90.378C21.3299 90.1108 21.2685 89.8183 21.2685 89.5006C21.2685 89.0673 21.4021 88.6845 21.6693 88.3523C21.9437 88.0129 22.3409 87.7709 22.8609 87.6265C22.6659 87.5615 22.4853 87.4749 22.3192 87.3665C22.1531 87.2582 22.0087 87.1282 21.8859 86.9765C21.7632 86.8249 21.6657 86.6588 21.5935 86.4782C21.5212 86.2905 21.4851 86.0883 21.4851 85.8716C21.4851 85.5827 21.5429 85.3155 21.6584 85.07C21.774 84.8172 21.9401 84.6006 22.1568 84.42C22.3806 84.2323 22.6514 84.0878 22.9692 83.9867C23.2942 83.8856 23.6661 83.8351 24.085 83.8351C24.5038 83.8351 24.8758 83.8856 25.2007 83.9867C25.5257 84.0878 25.7965 84.2323 26.0132 84.42C26.2371 84.6006 26.4032 84.8172 26.5115 85.07C26.627 85.3155 26.6848 85.5827 26.6848 85.8716C26.6848 86.3049 26.5548 86.6696 26.2948 86.9657C26.0349 87.2618 25.7099 87.4821 25.3199 87.6265C25.8471 87.7926 26.2407 88.0273 26.5007 88.3306C26.7679 88.6339 26.9015 89.0239 26.9015 89.5006C26.9015 89.8183 26.8401 90.1108 26.7173 90.378C26.5945 90.638 26.414 90.8655 26.1757 91.0605C25.9374 91.2482 25.6413 91.3963 25.2874 91.5046C24.9408 91.6057 24.5399 91.6563 24.085 91.6563ZM24.085 90.508C24.5977 90.508 24.9769 90.4069 25.2224 90.2047C25.4752 89.9953 25.6015 89.7281 25.6015 89.4031C25.6015 89.0348 25.4571 88.7423 25.1682 88.5256C24.8794 88.3017 24.5183 88.1609 24.085 88.1031C23.6517 88.1609 23.2906 88.3017 23.0017 88.5256C22.7128 88.7423 22.5684 89.0348 22.5684 89.4031C22.5684 89.7281 22.6948 89.9953 22.9475 90.2047C23.2075 90.4069 23.5867 90.508 24.085 90.508ZM24.085 87.1715C24.4677 87.1138 24.7783 86.991 25.0166 86.8032C25.2621 86.6155 25.3849 86.3374 25.3849 85.9691C25.3849 85.6441 25.2657 85.3986 25.0274 85.2325C24.7963 85.0664 24.4822 84.9833 24.085 84.9833C23.6878 84.9833 23.37 85.0664 23.1317 85.2325C22.9006 85.3914 22.785 85.6369 22.785 85.9691C22.785 86.3374 22.9078 86.6155 23.1534 86.8032C23.3989 86.991 23.7094 87.1138 24.085 87.1715ZM30.8567 91.6563C30.4595 91.6563 30.0875 91.5949 29.7409 91.4721C29.4015 91.3493 29.1054 91.1399 28.8526 90.8438C28.5999 90.5405 28.4013 90.1397 28.2568 89.6414C28.1124 89.1359 28.0402 88.504 28.0402 87.7457V87.529C28.0402 86.8285 28.1124 86.2435 28.2568 85.7741C28.4013 85.2975 28.5999 84.9183 28.8526 84.6367C29.1054 84.3478 29.4015 84.142 29.7409 84.0192C30.0875 83.8965 30.4595 83.8351 30.8567 83.8351C31.2539 83.8351 31.6222 83.8965 31.9616 84.0192C32.3082 84.142 32.608 84.3478 32.8607 84.6367C33.1135 84.9183 33.3121 85.2975 33.4565 85.7741C33.6009 86.2435 33.6732 86.8285 33.6732 87.529V87.7457C33.6732 88.504 33.6009 89.1359 33.4565 89.6414C33.3121 90.1397 33.1135 90.5405 32.8607 90.8438C32.608 91.1399 32.3082 91.3493 31.9616 91.4721C31.6222 91.5949 31.2539 91.6563 30.8567 91.6563ZM30.8567 90.5297C31.0589 90.5297 31.2503 90.4899 31.4308 90.4105C31.6113 90.3311 31.7702 90.1902 31.9074 89.988C32.0519 89.7786 32.1638 89.4933 32.2432 89.1323C32.3299 88.7712 32.3732 88.309 32.3732 87.7457V87.529C32.3732 87.0235 32.3299 86.6046 32.2432 86.2724C32.1638 85.9402 32.0519 85.6766 31.9074 85.4816C31.7702 85.2867 31.6113 85.153 31.4308 85.0808C31.2503 85.0014 31.0589 84.9617 30.8567 84.9617C30.6545 84.9617 30.4631 85.0014 30.2825 85.0808C30.102 85.153 29.9395 85.2867 29.7951 85.4816C29.6578 85.6766 29.5459 85.9402 29.4592 86.2724C29.3798 86.6046 29.3401 87.0235 29.3401 87.529V87.7457C29.3401 88.309 29.3798 88.7712 29.4592 89.1323C29.5459 89.4933 29.6578 89.7786 29.7951 89.988C29.9395 90.1902 30.102 90.3311 30.2825 90.4105C30.4631 90.4899 30.6545 90.5297 30.8567 90.5297ZM40.7673 83.9542H42.0672L36.8675 91.5371H35.5676L40.7673 83.9542ZM36.3259 87.5398C36.0587 87.5398 35.8132 87.4965 35.5893 87.4099C35.3726 87.3232 35.1849 87.2004 35.026 87.0415C34.8743 86.8827 34.7552 86.6949 34.6685 86.4782C34.5818 86.2544 34.5385 86.0088 34.5385 85.7416V85.6333C34.5385 85.3661 34.5818 85.1242 34.6685 84.9075C34.7552 84.6836 34.8743 84.4923 35.026 84.3334C35.1849 84.1745 35.3726 84.0517 35.5893 83.9651C35.8132 83.8784 36.0587 83.8351 36.3259 83.8351C36.5931 83.8351 36.835 83.8784 37.0517 83.9651C37.2683 84.0517 37.4561 84.1745 37.615 84.3334C37.7739 84.4923 37.8966 84.6836 37.9833 84.9075C38.07 85.1242 38.1133 85.3661 38.1133 85.6333V85.7416C38.1133 86.0088 38.07 86.2544 37.9833 86.4782C37.8966 86.6949 37.7739 86.8827 37.615 87.0415C37.4561 87.2004 37.2683 87.3232 37.0517 87.4099C36.835 87.4965 36.5931 87.5398 36.3259 87.5398ZM36.3259 86.5649C36.5209 86.5649 36.6762 86.4999 36.7917 86.3699C36.9073 86.2399 36.965 86.0305 36.965 85.7416V85.6333C36.965 85.3444 36.9073 85.135 36.7917 85.005C36.6762 84.875 36.5209 84.81 36.3259 84.81C36.1309 84.81 35.9756 84.875 35.8601 85.005C35.7445 85.135 35.6868 85.3444 35.6868 85.6333V85.7416C35.6868 86.0305 35.7445 86.2399 35.8601 86.3699C35.9756 86.4999 36.1309 86.5649 36.3259 86.5649ZM41.3089 91.6454C41.0417 91.6454 40.7962 91.6021 40.5723 91.5154C40.3557 91.4288 40.1679 91.306 40.009 91.1471C39.8574 90.9883 39.7382 90.8005 39.6515 90.5838C39.5649 90.36 39.5215 90.1144 39.5215 89.8472V89.7389C39.5215 89.4717 39.5649 89.2297 39.6515 89.0131C39.7382 88.7892 39.8574 88.5978 40.009 88.439C40.1679 88.2801 40.3557 88.1573 40.5723 88.0707C40.7962 87.984 41.0417 87.9407 41.3089 87.9407C41.5761 87.9407 41.8181 87.984 42.0347 88.0707C42.2514 88.1573 42.4391 88.2801 42.598 88.439C42.7569 88.5978 42.8797 88.7892 42.9663 89.0131C43.053 89.2297 43.0963 89.4717 43.0963 89.7389V89.8472C43.0963 90.1144 43.053 90.36 42.9663 90.5838C42.8797 90.8005 42.7569 90.9883 42.598 91.1471C42.4391 91.306 42.2514 91.4288 42.0347 91.5154C41.8181 91.6021 41.5761 91.6454 41.3089 91.6454ZM41.3089 90.6705C41.5039 90.6705 41.6592 90.6055 41.7747 90.4755C41.8903 90.3455 41.9481 90.1361 41.9481 89.8472V89.7389C41.9481 89.45 41.8903 89.2406 41.7747 89.1106C41.6592 88.9806 41.5039 88.9156 41.3089 88.9156C41.1139 88.9156 40.9587 88.9806 40.8431 89.1106C40.7276 89.2406 40.6698 89.45 40.6698 89.7389V89.8472C40.6698 90.1361 40.7276 90.3455 40.8431 90.4755C40.9587 90.6055 41.1139 90.6705 41.3089 90.6705Z" fill="white"/>
<path d="M172.42 47.4145C172.42 41.2766 177.396 36.3008 183.534 36.3008H205.54C211.678 36.3008 216.653 41.2766 216.653 47.4145V47.7552C216.653 53.8931 211.678 58.8689 205.54 58.8689H172.42V47.4145Z" fill="#F52525"/>
<path d="M181.241 50.6879H183.029V45.6073L181.241 46.8747V45.5315L183.072 44.2316H184.329V50.6879H185.791V51.8145H181.241V50.6879ZM186.442 50.7962L189.27 48.348C189.501 48.1458 189.696 47.9652 189.855 47.8064C190.021 47.6475 190.154 47.4994 190.255 47.3622C190.364 47.2178 190.439 47.077 190.483 46.9397C190.533 46.8025 190.559 46.6581 190.559 46.5064C190.559 46.1381 190.447 45.8384 190.223 45.6073C190.006 45.3762 189.703 45.2607 189.313 45.2607C188.851 45.2607 188.49 45.3871 188.23 45.6398C187.977 45.8854 187.85 46.2645 187.85 46.7773H186.551C186.551 46.3801 186.616 46.019 186.746 45.694C186.876 45.3618 187.06 45.0801 187.298 44.849C187.536 44.6107 187.825 44.4302 188.165 44.3074C188.504 44.1774 188.887 44.1124 189.313 44.1124C189.725 44.1124 190.089 44.1738 190.407 44.2966C190.725 44.4121 190.988 44.5782 191.198 44.7949C191.414 45.0043 191.577 45.2571 191.685 45.5532C191.801 45.842 191.859 46.1598 191.859 46.5064C191.859 46.7664 191.815 47.012 191.729 47.2431C191.649 47.4742 191.534 47.6944 191.382 47.9039C191.237 48.1133 191.061 48.3191 190.851 48.5213C190.649 48.7235 190.425 48.9221 190.179 49.1171L188.251 50.6879H191.967V51.8145H186.442V50.7962ZM195.865 51.9336C195.468 51.9336 195.096 51.8722 194.749 51.7495C194.41 51.6267 194.114 51.4173 193.861 51.1212C193.608 50.8178 193.41 50.417 193.265 49.9187C193.121 49.4132 193.048 48.7813 193.048 48.023V47.8064C193.048 47.1058 193.121 46.5209 193.265 46.0515C193.41 45.5748 193.608 45.1957 193.861 44.914C194.114 44.6252 194.41 44.4193 194.749 44.2966C195.096 44.1738 195.468 44.1124 195.865 44.1124C196.262 44.1124 196.63 44.1738 196.97 44.2966C197.317 44.4193 197.616 44.6252 197.869 44.914C198.122 45.1957 198.32 45.5748 198.465 46.0515C198.609 46.5209 198.681 47.1058 198.681 47.8064V48.023C198.681 48.7813 198.609 49.4132 198.465 49.9187C198.32 50.417 198.122 50.8178 197.869 51.1212C197.616 51.4173 197.317 51.6267 196.97 51.7495C196.63 51.8722 196.262 51.9336 195.865 51.9336ZM195.865 50.807C196.067 50.807 196.259 50.7673 196.439 50.6879C196.62 50.6084 196.779 50.4676 196.916 50.2654C197.06 50.0559 197.172 49.7707 197.252 49.4096C197.338 49.0485 197.382 48.5863 197.382 48.023V47.8064C197.382 47.3008 197.338 46.882 197.252 46.5498C197.172 46.2176 197.06 45.954 196.916 45.759C196.779 45.564 196.62 45.4304 196.439 45.3582C196.259 45.2787 196.067 45.239 195.865 45.239C195.663 45.239 195.471 45.2787 195.291 45.3582C195.11 45.4304 194.948 45.564 194.803 45.759C194.666 45.954 194.554 46.2176 194.468 46.5498C194.388 46.882 194.348 47.3008 194.348 47.8064V48.023C194.348 48.5863 194.388 49.0485 194.468 49.4096C194.554 49.7707 194.666 50.0559 194.803 50.2654C194.948 50.4676 195.11 50.6084 195.291 50.6879C195.471 50.7673 195.663 50.807 195.865 50.807ZM205.776 44.2316H207.076L201.876 51.8145H200.576L205.776 44.2316ZM201.334 47.8172C201.067 47.8172 200.821 47.7739 200.598 47.6872C200.381 47.6005 200.193 47.4778 200.034 47.3189C199.883 47.16 199.763 46.9722 199.677 46.7556C199.59 46.5317 199.547 46.2862 199.547 46.019V45.9106C199.547 45.6434 199.59 45.4015 199.677 45.1848C199.763 44.961 199.883 44.7696 200.034 44.6107C200.193 44.4518 200.381 44.3291 200.598 44.2424C200.821 44.1557 201.067 44.1124 201.334 44.1124C201.601 44.1124 201.843 44.1557 202.06 44.2424C202.277 44.3291 202.464 44.4518 202.623 44.6107C202.782 44.7696 202.905 44.961 202.992 45.1848C203.078 45.4015 203.122 45.6434 203.122 45.9106V46.019C203.122 46.2862 203.078 46.5317 202.992 46.7556C202.905 46.9722 202.782 47.16 202.623 47.3189C202.464 47.4778 202.277 47.6005 202.06 47.6872C201.843 47.7739 201.601 47.8172 201.334 47.8172ZM201.334 46.8423C201.529 46.8423 201.684 46.7773 201.8 46.6473C201.916 46.5173 201.973 46.3078 201.973 46.019V45.9106C201.973 45.6218 201.916 45.4123 201.8 45.2823C201.684 45.1524 201.529 45.0874 201.334 45.0874C201.139 45.0874 200.984 45.1524 200.868 45.2823C200.753 45.4123 200.695 45.6218 200.695 45.9106V46.019C200.695 46.3078 200.753 46.5173 200.868 46.6473C200.984 46.7773 201.139 46.8423 201.334 46.8423ZM206.317 51.9228C206.05 51.9228 205.804 51.8794 205.581 51.7928C205.364 51.7061 205.176 51.5834 205.017 51.4245C204.866 51.2656 204.746 51.0778 204.66 50.8612C204.573 50.6373 204.53 50.3918 204.53 50.1246V50.0162C204.53 49.749 204.573 49.5071 204.66 49.2904C204.746 49.0666 204.866 48.8752 205.017 48.7163C205.176 48.5574 205.364 48.4347 205.581 48.348C205.804 48.2613 206.05 48.218 206.317 48.218C206.584 48.218 206.826 48.2613 207.043 48.348C207.26 48.4347 207.447 48.5574 207.606 48.7163C207.765 48.8752 207.888 49.0666 207.975 49.2904C208.061 49.5071 208.105 49.749 208.105 50.0162V50.1246C208.105 50.3918 208.061 50.6373 207.975 50.8612C207.888 51.0778 207.765 51.2656 207.606 51.4245C207.447 51.5834 207.26 51.7061 207.043 51.7928C206.826 51.8794 206.584 51.9228 206.317 51.9228ZM206.317 50.9478C206.512 50.9478 206.667 50.8828 206.783 50.7528C206.899 50.6229 206.956 50.4134 206.956 50.1246V50.0162C206.956 49.7274 206.899 49.5179 206.783 49.3879C206.667 49.2579 206.512 49.1929 206.317 49.1929C206.122 49.1929 205.967 49.2579 205.851 49.3879C205.736 49.5179 205.678 49.7274 205.678 50.0162V50.1246C205.678 50.4134 205.736 50.6229 205.851 50.7528C205.967 50.8828 206.122 50.9478 206.317 50.9478Z" fill="white"/>
<path d="M256.372 69.4214C256.372 75.5594 261.348 80.5352 267.486 80.5352H289.492C295.63 80.5352 300.606 75.5594 300.606 69.4214V69.0808C300.606 62.9428 295.63 57.9671 289.492 57.9671H256.372V69.4214Z" fill="#F52525"/>
<path d="M265.056 72.3539H266.843V67.2733L265.056 68.5408V67.1975L266.887 65.8976H268.143V72.3539H269.606V73.4805H265.056V72.3539ZM273.832 71.7689H270.094V70.8048L273.777 65.8976H275.132V70.6423H276.052V71.7689H275.132V73.4805H273.832V71.7689ZM273.832 70.6423V67.3925L271.394 70.6423H273.832ZM279.955 73.5996C279.557 73.5996 279.186 73.5382 278.839 73.4155C278.499 73.2927 278.203 73.0833 277.951 72.7872C277.698 72.4839 277.499 72.0831 277.355 71.5847C277.21 71.0792 277.138 70.4473 277.138 69.689V69.4724C277.138 68.7719 277.21 68.1869 277.355 67.7175C277.499 67.2408 277.698 66.8617 277.951 66.58C278.203 66.2912 278.499 66.0854 278.839 65.9626C279.186 65.8398 279.557 65.7784 279.955 65.7784C280.352 65.7784 280.72 65.8398 281.06 65.9626C281.406 66.0854 281.706 66.2912 281.959 66.58C282.211 66.8617 282.41 67.2408 282.554 67.7175C282.699 68.1869 282.771 68.7719 282.771 69.4724V69.689C282.771 70.4473 282.699 71.0792 282.554 71.5847C282.41 72.0831 282.211 72.4839 281.959 72.7872C281.706 73.0833 281.406 73.2927 281.06 73.4155C280.72 73.5382 280.352 73.5996 279.955 73.5996ZM279.955 72.473C280.157 72.473 280.348 72.4333 280.529 72.3539C280.709 72.2744 280.868 72.1336 281.005 71.9314C281.15 71.722 281.262 71.4367 281.341 71.0756C281.428 70.7145 281.471 70.2523 281.471 69.689V69.4724C281.471 68.9668 281.428 68.548 281.341 68.2158C281.262 67.8836 281.15 67.62 281.005 67.425C280.868 67.23 280.709 67.0964 280.529 67.0242C280.348 66.9447 280.157 66.905 279.955 66.905C279.752 66.905 279.561 66.9447 279.38 67.0242C279.2 67.0964 279.037 67.23 278.893 67.425C278.756 67.62 278.644 67.8836 278.557 68.2158C278.478 68.548 278.438 68.9668 278.438 69.4724V69.689C278.438 70.2523 278.478 70.7145 278.557 71.0756C278.644 71.4367 278.756 71.722 278.893 71.9314C279.037 72.1336 279.2 72.2744 279.38 72.3539C279.561 72.4333 279.752 72.473 279.955 72.473ZM289.865 65.8976H291.165L285.965 73.4805H284.666L289.865 65.8976ZM285.424 69.4832C285.157 69.4832 284.911 69.4399 284.687 69.3532C284.471 69.2666 284.283 69.1438 284.124 68.9849C283.972 68.826 283.853 68.6383 283.766 68.4216C283.68 68.1977 283.636 67.9522 283.636 67.685V67.5767C283.636 67.3094 283.68 67.0675 283.766 66.8509C283.853 66.627 283.972 66.4356 284.124 66.2767C284.283 66.1179 284.471 65.9951 284.687 65.9084C284.911 65.8218 285.157 65.7784 285.424 65.7784C285.691 65.7784 285.933 65.8218 286.15 65.9084C286.366 65.9951 286.554 66.1179 286.713 66.2767C286.872 66.4356 286.995 66.627 287.081 66.8509C287.168 67.0675 287.211 67.3094 287.211 67.5767V67.685C287.211 67.9522 287.168 68.1977 287.081 68.4216C286.995 68.6383 286.872 68.826 286.713 68.9849C286.554 69.1438 286.366 69.2666 286.15 69.3532C285.933 69.4399 285.691 69.4832 285.424 69.4832ZM285.424 68.5083C285.619 68.5083 285.774 68.4433 285.89 68.3133C286.005 68.1833 286.063 67.9739 286.063 67.685V67.5767C286.063 67.2878 286.005 67.0784 285.89 66.9484C285.774 66.8184 285.619 66.7534 285.424 66.7534C285.229 66.7534 285.074 66.8184 284.958 66.9484C284.843 67.0784 284.785 67.2878 284.785 67.5767V67.685C284.785 67.9739 284.843 68.1833 284.958 68.3133C285.074 68.4433 285.229 68.5083 285.424 68.5083ZM290.407 73.5888C290.14 73.5888 289.894 73.5455 289.67 73.4588C289.454 73.3721 289.266 73.2494 289.107 73.0905C288.955 72.9316 288.836 72.7438 288.749 72.5272C288.663 72.3033 288.62 72.0578 288.62 71.7906V71.6822C288.62 71.415 288.663 71.1731 288.749 70.9565C288.836 70.7326 288.955 70.5412 289.107 70.3823C289.266 70.2234 289.454 70.1007 289.67 70.014C289.894 69.9273 290.14 69.884 290.407 69.884C290.674 69.884 290.916 69.9273 291.133 70.014C291.349 70.1007 291.537 70.2234 291.696 70.3823C291.855 70.5412 291.978 70.7326 292.064 70.9565C292.151 71.1731 292.194 71.415 292.194 71.6822V71.7906C292.194 72.0578 292.151 72.3033 292.064 72.5272C291.978 72.7438 291.855 72.9316 291.696 73.0905C291.537 73.2494 291.349 73.3721 291.133 73.4588C290.916 73.5455 290.674 73.5888 290.407 73.5888ZM290.407 72.6139C290.602 72.6139 290.757 72.5489 290.873 72.4189C290.988 72.2889 291.046 72.0794 291.046 71.7906V71.6822C291.046 71.3934 290.988 71.1839 290.873 71.0539C290.757 70.924 290.602 70.859 290.407 70.859C290.212 70.859 290.057 70.924 289.941 71.0539C289.826 71.1839 289.768 71.3934 289.768 71.6822V71.7906C289.768 72.0794 289.826 72.2889 289.941 72.4189C290.057 72.5489 290.212 72.6139 290.407 72.6139Z" fill="white"/>
<path d="M339.423 13.1137C339.423 6.97578 334.448 2 328.31 2H306.304C300.166 2 295.19 6.97578 295.19 13.1137V13.4544C295.19 19.5923 300.166 24.5681 306.304 24.5681H339.423V13.1137Z" fill="#F52525"/>
<path d="M303.873 16.3871H305.661V11.3065L303.873 12.574V11.2307L305.704 9.93079H306.961V16.3871H308.423V17.5137H303.873V16.3871ZM312.162 17.6328C311.714 17.6328 311.313 17.5642 310.959 17.427C310.605 17.2898 310.302 17.0768 310.049 16.7879C309.804 16.499 309.616 16.1343 309.486 15.6938C309.356 15.246 309.291 14.7152 309.291 14.1014V13.8847C309.291 13.1481 309.367 12.5234 309.518 12.0107C309.67 11.4907 309.879 11.0682 310.147 10.7432C310.414 10.4183 310.728 10.1836 311.089 10.0391C311.45 9.88746 311.844 9.81163 312.27 9.81163C312.913 9.81163 313.443 9.95607 313.862 10.2449C314.281 10.5266 314.545 10.9816 314.653 11.6099H313.353C313.274 11.3788 313.144 11.2127 312.963 11.1116C312.783 11.0105 312.552 10.9599 312.27 10.9599C312.024 10.9599 311.797 10.9996 311.587 11.0791C311.378 11.1513 311.194 11.2813 311.035 11.469C310.876 11.6568 310.75 11.9132 310.656 12.2382C310.562 12.5559 310.511 12.9603 310.504 13.4514C310.598 13.2925 310.714 13.1589 310.851 13.0506C310.995 12.9351 311.15 12.8448 311.317 12.7798C311.49 12.7076 311.667 12.657 311.847 12.6281C312.028 12.592 312.205 12.574 312.378 12.574C313.144 12.574 313.739 12.7834 314.166 13.2023C314.599 13.6211 314.816 14.2169 314.816 14.9897V15.098C314.816 15.4735 314.747 15.8166 314.61 16.1271C314.48 16.4376 314.296 16.7048 314.057 16.9287C313.819 17.1526 313.537 17.3259 313.212 17.4487C312.887 17.5714 312.537 17.6328 312.162 17.6328ZM312.075 16.4846C312.508 16.4846 312.855 16.3582 313.115 16.1054C313.382 15.8454 313.516 15.5096 313.516 15.098V14.9897C313.516 14.5852 313.382 14.2566 313.115 14.0039C312.855 13.7439 312.508 13.6139 312.075 13.6139C311.642 13.6139 311.291 13.7439 311.024 14.0039C310.764 14.2566 310.634 14.5852 310.634 14.9897V15.098C310.634 15.5096 310.764 15.8454 311.024 16.1054C311.291 16.3582 311.642 16.4846 312.075 16.4846ZM318.772 17.6328C318.375 17.6328 318.003 17.5714 317.656 17.4487C317.317 17.3259 317.021 17.1165 316.768 16.8204C316.515 16.5171 316.317 16.1163 316.172 15.618C316.028 15.1124 315.956 14.4805 315.956 13.7222V13.5056C315.956 12.8051 316.028 12.2201 316.172 11.7507C316.317 11.274 316.515 10.8949 316.768 10.6133C317.021 10.3244 317.317 10.1186 317.656 9.99579C318.003 9.87302 318.375 9.81163 318.772 9.81163C319.169 9.81163 319.538 9.87302 319.877 9.99579C320.224 10.1186 320.523 10.3244 320.776 10.6133C321.029 10.8949 321.227 11.274 321.372 11.7507C321.516 12.2201 321.589 12.8051 321.589 13.5056V13.7222C321.589 14.4805 321.516 15.1124 321.372 15.618C321.227 16.1163 321.029 16.5171 320.776 16.8204C320.523 17.1165 320.224 17.3259 319.877 17.4487C319.538 17.5714 319.169 17.6328 318.772 17.6328ZM318.772 16.5062C318.974 16.5062 319.166 16.4665 319.346 16.3871C319.527 16.3076 319.686 16.1668 319.823 15.9646C319.967 15.7552 320.079 15.4699 320.159 15.1088C320.245 14.7477 320.289 14.2855 320.289 13.7222V13.5056C320.289 13.0001 320.245 12.5812 320.159 12.249C320.079 11.9168 319.967 11.6532 319.823 11.4582C319.686 11.2632 319.527 11.1296 319.346 11.0574C319.166 10.978 318.974 10.9382 318.772 10.9382C318.57 10.9382 318.378 10.978 318.198 11.0574C318.017 11.1296 317.855 11.2632 317.71 11.4582C317.573 11.6532 317.461 11.9168 317.375 12.249C317.295 12.5812 317.255 13.0001 317.255 13.5056V13.7222C317.255 14.2855 317.295 14.7477 317.375 15.1088C317.461 15.4699 317.573 15.7552 317.71 15.9646C317.855 16.1668 318.017 16.3076 318.198 16.3871C318.378 16.4665 318.57 16.5062 318.772 16.5062ZM328.683 9.93079H329.983L324.783 17.5137H323.483L328.683 9.93079ZM324.241 13.5164C323.974 13.5164 323.728 13.4731 323.505 13.3864C323.288 13.2998 323.1 13.177 322.941 13.0181C322.79 12.8592 322.671 12.6715 322.584 12.4548C322.497 12.2309 322.454 11.9854 322.454 11.7182V11.6099C322.454 11.3427 322.497 11.1007 322.584 10.8841C322.671 10.6602 322.79 10.4688 322.941 10.3099C323.1 10.1511 323.288 10.0283 323.505 9.94162C323.728 9.85496 323.974 9.81163 324.241 9.81163C324.508 9.81163 324.75 9.85496 324.967 9.94162C325.184 10.0283 325.371 10.1511 325.53 10.3099C325.689 10.4688 325.812 10.6602 325.899 10.8841C325.985 11.1007 326.029 11.3427 326.029 11.6099V11.7182C326.029 11.9854 325.985 12.2309 325.899 12.4548C325.812 12.6715 325.689 12.8592 325.53 13.0181C325.371 13.177 325.184 13.2998 324.967 13.3864C324.75 13.4731 324.508 13.5164 324.241 13.5164ZM324.241 12.5415C324.436 12.5415 324.592 12.4765 324.707 12.3465C324.823 12.2165 324.88 12.0071 324.88 11.7182V11.6099C324.88 11.321 324.823 11.1116 324.707 10.9816C324.592 10.8516 324.436 10.7866 324.241 10.7866C324.046 10.7866 323.891 10.8516 323.775 10.9816C323.66 11.1116 323.602 11.321 323.602 11.6099V11.7182C323.602 12.0071 323.66 12.2165 323.775 12.3465C323.891 12.4765 324.046 12.5415 324.241 12.5415ZM329.224 17.622C328.957 17.622 328.712 17.5787 328.488 17.492C328.271 17.4053 328.083 17.2826 327.924 17.1237C327.773 16.9648 327.654 16.777 327.567 16.5604C327.48 16.3365 327.437 16.091 327.437 15.8238V15.7154C327.437 15.4482 327.48 15.2063 327.567 14.9897C327.654 14.7658 327.773 14.5744 327.924 14.4155C328.083 14.2566 328.271 14.1339 328.488 14.0472C328.712 13.9606 328.957 13.9172 329.224 13.9172C329.491 13.9172 329.733 13.9606 329.95 14.0472C330.167 14.1339 330.354 14.2566 330.513 14.4155C330.672 14.5744 330.795 14.7658 330.882 14.9897C330.968 15.2063 331.012 15.4482 331.012 15.7154V15.8238C331.012 16.091 330.968 16.3365 330.882 16.5604C330.795 16.777 330.672 16.9648 330.513 17.1237C330.354 17.2826 330.167 17.4053 329.95 17.492C329.733 17.5787 329.491 17.622 329.224 17.622ZM329.224 16.6471C329.419 16.6471 329.575 16.5821 329.69 16.4521C329.806 16.3221 329.863 16.1126 329.863 15.8238V15.7154C329.863 15.4266 329.806 15.2171 329.69 15.0872C329.575 14.9572 329.419 14.8922 329.224 14.8922C329.029 14.8922 328.874 14.9572 328.758 15.0872C328.643 15.2171 328.585 15.4266 328.585 15.7154V15.8238C328.585 16.1126 328.643 16.3221 328.758 16.4521C328.874 16.5821 329.029 16.6471 329.224 16.6471Z" fill="white"/>
<path d="M422.476 28.8003C422.476 34.9383 417.5 39.9141 411.362 39.9141H389.356C383.218 39.9141 378.243 34.9383 378.243 28.8003V28.4597C378.243 22.3217 383.218 17.346 389.356 17.346H422.476V28.8003Z" fill="#F52525"/>
<path d="M387.316 31.7328H389.103V26.6522L387.316 27.9197V26.5764L389.146 25.2765H390.403V31.7328H391.865V32.8594H387.316V31.7328ZM395.496 32.9785C395.041 32.9785 394.636 32.928 394.282 32.8269C393.936 32.7186 393.643 32.5705 393.405 32.3827C393.166 32.1877 392.986 31.9603 392.863 31.7003C392.74 31.4331 392.679 31.1406 392.679 30.8228C392.679 30.3895 392.813 30.0068 393.08 29.6746C393.354 29.3351 393.751 29.0932 394.271 28.9488C394.076 28.8838 393.896 28.7971 393.73 28.6888C393.564 28.5805 393.419 28.4505 393.296 28.2988C393.174 28.1472 393.076 27.9811 393.004 27.8005C392.932 27.6127 392.896 27.4105 392.896 27.1939C392.896 26.905 392.953 26.6378 393.069 26.3923C393.185 26.1395 393.351 25.9228 393.567 25.7423C393.791 25.5545 394.062 25.4101 394.38 25.309C394.705 25.2079 395.077 25.1573 395.496 25.1573C395.914 25.1573 396.286 25.2079 396.611 25.309C396.936 25.4101 397.207 25.5545 397.424 25.7423C397.648 25.9228 397.814 26.1395 397.922 26.3923C398.038 26.6378 398.095 26.905 398.095 27.1939C398.095 27.6272 397.965 27.9919 397.705 28.288C397.445 28.5841 397.12 28.8043 396.73 28.9488C397.258 29.1149 397.651 29.3496 397.911 29.6529C398.178 29.9562 398.312 30.3462 398.312 30.8228C398.312 31.1406 398.251 31.4331 398.128 31.7003C398.005 31.9603 397.825 32.1877 397.586 32.3827C397.348 32.5705 397.052 32.7186 396.698 32.8269C396.351 32.928 395.95 32.9785 395.496 32.9785ZM395.496 31.8303C396.008 31.8303 396.387 31.7292 396.633 31.527C396.886 31.3175 397.012 31.0503 397.012 30.7253C397.012 30.357 396.868 30.0645 396.579 29.8479C396.29 29.624 395.929 29.4832 395.496 29.4254C395.062 29.4832 394.701 29.624 394.412 29.8479C394.123 30.0645 393.979 30.357 393.979 30.7253C393.979 31.0503 394.105 31.3175 394.358 31.527C394.618 31.7292 394.997 31.8303 395.496 31.8303ZM395.496 28.4938C395.878 28.436 396.189 28.3133 396.427 28.1255C396.673 27.9377 396.795 27.6597 396.795 27.2914C396.795 26.9664 396.676 26.7209 396.438 26.5548C396.207 26.3887 395.893 26.3056 395.496 26.3056C395.098 26.3056 394.781 26.3887 394.542 26.5548C394.311 26.7136 394.196 26.9592 394.196 27.2914C394.196 27.6597 394.318 27.9377 394.564 28.1255C394.809 28.3133 395.12 28.436 395.496 28.4938ZM402.267 32.9785C401.87 32.9785 401.498 32.9171 401.151 32.7944C400.812 32.6716 400.516 32.4622 400.263 32.1661C400.01 31.8628 399.812 31.462 399.667 30.9637C399.523 30.4581 399.451 29.8262 399.451 29.0679V28.8513C399.451 28.1508 399.523 27.5658 399.667 27.0964C399.812 26.6197 400.01 26.2406 400.263 25.959C400.516 25.6701 400.812 25.4643 401.151 25.3415C401.498 25.2187 401.87 25.1573 402.267 25.1573C402.664 25.1573 403.033 25.2187 403.372 25.3415C403.719 25.4643 404.018 25.6701 404.271 25.959C404.524 26.2406 404.723 26.6197 404.867 27.0964C405.011 27.5658 405.084 28.1508 405.084 28.8513V29.0679C405.084 29.8262 405.011 30.4581 404.867 30.9637C404.723 31.462 404.524 31.8628 404.271 32.1661C404.018 32.4622 403.719 32.6716 403.372 32.7944C403.033 32.9171 402.664 32.9785 402.267 32.9785ZM402.267 31.8519C402.469 31.8519 402.661 31.8122 402.841 31.7328C403.022 31.6533 403.181 31.5125 403.318 31.3103C403.462 31.1009 403.574 30.8156 403.654 30.4545C403.74 30.0934 403.784 29.6312 403.784 29.0679V28.8513C403.784 28.3458 403.74 27.9269 403.654 27.5947C403.574 27.2625 403.462 26.9989 403.318 26.8039C403.181 26.6089 403.022 26.4753 402.841 26.4031C402.661 26.3237 402.469 26.2839 402.267 26.2839C402.065 26.2839 401.874 26.3237 401.693 26.4031C401.513 26.4753 401.35 26.6089 401.206 26.8039C401.068 26.9989 400.956 27.2625 400.87 27.5947C400.79 27.9269 400.751 28.3458 400.751 28.8513V29.0679C400.751 29.6312 400.79 30.0934 400.87 30.4545C400.956 30.8156 401.068 31.1009 401.206 31.3103C401.35 31.5125 401.513 31.6533 401.693 31.7328C401.874 31.8122 402.065 31.8519 402.267 31.8519ZM412.178 25.2765H413.478L408.278 32.8594H406.978L412.178 25.2765ZM407.736 28.8621C407.469 28.8621 407.224 28.8188 407 28.7321C406.783 28.6455 406.595 28.5227 406.437 28.3638C406.285 28.2049 406.166 28.0172 406.079 27.8005C405.992 27.5766 405.949 27.3311 405.949 27.0639V26.9556C405.949 26.6884 405.992 26.4464 406.079 26.2298C406.166 26.0059 406.285 25.8145 406.437 25.6556C406.595 25.4968 406.783 25.374 407 25.2873C407.224 25.2007 407.469 25.1573 407.736 25.1573C408.004 25.1573 408.246 25.2007 408.462 25.2873C408.679 25.374 408.867 25.4968 409.026 25.6556C409.184 25.8145 409.307 26.0059 409.394 26.2298C409.481 26.4464 409.524 26.6884 409.524 26.9556V27.0639C409.524 27.3311 409.481 27.5766 409.394 27.8005C409.307 28.0172 409.184 28.2049 409.026 28.3638C408.867 28.5227 408.679 28.6455 408.462 28.7321C408.246 28.8188 408.004 28.8621 407.736 28.8621ZM407.736 27.8872C407.931 27.8872 408.087 27.8222 408.202 27.6922C408.318 27.5622 408.376 27.3528 408.376 27.0639V26.9556C408.376 26.6667 408.318 26.4573 408.202 26.3273C408.087 26.1973 407.931 26.1323 407.736 26.1323C407.541 26.1323 407.386 26.1973 407.271 26.3273C407.155 26.4573 407.097 26.6667 407.097 26.9556V27.0639C407.097 27.3528 407.155 27.5622 407.271 27.6922C407.386 27.8222 407.541 27.8872 407.736 27.8872ZM412.719 32.9677C412.452 32.9677 412.207 32.9244 411.983 32.8377C411.766 32.751 411.578 32.6283 411.42 32.4694C411.268 32.3105 411.149 32.1228 411.062 31.9061C410.975 31.6822 410.932 31.4367 410.932 31.1695V31.0611C410.932 30.7939 410.975 30.552 411.062 30.3354C411.149 30.1115 411.268 29.9201 411.42 29.7612C411.578 29.6023 411.766 29.4796 411.983 29.3929C412.207 29.3063 412.452 29.2629 412.719 29.2629C412.987 29.2629 413.229 29.3063 413.445 29.3929C413.662 29.4796 413.85 29.6023 414.009 29.7612C414.167 29.9201 414.29 30.1115 414.377 30.3354C414.464 30.552 414.507 30.7939 414.507 31.0611V31.1695C414.507 31.4367 414.464 31.6822 414.377 31.9061C414.29 32.1228 414.167 32.3105 414.009 32.4694C413.85 32.6283 413.662 32.751 413.445 32.8377C413.229 32.9244 412.987 32.9677 412.719 32.9677ZM412.719 31.9928C412.914 31.9928 413.07 31.9278 413.185 31.7978C413.301 31.6678 413.359 31.4583 413.359 31.1695V31.0611C413.359 30.7723 413.301 30.5628 413.185 30.4329C413.07 30.3029 412.914 30.2379 412.719 30.2379C412.524 30.2379 412.369 30.3029 412.254 30.4329C412.138 30.5628 412.08 30.7723 412.08 31.0611V31.1695C412.08 31.4583 412.138 31.6678 412.254 31.7978C412.369 31.9278 412.524 31.9928 412.719 31.9928Z" fill="white"/>
<path d="M83.0527 115.459C83.0527 121.596 88.0285 126.572 94.1665 126.572H111.659C117.797 126.572 122.773 121.596 122.773 115.459V115.118C122.773 108.98 117.797 104.004 111.659 104.004H83.0527V115.459Z" fill="#F52525"/>
<path d="M89.8509 118.391H91.6383V113.31L89.8509 114.578V113.235L91.6816 111.935H92.9382V118.391H94.4006V119.518H89.8509V118.391ZM98.085 119.637C97.6878 119.637 97.3159 119.575 96.9693 119.453C96.6298 119.33 96.3337 119.12 96.081 118.824C95.8282 118.521 95.6296 118.12 95.4852 117.622C95.3407 117.116 95.2685 116.484 95.2685 115.726V115.509C95.2685 114.809 95.3407 114.224 95.4852 113.755C95.6296 113.278 95.8282 112.899 96.081 112.617C96.3337 112.328 96.6298 112.122 96.9693 112C97.3159 111.877 97.6878 111.816 98.085 111.816C98.4822 111.816 98.8505 111.877 99.19 112C99.5366 112.122 99.8363 112.328 100.089 112.617C100.342 112.899 100.54 113.278 100.685 113.755C100.829 114.224 100.902 114.809 100.902 115.509V115.726C100.902 116.484 100.829 117.116 100.685 117.622C100.54 118.12 100.342 118.521 100.089 118.824C99.8363 119.12 99.5366 119.33 99.19 119.453C98.8505 119.575 98.4822 119.637 98.085 119.637ZM98.085 118.51C98.2872 118.51 98.4786 118.47 98.6592 118.391C98.8397 118.312 98.9986 118.171 99.1358 117.969C99.2802 117.759 99.3922 117.474 99.4716 117.113C99.5583 116.752 99.6016 116.289 99.6016 115.726V115.509C99.6016 115.004 99.5583 114.585 99.4716 114.253C99.3922 113.921 99.2802 113.657 99.1358 113.462C98.9986 113.267 98.8397 113.134 98.6592 113.061C98.4786 112.982 98.2872 112.942 98.085 112.942C97.8828 112.942 97.6914 112.982 97.5109 113.061C97.3303 113.134 97.1679 113.267 97.0234 113.462C96.8862 113.657 96.7743 113.921 96.6876 114.253C96.6082 114.585 96.5684 115.004 96.5684 115.509V115.726C96.5684 116.289 96.6082 116.752 96.6876 117.113C96.7743 117.474 96.8862 117.759 97.0234 117.969C97.1679 118.171 97.3303 118.312 97.5109 118.391C97.6914 118.47 97.8828 118.51 98.085 118.51ZM104.908 119.637C104.511 119.637 104.139 119.575 103.793 119.453C103.453 119.33 103.157 119.12 102.904 118.824C102.652 118.521 102.453 118.12 102.308 117.622C102.164 117.116 102.092 116.484 102.092 115.726V115.509C102.092 114.809 102.164 114.224 102.308 113.755C102.453 113.278 102.652 112.899 102.904 112.617C103.157 112.328 103.453 112.122 103.793 112C104.139 111.877 104.511 111.816 104.908 111.816C105.306 111.816 105.674 111.877 106.013 112C106.36 112.122 106.66 112.328 106.912 112.617C107.165 112.899 107.364 113.278 107.508 113.755C107.653 114.224 107.725 114.809 107.725 115.509V115.726C107.725 116.484 107.653 117.116 107.508 117.622C107.364 118.12 107.165 118.521 106.912 118.824C106.66 119.12 106.36 119.33 106.013 119.453C105.674 119.575 105.306 119.637 104.908 119.637ZM104.908 118.51C105.111 118.51 105.302 118.47 105.482 118.391C105.663 118.312 105.822 118.171 105.959 117.969C106.104 117.759 106.215 117.474 106.295 117.113C106.382 116.752 106.425 116.289 106.425 115.726V115.509C106.425 115.004 106.382 114.585 106.295 114.253C106.215 113.921 106.104 113.657 105.959 113.462C105.822 113.267 105.663 113.134 105.482 113.061C105.302 112.982 105.111 112.942 104.908 112.942C104.706 112.942 104.515 112.982 104.334 113.061C104.154 113.134 103.991 113.267 103.847 113.462C103.71 113.657 103.598 113.921 103.511 114.253C103.431 114.585 103.392 115.004 103.392 115.509V115.726C103.392 116.289 103.431 116.752 103.511 117.113C103.598 117.474 103.71 117.759 103.847 117.969C103.991 118.171 104.154 118.312 104.334 118.391C104.515 118.47 104.706 118.51 104.908 118.51ZM114.819 111.935H116.119L110.919 119.518H109.619L114.819 111.935ZM110.378 115.52C110.11 115.52 109.865 115.477 109.641 115.39C109.424 115.304 109.237 115.181 109.078 115.022C108.926 114.863 108.807 114.675 108.72 114.459C108.634 114.235 108.59 113.989 108.59 113.722V113.614C108.59 113.347 108.634 113.105 108.72 112.888C108.807 112.664 108.926 112.473 109.078 112.314C109.237 112.155 109.424 112.032 109.641 111.946C109.865 111.859 110.11 111.816 110.378 111.816C110.645 111.816 110.887 111.859 111.103 111.946C111.32 112.032 111.508 112.155 111.667 112.314C111.826 112.473 111.948 112.664 112.035 112.888C112.122 113.105 112.165 113.347 112.165 113.614V113.722C112.165 113.989 112.122 114.235 112.035 114.459C111.948 114.675 111.826 114.863 111.667 115.022C111.508 115.181 111.32 115.304 111.103 115.39C110.887 115.477 110.645 115.52 110.378 115.52ZM110.378 114.545C110.573 114.545 110.728 114.48 110.843 114.35C110.959 114.22 111.017 114.011 111.017 113.722V113.614C111.017 113.325 110.959 113.115 110.843 112.985C110.728 112.855 110.573 112.79 110.378 112.79C110.183 112.79 110.027 112.855 109.912 112.985C109.796 113.115 109.738 113.325 109.738 113.614V113.722C109.738 114.011 109.796 114.22 109.912 114.35C110.027 114.48 110.183 114.545 110.378 114.545ZM115.361 119.626C115.093 119.626 114.848 119.583 114.624 119.496C114.407 119.409 114.22 119.286 114.061 119.128C113.909 118.969 113.79 118.781 113.703 118.564C113.617 118.34 113.573 118.095 113.573 117.828V117.719C113.573 117.452 113.617 117.21 113.703 116.994C113.79 116.77 113.909 116.578 114.061 116.419C114.22 116.261 114.407 116.138 114.624 116.051C114.848 115.964 115.093 115.921 115.361 115.921C115.628 115.921 115.87 115.964 116.086 116.051C116.303 116.138 116.491 116.261 116.65 116.419C116.809 116.578 116.931 116.77 117.018 116.994C117.105 117.21 117.148 117.452 117.148 117.719V117.828C117.148 118.095 117.105 118.34 117.018 118.564C116.931 118.781 116.809 118.969 116.65 119.128C116.491 119.286 116.303 119.409 116.086 119.496C115.87 119.583 115.628 119.626 115.361 119.626ZM115.361 118.651C115.556 118.651 115.711 118.586 115.826 118.456C115.942 118.326 116 118.117 116 117.828V117.719C116 117.43 115.942 117.221 115.826 117.091C115.711 116.961 115.556 116.896 115.361 116.896C115.166 116.896 115.01 116.961 114.895 117.091C114.779 117.221 114.721 117.43 114.721 117.719V117.828C114.721 118.117 114.779 118.326 114.895 118.456C115.01 118.586 115.166 118.651 115.361 118.651Z" fill="white"/>
</svg>
