<svg width="18" height="11" viewBox="0 0 18 11" fill="none" xmlns="http://www.w3.org/2000/svg">
<path d="M17.2531 2.35673L9.63481 9.99766C9.54412 10.0884 9.44587 10.1524 9.34006 10.1899C9.23425 10.228 9.12088 10.2471 8.99996 10.2471C8.87903 10.2471 8.76567 10.228 8.65986 10.1899C8.55405 10.1524 8.4558 10.0884 8.3651 9.99766L0.724166 2.35673C0.512547 2.14511 0.406738 1.88058 0.406738 1.56316C0.406738 1.24573 0.520105 0.973648 0.746839 0.746915C0.973573 0.520181 1.2381 0.406814 1.54041 0.406814C1.84272 0.406814 2.10724 0.520181 2.33398 0.746915L8.99996 7.41289L15.6659 0.746915C15.8776 0.535296 16.1382 0.429486 16.4477 0.429486C16.7579 0.429486 17.0263 0.542853 17.2531 0.769588C17.4798 0.996322 17.5932 1.26084 17.5932 1.56316C17.5932 1.86547 17.4798 2.12999 17.2531 2.35673Z" fill="#999999"/>
</svg>
