<svg width="58" height="54" viewBox="0 0 58 54" fill="none" xmlns="http://www.w3.org/2000/svg">
<g opacity="0.8">
<circle cx="6.61644" cy="2.77513" r="0.7849" fill="#4F4F4F"/>
<circle cx="6.61644" cy="9.05638" r="0.7849" fill="#4F4F4F"/>
<circle cx="6.61644" cy="15.3337" r="0.7849" fill="#4F4F4F"/>
<circle cx="6.61644" cy="21.615" r="0.7849" fill="#4F4F4F"/>
<circle cx="6.61644" cy="27.8943" r="0.7849" fill="#4F4F4F"/>
<circle cx="6.61644" cy="34.1716" r="0.7849" fill="#4F4F4F"/>
<circle cx="6.61644" cy="40.4529" r="0.7849" fill="#4F4F4F"/>
<circle cx="6.61644" cy="46.7322" r="0.7849" fill="#4F4F4F"/>
<circle cx="6.61644" cy="53.0095" r="0.7849" fill="#4F4F4F"/>
<circle cx="0.340564" cy="2.77513" r="0.7849" fill="#4F4F4F"/>
<circle cx="0.340564" cy="9.05638" r="0.7849" fill="#4F4F4F"/>
<circle cx="0.340564" cy="15.3337" r="0.7849" fill="#4F4F4F"/>
<circle cx="0.340564" cy="21.615" r="0.7849" fill="#4F4F4F"/>
<circle cx="0.340564" cy="27.8943" r="0.7849" fill="#4F4F4F"/>
<circle cx="0.340564" cy="34.1716" r="0.7849" fill="#4F4F4F"/>
<circle cx="0.340564" cy="40.4529" r="0.7849" fill="#4F4F4F"/>
<circle cx="0.340564" cy="46.7322" r="0.7849" fill="#4F4F4F"/>
<circle cx="0.340564" cy="53.0095" r="0.7849" fill="#4F4F4F"/>
<circle cx="12.8962" cy="2.77513" r="0.7849" fill="#4F4F4F"/>
<circle cx="12.8962" cy="9.05638" r="0.7849" fill="#4F4F4F"/>
<circle cx="12.8962" cy="15.3337" r="0.7849" fill="#4F4F4F"/>
<circle cx="12.8962" cy="21.615" r="0.7849" fill="#4F4F4F"/>
<circle cx="12.8962" cy="27.8943" r="0.7849" fill="#4F4F4F"/>
<circle cx="12.8962" cy="34.1716" r="0.7849" fill="#4F4F4F"/>
<circle cx="12.8962" cy="40.4529" r="0.7849" fill="#4F4F4F"/>
<circle cx="12.8962" cy="46.7322" r="0.7849" fill="#4F4F4F"/>
<circle cx="12.8962" cy="53.0095" r="0.7849" fill="#4F4F4F"/>
<circle cx="25.4558" cy="2.77513" r="0.7849" fill="#4F4F4F"/>
<circle cx="25.4558" cy="9.05638" r="0.7849" fill="#4F4F4F"/>
<circle cx="25.4558" cy="15.3337" r="0.7849" fill="#4F4F4F"/>
<circle cx="25.4558" cy="21.615" r="0.7849" fill="#4F4F4F"/>
<circle cx="25.4558" cy="27.8943" r="0.7849" fill="#4F4F4F"/>
<circle cx="25.4558" cy="34.1716" r="0.7849" fill="#4F4F4F"/>
<circle cx="25.4558" cy="40.4529" r="0.7849" fill="#4F4F4F"/>
<circle cx="25.4558" cy="46.7322" r="0.7849" fill="#4F4F4F"/>
<circle cx="25.4558" cy="53.0095" r="0.7849" fill="#4F4F4F"/>
<circle cx="19.178" cy="2.77513" r="0.7849" fill="#4F4F4F"/>
<circle cx="19.178" cy="9.05638" r="0.7849" fill="#4F4F4F"/>
<circle cx="19.178" cy="15.3337" r="0.7849" fill="#4F4F4F"/>
<circle cx="19.178" cy="21.615" r="0.7849" fill="#4F4F4F"/>
<circle cx="19.178" cy="27.8943" r="0.7849" fill="#4F4F4F"/>
<circle cx="19.178" cy="34.1716" r="0.7849" fill="#4F4F4F"/>
<circle cx="19.178" cy="40.4529" r="0.7849" fill="#4F4F4F"/>
<circle cx="19.178" cy="46.7322" r="0.7849" fill="#4F4F4F"/>
<circle cx="19.178" cy="53.0095" r="0.7849" fill="#4F4F4F"/>
<circle cx="31.7356" cy="2.77513" r="0.7849" fill="#4F4F4F"/>
<circle cx="31.7356" cy="9.05638" r="0.7849" fill="#4F4F4F"/>
<circle cx="31.7356" cy="15.3337" r="0.7849" fill="#4F4F4F"/>
<circle cx="31.7356" cy="21.615" r="0.7849" fill="#4F4F4F"/>
<circle cx="31.7356" cy="27.8943" r="0.7849" fill="#4F4F4F"/>
<circle cx="31.7356" cy="34.1716" r="0.7849" fill="#4F4F4F"/>
<circle cx="31.7356" cy="40.4529" r="0.7849" fill="#4F4F4F"/>
<circle cx="31.7356" cy="46.7322" r="0.7849" fill="#4F4F4F"/>
<circle cx="31.7356" cy="53.0095" r="0.7849" fill="#4F4F4F"/>
<circle cx="44.2927" cy="2.77513" r="0.7849" fill="#4F4F4F"/>
<circle cx="44.2927" cy="9.05638" r="0.7849" fill="#4F4F4F"/>
<circle cx="44.2927" cy="15.3337" r="0.7849" fill="#4F4F4F"/>
<circle cx="44.2927" cy="21.615" r="0.7849" fill="#4F4F4F"/>
<circle cx="44.2927" cy="27.8943" r="0.7849" fill="#4F4F4F"/>
<circle cx="44.2927" cy="34.1716" r="0.7849" fill="#4F4F4F"/>
<circle cx="44.2927" cy="40.4529" r="0.7849" fill="#4F4F4F"/>
<circle cx="44.2927" cy="46.7322" r="0.7849" fill="#4F4F4F"/>
<circle cx="44.2927" cy="53.0095" r="0.7849" fill="#4F4F4F"/>
<circle cx="38.0134" cy="2.77513" r="0.7849" fill="#4F4F4F"/>
<circle cx="38.0134" cy="9.05638" r="0.7849" fill="#4F4F4F"/>
<circle cx="38.0134" cy="15.3337" r="0.7849" fill="#4F4F4F"/>
<circle cx="38.0134" cy="21.615" r="0.7849" fill="#4F4F4F"/>
<circle cx="38.0134" cy="27.8943" r="0.7849" fill="#4F4F4F"/>
<circle cx="38.0134" cy="34.1716" r="0.7849" fill="#4F4F4F"/>
<circle cx="38.0134" cy="40.4529" r="0.7849" fill="#4F4F4F"/>
<circle cx="38.0134" cy="46.7322" r="0.7849" fill="#4F4F4F"/>
<circle cx="38.0134" cy="53.0095" r="0.7849" fill="#4F4F4F"/>
<circle cx="50.5745" cy="2.77513" r="0.7849" fill="#4F4F4F"/>
<circle cx="50.5745" cy="9.05638" r="0.7849" fill="#4F4F4F"/>
<circle cx="50.5745" cy="15.3337" r="0.7849" fill="#4F4F4F"/>
<circle cx="50.5745" cy="21.615" r="0.7849" fill="#4F4F4F"/>
<circle cx="50.5745" cy="27.8943" r="0.7849" fill="#4F4F4F"/>
<circle cx="50.5745" cy="34.1716" r="0.7849" fill="#4F4F4F"/>
<circle cx="50.5745" cy="40.4529" r="0.7849" fill="#4F4F4F"/>
<circle cx="50.5745" cy="46.7322" r="0.7849" fill="#4F4F4F"/>
<circle cx="50.5745" cy="53.0095" r="0.7849" fill="#4F4F4F"/>
<circle cx="56.8503" cy="2.77513" r="0.7849" fill="#4F4F4F"/>
<circle cx="56.8503" cy="9.05638" r="0.7849" fill="#4F4F4F"/>
<circle cx="56.8503" cy="15.3337" r="0.7849" fill="#4F4F4F"/>
<circle cx="56.8503" cy="21.615" r="0.7849" fill="#4F4F4F"/>
<circle cx="56.8503" cy="27.8943" r="0.7849" fill="#4F4F4F"/>
<circle cx="56.8503" cy="34.1716" r="0.7849" fill="#4F4F4F"/>
<circle cx="56.8503" cy="40.4529" r="0.7849" fill="#4F4F4F"/>
<circle cx="56.8503" cy="46.7322" r="0.7849" fill="#4F4F4F"/>
<circle cx="56.8503" cy="53.0095" r="0.7849" fill="#4F4F4F"/>
</g>
</svg>
