<svg width="84" height="35" viewBox="0 0 84 35" fill="none" xmlns="http://www.w3.org/2000/svg">
<rect x="14" y="10.001" width="70" height="25" rx="12.5" fill="#BA63FE" fill-opacity="0.5"/>
<path d="M5.50353 7.08826C5.30129 6.37329 5.9218 5.69527 6.65186 5.83353L15.4313 7.49626C16.201 7.64203 16.5118 8.57605 15.9829 9.15393L9.63567 16.0893C9.1068 16.6672 8.14896 16.4402 7.93573 15.6864L5.50353 7.08826Z" fill="#BA63FE" fill-opacity="0.5"/>
<path d="M21.5 17.5H28.25V18.73H22.91V21.985H27.8V23.215H22.91V26.77H28.25V28H21.5V17.5ZM32.4738 28.15C32.0338 28.15 31.6438 28.09 31.3038 27.97C30.9738 27.84 30.6938 27.665 30.4638 27.445C30.2338 27.225 30.0588 26.965 29.9388 26.665C29.8188 26.365 29.7588 26.035 29.7588 25.675C29.7588 24.885 29.9888 24.315 30.4488 23.965C30.9188 23.615 31.5888 23.44 32.4588 23.44H35.0388V22.9C35.0388 22.22 34.8838 21.75 34.5738 21.49C34.2738 21.23 33.8188 21.1 33.2088 21.1C32.6388 21.1 32.2238 21.21 31.9638 21.43C31.7038 21.64 31.5588 21.88 31.5288 22.15H30.2088C30.2288 21.83 30.3138 21.535 30.4638 21.265C30.6238 20.985 30.8338 20.745 31.0938 20.545C31.3638 20.345 31.6838 20.19 32.0538 20.08C32.4238 19.96 32.8338 19.9 33.2838 19.9C34.2238 19.9 34.9688 20.125 35.5188 20.575C36.0788 21.015 36.3588 21.74 36.3588 22.75V25.975C36.3588 26.395 36.3588 26.765 36.3588 27.085C36.3688 27.395 36.3938 27.7 36.4338 28H35.2788C35.2488 27.77 35.2288 27.555 35.2188 27.355C35.2088 27.145 35.2038 26.91 35.2038 26.65C34.9938 27.07 34.6538 27.425 34.1838 27.715C33.7138 28.005 33.1438 28.15 32.4738 28.15ZM32.7588 26.95C33.0688 26.95 33.3588 26.91 33.6288 26.83C33.9088 26.74 34.1538 26.615 34.3638 26.455C34.5738 26.285 34.7388 26.08 34.8588 25.84C34.9788 25.6 35.0388 25.32 35.0388 25V24.46H32.6838C32.1938 24.46 31.8088 24.56 31.5288 24.76C31.2488 24.95 31.1088 25.255 31.1088 25.675C31.1088 26.045 31.2388 26.35 31.4988 26.59C31.7688 26.83 32.1888 26.95 32.7588 26.95ZM41.4652 28.15C40.9352 28.15 40.4752 28.09 40.0852 27.97C39.7052 27.84 39.3802 27.67 39.1102 27.46C38.8402 27.25 38.6302 27.005 38.4802 26.725C38.3302 26.445 38.2252 26.145 38.1652 25.825H39.4852C39.5552 26.145 39.7402 26.425 40.0402 26.665C40.3502 26.895 40.8252 27.01 41.4652 27.01C41.8352 27.01 42.1452 26.98 42.3952 26.92C42.6452 26.85 42.8452 26.765 42.9952 26.665C43.1552 26.555 43.2702 26.43 43.3402 26.29C43.4102 26.14 43.4452 25.985 43.4452 25.825C43.4452 25.655 43.4102 25.505 43.3402 25.375C43.2802 25.245 43.1652 25.13 42.9952 25.03C42.8352 24.92 42.6102 24.825 42.3202 24.745C42.0402 24.655 41.6852 24.58 41.2552 24.52C40.8152 24.46 40.4152 24.375 40.0552 24.265C39.7052 24.145 39.4052 23.99 39.1552 23.8C38.9152 23.61 38.7252 23.385 38.5852 23.125C38.4552 22.855 38.3902 22.53 38.3902 22.15C38.3902 21.85 38.4552 21.565 38.5852 21.295C38.7152 21.025 38.9102 20.785 39.1702 20.575C39.4302 20.365 39.7502 20.2 40.1302 20.08C40.5102 19.96 40.9552 19.9 41.4652 19.9C41.9352 19.9 42.3452 19.965 42.6952 20.095C43.0452 20.215 43.3402 20.38 43.5802 20.59C43.8302 20.8 44.0252 21.045 44.1652 21.325C44.3052 21.605 44.4052 21.905 44.4652 22.225H43.1452C43.0652 21.875 42.8952 21.59 42.6352 21.37C42.3752 21.15 41.9852 21.04 41.4652 21.04C40.8152 21.04 40.3602 21.15 40.1002 21.37C39.8402 21.58 39.7102 21.84 39.7102 22.15C39.7102 22.33 39.7402 22.485 39.8002 22.615C39.8702 22.745 39.9802 22.86 40.1302 22.96C40.2902 23.06 40.4952 23.145 40.7452 23.215C41.0052 23.275 41.3252 23.33 41.7052 23.38C42.1952 23.44 42.6302 23.53 43.0102 23.65C43.3902 23.76 43.7102 23.915 43.9702 24.115C44.2302 24.305 44.4252 24.54 44.5552 24.82C44.6952 25.1 44.7652 25.435 44.7652 25.825C44.7652 26.145 44.6952 26.445 44.5552 26.725C44.4252 27.005 44.2252 27.25 43.9552 27.46C43.6852 27.67 43.3402 27.84 42.9202 27.97C42.5102 28.09 42.0252 28.15 41.4652 28.15ZM47.6943 31.15C47.5443 31.15 47.3943 31.135 47.2443 31.105V29.905C47.3943 29.935 47.5443 29.95 47.6943 29.95C47.8443 29.95 47.9743 29.925 48.0843 29.875C48.1943 29.825 48.2993 29.73 48.3993 29.59C48.4993 29.45 48.6043 29.25 48.7143 28.99C48.8343 28.74 48.9693 28.41 49.1193 28L45.7443 20.05H47.2143L49.7943 26.5L52.1343 20.05H53.5443L50.5443 28C50.3343 28.56 50.1343 29.04 49.9443 29.44C49.7543 29.84 49.5493 30.165 49.3293 30.415C49.1193 30.675 48.8843 30.86 48.6243 30.97C48.3643 31.09 48.0543 31.15 47.6943 31.15ZM59.3129 28.15C58.6829 28.15 58.1129 28.06 57.6029 27.88C57.1029 27.7 56.6729 27.425 56.3129 27.055C55.9529 26.685 55.6729 26.22 55.4729 25.66C55.2829 25.09 55.1879 24.42 55.1879 23.65V17.5H56.5979V23.65C56.5979 24.79 56.8379 25.615 57.3179 26.125C57.7979 26.635 58.4629 26.89 59.3129 26.89C60.1629 26.89 60.8279 26.635 61.3079 26.125C61.7879 25.615 62.0279 24.79 62.0279 23.65V17.5H63.4379V23.65C63.4379 24.42 63.3379 25.09 63.1379 25.66C62.9479 26.22 62.6729 26.685 62.3129 27.055C61.9529 27.425 61.5179 27.7 61.0079 27.88C60.5079 28.06 59.9429 28.15 59.3129 28.15ZM66.2949 17.5H67.7649L71.2749 24.175L74.7849 17.5H76.1949V28H74.7849V20.05L71.7699 25.75H70.7199L67.7049 20.05V28H66.2949V17.5Z" fill="#8C1FE2"/>
</svg>
