<svg width="13" height="8" viewBox="0 0 13 8" fill="none" xmlns="http://www.w3.org/2000/svg">
<path d="M12.1564 1.84384L6.92156 7.09425C6.85924 7.15657 6.79173 7.20061 6.71902 7.22636C6.64631 7.25254 6.56841 7.26562 6.48532 7.26562C6.40223 7.26562 6.32433 7.25254 6.25162 7.22636C6.17892 7.20061 6.11141 7.15657 6.04909 7.09425L0.798684 1.84384C0.653272 1.69843 0.580566 1.51667 0.580566 1.29855C0.580566 1.08043 0.658466 0.893475 0.814264 0.737677C0.970062 0.581878 1.15183 0.503979 1.35956 0.503979C1.56729 0.503979 1.74905 0.581878 1.90485 0.737677L6.48532 5.31815L11.0658 0.737677C11.2112 0.592265 11.3903 0.519559 11.603 0.519559C11.8161 0.519559 12.0006 0.597458 12.1564 0.753256C12.3122 0.909054 12.3901 1.09082 12.3901 1.29855C12.3901 1.50628 12.3122 1.68805 12.1564 1.84384Z" fill="#4F4F4F"/>
</svg>
