<svg width="22" height="22" viewBox="0 0 22 22" fill="none" xmlns="http://www.w3.org/2000/svg">
<path d="M18.1999 3.79585C17.2636 2.85485 16.1484 2.10875 14.9193 1.60107C13.6902 1.0934 12.3718 0.834315 11.041 0.838928C5.46506 0.838928 0.920566 5.36069 0.920566 10.9087C0.920566 12.687 1.39033 14.4144 2.2686 15.9386L0.838867 21.1614L6.20035 19.7592C7.68114 20.5619 9.34576 20.9887 11.041 20.9887C16.617 20.9887 21.1614 16.4669 21.1614 10.9189C21.1614 8.22616 20.1096 5.69601 18.1999 3.79585ZM11.041 19.2816C9.52958 19.2816 8.04879 18.8752 6.75182 18.1131L6.44545 17.9302L3.25919 18.7634L4.10682 15.6744L3.90257 15.3594C3.06286 14.0252 2.61698 12.483 2.61582 10.9087C2.61582 6.29552 6.39439 2.53586 11.0308 2.53586C13.2775 2.53586 15.3915 3.40973 16.9744 4.99488C17.7582 5.77117 18.3793 6.69452 18.8018 7.71142C19.2243 8.72832 19.4397 9.81854 19.4356 10.9189C19.456 15.5321 15.6774 19.2816 11.041 19.2816ZM15.657 13.0223C15.4017 12.9003 14.1558 12.2907 13.9311 12.1992C13.6962 12.1179 13.5328 12.0773 13.3592 12.3212C13.1856 12.5752 12.7056 13.1442 12.5626 13.3068C12.4197 13.4795 12.2665 13.4999 12.0112 13.3678C11.7559 13.2458 10.9389 12.9715 9.97892 12.1179C9.22321 11.4473 8.7228 10.6242 8.56962 10.3702C8.42664 10.1162 8.54919 9.98406 8.68195 9.85196C8.79429 9.74019 8.93726 9.55729 9.05981 9.41503C9.18236 9.27277 9.23342 9.161 9.31512 8.99842C9.39682 8.82568 9.35597 8.68342 9.29469 8.56149C9.23342 8.43955 8.7228 7.19988 8.51855 6.69181C8.31431 6.20407 8.09985 6.26504 7.94666 6.25488H7.45647C7.28286 6.25488 7.01734 6.31585 6.78246 6.56988C6.55778 6.82391 5.90419 7.43359 5.90419 8.67326C5.90419 9.91293 6.81309 11.112 6.93564 11.2745C7.05819 11.4473 8.7228 13.9876 11.2555 15.0749C11.858 15.339 12.3278 15.4915 12.6954 15.6032C13.2979 15.7963 13.8494 15.7658 14.2885 15.7049C14.7787 15.6337 15.7897 15.0952 15.994 14.5058C16.2085 13.9165 16.2085 13.4186 16.137 13.3068C16.0655 13.195 15.9123 13.1442 15.657 13.0223Z" fill="#F4F7FF"/>
</svg>
