<svg width="80" height="62" viewBox="0 0 80 62" fill="none" xmlns="http://www.w3.org/2000/svg">
<path d="M67.7572 17.2187C67.4261 15.9888 66.7778 14.8674 65.8771 13.9667C64.9765 13.0661 63.8551 12.4178 62.6251 12.0867C58.0957 10.8608 39.8946 10.8608 39.8946 10.8608C39.8946 10.8608 21.6936 10.8608 17.1641 12.0867C15.9342 12.4178 14.8128 13.0661 13.9121 13.9667C13.0115 14.8674 12.3632 15.9888 12.0321 17.2187C11.1864 21.8381 10.7759 26.5267 10.8063 31.2227C10.7759 35.9188 11.1864 40.6073 12.0321 45.2267C12.3632 46.4566 13.0115 47.578 13.9121 48.4787C14.8128 49.3794 15.9342 50.0277 17.1641 50.3587C21.6936 51.5846 39.8946 51.5846 39.8946 51.5846C39.8946 51.5846 58.0957 51.5846 62.6251 50.3587C63.8551 50.0277 64.9765 49.3794 65.8771 48.4787C66.7778 47.578 67.4261 46.4566 67.7572 45.2267C68.6029 40.6073 69.0133 35.9188 68.983 31.2227C69.0133 26.5267 68.6029 21.8381 67.7572 17.2187ZM34.077 39.9492V22.4962L49.1821 31.2227L34.077 39.9492Z" fill="#F52525"/>
<path d="M33.7907 22.4244L49.2134 31.2354L33.8657 40.1864L33.7907 22.4244Z" fill="white"/>
</svg>
