<svg width="3" height="9" viewBox="0 0 3 9" fill="none" xmlns="http://www.w3.org/2000/svg">
<path d="M2.67421 3.17656L0.595211 3.43712L0.520962 3.78225L0.930024 3.8565C1.19609 3.92044 1.24902 4.016 1.19127 4.28206L0.520962 7.42875C0.345649 8.24206 0.617211 8.625 1.25452 8.625C1.74952 8.625 2.3229 8.39675 2.58346 8.08256L2.66321 7.70512C2.4824 7.86462 2.21634 7.92856 2.04102 7.92856C1.79146 7.92856 1.7014 7.75325 1.76465 7.44456L2.67421 3.17656ZM2.73677 1.2825C2.73677 1.52318 2.64116 1.75401 2.47097 1.9242C2.30078 2.09439 2.06996 2.19 1.82927 2.19C1.58859 2.19 1.35776 2.09439 1.18757 1.9242C1.01739 1.75401 0.921774 1.52318 0.921774 1.2825C0.921774 1.04182 1.01739 0.81099 1.18757 0.640801C1.35776 0.470611 1.58859 0.375 1.82927 0.375C2.06996 0.375 2.30078 0.470611 2.47097 0.640801C2.64116 0.81099 2.73677 1.04182 2.73677 1.2825Z" fill="#337CFC"/>
</svg>
