<svg width="13" height="13" viewBox="0 0 13 13" fill="none" xmlns="http://www.w3.org/2000/svg">
<path d="M0.46553 6.59151C0.458538 7.81012 0.813063 9.00344 1.48427 10.0206C2.15549 11.0377 3.11324 11.8329 4.23641 12.3057C5.35959 12.7785 6.59774 12.9077 7.79431 12.6768C8.99087 12.4459 10.0921 11.8654 10.9587 11.0086C11.8254 10.1519 12.4185 9.05741 12.6631 7.86357C12.9077 6.66974 12.7928 5.43018 12.3329 4.30166C11.873 3.17313 11.0888 2.20631 10.0794 1.52348C9.07009 0.840636 7.88092 0.472439 6.6623 0.465447C5.02914 0.459208 3.46004 1.10038 2.29861 2.24856C1.13717 3.39675 0.478033 4.95838 0.46553 6.59151ZM11.8405 6.65678C11.8345 7.68791 11.523 8.69414 10.9452 9.54821C10.3674 10.4023 9.54934 11.0658 8.59443 11.455C7.63952 11.8441 6.59067 11.9413 5.5805 11.7344C4.57034 11.5274 3.64423 11.0255 2.91929 10.2922C2.19435 9.55891 1.70314 8.6271 1.50778 7.61463C1.31242 6.60215 1.42168 5.55448 1.82174 4.6041C2.22181 3.65372 2.89471 2.84332 3.75535 2.27537C4.616 1.70742 5.62573 1.40744 6.65686 1.41336C8.03908 1.42286 9.36109 1.98024 10.3329 2.96323C11.3046 3.94622 11.8468 5.27454 11.8405 6.65678ZM6.6487 2.83522C6.7744 2.83594 6.89467 2.88657 6.98304 2.97596C7.07142 3.06536 7.12066 3.1862 7.11994 3.3119L7.10746 5.48617L8.65073 3.95462C8.7411 3.86613 8.86275 3.8169 8.98922 3.81763C9.1157 3.81835 9.23677 3.86898 9.32612 3.95849C9.4132 4.04959 9.46147 4.17095 9.46074 4.29697C9.46002 4.42298 9.41036 4.54379 9.32224 4.63388L6.9627 6.96649C6.8709 7.05242 6.74997 7.10041 6.62423 7.10082C6.49853 7.1001 6.37826 7.04947 6.28989 6.96008C6.20151 6.87068 6.15227 6.74985 6.15299 6.62414L6.17203 3.30646C6.17275 3.18076 6.22338 3.06049 6.31277 2.97212C6.40216 2.88374 6.523 2.8345 6.6487 2.83522Z" fill="white"/>
</svg>
