<svg width="16" height="16" viewBox="0 0 16 16" fill="none" xmlns="http://www.w3.org/2000/svg">
<path d="M8.4801 7.19961C8.1601 7.11961 7.8401 6.95961 7.6001 6.71961C7.3601 6.63961 7.2801 6.39961 7.2801 6.23961C7.2801 6.07961 7.3601 5.83961 7.5201 5.75961C7.7601 5.59961 8.0001 5.43961 8.2401 5.51961C8.7201 5.51961 9.1201 5.75961 9.3601 6.07961L10.0801 5.11961C9.8401 4.87961 9.6001 4.71961 9.3601 4.55961C9.1201 4.39961 8.8001 4.31961 8.4801 4.31961V3.19961H7.5201V4.31961C7.1201 4.39961 6.7201 4.63961 6.4001 4.95961C6.0801 5.35961 5.8401 5.83961 5.9201 6.31961C5.9201 6.79961 6.0801 7.27961 6.4001 7.59961C6.8001 7.99961 7.3601 8.23961 7.8401 8.47961C8.0801 8.55961 8.4001 8.71961 8.6401 8.87961C8.8001 9.03961 8.8801 9.27961 8.8801 9.51961C8.8801 9.75961 8.8001 9.99961 8.6401 10.2396C8.4001 10.4796 8.0801 10.5596 7.8401 10.5596C7.5201 10.5596 7.1201 10.4796 6.8801 10.2396C6.6401 10.0796 6.4001 9.83961 6.2401 9.59961L5.4401 10.4796C5.6801 10.7996 5.9201 11.0396 6.2401 11.2796C6.6401 11.5196 7.1201 11.7596 7.6001 11.7596V12.7996H8.4801V11.5996C8.9601 11.5196 9.3601 11.2796 9.6801 10.9596C10.0801 10.5596 10.3201 9.91961 10.3201 9.35961C10.3201 8.87961 10.1601 8.31961 9.7601 7.99961C9.3601 7.59961 8.9601 7.35961 8.4801 7.19961ZM8.0001 1.59961C4.4801 1.59961 1.6001 4.47961 1.6001 7.99961C1.6001 11.5196 4.4801 14.3996 8.0001 14.3996C11.5201 14.3996 14.4001 11.5196 14.4001 7.99961C14.4001 4.47961 11.5201 1.59961 8.0001 1.59961ZM8.0001 13.5196C4.9601 13.5196 2.4801 11.0396 2.4801 7.99961C2.4801 4.95961 4.9601 2.47961 8.0001 2.47961C11.0401 2.47961 13.5201 4.95961 13.5201 7.99961C13.5201 11.0396 11.0401 13.5196 8.0001 13.5196Z" fill="white"/>
</svg>
