<svg width="10" height="12" viewBox="0 0 10 12" fill="none" xmlns="http://www.w3.org/2000/svg">
<path fill-rule="evenodd" clip-rule="evenodd" d="M2.52563 2.36437C2.84969 2.03788 3.23513 1.77869 3.65976 1.60174C4.08439 1.4248 4.53982 1.33358 4.99984 1.33333C5.92734 1.33333 6.8175 1.70375 7.47405 2.36437C8.13157 3.02679 8.50034 3.92244 8.49984 4.85579C8.49984 6.46754 7.60617 7.92646 6.67517 9.00358C6.28284 9.4553 5.85749 9.87724 5.40263 10.2659C5.27112 10.3787 5.13681 10.4882 4.99984 10.5943C4.86292 10.4882 4.72862 10.3786 4.59705 10.2659C4.14218 9.87724 3.71683 9.4553 3.3245 9.00358C2.3935 7.92646 1.49984 6.46754 1.49984 4.85579C1.49984 3.921 1.86909 3.025 2.52563 2.36437ZM4.83184 11.1966L4.99984 10.9583L5.16784 11.1966C5.11864 11.2312 5.05997 11.2497 4.99984 11.2497C4.93971 11.2497 4.88104 11.2312 4.83184 11.1966ZM4.83184 11.1966L4.99984 10.9583L5.16784 11.1966L5.169 11.196L5.17192 11.194L5.18067 11.1873L5.21509 11.1625C5.24425 11.1409 5.28684 11.1094 5.3405 11.068C5.44784 10.9857 5.60009 10.8647 5.7818 10.7092C6.25879 10.3015 6.70481 9.85893 7.11617 9.38508C8.081 8.26917 9.08317 6.67637 9.08317 4.8555C9.08317 3.76758 8.65325 2.72342 7.88792 1.95342C7.50964 1.57232 7.05972 1.2698 6.56407 1.06327C6.06841 0.85674 5.5368 0.750274 4.99984 0.75C4.46289 0.750235 3.9313 0.856656 3.43564 1.06314C2.93999 1.26962 2.49006 1.57208 2.11175 1.95312C1.34567 2.72489 0.91599 3.76836 0.916504 4.85579C0.916504 6.67637 1.91867 8.26917 2.8835 9.38508C3.29486 9.85893 3.74088 10.3015 4.21788 10.7092C4.39988 10.8647 4.55184 10.9857 4.65917 11.068C4.71182 11.1086 4.765 11.1484 4.81871 11.1876L4.82805 11.194L4.83067 11.196L4.83184 11.1966ZM3.83317 4.83333C3.83317 4.52391 3.95609 4.22717 4.17488 4.00838C4.39367 3.78958 4.69042 3.66667 4.99984 3.66667C5.30926 3.66667 5.606 3.78958 5.8248 4.00838C6.04359 4.22717 6.1665 4.52391 6.1665 4.83333C6.1665 5.14275 6.04359 5.4395 5.8248 5.65829C5.606 5.87708 5.30926 6 4.99984 6C4.69042 6 4.39367 5.87708 4.17488 5.65829C3.95609 5.4395 3.83317 5.14275 3.83317 4.83333ZM4.99984 3.08333C4.53571 3.08333 4.09059 3.26771 3.7624 3.5959C3.43421 3.92409 3.24984 4.3692 3.24984 4.83333C3.24984 5.29746 3.43421 5.74258 3.7624 6.07077C4.09059 6.39896 4.53571 6.58333 4.99984 6.58333C5.46397 6.58333 5.90909 6.39896 6.23727 6.07077C6.56546 5.74258 6.74984 5.29746 6.74984 4.83333C6.74984 4.3692 6.56546 3.92409 6.23727 3.5959C5.90909 3.26771 5.46397 3.08333 4.99984 3.08333Z" fill="white"/>
</svg>
