<svg width="12" height="13" viewBox="0 0 12 13" fill="none" xmlns="http://www.w3.org/2000/svg">
<path d="M10.3745 1.75H9.06201V1.3125C9.06201 1.19647 9.01592 1.08519 8.93387 1.00314C8.85182 0.921094 8.74054 0.875 8.62451 0.875C8.50848 0.875 8.3972 0.921094 8.31515 1.00314C8.23311 1.08519 8.18701 1.19647 8.18701 1.3125V1.75H3.81201V1.3125C3.81201 1.19647 3.76592 1.08519 3.68387 1.00314C3.60182 0.921094 3.49054 0.875 3.37451 0.875C3.25848 0.875 3.1472 0.921094 3.06515 1.00314C2.98311 1.08519 2.93701 1.19647 2.93701 1.3125V1.75H1.62451C1.39245 1.75 1.16989 1.84219 1.00579 2.00628C0.841699 2.17038 0.749512 2.39294 0.749512 2.625V11.375C0.749512 11.6071 0.841699 11.8296 1.00579 11.9937C1.16989 12.1578 1.39245 12.25 1.62451 12.25H10.3745C10.6066 12.25 10.8291 12.1578 10.9932 11.9937C11.1573 11.8296 11.2495 11.6071 11.2495 11.375V2.625C11.2495 2.39294 11.1573 2.17038 10.9932 2.00628C10.8291 1.84219 10.6066 1.75 10.3745 1.75ZM2.93701 2.625V3.0625C2.93701 3.17853 2.98311 3.28981 3.06515 3.37186C3.1472 3.45391 3.25848 3.5 3.37451 3.5C3.49054 3.5 3.60182 3.45391 3.68387 3.37186C3.76592 3.28981 3.81201 3.17853 3.81201 3.0625V2.625H8.18701V3.0625C8.18701 3.17853 8.23311 3.28981 8.31515 3.37186C8.3972 3.45391 8.50848 3.5 8.62451 3.5C8.74054 3.5 8.85182 3.45391 8.93387 3.37186C9.01592 3.28981 9.06201 3.17853 9.06201 3.0625V2.625H10.3745V4.375H1.62451V2.625H2.93701ZM10.3745 11.375H1.62451V5.25H10.3745V11.375Z" fill="white"/>
</svg>
