<svg width="30" height="32" viewBox="0 0 30 32" fill="none" xmlns="http://www.w3.org/2000/svg">
<path d="M26.8803 2.83966H23.3466V1.66177C23.3466 1.34938 23.2225 1.04978 23.0016 0.828881C22.7807 0.607985 22.4811 0.483887 22.1687 0.483887C21.8563 0.483887 21.5567 0.607985 21.3358 0.828881C21.1149 1.04978 20.9908 1.34938 20.9908 1.66177V2.83966H9.21199V1.66177C9.21199 1.34938 9.08789 1.04978 8.86699 0.828881C8.6461 0.607985 8.3465 0.483887 8.0341 0.483887C7.72171 0.483887 7.42211 0.607985 7.20121 0.828881C6.98032 1.04978 6.85622 1.34938 6.85622 1.66177V2.83966H3.32257C2.69778 2.83966 2.09858 3.08785 1.65679 3.52964C1.21499 3.97144 0.966797 4.57064 0.966797 5.19543V28.7531C0.966797 29.3779 1.21499 29.9771 1.65679 30.4189C2.09858 30.8607 2.69778 31.1089 3.32257 31.1089H26.8803C27.505 31.1089 28.1042 30.8607 28.546 30.4189C28.9878 29.9771 29.236 29.3779 29.236 28.7531V5.19543C29.236 4.57064 28.9878 3.97144 28.546 3.52964C28.1042 3.08785 27.505 2.83966 26.8803 2.83966ZM6.85622 5.19543V6.37331C6.85622 6.6857 6.98032 6.9853 7.20121 7.2062C7.42211 7.4271 7.72171 7.55119 8.0341 7.55119C8.3465 7.55119 8.6461 7.4271 8.86699 7.2062C9.08789 6.9853 9.21199 6.6857 9.21199 6.37331V5.19543H20.9908V6.37331C20.9908 6.6857 21.1149 6.9853 21.3358 7.2062C21.5567 7.4271 21.8563 7.55119 22.1687 7.55119C22.4811 7.55119 22.7807 7.4271 23.0016 7.2062C23.2225 6.9853 23.3466 6.6857 23.3466 6.37331V5.19543H26.8803V9.90696H3.32257V5.19543H6.85622ZM26.8803 28.7531H3.32257V12.2627H26.8803V28.7531Z" fill="#4F4F4F"/>
</svg>
