<svg width="9" height="5" viewBox="0 0 9 5" fill="none" xmlns="http://www.w3.org/2000/svg">
<path d="M7.99725 1.11278L4.61346 4.07654C4.57318 4.11172 4.52954 4.13658 4.48254 4.15112C4.43555 4.16589 4.38519 4.17328 4.33148 4.17328C4.27777 4.17328 4.22742 4.16589 4.18042 4.15112C4.13342 4.13658 4.08978 4.11172 4.0495 4.07654L0.65564 1.11278C0.561645 1.0307 0.514648 0.928092 0.514648 0.804969C0.514648 0.681845 0.565002 0.576311 0.66571 0.488365C0.766418 0.40042 0.883911 0.356447 1.01819 0.356447C1.15247 0.356447 1.26996 0.40042 1.37067 0.488365L4.33148 3.07396L7.29229 0.488365C7.38629 0.406283 7.50204 0.365241 7.63954 0.365241C7.7773 0.365241 7.89654 0.409214 7.99725 0.497159C8.09796 0.585105 8.14831 0.687708 8.14831 0.804969C8.14831 0.922229 8.09796 1.02483 7.99725 1.11278Z" fill="#252525"/>
</svg>
