<svg width="8" height="5" viewBox="0 0 8 5" fill="none" xmlns="http://www.w3.org/2000/svg">
<path d="M7.63495 1.11278L4.25116 4.07654C4.21087 4.11172 4.16723 4.13658 4.12024 4.15112C4.07324 4.16589 4.02289 4.17328 3.96918 4.17328C3.91546 4.17328 3.86511 4.16589 3.81811 4.15112C3.77112 4.13658 3.72748 4.11172 3.68719 4.07654L0.293335 1.11278C0.199341 1.0307 0.152344 0.928092 0.152344 0.804969C0.152344 0.681845 0.202698 0.576311 0.303406 0.488365C0.404114 0.40042 0.521606 0.356447 0.655884 0.356447C0.790161 0.356447 0.907653 0.40042 1.00836 0.488365L3.96918 3.07396L6.92999 0.488365C7.02398 0.406283 7.13973 0.365241 7.27723 0.365241C7.415 0.365241 7.53424 0.409214 7.63495 0.497159C7.73565 0.585105 7.78601 0.687708 7.78601 0.804969C7.78601 0.922229 7.73565 1.02483 7.63495 1.11278Z" fill="white"/>
</svg>
