<svg width="13" height="9" viewBox="0 0 13 9" fill="none" xmlns="http://www.w3.org/2000/svg">
<path d="M12.7427 2.27416L6.98021 8.05384C6.91161 8.12244 6.83729 8.17092 6.75726 8.19927C6.67722 8.22809 6.59147 8.24249 6.5 8.24249C6.40853 8.24249 6.32278 8.22809 6.24274 8.19927C6.16271 8.17092 6.08839 8.12244 6.01979 8.05384L0.240105 2.27416C0.0800351 2.11409 0 1.914 0 1.67389C0 1.43379 0.085752 1.22798 0.257256 1.05648C0.42876 0.884974 0.628848 0.799222 0.85752 0.799222C1.08619 0.799222 1.28628 0.884974 1.45778 1.05648L6.5 6.09869L11.5422 1.05648C11.7023 0.896408 11.8994 0.816372 12.1336 0.816372C12.3682 0.816372 12.5712 0.902124 12.7427 1.07363C12.9142 1.24513 13 1.44522 13 1.67389C13 1.90256 12.9142 2.10265 12.7427 2.27416Z" fill="#337CFC"/>
</svg>
