<svg width="22" height="22" viewBox="0 0 22 22" fill="none" xmlns="http://www.w3.org/2000/svg">
<path fill-rule="evenodd" clip-rule="evenodd" d="M21.583 2.4285C21.7151 2.29657 21.8199 2.1399 21.8914 1.96746C21.963 1.79501 21.9999 1.61016 22 1.42346C22.0001 1.23676 21.9635 1.05186 21.8921 0.879326C21.8208 0.706793 21.7161 0.55 21.5842 0.417901C21.4523 0.285801 21.2956 0.180983 21.1232 0.10943C20.9507 0.0378759 20.7659 0.000988628 20.5792 0.000873876C20.3925 0.000759124 20.2076 0.0374191 20.035 0.108761C19.8625 0.180102 19.7057 0.284728 19.5736 0.416665L10.9998 8.99045L2.4285 0.416665C2.16172 0.149879 1.79988 -2.81105e-09 1.42258 0C1.04529 2.81105e-09 0.683451 0.149879 0.416665 0.416665C0.149879 0.683451 2.81105e-09 1.04529 0 1.42258C-2.81105e-09 1.79988 0.149879 2.16172 0.416665 2.4285L8.99045 10.9998L0.416665 19.5711C0.284566 19.7032 0.179779 19.8601 0.108288 20.0327C0.036796 20.2052 0 20.3902 0 20.5771C0 20.7639 0.036796 20.9489 0.108288 21.1215C0.179779 21.294 0.284566 21.4509 0.416665 21.583C0.683451 21.8498 1.04529 21.9996 1.42258 21.9996C1.6094 21.9996 1.79439 21.9628 1.96698 21.8913C2.13958 21.8199 2.2964 21.7151 2.4285 21.583L10.9998 13.0092L19.5736 21.583C19.8404 21.8494 20.2021 21.999 20.5792 21.9988C20.9562 21.9985 21.3178 21.8485 21.5842 21.5817C21.8507 21.3149 22.0002 20.9532 22 20.5762C21.9998 20.1991 21.8498 19.8376 21.583 19.5711L13.0092 10.9998L21.583 2.4285Z" fill="#D8DEFF"/>
</svg>
