<svg width="15" height="14" viewBox="0 0 15 14" fill="none" xmlns="http://www.w3.org/2000/svg">
<path d="M7.49986 11.711L4.09896 13.7597C3.94872 13.8553 3.79165 13.8963 3.62775 13.8826C3.46385 13.869 3.32044 13.8143 3.19752 13.7187C3.07459 13.6231 2.97899 13.5037 2.91069 13.3606C2.8424 13.2169 2.82875 13.0563 2.86972 12.8787L3.77116 9.00662L0.759523 6.40473C0.622941 6.28181 0.537714 6.14167 0.503841 5.98433C0.469422 5.82753 0.479529 5.67402 0.534162 5.52378C0.588795 5.37353 0.670745 5.25061 0.780011 5.155C0.889276 5.05939 1.03952 4.99793 1.23073 4.97062L5.20528 4.62233L6.74183 0.975583C6.81012 0.811685 6.91611 0.68876 7.05979 0.606811C7.20293 0.524861 7.34962 0.483887 7.49986 0.483887C7.6501 0.483887 7.79706 0.524861 7.94075 0.606811C8.08389 0.68876 8.1896 0.811685 8.25789 0.975583L9.79444 4.62233L13.769 4.97062C13.9602 4.99793 14.1104 5.05939 14.2197 5.155C14.329 5.25061 14.4109 5.37353 14.4656 5.52378C14.5202 5.67402 14.5306 5.82753 14.4967 5.98433C14.4623 6.14167 14.3768 6.28181 14.2402 6.40473L11.2286 9.00662L12.13 12.8787C12.171 13.0563 12.1573 13.2169 12.089 13.3606C12.0207 13.5037 11.9251 13.6231 11.8022 13.7187C11.6793 13.8143 11.5359 13.869 11.372 13.8826C11.2081 13.8963 11.051 13.8553 10.9008 13.7597L7.49986 11.711Z" fill="#F52525"/>
</svg>
