<svg width="14" height="8" viewBox="0 0 14 8" fill="none" xmlns="http://www.w3.org/2000/svg">
<path d="M13.7115 1.47502L7.94896 7.25471C7.88036 7.32331 7.80604 7.37179 7.72601 7.40014C7.64597 7.42895 7.56022 7.44336 7.46875 7.44336C7.37728 7.44336 7.29153 7.42895 7.21149 7.40014C7.13146 7.37179 7.05714 7.32331 6.98854 7.25471L1.20886 1.47502C1.04879 1.31495 0.96875 1.11486 0.96875 0.874758C0.96875 0.634653 1.0545 0.428848 1.22601 0.257344C1.39751 0.0858407 1.5976 8.86917e-05 1.82627 8.86917e-05C2.05494 8.86917e-05 2.25503 0.0858407 2.42653 0.257344L7.46875 5.29956L12.511 0.257344C12.671 0.0972743 12.8682 0.0172386 13.1023 0.0172386C13.3369 0.0172386 13.54 0.102991 13.7115 0.274495C13.883 0.445999 13.9688 0.646086 13.9688 0.874758C13.9688 1.10343 13.883 1.30352 13.7115 1.47502Z" fill="#337CFC"/>
</svg>
