<svg width="22" height="22" viewBox="0 0 22 22" fill="none" xmlns="http://www.w3.org/2000/svg">
<g clip-path="url(#clip0_436_2188)">
<path d="M14.5444 14.0371C14.5444 13.0749 11.8153 12.2955 8.4488 12.2955M14.5444 14.0371C14.5444 14.9993 11.8153 15.7787 8.4488 15.7787C5.0823 15.7787 2.35322 14.9993 2.35322 14.0371M14.5444 14.0371V18.3362C14.5444 19.3281 11.8153 20.1327 8.4488 20.1327C5.0823 20.1327 2.35322 19.3289 2.35322 18.3362V14.0371M14.5444 14.0371C17.8743 14.0371 20.64 13.1776 20.64 12.2955V3.58754M8.4488 12.2955C5.0823 12.2955 2.35322 13.0749 2.35322 14.0371M8.4488 12.2955C4.60162 12.2955 1.48242 11.436 1.48242 10.5539V6.19993M8.4488 4.45834C4.60162 4.45834 1.48242 5.2377 1.48242 6.19993M1.48242 6.19993C1.48242 7.16217 4.60162 7.94153 8.4488 7.94153C8.4488 8.82365 11.2815 9.68312 14.6114 9.68312C17.9405 9.68312 20.64 8.82365 20.64 7.94153M20.64 3.58754C20.64 2.62531 17.9405 1.84595 14.6114 1.84595C11.2815 1.84595 8.5829 2.62531 8.5829 3.58754M20.64 3.58754C20.64 4.54977 17.9405 5.32914 14.6114 5.32914C11.2824 5.32914 8.5829 4.54977 8.5829 3.58754M8.5829 3.58754V12.4401" stroke="#337CFC" stroke-opacity="0.3" stroke-width="1.74159"/>
</g>
<defs>
<clipPath id="clip0_436_2188">
<rect width="20.8991" height="20.8991" fill="white" transform="translate(0.611328 0.104614)"/>
</clipPath>
</defs>
</svg>
