<svg width="23" height="23" viewBox="0 0 23 23" fill="none" xmlns="http://www.w3.org/2000/svg">
<path d="M5.23912 20.6453C4.73024 20.6453 4.29446 20.4643 3.93178 20.1022C3.56971 19.7395 3.38867 19.3037 3.38867 18.7949V5.84176C3.38867 5.33289 3.56971 4.89741 3.93178 4.53534C4.29446 4.17266 4.73024 3.99131 5.23912 3.99131H6.16434V2.14087H8.01478V3.99131H15.4166V2.14087H17.267V3.99131H18.1922C18.7011 3.99131 19.1369 4.17266 19.4996 4.53534C19.8616 4.89741 20.0427 5.33289 20.0427 5.84176V18.7949C20.0427 19.3037 19.8616 19.7395 19.4996 20.1022C19.1369 20.4643 18.7011 20.6453 18.1922 20.6453H5.23912ZM5.23912 18.7949H18.1922V9.54265H5.23912V18.7949Z" fill="#337CFC" fill-opacity="0.3"/>
</svg>
