<svg width="15" height="20" viewBox="0 0 15 20" fill="none" xmlns="http://www.w3.org/2000/svg">
<path fill-rule="evenodd" clip-rule="evenodd" d="M7.70624 19.2333L7.70831 19.2322L7.71348 19.2286L7.72899 19.2167L7.79 19.1728C7.8417 19.1345 7.91719 19.0787 8.01232 19.0053C8.20259 18.8595 8.47249 18.6449 8.7946 18.3693C9.64017 17.6466 10.4308 16.862 11.16 16.022C12.8704 14.0438 14.6469 11.2203 14.6469 7.9924C14.6469 6.06385 13.8848 4.21287 12.5281 2.84789C11.8575 2.17233 11.06 1.63605 10.1813 1.26994C9.30268 0.903817 8.3603 0.715085 7.40843 0.7146C6.45659 0.715017 5.51423 0.903668 4.63559 1.2697C3.75694 1.63572 2.95936 2.1719 2.28874 2.84737C0.930701 4.21547 0.16901 6.06524 0.169923 7.99291C0.169923 11.2203 1.94646 14.0438 3.65681 16.022C4.38603 16.862 5.17669 17.6466 6.02225 18.3693C6.34488 18.6449 6.61426 18.8595 6.80453 19.0053C6.89785 19.0772 6.99213 19.1479 7.08735 19.2172L7.10389 19.2286L7.10854 19.2322L7.11061 19.2333C7.28899 19.3589 7.52786 19.3589 7.70624 19.2333ZM9.9936 7.9531C9.9936 8.63874 9.72124 9.29629 9.23642 9.7811C8.75161 10.2659 8.09406 10.5383 7.40843 10.5383C6.72279 10.5383 6.06524 10.2659 5.58043 9.7811C5.09561 9.29629 4.82325 8.63874 4.82325 7.9531C4.82325 7.26747 5.09561 6.60992 5.58043 6.1251C6.06524 5.64029 6.72279 5.36792 7.40843 5.36792C8.09406 5.36792 8.75161 5.64029 9.23642 6.1251C9.72124 6.60992 9.9936 7.26747 9.9936 7.9531Z" fill="#337CFC" fill-opacity="0.3"/>
</svg>
