<svg width="12" height="16" viewBox="0 0 12 16" fill="none" xmlns="http://www.w3.org/2000/svg">
<path d="M9.2512 0.0679535C9.34907 0.124692 9.42481 0.212943 9.46604 0.318291C9.50727 0.423639 9.51156 0.539855 9.4782 0.647953L7.6772 6.49995H11.0002C11.0979 6.49991 11.1934 6.52847 11.275 6.5821C11.3566 6.63574 11.4207 6.71209 11.4594 6.80175C11.4981 6.8914 11.5098 6.99043 11.4928 7.08661C11.4759 7.18278 11.4312 7.2719 11.3642 7.34295L3.3642 15.843C3.28679 15.9253 3.18379 15.9789 3.07197 15.9952C2.96016 16.0115 2.84613 15.9894 2.74847 15.9326C2.65081 15.8757 2.57528 15.7875 2.53419 15.6822C2.4931 15.577 2.48887 15.4609 2.5222 15.353L4.3232 9.49995H1.0002C0.902544 9.49999 0.807016 9.47143 0.725405 9.4178C0.643795 9.36417 0.579677 9.28782 0.540965 9.19816C0.502253 9.10851 0.490642 9.00948 0.507566 8.9133C0.52449 8.81712 0.569208 8.72801 0.636199 8.65695L8.6362 0.156953C8.71351 0.0747526 8.81636 0.0211221 8.92802 0.00478201C9.03967 -0.011558 9.15357 0.0103533 9.2512 0.0669535V0.0679535Z" fill="#339900"/>
</svg>
