<svg width="23" height="23" viewBox="0 0 23 23" fill="none" xmlns="http://www.w3.org/2000/svg">
<path d="M23 9.3781V2.27611L20.548 4.71641C19.7321 3.61626 18.722 2.6659 17.5577 1.91571C15.7203 0.731801 13.5889 0.105957 11.3938 0.105957C5.11125 0.105957 0 5.21721 0 11.4998C0 17.7825 5.11125 22.8937 11.3939 22.8937C13.5726 22.8937 15.6905 22.2766 17.5188 21.109C19.2976 19.973 20.7247 18.3712 21.646 16.4766L19.9559 15.6548C18.3483 18.9607 15.0676 21.0143 11.3939 21.0143C6.14756 21.0143 1.87941 16.7462 1.87941 11.4998C1.87941 6.25352 6.14756 1.98537 11.3939 1.98537C14.5166 1.98537 17.4355 3.54528 19.1979 6.06006L15.8639 9.3781H23Z" fill="#252525"/>
</svg>
