<svg width="14" height="18" viewBox="0 0 14 18" fill="none" xmlns="http://www.w3.org/2000/svg">
<path fill-rule="evenodd" clip-rule="evenodd" d="M7.11227 17.594L7.11422 17.5931L7.1191 17.5898L7.13374 17.579L7.19131 17.539C7.24011 17.5043 7.31135 17.4535 7.40113 17.3868C7.58069 17.2543 7.8354 17.0593 8.13939 16.8089C8.93738 16.152 9.68355 15.439 10.3717 14.6756C11.9858 12.8778 13.6624 10.3118 13.6624 7.37833C13.6624 5.62568 12.9432 3.9435 11.6628 2.70301C11.03 2.08906 10.2773 1.6017 9.44809 1.26897C8.61888 0.936243 7.72952 0.764723 6.83121 0.764282C5.93293 0.764662 5.0436 0.936108 4.21439 1.26875C3.38519 1.6014 2.63248 2.08868 1.99959 2.70254C0.717972 3.94587 -0.000860253 5.62693 7.72618e-07 7.3788C7.72618e-07 10.3118 1.67657 12.8778 3.29069 14.6756C3.97887 15.439 4.72505 16.152 5.52303 16.8089C5.82751 17.0593 6.08173 17.2543 6.26129 17.3868C6.34936 17.4522 6.43834 17.5164 6.5282 17.5795L6.54381 17.5898L6.5482 17.5931L6.55016 17.594C6.7185 17.7082 6.94393 17.7082 7.11227 17.594ZM9.27093 7.34262C9.27093 7.96572 9.01389 8.5633 8.55635 9.0039C8.09882 9.4445 7.47826 9.69203 6.83121 9.69203C6.18416 9.69203 5.56361 9.4445 5.10607 9.0039C4.64853 8.5633 4.39149 7.96572 4.39149 7.34262C4.39149 6.71952 4.64853 6.12194 5.10607 5.68134C5.56361 5.24074 6.18416 4.99322 6.83121 4.99322C7.47826 4.99322 8.09882 5.24074 8.55635 5.68134C9.01389 6.12194 9.27093 6.71952 9.27093 7.34262Z" fill="#CECECE"/>
</svg>
