<svg width="14" height="18" viewBox="0 0 14 18" fill="none" xmlns="http://www.w3.org/2000/svg">
<path fill-rule="evenodd" clip-rule="evenodd" d="M7.11227 17.1482L7.11422 17.1473L7.1191 17.144L7.13374 17.1332L7.19131 17.0932C7.24011 17.0585 7.31135 17.0077 7.40113 16.941C7.58069 16.8085 7.8354 16.6135 8.13939 16.3631C8.93738 15.7062 9.68355 14.9932 10.3717 14.2298C11.9858 12.432 13.6624 9.866 13.6624 6.93253C13.6624 5.17987 12.9432 3.4977 11.6628 2.25721C11.03 1.64326 10.2773 1.1559 9.44809 0.823169C8.61888 0.490442 7.72952 0.318922 6.83121 0.318481C5.93293 0.318861 5.0436 0.490307 4.21439 0.822953C3.38519 1.1556 2.63248 1.64288 1.99959 2.25674C0.717972 3.50007 -0.000860253 5.18113 7.72618e-07 6.933C7.72618e-07 9.866 1.67657 12.432 3.29069 14.2298C3.97887 14.9932 4.72505 15.7062 5.52303 16.3631C5.82751 16.6135 6.08173 16.8085 6.26129 16.941C6.34936 17.0064 6.43834 17.0706 6.5282 17.1337L6.54381 17.144L6.5482 17.1473L6.55016 17.1482C6.7185 17.2624 6.94393 17.2624 7.11227 17.1482ZM9.27093 6.89682C9.27093 7.51992 9.01389 8.1175 8.55635 8.5581C8.09882 8.9987 7.47826 9.24623 6.83121 9.24623C6.18416 9.24623 5.56361 8.9987 5.10607 8.5581C4.64853 8.1175 4.39149 7.51992 4.39149 6.89682C4.39149 6.27372 4.64853 5.67614 5.10607 5.23554C5.56361 4.79494 6.18416 4.54741 6.83121 4.54741C7.47826 4.54741 8.09882 4.79494 8.55635 5.23554C9.01389 5.67614 9.27093 6.27372 9.27093 6.89682Z" fill="#337CFC"/>
</svg>
