<svg width="33" height="33" viewBox="0 0 33 33" fill="none" xmlns="http://www.w3.org/2000/svg">
<path d="M17.3097 14.4517C16.5056 14.2507 15.7015 13.8486 15.0984 13.2455C14.4953 13.0445 14.2943 12.4414 14.2943 12.0394C14.2943 11.6373 14.4953 11.0342 14.8974 10.8332C15.5005 10.4312 16.1035 10.0291 16.7066 10.2301C17.9128 10.2301 18.9179 10.8332 19.521 11.6373L21.3302 9.22501C20.7271 8.62193 20.124 8.21988 19.521 7.81783C18.9179 7.41578 18.1138 7.21476 17.3097 7.21476V4.4004H14.8974V7.21476C13.8923 7.41578 12.8871 8.01886 12.083 8.82296C11.2789 9.82809 10.6758 11.0342 10.8769 12.2404C10.8769 13.4466 11.2789 14.6527 12.083 15.4568C13.0882 16.4619 14.4953 17.065 15.7015 17.6681C16.3046 17.8691 17.1087 18.2712 17.7117 18.6732C18.1138 19.0753 18.3148 19.6783 18.3148 20.2814C18.3148 20.8845 18.1138 21.4876 17.7117 22.0907C17.1087 22.6937 16.3046 22.8948 15.7015 22.8948C14.8974 22.8948 13.8923 22.6937 13.2892 22.0907C12.6861 21.6886 12.083 21.0855 11.681 20.4824L9.67072 22.6937C10.2738 23.4978 10.8769 24.1009 11.681 24.704C12.6861 25.3071 13.8923 25.9101 15.0984 25.9101V28.5235H17.3097V25.5081C18.5158 25.3071 19.521 24.704 20.3251 23.8999C21.3302 22.8948 21.9333 21.2866 21.9333 19.8794C21.9333 18.6732 21.5312 17.266 20.5261 16.4619C19.521 15.4568 18.5158 14.8537 17.3097 14.4517V14.4517ZM16.1035 0.379883C7.25841 0.379883 0.0214844 7.61681 0.0214844 16.4619C0.0214844 25.3071 7.25841 32.544 16.1035 32.544C24.9487 32.544 32.1856 25.3071 32.1856 16.4619C32.1856 7.61681 24.9487 0.379883 16.1035 0.379883ZM16.1035 30.3327C8.46456 30.3327 2.23277 24.1009 2.23277 16.4619C2.23277 8.82296 8.46456 2.59116 16.1035 2.59116C23.7425 2.59116 29.9743 8.82296 29.9743 16.4619C29.9743 24.1009 23.7425 30.3327 16.1035 30.3327V30.3327Z" fill="#4F4F4F"/>
</svg>
