<svg width="12" height="16" viewBox="0 0 12 16" fill="none" xmlns="http://www.w3.org/2000/svg">
<path d="M11.2758 6.7C11.0758 6.9 10.8341 6.996 10.5508 6.988C10.2674 6.97933 10.0258 6.875 9.82578 6.675L7.00078 3.85L7.00078 15C7.00078 15.2833 6.90478 15.521 6.71278 15.713C6.52145 15.9043 6.28411 16 6.00078 16C5.71745 16 5.47978 15.9043 5.28778 15.713C5.09645 15.521 5.00078 15.2833 5.00078 15L5.00078 3.85L2.15078 6.7C1.95078 6.9 1.71311 7 1.43778 7C1.16311 7 0.925781 6.9 0.725781 6.7C0.525781 6.5 0.425781 6.26233 0.425781 5.987C0.425781 5.71233 0.525781 5.475 0.725781 5.275L5.30078 0.700001C5.40078 0.6 5.50911 0.528999 5.62578 0.487C5.74245 0.445666 5.86745 0.424999 6.00078 0.424999C6.13411 0.424999 6.25911 0.445666 6.37578 0.487C6.49245 0.528999 6.60078 0.6 6.70078 0.700001L11.3008 5.3C11.4841 5.48333 11.5758 5.71233 11.5758 5.987C11.5758 6.26233 11.4758 6.5 11.2758 6.7Z" fill="#51545E"/>
</svg>
