<svg width="40" height="40" viewBox="0 0 40 40" fill="none" xmlns="http://www.w3.org/2000/svg">
<path d="M36.3134 23.9718L34.226 21.8844C34.4635 21.3971 34.5882 20.8625 34.5911 20.3204C34.5911 19.5982 34.377 18.8922 33.9758 18.2918C33.5745 17.6913 33.0043 17.2233 32.337 16.9469C31.6698 16.6705 30.9356 16.5982 30.2273 16.7391C29.519 16.88 28.8684 17.2278 28.3577 17.7384C27.8471 18.2491 27.4993 18.8997 27.3584 19.608C27.2175 20.3163 27.2898 21.0505 27.5662 21.7177C27.8426 22.3849 28.3106 22.9552 28.9111 23.3565C29.5115 23.7577 30.2175 23.9718 30.9397 23.9718C31.4822 23.9691 32.0172 23.8443 32.505 23.6067L34.5911 25.6929V34.9262H27.2883V31.2747C27.2857 29.0159 26.3872 26.8502 24.79 25.253C23.1927 23.6557 21.0271 22.7573 18.7682 22.7547H11.4653C9.20648 22.7573 7.04088 23.6557 5.44362 25.253C3.84636 26.8502 2.94789 29.0159 2.94531 31.2747V37.3605H37.0254V25.6929C37.0263 25.3732 36.9639 25.0565 36.8417 24.7611C36.7194 24.4657 36.5399 24.1974 36.3134 23.9718V23.9718ZM5.37961 31.2747C5.38154 29.6613 6.02333 28.1145 7.16421 26.9736C8.30509 25.8327 9.8519 25.1909 11.4653 25.189H18.7682C20.3817 25.1909 21.9285 25.8327 23.0694 26.9736C24.2102 28.1145 24.852 29.6613 24.854 31.2747V34.9262H5.37961V31.2747Z" fill="#4F4F4F"/>
<path d="M15.1177 5.71457C16.3213 5.71457 17.498 6.07149 18.4987 6.7402C19.4995 7.40891 20.2796 8.35937 20.7402 9.47139C21.2008 10.5834 21.3213 11.8071 21.0865 12.9876C20.8517 14.1681 20.2721 15.2525 19.421 16.1036C18.5699 16.9547 17.4855 17.5343 16.305 17.7691C15.1244 18.0039 13.9008 17.8834 12.7888 17.4228C11.6768 16.9622 10.7263 16.1822 10.0576 15.1814C9.38888 14.1806 9.03196 13.004 9.03196 11.8003C9.03196 10.1863 9.67313 8.63834 10.8144 7.49704C11.9557 6.35574 13.5037 5.71457 15.1177 5.71457M15.1177 3.28027C13.4326 3.28027 11.7853 3.77996 10.3842 4.71616C8.9831 5.65235 7.89107 6.983 7.24621 8.53983C6.60135 10.0967 6.43262 11.8098 6.76137 13.4625C7.09012 15.1152 7.90157 16.6333 9.09312 17.8249C10.2847 19.0164 11.8028 19.8279 13.4555 20.1566C15.1082 20.4854 16.8213 20.3166 18.3782 19.6718C19.935 19.0269 21.2656 17.9349 22.2018 16.5338C23.138 15.1327 23.6377 13.4854 23.6377 11.8003C23.6377 9.54065 22.7401 7.37355 21.1423 5.77573C19.5444 4.17792 17.3773 3.28027 15.1177 3.28027V3.28027Z" fill="#4F4F4F"/>
</svg>
