<svg width="10" height="16" viewBox="0 0 10 16" fill="none" xmlns="http://www.w3.org/2000/svg">
<path d="M2.70898 0.312521L9.72982 7.31252C9.81315 7.39585 9.87204 7.48613 9.90648 7.58335C9.94148 7.68058 9.95898 7.78474 9.95898 7.89585C9.95898 8.00696 9.94148 8.11113 9.90648 8.20835C9.87204 8.30558 9.81315 8.39585 9.72982 8.47919L2.70898 15.5C2.51454 15.6945 2.27148 15.7917 1.97982 15.7917C1.68815 15.7917 1.43815 15.6875 1.22982 15.4792C1.02148 15.2709 0.917318 15.0278 0.917318 14.75C0.917318 14.4722 1.02148 14.2292 1.22982 14.0209L7.35482 7.89585L1.22982 1.77085C1.03537 1.57641 0.93815 1.33697 0.93815 1.05252C0.93815 0.767522 1.04232 0.520854 1.25065 0.312521C1.45898 0.104187 1.70204 2.0749e-05 1.97982 2.07247e-05C2.25759 2.07004e-05 2.50065 0.104187 2.70898 0.312521Z" fill="#51545E"/>
</svg>
