<svg width="10" height="16" viewBox="0 0 10 16" fill="none" xmlns="http://www.w3.org/2000/svg">
<path d="M1.79102 15.4792L8.81185 8.47917C8.89518 8.39583 8.95407 8.30556 8.98852 8.20833C9.02352 8.11111 9.04102 8.00694 9.04102 7.89583C9.04102 7.78472 9.02352 7.68056 8.98852 7.58333C8.95407 7.48611 8.89518 7.39583 8.81185 7.3125L1.79102 0.291667C1.59657 0.0972221 1.35352 0 1.06185 0C0.770183 0 0.520183 0.104167 0.31185 0.3125C0.103517 0.520833 -0.000650406 0.763889 -0.000650406 1.04167C-0.000650406 1.31944 0.103517 1.5625 0.31185 1.77083L6.43685 7.89583L0.31185 14.0208C0.117405 14.2153 0.0201826 14.4547 0.0201826 14.7392C0.0201826 15.0242 0.12435 15.2708 0.332683 15.4792C0.541016 15.6875 0.784071 15.7917 1.06185 15.7917C1.33963 15.7917 1.58268 15.6875 1.79102 15.4792Z" fill="white"/>
</svg>
