<svg width="10" height="16" viewBox="0 0 10 16" fill="none" xmlns="http://www.w3.org/2000/svg">
<path d="M8.20898 15.4792L1.18815 8.47917C1.10482 8.39583 1.04593 8.30556 1.01148 8.20833C0.976484 8.11111 0.958984 8.00694 0.958984 7.89583C0.958984 7.78472 0.976484 7.68056 1.01148 7.58333C1.04593 7.48611 1.10482 7.39583 1.18815 7.3125L8.20898 0.291667C8.40343 0.0972221 8.64648 0 8.93815 0C9.22982 0 9.47982 0.104167 9.68815 0.3125C9.89648 0.520833 10.0007 0.763889 10.0007 1.04167C10.0007 1.31944 9.89648 1.5625 9.68815 1.77083L3.56315 7.89583L9.68815 14.0208C9.8826 14.2153 9.97982 14.4547 9.97982 14.7392C9.97982 15.0242 9.87565 15.2708 9.66732 15.4792C9.45898 15.6875 9.21593 15.7917 8.93815 15.7917C8.66037 15.7917 8.41732 15.6875 8.20898 15.4792Z" fill="#51545E"/>
</svg>
