<svg width="10" height="16" viewBox="0 0 10 16" fill="none" xmlns="http://www.w3.org/2000/svg">
<path d="M7.29102 0.31252L0.270182 7.31252C0.186849 7.39585 0.12796 7.48613 0.0935156 7.58335C0.0585156 7.68058 0.0410156 7.78474 0.0410156 7.89585C0.0410156 8.00696 0.0585156 8.11113 0.0935156 8.20835C0.12796 8.30558 0.186849 8.39585 0.270182 8.47919L7.29102 15.5C7.48546 15.6945 7.72852 15.7917 8.02018 15.7917C8.31185 15.7917 8.56185 15.6875 8.77018 15.4792C8.97851 15.2709 9.08268 15.0278 9.08268 14.75C9.08268 14.4722 8.97851 14.2292 8.77018 14.0209L2.64518 7.89585L8.77018 1.77085C8.96463 1.57641 9.06185 1.33697 9.06185 1.05252C9.06185 0.767521 8.95768 0.520853 8.74935 0.31252C8.54102 0.104187 8.29796 2.00272e-05 8.02018 2.00272e-05C7.7424 2.00272e-05 7.49935 0.104187 7.29102 0.31252Z" fill="white"/>
</svg>
