<svg width="12" height="14" viewBox="0 0 12 14" fill="none" xmlns="http://www.w3.org/2000/svg">
<path d="M4.16667 10.4937H7.5C7.95833 10.4937 8.33333 10.1187 8.33333 9.66037V5.4937H9.65833C10.4 5.4937 10.775 4.5937 10.25 4.0687L6.425 0.243703C6.34791 0.16645 6.25633 0.105161 6.15552 0.0633428C6.05471 0.021525 5.94664 0 5.8375 0C5.72836 0 5.62029 0.021525 5.51948 0.0633428C5.41867 0.105161 5.32709 0.16645 5.25 0.243703L1.425 4.0687C0.9 4.5937 1.26667 5.4937 2.00833 5.4937H3.33333V9.66037C3.33333 10.1187 3.70833 10.4937 4.16667 10.4937ZM0.833333 12.1604H10.8333C11.2917 12.1604 11.6667 12.5354 11.6667 12.9937C11.6667 13.452 11.2917 13.827 10.8333 13.827H0.833333C0.375 13.827 0 13.452 0 12.9937C0 12.5354 0.375 12.1604 0.833333 12.1604Z" fill="#999999"/>
</svg>
