<svg width="12" height="9" viewBox="0 0 12 9" fill="none" xmlns="http://www.w3.org/2000/svg">
<path d="M6 0C3.27273 0 0.943636 1.69636 0 4.09091C0.943636 6.48546 3.27273 8.18182 6 8.18182C8.72727 8.18182 11.0564 6.48546 12 4.09091C11.0564 1.69636 8.72727 0 6 0ZM6 6.81818C4.49455 6.81818 3.27273 5.59636 3.27273 4.09091C3.27273 2.58545 4.49455 1.36364 6 1.36364C7.50545 1.36364 8.72727 2.58545 8.72727 4.09091C8.72727 5.59636 7.50545 6.81818 6 6.81818ZM6 2.45455C5.09455 2.45455 4.36364 3.18546 4.36364 4.09091C4.36364 4.99636 5.09455 5.72727 6 5.72727C6.90545 5.72727 7.63636 4.99636 7.63636 4.09091C7.63636 3.18546 6.90545 2.45455 6 2.45455Z" fill="#A4A4A4"/>
</svg>
