<svg width="224" height="75" viewBox="0 0 224 75" fill="none" xmlns="http://www.w3.org/2000/svg">
<circle cx="2" cy="2" r="2" transform="matrix(1 0 0 -1 11 65)" fill="#D9D9D9"/>
<circle cx="2" cy="2" r="2" transform="matrix(1 0 0 -1 0 72)" fill="#D9D9D9"/>
<circle cx="2" cy="2" r="2" transform="matrix(1 0 0 -1 19 55)" fill="#D9D9D9"/>
<circle cx="2" cy="2" r="2" transform="matrix(1 0 0 -1 28 46)" fill="#D9D9D9"/>
<circle cx="2" cy="2" r="2" transform="matrix(1 0 0 -1 36 38)" fill="#D9D9D9"/>
<circle cx="2" cy="2" r="2" transform="matrix(1 0 0 -1 44 29)" fill="#D9D9D9"/>
<circle cx="2" cy="2" r="2" transform="matrix(1 0 0 -1 55 21)" fill="#D9D9D9"/>
<circle cx="2" cy="2" r="2" transform="matrix(1 0 0 -1 67 12)" fill="#D9D9D9"/>
<circle cx="2" cy="2" r="2" transform="matrix(1 0 0 -1 80 8)" fill="#D9D9D9"/>
<circle cx="215" cy="66" r="2" transform="rotate(180 215 66)" fill="#D9D9D9"/>
<circle cx="222" cy="73" r="2" transform="rotate(180 222 73)" fill="#D9D9D9"/>
<circle cx="207" cy="56" r="2" transform="rotate(180 207 56)" fill="#D9D9D9"/>
<circle cx="198" cy="47" r="2" transform="rotate(180 198 47)" fill="#D9D9D9"/>
<circle cx="190" cy="39" r="2" transform="rotate(180 190 39)" fill="#D9D9D9"/>
<circle cx="182" cy="30" r="2" transform="rotate(180 182 30)" fill="#D9D9D9"/>
<circle cx="171" cy="22" r="2" transform="rotate(180 171 22)" fill="#D9D9D9"/>
<circle cx="161" cy="15" r="2" transform="rotate(180 161 15)" fill="#D9D9D9"/>
<circle cx="148" cy="9" r="2" transform="rotate(180 148 9)" fill="#D9D9D9"/>
<circle cx="95" cy="3" r="2" transform="rotate(180 95 3)" fill="#D9D9D9"/>
<circle cx="109" cy="2" r="2" transform="rotate(180 109 2)" fill="#D9D9D9"/>
<circle cx="123" cy="3" r="2" transform="rotate(180 123 3)" fill="#D9D9D9"/>
<circle cx="136" cy="6" r="2" transform="rotate(180 136 6)" fill="#D9D9D9"/>
</svg>
