<svg width="206" height="68" viewBox="0 0 206 68" fill="none" xmlns="http://www.w3.org/2000/svg">
<circle cx="2" cy="2" r="2" transform="matrix(1 0 0 -1 0 65)" fill="#D9D9D9"/>
<circle cx="2" cy="2" r="2" transform="matrix(1 0 0 -1 8 55)" fill="#D9D9D9"/>
<circle cx="2" cy="2" r="2" transform="matrix(1 0 0 -1 17 46)" fill="#D9D9D9"/>
<circle cx="2" cy="2" r="2" transform="matrix(1 0 0 -1 25 38)" fill="#D9D9D9"/>
<circle cx="2" cy="2" r="2" transform="matrix(1 0 0 -1 33 29)" fill="#D9D9D9"/>
<circle cx="2" cy="2" r="2" transform="matrix(1 0 0 -1 44 21)" fill="#D9D9D9"/>
<circle cx="2" cy="2" r="2" transform="matrix(1 0 0 -1 56 12)" fill="#D9D9D9"/>
<circle cx="2" cy="2" r="2" transform="matrix(1 0 0 -1 69 8)" fill="#D9D9D9"/>
<circle cx="204" cy="66" r="2" transform="rotate(180 204 66)" fill="#D9D9D9"/>
<circle cx="196" cy="56" r="2" transform="rotate(180 196 56)" fill="#D9D9D9"/>
<circle cx="187" cy="47" r="2" transform="rotate(180 187 47)" fill="#D9D9D9"/>
<circle cx="179" cy="39" r="2" transform="rotate(180 179 39)" fill="#D9D9D9"/>
<circle cx="171" cy="30" r="2" transform="rotate(180 171 30)" fill="#D9D9D9"/>
<circle cx="160" cy="22" r="2" transform="rotate(180 160 22)" fill="#D9D9D9"/>
<circle cx="150" cy="15" r="2" transform="rotate(180 150 15)" fill="#D9D9D9"/>
<circle cx="137" cy="9" r="2" transform="rotate(180 137 9)" fill="#D9D9D9"/>
<circle cx="84" cy="3" r="2" transform="rotate(180 84 3)" fill="#D9D9D9"/>
<circle cx="98" cy="2" r="2" transform="rotate(180 98 2)" fill="#D9D9D9"/>
<circle cx="112" cy="3" r="2" transform="rotate(180 112 3)" fill="#D9D9D9"/>
<circle cx="125" cy="6" r="2" transform="rotate(180 125 6)" fill="#D9D9D9"/>
</svg>
