<svg width="82" height="71" viewBox="0 0 82 71" fill="none" xmlns="http://www.w3.org/2000/svg">
<circle cx="2" cy="2" r="2" transform="matrix(-1 0 0 1 73 10)" fill="#D9D9D9"/>
<circle cx="2" cy="2" r="2" transform="matrix(-1 0 0 1 82 0)" fill="#D9D9D9"/>
<circle cx="2" cy="2" r="2" transform="matrix(-1 0 0 1 65 20)" fill="#D9D9D9"/>
<circle cx="2" cy="2" r="2" transform="matrix(-1 0 0 1 56 29)" fill="#D9D9D9"/>
<circle cx="2" cy="2" r="2" transform="matrix(-1 0 0 1 48 37)" fill="#D9D9D9"/>
<circle cx="2" cy="2" r="2" transform="matrix(-1 0 0 1 40 46)" fill="#D9D9D9"/>
<circle cx="2" cy="2" r="2" transform="matrix(-1 0 0 1 29 54)" fill="#D9D9D9"/>
<circle cx="2" cy="2" r="2" transform="matrix(-1 0 0 1 17 63)" fill="#D9D9D9"/>
<circle cx="2" cy="2" r="2" transform="matrix(-1 0 0 1 4 67)" fill="#D9D9D9"/>
</svg>
