<svg width="17" height="17" viewBox="0 0 17 17" fill="none" xmlns="http://www.w3.org/2000/svg">
<path d="M8.45009 5.63575C6.90211 5.63268 5.63633 6.89346 5.63325 8.44147C5.63018 9.98948 6.89094 11.2553 8.43892 11.2584C9.9869 11.2614 11.2527 10.0006 11.2558 8.45264C11.2588 6.90463 9.99807 5.63883 8.45009 5.63575ZM16.8761 8.4638C16.8785 7.29964 16.8913 6.14603 16.8282 4.98384C16.7655 3.63395 16.46 2.43542 15.475 1.44645C14.4878 0.455362 13.2926 0.147181 11.943 0.0791205C10.779 0.0114289 9.6254 0.0196823 8.46336 0.0173739C7.29921 0.0150613 6.14563 0.00222459 4.98346 0.0652953C3.63359 0.127993 2.43509 0.433528 1.44613 1.41858C0.455064 2.40574 0.146889 3.60094 0.0788293 4.95057C0.0111388 6.11461 0.019392 7.26825 0.0170836 8.43031C0.0147751 9.59238 0.00193439 10.7481 0.0650038 11.9103C0.1277 13.2602 0.43323 14.4587 1.41826 15.4477C2.4054 16.4388 3.60058 16.7469 4.95019 16.815C6.1142 16.8827 7.26783 16.8744 8.42987 16.8767C9.59401 16.8791 10.7476 16.8919 11.9098 16.8288C13.2596 16.7661 14.4581 16.4606 15.4471 15.4755C16.4382 14.4884 16.7463 13.2932 16.8144 11.9436C16.8842 10.7816 16.8738 9.62797 16.8761 8.4638ZM8.43591 12.7726C6.04224 12.7679 4.11426 10.8322 4.11902 8.43846C4.12377 6.04474 6.05942 4.11673 8.4531 4.12149C10.8468 4.12624 12.7747 6.06193 12.77 8.45565C12.7652 10.8494 10.8296 12.7774 8.43591 12.7726ZM12.9541 4.96349C12.3952 4.96238 11.9448 4.51016 11.9459 3.95127C11.947 3.39239 12.3992 2.94196 12.9581 2.94307C13.517 2.94418 13.9674 3.3964 13.9663 3.95528C13.9662 4.08799 13.9399 4.21938 13.889 4.34192C13.838 4.46446 13.7634 4.57574 13.6694 4.6694C13.5753 4.76305 13.4638 4.83724 13.341 4.8877C13.2183 4.93817 13.0868 4.96392 12.9541 4.96349Z" fill="#337CFC"/>
</svg>
