<svg width="1886" height="535" viewBox="0 0 1886 535" fill="none" xmlns="http://www.w3.org/2000/svg">
<circle cx="1685" cy="495" r="167" fill="white" fill-opacity="0.31"/>
<circle cx="1773.5" cy="142.5" r="112.163" stroke="white" stroke-opacity="0.5" stroke-width="0.673653"/>
<circle cx="191.5" cy="112.5" r="112.5" fill="white" fill-opacity="0.29"/>
<circle cx="78.5" cy="314.5" r="47.5" fill="#9CC0FF"/>
<circle cx="47.5" cy="247.5" r="47" stroke="white" stroke-opacity="0.53"/>
<circle cx="1756.5" cy="355.5" r="47.5" fill="#9CC0FF"/>
<circle cx="168.11" cy="429.11" r="2.10976" fill="white" fill-opacity="0.5"/>
<circle cx="168.11" cy="445.988" r="2.10976" fill="white" fill-opacity="0.5"/>
<circle cx="168.11" cy="462.865" r="2.10976" fill="white" fill-opacity="0.5"/>
<circle cx="168.11" cy="479.744" r="2.10976" fill="white" fill-opacity="0.5"/>
<circle cx="168.11" cy="496.622" r="2.10976" fill="white" fill-opacity="0.5"/>
<circle cx="168.11" cy="513.499" r="2.10976" fill="white" fill-opacity="0.5"/>
<circle cx="168.11" cy="530.378" r="2.10976" fill="white" fill-opacity="0.5"/>
<circle cx="201.866" cy="429.11" r="2.10976" fill="white" fill-opacity="0.5"/>
<circle cx="201.866" cy="445.988" r="2.10976" fill="white" fill-opacity="0.5"/>
<circle cx="201.866" cy="462.866" r="2.10976" fill="white" fill-opacity="0.5"/>
<circle cx="201.866" cy="479.744" r="2.10976" fill="white" fill-opacity="0.5"/>
<circle cx="201.866" cy="496.622" r="2.10976" fill="white" fill-opacity="0.5"/>
<circle cx="201.866" cy="513.5" r="2.10976" fill="white" fill-opacity="0.5"/>
<circle cx="201.866" cy="530.378" r="2.10976" fill="white" fill-opacity="0.5"/>
<circle cx="184.988" cy="429.11" r="2.10976" fill="white" fill-opacity="0.5"/>
<circle cx="184.988" cy="445.988" r="2.10976" fill="white" fill-opacity="0.5"/>
<circle cx="184.988" cy="462.866" r="2.10976" fill="white" fill-opacity="0.5"/>
<circle cx="184.988" cy="479.744" r="2.10976" fill="white" fill-opacity="0.5"/>
<circle cx="184.988" cy="496.622" r="2.10976" fill="white" fill-opacity="0.5"/>
<circle cx="184.988" cy="513.5" r="2.10976" fill="white" fill-opacity="0.5"/>
<circle cx="184.988" cy="530.378" r="2.10976" fill="white" fill-opacity="0.5"/>
<circle cx="218.744" cy="429.11" r="2.10976" fill="white" fill-opacity="0.5"/>
<circle cx="218.744" cy="445.988" r="2.10976" fill="white" fill-opacity="0.5"/>
<circle cx="218.744" cy="462.866" r="2.10976" fill="white" fill-opacity="0.5"/>
<circle cx="218.744" cy="479.744" r="2.10976" fill="white" fill-opacity="0.5"/>
<circle cx="218.744" cy="496.622" r="2.10976" fill="white" fill-opacity="0.5"/>
<circle cx="218.744" cy="513.5" r="2.10976" fill="white" fill-opacity="0.5"/>
<circle cx="218.744" cy="530.378" r="2.10976" fill="white" fill-opacity="0.5"/>
<circle cx="252.499" cy="429.11" r="2.10976" fill="white" fill-opacity="0.5"/>
<circle cx="252.499" cy="445.988" r="2.10976" fill="white" fill-opacity="0.5"/>
<circle cx="252.499" cy="462.866" r="2.10976" fill="white" fill-opacity="0.5"/>
<circle cx="252.499" cy="479.744" r="2.10976" fill="white" fill-opacity="0.5"/>
<circle cx="252.499" cy="496.622" r="2.10976" fill="white" fill-opacity="0.5"/>
<circle cx="252.499" cy="513.5" r="2.10976" fill="white" fill-opacity="0.5"/>
<circle cx="252.499" cy="530.378" r="2.10976" fill="white" fill-opacity="0.5"/>
<circle cx="235.621" cy="429.11" r="2.10976" fill="white" fill-opacity="0.5"/>
<circle cx="235.621" cy="445.988" r="2.10976" fill="white" fill-opacity="0.5"/>
<circle cx="235.621" cy="462.866" r="2.10976" fill="white" fill-opacity="0.5"/>
<circle cx="235.621" cy="479.744" r="2.10976" fill="white" fill-opacity="0.5"/>
<circle cx="235.621" cy="496.622" r="2.10976" fill="white" fill-opacity="0.5"/>
<circle cx="235.621" cy="513.5" r="2.10976" fill="white" fill-opacity="0.5"/>
<circle cx="235.621" cy="530.378" r="2.10976" fill="white" fill-opacity="0.5"/>
<circle cx="269.379" cy="429.11" r="2.10976" fill="white" fill-opacity="0.5"/>
<circle cx="269.379" cy="445.988" r="2.10976" fill="white" fill-opacity="0.5"/>
<circle cx="269.379" cy="462.866" r="2.10976" fill="white" fill-opacity="0.5"/>
<circle cx="269.379" cy="479.744" r="2.10976" fill="white" fill-opacity="0.5"/>
<circle cx="269.379" cy="496.622" r="2.10976" fill="white" fill-opacity="0.5"/>
<circle cx="269.379" cy="513.5" r="2.10976" fill="white" fill-opacity="0.5"/>
<circle cx="269.379" cy="530.378" r="2.10976" fill="white" fill-opacity="0.5"/>
<circle cx="303.134" cy="429.11" r="2.10976" fill="white" fill-opacity="0.5"/>
<circle cx="303.134" cy="445.988" r="2.10976" fill="white" fill-opacity="0.5"/>
<circle cx="303.134" cy="462.866" r="2.10976" fill="white" fill-opacity="0.5"/>
<circle cx="303.134" cy="479.744" r="2.10976" fill="white" fill-opacity="0.5"/>
<circle cx="303.134" cy="496.622" r="2.10976" fill="white" fill-opacity="0.5"/>
<circle cx="303.134" cy="513.5" r="2.10976" fill="white" fill-opacity="0.5"/>
<circle cx="303.134" cy="530.378" r="2.10976" fill="white" fill-opacity="0.5"/>
<circle cx="286.256" cy="429.11" r="2.10976" fill="white" fill-opacity="0.5"/>
<circle cx="286.256" cy="445.988" r="2.10976" fill="white" fill-opacity="0.5"/>
<circle cx="286.256" cy="462.866" r="2.10976" fill="white" fill-opacity="0.5"/>
<circle cx="286.256" cy="479.744" r="2.10976" fill="white" fill-opacity="0.5"/>
<circle cx="286.256" cy="496.622" r="2.10976" fill="white" fill-opacity="0.5"/>
<circle cx="286.256" cy="513.5" r="2.10976" fill="white" fill-opacity="0.5"/>
<circle cx="286.256" cy="530.378" r="2.10976" fill="white" fill-opacity="0.5"/>
<circle cx="320.012" cy="429.11" r="2.10976" fill="white" fill-opacity="0.5"/>
<circle cx="320.012" cy="445.988" r="2.10976" fill="white" fill-opacity="0.5"/>
<circle cx="320.012" cy="462.866" r="2.10976" fill="white" fill-opacity="0.5"/>
<circle cx="320.012" cy="479.744" r="2.10976" fill="white" fill-opacity="0.5"/>
<circle cx="320.012" cy="496.622" r="2.10976" fill="white" fill-opacity="0.5"/>
<circle cx="320.012" cy="513.5" r="2.10976" fill="white" fill-opacity="0.5"/>
<circle cx="320.012" cy="530.378" r="2.10976" fill="white" fill-opacity="0.5"/>
<circle cx="336.89" cy="429.11" r="2.10976" fill="white" fill-opacity="0.5"/>
<circle cx="336.89" cy="445.988" r="2.10976" fill="white" fill-opacity="0.5"/>
<circle cx="336.89" cy="462.866" r="2.10976" fill="white" fill-opacity="0.5"/>
<circle cx="336.89" cy="479.744" r="2.10976" fill="white" fill-opacity="0.5"/>
<circle cx="336.89" cy="496.622" r="2.10976" fill="white" fill-opacity="0.5"/>
<circle cx="336.89" cy="513.5" r="2.10976" fill="white" fill-opacity="0.5"/>
<circle cx="336.89" cy="530.378" r="2.10976" fill="white" fill-opacity="0.5"/>
<circle cx="1491.93" cy="322.927" r="0.926828" fill="white" fill-opacity="0.5"/>
<circle cx="1491.93" cy="330.341" r="0.926828" fill="white" fill-opacity="0.5"/>
<circle cx="1491.93" cy="337.756" r="0.926828" fill="white" fill-opacity="0.5"/>
<circle cx="1491.93" cy="345.171" r="0.926828" fill="white" fill-opacity="0.5"/>
<circle cx="1491.93" cy="352.585" r="0.926828" fill="white" fill-opacity="0.5"/>
<circle cx="1491.93" cy="360" r="0.926828" fill="white" fill-opacity="0.5"/>
<circle cx="1491.93" cy="367.414" r="0.926828" fill="white" fill-opacity="0.5"/>
<circle cx="1491.93" cy="374.829" r="0.926828" fill="white" fill-opacity="0.5"/>
<circle cx="1491.93" cy="382.244" r="0.926828" fill="white" fill-opacity="0.5"/>
<circle cx="1491.93" cy="389.658" r="0.926828" fill="white" fill-opacity="0.5"/>
<circle cx="1491.93" cy="397.073" r="0.926828" fill="white" fill-opacity="0.5"/>
<circle cx="1506.76" cy="322.927" r="0.926828" fill="white" fill-opacity="0.5"/>
<circle cx="1506.76" cy="330.342" r="0.926828" fill="white" fill-opacity="0.5"/>
<circle cx="1506.76" cy="337.756" r="0.926828" fill="white" fill-opacity="0.5"/>
<circle cx="1506.76" cy="345.171" r="0.926828" fill="white" fill-opacity="0.5"/>
<circle cx="1506.76" cy="352.585" r="0.926828" fill="white" fill-opacity="0.5"/>
<circle cx="1506.76" cy="360" r="0.926828" fill="white" fill-opacity="0.5"/>
<circle cx="1506.76" cy="367.414" r="0.926828" fill="white" fill-opacity="0.5"/>
<circle cx="1506.76" cy="374.829" r="0.926828" fill="white" fill-opacity="0.5"/>
<circle cx="1506.76" cy="382.244" r="0.926828" fill="white" fill-opacity="0.5"/>
<circle cx="1506.76" cy="389.659" r="0.926828" fill="white" fill-opacity="0.5"/>
<circle cx="1506.76" cy="397.073" r="0.926828" fill="white" fill-opacity="0.5"/>
<circle cx="1499.34" cy="322.927" r="0.926828" fill="white" fill-opacity="0.5"/>
<circle cx="1499.34" cy="330.342" r="0.926828" fill="white" fill-opacity="0.5"/>
<circle cx="1499.34" cy="337.756" r="0.926828" fill="white" fill-opacity="0.5"/>
<circle cx="1499.34" cy="345.171" r="0.926828" fill="white" fill-opacity="0.5"/>
<circle cx="1499.34" cy="352.585" r="0.926828" fill="white" fill-opacity="0.5"/>
<circle cx="1499.34" cy="360" r="0.926828" fill="white" fill-opacity="0.5"/>
<circle cx="1499.34" cy="367.414" r="0.926828" fill="white" fill-opacity="0.5"/>
<circle cx="1499.34" cy="374.829" r="0.926828" fill="white" fill-opacity="0.5"/>
<circle cx="1499.34" cy="382.244" r="0.926828" fill="white" fill-opacity="0.5"/>
<circle cx="1499.34" cy="389.659" r="0.926828" fill="white" fill-opacity="0.5"/>
<circle cx="1499.34" cy="397.073" r="0.926828" fill="white" fill-opacity="0.5"/>
<circle cx="1514.17" cy="322.927" r="0.926828" fill="white" fill-opacity="0.5"/>
<circle cx="1514.17" cy="330.342" r="0.926828" fill="white" fill-opacity="0.5"/>
<circle cx="1514.17" cy="337.756" r="0.926828" fill="white" fill-opacity="0.5"/>
<circle cx="1514.17" cy="345.171" r="0.926828" fill="white" fill-opacity="0.5"/>
<circle cx="1514.17" cy="352.585" r="0.926828" fill="white" fill-opacity="0.5"/>
<circle cx="1514.17" cy="360" r="0.926828" fill="white" fill-opacity="0.5"/>
<circle cx="1514.17" cy="367.414" r="0.926828" fill="white" fill-opacity="0.5"/>
<circle cx="1514.17" cy="374.829" r="0.926828" fill="white" fill-opacity="0.5"/>
<circle cx="1514.17" cy="382.244" r="0.926828" fill="white" fill-opacity="0.5"/>
<circle cx="1514.17" cy="389.659" r="0.926828" fill="white" fill-opacity="0.5"/>
<circle cx="1514.17" cy="397.073" r="0.926828" fill="white" fill-opacity="0.5"/>
<circle cx="1529" cy="322.927" r="0.926828" fill="white" fill-opacity="0.5"/>
<circle cx="1529" cy="330.342" r="0.926828" fill="white" fill-opacity="0.5"/>
<circle cx="1529" cy="337.756" r="0.926828" fill="white" fill-opacity="0.5"/>
<circle cx="1529" cy="345.171" r="0.926828" fill="white" fill-opacity="0.5"/>
<circle cx="1529" cy="352.585" r="0.926828" fill="white" fill-opacity="0.5"/>
<circle cx="1529" cy="360" r="0.926828" fill="white" fill-opacity="0.5"/>
<circle cx="1529" cy="367.414" r="0.926828" fill="white" fill-opacity="0.5"/>
<circle cx="1529" cy="374.829" r="0.926828" fill="white" fill-opacity="0.5"/>
<circle cx="1529" cy="382.244" r="0.926828" fill="white" fill-opacity="0.5"/>
<circle cx="1529" cy="389.659" r="0.926828" fill="white" fill-opacity="0.5"/>
<circle cx="1529" cy="397.073" r="0.926828" fill="white" fill-opacity="0.5"/>
<circle cx="1521.59" cy="322.927" r="0.926828" fill="white" fill-opacity="0.5"/>
<circle cx="1521.59" cy="330.342" r="0.926828" fill="white" fill-opacity="0.5"/>
<circle cx="1521.59" cy="337.756" r="0.926828" fill="white" fill-opacity="0.5"/>
<circle cx="1521.59" cy="345.171" r="0.926828" fill="white" fill-opacity="0.5"/>
<circle cx="1521.59" cy="352.585" r="0.926828" fill="white" fill-opacity="0.5"/>
<circle cx="1521.59" cy="360" r="0.926828" fill="white" fill-opacity="0.5"/>
<circle cx="1521.59" cy="367.414" r="0.926828" fill="white" fill-opacity="0.5"/>
<circle cx="1521.59" cy="374.829" r="0.926828" fill="white" fill-opacity="0.5"/>
<circle cx="1521.59" cy="382.244" r="0.926828" fill="white" fill-opacity="0.5"/>
<circle cx="1521.59" cy="389.659" r="0.926828" fill="white" fill-opacity="0.5"/>
<circle cx="1521.59" cy="397.073" r="0.926828" fill="white" fill-opacity="0.5"/>
<circle cx="1536.42" cy="322.927" r="0.926828" fill="white" fill-opacity="0.5"/>
<circle cx="1536.42" cy="330.342" r="0.926828" fill="white" fill-opacity="0.5"/>
<circle cx="1536.42" cy="337.756" r="0.926828" fill="white" fill-opacity="0.5"/>
<circle cx="1536.42" cy="345.171" r="0.926828" fill="white" fill-opacity="0.5"/>
<circle cx="1536.42" cy="352.585" r="0.926828" fill="white" fill-opacity="0.5"/>
<circle cx="1536.42" cy="360" r="0.926828" fill="white" fill-opacity="0.5"/>
<circle cx="1536.42" cy="367.414" r="0.926828" fill="white" fill-opacity="0.5"/>
<circle cx="1536.42" cy="374.829" r="0.926828" fill="white" fill-opacity="0.5"/>
<circle cx="1536.42" cy="382.244" r="0.926828" fill="white" fill-opacity="0.5"/>
<circle cx="1536.42" cy="389.659" r="0.926828" fill="white" fill-opacity="0.5"/>
<circle cx="1536.42" cy="397.073" r="0.926828" fill="white" fill-opacity="0.5"/>
<circle cx="1551.24" cy="322.927" r="0.926828" fill="white" fill-opacity="0.5"/>
<circle cx="1551.24" cy="330.342" r="0.926828" fill="white" fill-opacity="0.5"/>
<circle cx="1551.24" cy="337.756" r="0.926828" fill="white" fill-opacity="0.5"/>
<circle cx="1551.24" cy="345.171" r="0.926828" fill="white" fill-opacity="0.5"/>
<circle cx="1551.24" cy="352.585" r="0.926828" fill="white" fill-opacity="0.5"/>
<circle cx="1551.24" cy="360" r="0.926828" fill="white" fill-opacity="0.5"/>
<circle cx="1551.24" cy="367.414" r="0.926828" fill="white" fill-opacity="0.5"/>
<circle cx="1551.24" cy="374.829" r="0.926828" fill="white" fill-opacity="0.5"/>
<circle cx="1551.24" cy="382.244" r="0.926828" fill="white" fill-opacity="0.5"/>
<circle cx="1551.24" cy="389.659" r="0.926828" fill="white" fill-opacity="0.5"/>
<circle cx="1551.24" cy="397.073" r="0.926828" fill="white" fill-opacity="0.5"/>
<circle cx="1543.83" cy="322.927" r="0.926828" fill="white" fill-opacity="0.5"/>
<circle cx="1543.83" cy="330.342" r="0.926828" fill="white" fill-opacity="0.5"/>
<circle cx="1543.83" cy="337.756" r="0.926828" fill="white" fill-opacity="0.5"/>
<circle cx="1543.83" cy="345.171" r="0.926828" fill="white" fill-opacity="0.5"/>
<circle cx="1543.83" cy="352.585" r="0.926828" fill="white" fill-opacity="0.5"/>
<circle cx="1543.83" cy="360" r="0.926828" fill="white" fill-opacity="0.5"/>
<circle cx="1543.83" cy="367.414" r="0.926828" fill="white" fill-opacity="0.5"/>
<circle cx="1543.83" cy="374.829" r="0.926828" fill="white" fill-opacity="0.5"/>
<circle cx="1543.83" cy="382.244" r="0.926828" fill="white" fill-opacity="0.5"/>
<circle cx="1543.83" cy="389.659" r="0.926828" fill="white" fill-opacity="0.5"/>
<circle cx="1543.83" cy="397.073" r="0.926828" fill="white" fill-opacity="0.5"/>
<circle cx="1558.66" cy="322.927" r="0.926828" fill="white" fill-opacity="0.5"/>
<circle cx="1558.66" cy="330.342" r="0.926828" fill="white" fill-opacity="0.5"/>
<circle cx="1558.66" cy="337.756" r="0.926828" fill="white" fill-opacity="0.5"/>
<circle cx="1558.66" cy="345.171" r="0.926828" fill="white" fill-opacity="0.5"/>
<circle cx="1558.66" cy="352.585" r="0.926828" fill="white" fill-opacity="0.5"/>
<circle cx="1558.66" cy="360" r="0.926828" fill="white" fill-opacity="0.5"/>
<circle cx="1558.66" cy="367.414" r="0.926828" fill="white" fill-opacity="0.5"/>
<circle cx="1558.66" cy="374.829" r="0.926828" fill="white" fill-opacity="0.5"/>
<circle cx="1558.66" cy="382.244" r="0.926828" fill="white" fill-opacity="0.5"/>
<circle cx="1558.66" cy="389.659" r="0.926828" fill="white" fill-opacity="0.5"/>
<circle cx="1558.66" cy="397.073" r="0.926828" fill="white" fill-opacity="0.5"/>
<circle cx="1566.07" cy="322.927" r="0.926828" fill="white" fill-opacity="0.5"/>
<circle cx="1566.07" cy="330.342" r="0.926828" fill="white" fill-opacity="0.5"/>
<circle cx="1566.07" cy="337.756" r="0.926828" fill="white" fill-opacity="0.5"/>
<circle cx="1566.07" cy="345.171" r="0.926828" fill="white" fill-opacity="0.5"/>
<circle cx="1566.07" cy="352.585" r="0.926828" fill="white" fill-opacity="0.5"/>
<circle cx="1566.07" cy="360" r="0.926828" fill="white" fill-opacity="0.5"/>
<circle cx="1566.07" cy="367.414" r="0.926828" fill="white" fill-opacity="0.5"/>
<circle cx="1566.07" cy="374.829" r="0.926828" fill="white" fill-opacity="0.5"/>
<circle cx="1566.07" cy="382.244" r="0.926828" fill="white" fill-opacity="0.5"/>
<circle cx="1566.07" cy="389.659" r="0.926828" fill="white" fill-opacity="0.5"/>
<circle cx="1566.07" cy="397.073" r="0.926828" fill="white" fill-opacity="0.5"/>
</svg>
