<svg width="1956" height="556" viewBox="0 0 1956 556" fill="none" xmlns="http://www.w3.org/2000/svg">
<circle cx="502.101" cy="71.2618" r="1.14758" fill="white"/>
<circle cx="502.101" cy="80.4425" r="1.14758" fill="white"/>
<circle cx="502.101" cy="89.6227" r="1.14758" fill="white"/>
<circle cx="502.101" cy="98.8033" r="1.14758" fill="white"/>
<circle cx="502.101" cy="107.984" r="1.14758" fill="white"/>
<circle cx="502.101" cy="117.165" r="1.14758" fill="white"/>
<circle cx="502.101" cy="126.345" r="1.14758" fill="white"/>
<circle cx="502.101" cy="135.526" r="1.14758" fill="white"/>
<circle cx="502.101" cy="144.707" r="1.14758" fill="white"/>
<circle cx="502.101" cy="153.887" r="1.14758" fill="white"/>
<circle cx="502.101" cy="163.068" r="1.14758" fill="white"/>
<circle cx="520.462" cy="71.2618" r="1.14758" fill="white"/>
<circle cx="520.462" cy="80.4425" r="1.14758" fill="white"/>
<circle cx="520.462" cy="89.6227" r="1.14758" fill="white"/>
<circle cx="520.462" cy="98.8033" r="1.14758" fill="white"/>
<circle cx="520.462" cy="107.984" r="1.14758" fill="white"/>
<circle cx="520.462" cy="117.165" r="1.14758" fill="white"/>
<circle cx="520.462" cy="126.345" r="1.14758" fill="white"/>
<circle cx="520.462" cy="135.526" r="1.14758" fill="white"/>
<circle cx="520.462" cy="144.707" r="1.14758" fill="white"/>
<circle cx="520.462" cy="153.887" r="1.14758" fill="white"/>
<circle cx="520.462" cy="163.068" r="1.14758" fill="white"/>
<circle cx="511.28" cy="71.2618" r="1.14758" fill="white"/>
<circle cx="511.28" cy="80.4425" r="1.14758" fill="white"/>
<circle cx="511.28" cy="89.6227" r="1.14758" fill="white"/>
<circle cx="511.28" cy="98.8033" r="1.14758" fill="white"/>
<circle cx="511.28" cy="107.984" r="1.14758" fill="white"/>
<circle cx="511.28" cy="117.165" r="1.14758" fill="white"/>
<circle cx="511.28" cy="126.345" r="1.14758" fill="white"/>
<circle cx="511.28" cy="135.526" r="1.14758" fill="white"/>
<circle cx="511.28" cy="144.707" r="1.14758" fill="white"/>
<circle cx="511.28" cy="153.887" r="1.14758" fill="white"/>
<circle cx="511.28" cy="163.068" r="1.14758" fill="white"/>
<circle cx="529.642" cy="71.2618" r="1.14758" fill="white"/>
<circle cx="529.642" cy="80.4425" r="1.14758" fill="white"/>
<circle cx="529.642" cy="89.6227" r="1.14758" fill="white"/>
<circle cx="529.642" cy="98.8033" r="1.14758" fill="white"/>
<circle cx="529.642" cy="107.984" r="1.14758" fill="white"/>
<circle cx="529.642" cy="117.165" r="1.14758" fill="white"/>
<circle cx="529.642" cy="126.345" r="1.14758" fill="white"/>
<circle cx="529.642" cy="135.526" r="1.14758" fill="white"/>
<circle cx="529.642" cy="144.707" r="1.14758" fill="white"/>
<circle cx="529.642" cy="153.887" r="1.14758" fill="white"/>
<circle cx="529.642" cy="163.068" r="1.14758" fill="white"/>
<circle cx="548.003" cy="71.2618" r="1.14758" fill="white"/>
<circle cx="548.003" cy="80.4425" r="1.14758" fill="white"/>
<circle cx="548.003" cy="89.6232" r="1.14758" fill="white"/>
<circle cx="548.003" cy="98.8038" r="1.14758" fill="white"/>
<circle cx="548.003" cy="107.984" r="1.14758" fill="white"/>
<circle cx="548.003" cy="117.165" r="1.14758" fill="white"/>
<circle cx="548.003" cy="126.345" r="1.14758" fill="white"/>
<circle cx="548.003" cy="135.526" r="1.14758" fill="white"/>
<circle cx="548.003" cy="144.707" r="1.14758" fill="white"/>
<circle cx="548.003" cy="153.888" r="1.14758" fill="white"/>
<circle cx="548.003" cy="163.068" r="1.14758" fill="white"/>
<circle cx="538.823" cy="71.2618" r="1.14758" fill="white"/>
<circle cx="538.823" cy="80.4425" r="1.14758" fill="white"/>
<circle cx="538.823" cy="89.6232" r="1.14758" fill="white"/>
<circle cx="538.823" cy="98.8038" r="1.14758" fill="white"/>
<circle cx="538.823" cy="107.984" r="1.14758" fill="white"/>
<circle cx="538.823" cy="117.165" r="1.14758" fill="white"/>
<circle cx="538.823" cy="126.345" r="1.14758" fill="white"/>
<circle cx="538.823" cy="135.526" r="1.14758" fill="white"/>
<circle cx="538.823" cy="144.707" r="1.14758" fill="white"/>
<circle cx="538.823" cy="153.888" r="1.14758" fill="white"/>
<circle cx="538.823" cy="163.068" r="1.14758" fill="white"/>
<circle cx="557.185" cy="71.2618" r="1.14758" fill="white"/>
<circle cx="557.185" cy="80.4425" r="1.14758" fill="white"/>
<circle cx="557.185" cy="89.6232" r="1.14758" fill="white"/>
<circle cx="557.185" cy="98.8038" r="1.14758" fill="white"/>
<circle cx="557.185" cy="107.984" r="1.14758" fill="white"/>
<circle cx="557.185" cy="117.165" r="1.14758" fill="white"/>
<circle cx="557.185" cy="126.345" r="1.14758" fill="white"/>
<circle cx="557.185" cy="135.526" r="1.14758" fill="white"/>
<circle cx="557.185" cy="144.707" r="1.14758" fill="white"/>
<circle cx="557.185" cy="153.888" r="1.14758" fill="white"/>
<circle cx="557.185" cy="163.068" r="1.14758" fill="white"/>
<circle cx="575.544" cy="71.2618" r="1.14758" fill="white"/>
<circle cx="575.544" cy="80.4425" r="1.14758" fill="white"/>
<circle cx="575.544" cy="89.6227" r="1.14758" fill="white"/>
<circle cx="575.544" cy="98.8033" r="1.14758" fill="white"/>
<circle cx="575.544" cy="107.984" r="1.14758" fill="white"/>
<circle cx="575.544" cy="117.165" r="1.14758" fill="white"/>
<circle cx="575.544" cy="126.345" r="1.14758" fill="white"/>
<circle cx="575.544" cy="135.526" r="1.14758" fill="white"/>
<circle cx="575.544" cy="144.707" r="1.14758" fill="white"/>
<circle cx="575.544" cy="153.887" r="1.14758" fill="white"/>
<circle cx="575.544" cy="163.068" r="1.14758" fill="white"/>
<circle cx="566.362" cy="71.2618" r="1.14758" fill="white"/>
<circle cx="566.362" cy="80.4425" r="1.14758" fill="white"/>
<circle cx="566.362" cy="89.6227" r="1.14758" fill="white"/>
<circle cx="566.362" cy="98.8033" r="1.14758" fill="white"/>
<circle cx="566.362" cy="107.984" r="1.14758" fill="white"/>
<circle cx="566.362" cy="117.165" r="1.14758" fill="white"/>
<circle cx="566.362" cy="126.345" r="1.14758" fill="white"/>
<circle cx="566.362" cy="135.526" r="1.14758" fill="white"/>
<circle cx="566.362" cy="144.707" r="1.14758" fill="white"/>
<circle cx="566.362" cy="153.887" r="1.14758" fill="white"/>
<circle cx="566.362" cy="163.068" r="1.14758" fill="white"/>
<circle cx="584.724" cy="71.2618" r="1.14758" fill="white"/>
<circle cx="584.724" cy="80.4425" r="1.14758" fill="white"/>
<circle cx="584.724" cy="89.6227" r="1.14758" fill="white"/>
<circle cx="584.724" cy="98.8033" r="1.14758" fill="white"/>
<circle cx="584.724" cy="107.984" r="1.14758" fill="white"/>
<circle cx="584.724" cy="117.165" r="1.14758" fill="white"/>
<circle cx="584.724" cy="126.345" r="1.14758" fill="white"/>
<circle cx="584.724" cy="135.526" r="1.14758" fill="white"/>
<circle cx="584.724" cy="144.707" r="1.14758" fill="white"/>
<circle cx="584.724" cy="153.887" r="1.14758" fill="white"/>
<circle cx="584.724" cy="163.068" r="1.14758" fill="white"/>
<circle cx="593.905" cy="71.2618" r="1.14758" fill="white"/>
<circle cx="593.905" cy="80.4425" r="1.14758" fill="white"/>
<circle cx="593.905" cy="89.6227" r="1.14758" fill="white"/>
<circle cx="593.905" cy="98.8033" r="1.14758" fill="white"/>
<circle cx="593.905" cy="107.984" r="1.14758" fill="white"/>
<circle cx="593.905" cy="117.165" r="1.14758" fill="white"/>
<circle cx="593.905" cy="126.345" r="1.14758" fill="white"/>
<circle cx="593.905" cy="135.526" r="1.14758" fill="white"/>
<circle cx="593.905" cy="144.707" r="1.14758" fill="white"/>
<circle cx="593.905" cy="153.887" r="1.14758" fill="white"/>
<circle cx="593.905" cy="163.068" r="1.14758" fill="white"/>
<circle cx="230.641" cy="230.641" r="230.641" fill="white" fill-opacity="0.16"/>
<circle cx="1553" cy="424.004" r="130.543" stroke="white" stroke-opacity="0.24" stroke-width="0.922563"/>
<path d="M464.973 89.4888H533.706" stroke="#9CC0FF" stroke-width="4.61282" stroke-linecap="round"/>
<circle cx="1674.02" cy="155.017" r="107.017" fill="#9CC0FF" fill-opacity="0.15"/>
<circle cx="1905.5" cy="284.5" r="50.1393" stroke="#9CC0FF" stroke-width="0.721429"/>
<circle cx="1340" cy="173" r="36" fill="white" fill-opacity="0.21"/>
<circle cx="146.579" cy="477.579" r="64.1182" stroke="#9CC0FF" stroke-width="0.922563"/>
<circle cx="606.138" cy="389.138" r="27.822" stroke="#337CFC" stroke-opacity="0.43" stroke-width="0.632319"/>
</svg>
