<svg width="1051" height="326" viewBox="0 0 1051 326" fill="none" xmlns="http://www.w3.org/2000/svg">
<path d="M394.71 115H817.242L1051 115.194V122.474V136.775V223.362C1009.81 181.045 794.28 162.355 648.292 192.66C559.102 211.175 461.917 239.743 345.637 239.743C223.854 239.743 66.2618 223.34 0 115H394.71Z" fill="#337CFC"/>
<rect y="-9.00005" width="1051" height="127" fill="#337CFC"/>
<circle cx="938.26" cy="230.26" r="82.2603" fill="white" fill-opacity="0.31"/>
<circle cx="889.415" cy="36.415" r="55.249" stroke="white" stroke-opacity="0.5" stroke-width="0.331826"/>
<circle cx="118.415" cy="33.4149" r="55.4149" fill="white" fill-opacity="0.29"/>
<circle cx="39.3974" cy="114.397" r="23.3974" fill="#9CC0FF"/>
<circle cx="36.3974" cy="49.3975" r="23.1511" stroke="white" stroke-opacity="0.53" stroke-width="0.492577"/>
<circle cx="1010.4" cy="141.398" r="23.3974" fill="#9CC0FF"/>
<circle cx="269.039" cy="241.039" r="1.03922" fill="white" fill-opacity="0.5"/>
<circle cx="269.039" cy="249.353" r="1.03922" fill="white" fill-opacity="0.5"/>
<circle cx="269.039" cy="257.667" r="1.03922" fill="white" fill-opacity="0.5"/>
<circle cx="269.039" cy="265.981" r="1.03922" fill="white" fill-opacity="0.5"/>
<circle cx="269.039" cy="274.294" r="1.03922" fill="white" fill-opacity="0.5"/>
<circle cx="269.039" cy="282.608" r="1.03922" fill="white" fill-opacity="0.5"/>
<circle cx="269.039" cy="290.922" r="1.03922" fill="white" fill-opacity="0.5"/>
<circle cx="269.039" cy="299.236" r="1.03922" fill="white" fill-opacity="0.5"/>
<circle cx="269.039" cy="307.549" r="1.03922" fill="white" fill-opacity="0.5"/>
<circle cx="269.039" cy="315.863" r="1.03922" fill="white" fill-opacity="0.5"/>
<circle cx="269.039" cy="324.177" r="1.03922" fill="white" fill-opacity="0.5"/>
<circle cx="285.666" cy="241.04" r="1.03922" fill="white" fill-opacity="0.5"/>
<circle cx="285.666" cy="249.353" r="1.03922" fill="white" fill-opacity="0.5"/>
<circle cx="285.666" cy="257.666" r="1.03922" fill="white" fill-opacity="0.5"/>
<circle cx="285.666" cy="265.98" r="1.03922" fill="white" fill-opacity="0.5"/>
<circle cx="285.666" cy="274.295" r="1.03922" fill="white" fill-opacity="0.5"/>
<circle cx="285.666" cy="282.608" r="1.03922" fill="white" fill-opacity="0.5"/>
<circle cx="285.666" cy="290.921" r="1.03922" fill="white" fill-opacity="0.5"/>
<circle cx="285.666" cy="299.236" r="1.03922" fill="white" fill-opacity="0.5"/>
<circle cx="285.666" cy="307.549" r="1.03922" fill="white" fill-opacity="0.5"/>
<circle cx="285.666" cy="315.863" r="1.03922" fill="white" fill-opacity="0.5"/>
<circle cx="285.666" cy="324.177" r="1.03922" fill="white" fill-opacity="0.5"/>
<circle cx="277.354" cy="241.04" r="1.03922" fill="white" fill-opacity="0.5"/>
<circle cx="277.354" cy="249.353" r="1.03922" fill="white" fill-opacity="0.5"/>
<circle cx="277.354" cy="257.667" r="1.03922" fill="white" fill-opacity="0.5"/>
<circle cx="277.354" cy="265.981" r="1.03922" fill="white" fill-opacity="0.5"/>
<circle cx="277.354" cy="274.295" r="1.03922" fill="white" fill-opacity="0.5"/>
<circle cx="277.354" cy="282.608" r="1.03922" fill="white" fill-opacity="0.5"/>
<circle cx="277.354" cy="290.921" r="1.03922" fill="white" fill-opacity="0.5"/>
<circle cx="277.354" cy="299.236" r="1.03922" fill="white" fill-opacity="0.5"/>
<circle cx="277.354" cy="307.549" r="1.03922" fill="white" fill-opacity="0.5"/>
<circle cx="277.354" cy="315.863" r="1.03922" fill="white" fill-opacity="0.5"/>
<circle cx="277.354" cy="324.177" r="1.03922" fill="white" fill-opacity="0.5"/>
<circle cx="293.981" cy="241.04" r="1.03922" fill="white" fill-opacity="0.5"/>
<circle cx="293.981" cy="249.353" r="1.03922" fill="white" fill-opacity="0.5"/>
<circle cx="293.981" cy="257.667" r="1.03922" fill="white" fill-opacity="0.5"/>
<circle cx="293.981" cy="265.981" r="1.03922" fill="white" fill-opacity="0.5"/>
<circle cx="293.981" cy="274.295" r="1.03922" fill="white" fill-opacity="0.5"/>
<circle cx="293.981" cy="282.608" r="1.03922" fill="white" fill-opacity="0.5"/>
<circle cx="293.981" cy="290.921" r="1.03922" fill="white" fill-opacity="0.5"/>
<circle cx="293.981" cy="299.236" r="1.03922" fill="white" fill-opacity="0.5"/>
<circle cx="293.981" cy="307.549" r="1.03922" fill="white" fill-opacity="0.5"/>
<circle cx="293.981" cy="315.863" r="1.03922" fill="white" fill-opacity="0.5"/>
<circle cx="293.981" cy="324.177" r="1.03922" fill="white" fill-opacity="0.5"/>
<circle cx="310.61" cy="241.04" r="1.03922" fill="white" fill-opacity="0.5"/>
<circle cx="310.61" cy="249.353" r="1.03922" fill="white" fill-opacity="0.5"/>
<circle cx="310.61" cy="257.667" r="1.03922" fill="white" fill-opacity="0.5"/>
<circle cx="310.61" cy="265.981" r="1.03922" fill="white" fill-opacity="0.5"/>
<circle cx="310.61" cy="274.295" r="1.03922" fill="white" fill-opacity="0.5"/>
<circle cx="310.61" cy="282.608" r="1.03922" fill="white" fill-opacity="0.5"/>
<circle cx="310.61" cy="290.922" r="1.03922" fill="white" fill-opacity="0.5"/>
<circle cx="310.61" cy="299.236" r="1.03922" fill="white" fill-opacity="0.5"/>
<circle cx="310.61" cy="307.549" r="1.03922" fill="white" fill-opacity="0.5"/>
<circle cx="310.61" cy="315.863" r="1.03922" fill="white" fill-opacity="0.5"/>
<circle cx="310.61" cy="324.177" r="1.03922" fill="white" fill-opacity="0.5"/>
<circle cx="302.295" cy="241.04" r="1.03922" fill="white" fill-opacity="0.5"/>
<circle cx="302.295" cy="249.353" r="1.03922" fill="white" fill-opacity="0.5"/>
<circle cx="302.295" cy="257.667" r="1.03922" fill="white" fill-opacity="0.5"/>
<circle cx="302.295" cy="265.981" r="1.03922" fill="white" fill-opacity="0.5"/>
<circle cx="302.295" cy="274.295" r="1.03922" fill="white" fill-opacity="0.5"/>
<circle cx="302.295" cy="282.608" r="1.03922" fill="white" fill-opacity="0.5"/>
<circle cx="302.295" cy="290.922" r="1.03922" fill="white" fill-opacity="0.5"/>
<circle cx="302.295" cy="299.236" r="1.03922" fill="white" fill-opacity="0.5"/>
<circle cx="302.295" cy="307.549" r="1.03922" fill="white" fill-opacity="0.5"/>
<circle cx="302.295" cy="315.863" r="1.03922" fill="white" fill-opacity="0.5"/>
<circle cx="302.295" cy="324.177" r="1.03922" fill="white" fill-opacity="0.5"/>
<circle cx="318.924" cy="241.04" r="1.03922" fill="white" fill-opacity="0.5"/>
<circle cx="318.924" cy="249.353" r="1.03922" fill="white" fill-opacity="0.5"/>
<circle cx="318.924" cy="257.667" r="1.03922" fill="white" fill-opacity="0.5"/>
<circle cx="318.924" cy="265.981" r="1.03922" fill="white" fill-opacity="0.5"/>
<circle cx="318.924" cy="274.295" r="1.03922" fill="white" fill-opacity="0.5"/>
<circle cx="318.924" cy="282.608" r="1.03922" fill="white" fill-opacity="0.5"/>
<circle cx="318.924" cy="290.922" r="1.03922" fill="white" fill-opacity="0.5"/>
<circle cx="318.924" cy="299.236" r="1.03922" fill="white" fill-opacity="0.5"/>
<circle cx="318.924" cy="307.549" r="1.03922" fill="white" fill-opacity="0.5"/>
<circle cx="318.924" cy="315.863" r="1.03922" fill="white" fill-opacity="0.5"/>
<circle cx="318.924" cy="324.177" r="1.03922" fill="white" fill-opacity="0.5"/>
<circle cx="335.549" cy="241.04" r="1.03922" fill="white" fill-opacity="0.5"/>
<circle cx="335.549" cy="249.353" r="1.03922" fill="white" fill-opacity="0.5"/>
<circle cx="335.549" cy="257.667" r="1.03922" fill="white" fill-opacity="0.5"/>
<circle cx="335.549" cy="265.981" r="1.03922" fill="white" fill-opacity="0.5"/>
<circle cx="335.549" cy="274.295" r="1.03922" fill="white" fill-opacity="0.5"/>
<circle cx="335.549" cy="282.608" r="1.03922" fill="white" fill-opacity="0.5"/>
<circle cx="335.549" cy="290.921" r="1.03922" fill="white" fill-opacity="0.5"/>
<circle cx="335.549" cy="299.236" r="1.03922" fill="white" fill-opacity="0.5"/>
<circle cx="335.549" cy="307.549" r="1.03922" fill="white" fill-opacity="0.5"/>
<circle cx="335.549" cy="315.863" r="1.03922" fill="white" fill-opacity="0.5"/>
<circle cx="335.549" cy="324.177" r="1.03922" fill="white" fill-opacity="0.5"/>
<circle cx="327.235" cy="241.04" r="1.03922" fill="white" fill-opacity="0.5"/>
<circle cx="327.235" cy="249.353" r="1.03922" fill="white" fill-opacity="0.5"/>
<circle cx="327.235" cy="257.667" r="1.03922" fill="white" fill-opacity="0.5"/>
<circle cx="327.235" cy="265.981" r="1.03922" fill="white" fill-opacity="0.5"/>
<circle cx="327.235" cy="274.295" r="1.03922" fill="white" fill-opacity="0.5"/>
<circle cx="327.235" cy="282.608" r="1.03922" fill="white" fill-opacity="0.5"/>
<circle cx="327.235" cy="290.921" r="1.03922" fill="white" fill-opacity="0.5"/>
<circle cx="327.235" cy="299.236" r="1.03922" fill="white" fill-opacity="0.5"/>
<circle cx="327.235" cy="307.549" r="1.03922" fill="white" fill-opacity="0.5"/>
<circle cx="327.235" cy="315.863" r="1.03922" fill="white" fill-opacity="0.5"/>
<circle cx="327.235" cy="324.177" r="1.03922" fill="white" fill-opacity="0.5"/>
<circle cx="343.863" cy="241.04" r="1.03922" fill="white" fill-opacity="0.5"/>
<circle cx="343.863" cy="249.353" r="1.03922" fill="white" fill-opacity="0.5"/>
<circle cx="343.863" cy="257.667" r="1.03922" fill="white" fill-opacity="0.5"/>
<circle cx="343.863" cy="265.981" r="1.03922" fill="white" fill-opacity="0.5"/>
<circle cx="343.863" cy="274.295" r="1.03922" fill="white" fill-opacity="0.5"/>
<circle cx="343.863" cy="282.608" r="1.03922" fill="white" fill-opacity="0.5"/>
<circle cx="343.863" cy="290.921" r="1.03922" fill="white" fill-opacity="0.5"/>
<circle cx="343.863" cy="299.236" r="1.03922" fill="white" fill-opacity="0.5"/>
<circle cx="343.863" cy="307.549" r="1.03922" fill="white" fill-opacity="0.5"/>
<circle cx="343.863" cy="315.863" r="1.03922" fill="white" fill-opacity="0.5"/>
<circle cx="343.863" cy="324.177" r="1.03922" fill="white" fill-opacity="0.5"/>
<circle cx="352.176" cy="241.04" r="1.03922" fill="white" fill-opacity="0.5"/>
<circle cx="352.176" cy="249.353" r="1.03922" fill="white" fill-opacity="0.5"/>
<circle cx="352.176" cy="257.667" r="1.03922" fill="white" fill-opacity="0.5"/>
<circle cx="352.176" cy="265.981" r="1.03922" fill="white" fill-opacity="0.5"/>
<circle cx="352.176" cy="274.295" r="1.03922" fill="white" fill-opacity="0.5"/>
<circle cx="352.176" cy="282.608" r="1.03922" fill="white" fill-opacity="0.5"/>
<circle cx="352.176" cy="290.921" r="1.03922" fill="white" fill-opacity="0.5"/>
<circle cx="352.176" cy="299.236" r="1.03922" fill="white" fill-opacity="0.5"/>
<circle cx="352.176" cy="307.549" r="1.03922" fill="white" fill-opacity="0.5"/>
<circle cx="352.176" cy="315.863" r="1.03922" fill="white" fill-opacity="0.5"/>
<circle cx="352.176" cy="324.177" r="1.03922" fill="white" fill-opacity="0.5"/>
<circle cx="931.456" cy="55.4562" r="0.456043" fill="white" fill-opacity="0.5"/>
<circle cx="931.456" cy="59.1086" r="0.456043" fill="white" fill-opacity="0.5"/>
<circle cx="931.456" cy="62.7603" r="0.456043" fill="white" fill-opacity="0.5"/>
<circle cx="931.456" cy="66.4127" r="0.456043" fill="white" fill-opacity="0.5"/>
<circle cx="931.456" cy="70.0651" r="0.456043" fill="white" fill-opacity="0.5"/>
<circle cx="931.456" cy="73.7176" r="0.456043" fill="white" fill-opacity="0.5"/>
<circle cx="931.456" cy="77.37" r="0.456043" fill="white" fill-opacity="0.5"/>
<circle cx="931.456" cy="81.0224" r="0.456043" fill="white" fill-opacity="0.5"/>
<circle cx="931.456" cy="84.6741" r="0.456043" fill="white" fill-opacity="0.5"/>
<circle cx="931.456" cy="88.3265" r="0.456043" fill="white" fill-opacity="0.5"/>
<circle cx="931.456" cy="91.979" r="0.456043" fill="white" fill-opacity="0.5"/>
<circle cx="938.761" cy="55.4571" r="0.456043" fill="white" fill-opacity="0.5"/>
<circle cx="938.761" cy="59.1095" r="0.456043" fill="white" fill-opacity="0.5"/>
<circle cx="938.761" cy="62.7612" r="0.456043" fill="white" fill-opacity="0.5"/>
<circle cx="938.761" cy="66.4136" r="0.456043" fill="white" fill-opacity="0.5"/>
<circle cx="938.761" cy="70.066" r="0.456043" fill="white" fill-opacity="0.5"/>
<circle cx="938.761" cy="73.7185" r="0.456043" fill="white" fill-opacity="0.5"/>
<circle cx="938.761" cy="77.3702" r="0.456043" fill="white" fill-opacity="0.5"/>
<circle cx="938.761" cy="81.0233" r="0.456043" fill="white" fill-opacity="0.5"/>
<circle cx="938.761" cy="84.675" r="0.456043" fill="white" fill-opacity="0.5"/>
<circle cx="938.761" cy="88.3274" r="0.456043" fill="white" fill-opacity="0.5"/>
<circle cx="938.761" cy="91.9799" r="0.456043" fill="white" fill-opacity="0.5"/>
<circle cx="935.108" cy="55.4562" r="0.456043" fill="white" fill-opacity="0.5"/>
<circle cx="935.108" cy="59.1086" r="0.456043" fill="white" fill-opacity="0.5"/>
<circle cx="935.108" cy="62.761" r="0.456043" fill="white" fill-opacity="0.5"/>
<circle cx="935.108" cy="66.4127" r="0.456043" fill="white" fill-opacity="0.5"/>
<circle cx="935.108" cy="70.0651" r="0.456043" fill="white" fill-opacity="0.5"/>
<circle cx="935.108" cy="73.7176" r="0.456043" fill="white" fill-opacity="0.5"/>
<circle cx="935.108" cy="77.37" r="0.456043" fill="white" fill-opacity="0.5"/>
<circle cx="935.108" cy="81.0224" r="0.456043" fill="white" fill-opacity="0.5"/>
<circle cx="935.108" cy="84.6741" r="0.456043" fill="white" fill-opacity="0.5"/>
<circle cx="935.108" cy="88.3265" r="0.456043" fill="white" fill-opacity="0.5"/>
<circle cx="935.108" cy="91.979" r="0.456043" fill="white" fill-opacity="0.5"/>
<circle cx="942.415" cy="55.4562" r="0.456043" fill="white" fill-opacity="0.5"/>
<circle cx="942.415" cy="59.1086" r="0.456043" fill="white" fill-opacity="0.5"/>
<circle cx="942.415" cy="62.761" r="0.456043" fill="white" fill-opacity="0.5"/>
<circle cx="942.415" cy="66.4127" r="0.456043" fill="white" fill-opacity="0.5"/>
<circle cx="942.415" cy="70.0651" r="0.456043" fill="white" fill-opacity="0.5"/>
<circle cx="942.415" cy="73.7176" r="0.456043" fill="white" fill-opacity="0.5"/>
<circle cx="942.415" cy="77.37" r="0.456043" fill="white" fill-opacity="0.5"/>
<circle cx="942.415" cy="81.0224" r="0.456043" fill="white" fill-opacity="0.5"/>
<circle cx="942.415" cy="84.6741" r="0.456043" fill="white" fill-opacity="0.5"/>
<circle cx="942.415" cy="88.3265" r="0.456043" fill="white" fill-opacity="0.5"/>
<circle cx="942.415" cy="91.979" r="0.456043" fill="white" fill-opacity="0.5"/>
<circle cx="949.716" cy="55.4562" r="0.456043" fill="white" fill-opacity="0.5"/>
<circle cx="949.716" cy="59.1086" r="0.456043" fill="white" fill-opacity="0.5"/>
<circle cx="949.716" cy="62.7603" r="0.456043" fill="white" fill-opacity="0.5"/>
<circle cx="949.716" cy="66.4127" r="0.456043" fill="white" fill-opacity="0.5"/>
<circle cx="949.716" cy="70.0651" r="0.456043" fill="white" fill-opacity="0.5"/>
<circle cx="949.716" cy="73.7176" r="0.456043" fill="white" fill-opacity="0.5"/>
<circle cx="949.716" cy="77.37" r="0.456043" fill="white" fill-opacity="0.5"/>
<circle cx="949.716" cy="81.0224" r="0.456043" fill="white" fill-opacity="0.5"/>
<circle cx="949.716" cy="84.6741" r="0.456043" fill="white" fill-opacity="0.5"/>
<circle cx="949.716" cy="88.3265" r="0.456043" fill="white" fill-opacity="0.5"/>
<circle cx="949.716" cy="91.979" r="0.456043" fill="white" fill-opacity="0.5"/>
<circle cx="946.065" cy="55.4562" r="0.456043" fill="white" fill-opacity="0.5"/>
<circle cx="946.065" cy="59.1086" r="0.456043" fill="white" fill-opacity="0.5"/>
<circle cx="946.065" cy="62.7603" r="0.456043" fill="white" fill-opacity="0.5"/>
<circle cx="946.065" cy="66.4127" r="0.456043" fill="white" fill-opacity="0.5"/>
<circle cx="946.065" cy="70.0651" r="0.456043" fill="white" fill-opacity="0.5"/>
<circle cx="946.065" cy="73.7176" r="0.456043" fill="white" fill-opacity="0.5"/>
<circle cx="946.065" cy="77.37" r="0.456043" fill="white" fill-opacity="0.5"/>
<circle cx="946.065" cy="81.0224" r="0.456043" fill="white" fill-opacity="0.5"/>
<circle cx="946.065" cy="84.6741" r="0.456043" fill="white" fill-opacity="0.5"/>
<circle cx="946.065" cy="88.3265" r="0.456043" fill="white" fill-opacity="0.5"/>
<circle cx="946.065" cy="91.979" r="0.456043" fill="white" fill-opacity="0.5"/>
<circle cx="953.372" cy="55.4562" r="0.456043" fill="white" fill-opacity="0.5"/>
<circle cx="953.372" cy="59.1086" r="0.456043" fill="white" fill-opacity="0.5"/>
<circle cx="953.372" cy="62.7603" r="0.456043" fill="white" fill-opacity="0.5"/>
<circle cx="953.372" cy="66.4127" r="0.456043" fill="white" fill-opacity="0.5"/>
<circle cx="953.372" cy="70.0651" r="0.456043" fill="white" fill-opacity="0.5"/>
<circle cx="953.372" cy="73.7176" r="0.456043" fill="white" fill-opacity="0.5"/>
<circle cx="953.372" cy="77.37" r="0.456043" fill="white" fill-opacity="0.5"/>
<circle cx="953.372" cy="81.0224" r="0.456043" fill="white" fill-opacity="0.5"/>
<circle cx="953.372" cy="84.6741" r="0.456043" fill="white" fill-opacity="0.5"/>
<circle cx="953.372" cy="88.3265" r="0.456043" fill="white" fill-opacity="0.5"/>
<circle cx="953.372" cy="91.979" r="0.456043" fill="white" fill-opacity="0.5"/>
<circle cx="960.675" cy="55.4571" r="0.456043" fill="white" fill-opacity="0.5"/>
<circle cx="960.675" cy="59.1095" r="0.456043" fill="white" fill-opacity="0.5"/>
<circle cx="960.675" cy="62.7612" r="0.456043" fill="white" fill-opacity="0.5"/>
<circle cx="960.675" cy="66.4136" r="0.456043" fill="white" fill-opacity="0.5"/>
<circle cx="960.675" cy="70.066" r="0.456043" fill="white" fill-opacity="0.5"/>
<circle cx="960.675" cy="73.7185" r="0.456043" fill="white" fill-opacity="0.5"/>
<circle cx="960.675" cy="77.3702" r="0.456043" fill="white" fill-opacity="0.5"/>
<circle cx="960.675" cy="81.0233" r="0.456043" fill="white" fill-opacity="0.5"/>
<circle cx="960.675" cy="84.675" r="0.456043" fill="white" fill-opacity="0.5"/>
<circle cx="960.675" cy="88.3274" r="0.456043" fill="white" fill-opacity="0.5"/>
<circle cx="960.675" cy="91.9799" r="0.456043" fill="white" fill-opacity="0.5"/>
<circle cx="957.021" cy="55.4569" r="0.456043" fill="white" fill-opacity="0.5"/>
<circle cx="957.021" cy="59.1095" r="0.456043" fill="white" fill-opacity="0.5"/>
<circle cx="957.021" cy="62.7612" r="0.456043" fill="white" fill-opacity="0.5"/>
<circle cx="957.021" cy="66.4136" r="0.456043" fill="white" fill-opacity="0.5"/>
<circle cx="957.021" cy="70.066" r="0.456043" fill="white" fill-opacity="0.5"/>
<circle cx="957.021" cy="73.7185" r="0.456043" fill="white" fill-opacity="0.5"/>
<circle cx="957.021" cy="77.3702" r="0.456043" fill="white" fill-opacity="0.5"/>
<circle cx="957.021" cy="81.0233" r="0.456043" fill="white" fill-opacity="0.5"/>
<circle cx="957.021" cy="84.675" r="0.456043" fill="white" fill-opacity="0.5"/>
<circle cx="957.021" cy="88.3274" r="0.456043" fill="white" fill-opacity="0.5"/>
<circle cx="957.021" cy="91.9799" r="0.456043" fill="white" fill-opacity="0.5"/>
<circle cx="964.329" cy="55.4571" r="0.456043" fill="white" fill-opacity="0.5"/>
<circle cx="964.329" cy="59.1095" r="0.456043" fill="white" fill-opacity="0.5"/>
<circle cx="964.329" cy="62.7612" r="0.456043" fill="white" fill-opacity="0.5"/>
<circle cx="964.329" cy="66.4136" r="0.456043" fill="white" fill-opacity="0.5"/>
<circle cx="964.329" cy="70.066" r="0.456043" fill="white" fill-opacity="0.5"/>
<circle cx="964.329" cy="73.7185" r="0.456043" fill="white" fill-opacity="0.5"/>
<circle cx="964.329" cy="77.3702" r="0.456043" fill="white" fill-opacity="0.5"/>
<circle cx="964.329" cy="81.0233" r="0.456043" fill="white" fill-opacity="0.5"/>
<circle cx="964.329" cy="84.675" r="0.456043" fill="white" fill-opacity="0.5"/>
<circle cx="964.329" cy="88.3274" r="0.456043" fill="white" fill-opacity="0.5"/>
<circle cx="964.329" cy="91.9799" r="0.456043" fill="white" fill-opacity="0.5"/>
<circle cx="967.979" cy="55.4571" r="0.456043" fill="white" fill-opacity="0.5"/>
<circle cx="967.979" cy="59.1095" r="0.456043" fill="white" fill-opacity="0.5"/>
<circle cx="967.979" cy="62.7612" r="0.456043" fill="white" fill-opacity="0.5"/>
<circle cx="967.979" cy="66.4136" r="0.456043" fill="white" fill-opacity="0.5"/>
<circle cx="967.979" cy="70.066" r="0.456043" fill="white" fill-opacity="0.5"/>
<circle cx="967.979" cy="73.7185" r="0.456043" fill="white" fill-opacity="0.5"/>
<circle cx="967.979" cy="77.3702" r="0.456043" fill="white" fill-opacity="0.5"/>
<circle cx="967.979" cy="81.0233" r="0.456043" fill="white" fill-opacity="0.5"/>
<circle cx="967.979" cy="84.675" r="0.456043" fill="white" fill-opacity="0.5"/>
<circle cx="967.979" cy="88.3274" r="0.456043" fill="white" fill-opacity="0.5"/>
<circle cx="967.979" cy="91.9799" r="0.456043" fill="white" fill-opacity="0.5"/>
</svg>
