<svg width="1840" height="704" viewBox="0 0 1840 704" fill="none" xmlns="http://www.w3.org/2000/svg">
<circle cx="1556" cy="250" r="250" fill="#948F8F" fill-opacity="0.07"/>
<circle cx="137" cy="567" r="137" fill="#9CC0FF" fill-opacity="0.22"/>
<circle cx="1698" cy="430" r="141.5" stroke="#337CFC" stroke-opacity="0.24"/>
<path d="M185 192H259.502" stroke="#337CFC" stroke-width="5" stroke-linecap="round"/>
<circle cx="223.524" cy="68.5242" r="1.52439" fill="#4F4F4F"/>
<circle cx="223.524" cy="80.7193" r="1.52439" fill="#4F4F4F"/>
<circle cx="223.524" cy="92.914" r="1.52439" fill="#4F4F4F"/>
<circle cx="223.524" cy="105.109" r="1.52439" fill="#4F4F4F"/>
<circle cx="223.524" cy="117.304" r="1.52439" fill="#4F4F4F"/>
<circle cx="223.524" cy="129.499" r="1.52439" fill="#4F4F4F"/>
<circle cx="223.524" cy="141.694" r="1.52439" fill="#4F4F4F"/>
<circle cx="223.524" cy="153.89" r="1.52439" fill="#4F4F4F"/>
<circle cx="223.524" cy="166.085" r="1.52439" fill="#4F4F4F"/>
<circle cx="223.524" cy="178.28" r="1.52439" fill="#4F4F4F"/>
<circle cx="223.524" cy="190.475" r="1.52439" fill="#4F4F4F"/>
<circle cx="247.915" cy="68.5243" r="1.52439" fill="#4F4F4F"/>
<circle cx="247.915" cy="80.7193" r="1.52439" fill="#4F4F4F"/>
<circle cx="247.915" cy="92.914" r="1.52439" fill="#4F4F4F"/>
<circle cx="247.915" cy="105.109" r="1.52439" fill="#4F4F4F"/>
<circle cx="247.915" cy="117.304" r="1.52439" fill="#4F4F4F"/>
<circle cx="247.915" cy="129.499" r="1.52439" fill="#4F4F4F"/>
<circle cx="247.915" cy="141.694" r="1.52439" fill="#4F4F4F"/>
<circle cx="247.915" cy="153.89" r="1.52439" fill="#4F4F4F"/>
<circle cx="247.915" cy="166.085" r="1.52439" fill="#4F4F4F"/>
<circle cx="247.915" cy="178.28" r="1.52439" fill="#4F4F4F"/>
<circle cx="247.915" cy="190.475" r="1.52439" fill="#4F4F4F"/>
<circle cx="235.72" cy="68.5243" r="1.52439" fill="#4F4F4F"/>
<circle cx="235.72" cy="80.7193" r="1.52439" fill="#4F4F4F"/>
<circle cx="235.72" cy="92.914" r="1.52439" fill="#4F4F4F"/>
<circle cx="235.72" cy="105.109" r="1.52439" fill="#4F4F4F"/>
<circle cx="235.72" cy="117.304" r="1.52439" fill="#4F4F4F"/>
<circle cx="235.72" cy="129.499" r="1.52439" fill="#4F4F4F"/>
<circle cx="235.72" cy="141.694" r="1.52439" fill="#4F4F4F"/>
<circle cx="235.72" cy="153.89" r="1.52439" fill="#4F4F4F"/>
<circle cx="235.72" cy="166.085" r="1.52439" fill="#4F4F4F"/>
<circle cx="235.72" cy="178.28" r="1.52439" fill="#4F4F4F"/>
<circle cx="235.72" cy="190.475" r="1.52439" fill="#4F4F4F"/>
<circle cx="260.109" cy="68.5243" r="1.52439" fill="#4F4F4F"/>
<circle cx="260.109" cy="80.7193" r="1.52439" fill="#4F4F4F"/>
<circle cx="260.109" cy="92.914" r="1.52439" fill="#4F4F4F"/>
<circle cx="260.109" cy="105.109" r="1.52439" fill="#4F4F4F"/>
<circle cx="260.109" cy="117.304" r="1.52439" fill="#4F4F4F"/>
<circle cx="260.109" cy="129.499" r="1.52439" fill="#4F4F4F"/>
<circle cx="260.109" cy="141.694" r="1.52439" fill="#4F4F4F"/>
<circle cx="260.109" cy="153.89" r="1.52439" fill="#4F4F4F"/>
<circle cx="260.109" cy="166.085" r="1.52439" fill="#4F4F4F"/>
<circle cx="260.109" cy="178.28" r="1.52439" fill="#4F4F4F"/>
<circle cx="260.109" cy="190.475" r="1.52439" fill="#4F4F4F"/>
<circle cx="284.5" cy="68.524" r="1.52439" fill="#4F4F4F"/>
<circle cx="284.5" cy="80.7193" r="1.52439" fill="#4F4F4F"/>
<circle cx="284.5" cy="92.914" r="1.52439" fill="#4F4F4F"/>
<circle cx="284.5" cy="105.109" r="1.52439" fill="#4F4F4F"/>
<circle cx="284.5" cy="117.304" r="1.52439" fill="#4F4F4F"/>
<circle cx="284.5" cy="129.499" r="1.52439" fill="#4F4F4F"/>
<circle cx="284.5" cy="141.694" r="1.52439" fill="#4F4F4F"/>
<circle cx="284.5" cy="153.89" r="1.52439" fill="#4F4F4F"/>
<circle cx="284.5" cy="166.085" r="1.52439" fill="#4F4F4F"/>
<circle cx="284.5" cy="178.28" r="1.52439" fill="#4F4F4F"/>
<circle cx="284.5" cy="190.475" r="1.52439" fill="#4F4F4F"/>
<circle cx="272.305" cy="68.524" r="1.52439" fill="#4F4F4F"/>
<circle cx="272.305" cy="80.7193" r="1.52439" fill="#4F4F4F"/>
<circle cx="272.305" cy="92.914" r="1.52439" fill="#4F4F4F"/>
<circle cx="272.305" cy="105.109" r="1.52439" fill="#4F4F4F"/>
<circle cx="272.305" cy="117.304" r="1.52439" fill="#4F4F4F"/>
<circle cx="272.305" cy="129.499" r="1.52439" fill="#4F4F4F"/>
<circle cx="272.305" cy="141.694" r="1.52439" fill="#4F4F4F"/>
<circle cx="272.305" cy="153.89" r="1.52439" fill="#4F4F4F"/>
<circle cx="272.305" cy="166.085" r="1.52439" fill="#4F4F4F"/>
<circle cx="272.305" cy="178.28" r="1.52439" fill="#4F4F4F"/>
<circle cx="272.305" cy="190.475" r="1.52439" fill="#4F4F4F"/>
<circle cx="296.695" cy="68.524" r="1.52439" fill="#4F4F4F"/>
<circle cx="296.695" cy="80.7193" r="1.52439" fill="#4F4F4F"/>
<circle cx="296.695" cy="92.914" r="1.52439" fill="#4F4F4F"/>
<circle cx="296.695" cy="105.109" r="1.52439" fill="#4F4F4F"/>
<circle cx="296.695" cy="117.304" r="1.52439" fill="#4F4F4F"/>
<circle cx="296.695" cy="129.499" r="1.52439" fill="#4F4F4F"/>
<circle cx="296.695" cy="141.694" r="1.52439" fill="#4F4F4F"/>
<circle cx="296.695" cy="153.89" r="1.52439" fill="#4F4F4F"/>
<circle cx="296.695" cy="166.085" r="1.52439" fill="#4F4F4F"/>
<circle cx="296.695" cy="178.28" r="1.52439" fill="#4F4F4F"/>
<circle cx="296.695" cy="190.475" r="1.52439" fill="#4F4F4F"/>
<circle cx="321.085" cy="68.5243" r="1.52439" fill="#4F4F4F"/>
<circle cx="321.085" cy="80.7193" r="1.52439" fill="#4F4F4F"/>
<circle cx="321.085" cy="92.914" r="1.52439" fill="#4F4F4F"/>
<circle cx="321.085" cy="105.109" r="1.52439" fill="#4F4F4F"/>
<circle cx="321.085" cy="117.304" r="1.52439" fill="#4F4F4F"/>
<circle cx="321.085" cy="129.499" r="1.52439" fill="#4F4F4F"/>
<circle cx="321.085" cy="141.694" r="1.52439" fill="#4F4F4F"/>
<circle cx="321.085" cy="153.89" r="1.52439" fill="#4F4F4F"/>
<circle cx="321.085" cy="166.085" r="1.52439" fill="#4F4F4F"/>
<circle cx="321.085" cy="178.28" r="1.52439" fill="#4F4F4F"/>
<circle cx="321.085" cy="190.475" r="1.52439" fill="#4F4F4F"/>
<circle cx="308.891" cy="68.5243" r="1.52439" fill="#4F4F4F"/>
<circle cx="308.891" cy="80.7193" r="1.52439" fill="#4F4F4F"/>
<circle cx="308.891" cy="92.914" r="1.52439" fill="#4F4F4F"/>
<circle cx="308.891" cy="105.109" r="1.52439" fill="#4F4F4F"/>
<circle cx="308.891" cy="117.304" r="1.52439" fill="#4F4F4F"/>
<circle cx="308.891" cy="129.499" r="1.52439" fill="#4F4F4F"/>
<circle cx="308.891" cy="141.694" r="1.52439" fill="#4F4F4F"/>
<circle cx="308.891" cy="153.89" r="1.52439" fill="#4F4F4F"/>
<circle cx="308.891" cy="166.085" r="1.52439" fill="#4F4F4F"/>
<circle cx="308.891" cy="178.28" r="1.52439" fill="#4F4F4F"/>
<circle cx="308.891" cy="190.475" r="1.52439" fill="#4F4F4F"/>
<circle cx="333.28" cy="68.5243" r="1.52439" fill="#4F4F4F"/>
<circle cx="333.28" cy="80.7193" r="1.52439" fill="#4F4F4F"/>
<circle cx="333.28" cy="92.914" r="1.52439" fill="#4F4F4F"/>
<circle cx="333.28" cy="105.109" r="1.52439" fill="#4F4F4F"/>
<circle cx="333.28" cy="117.304" r="1.52439" fill="#4F4F4F"/>
<circle cx="333.28" cy="129.499" r="1.52439" fill="#4F4F4F"/>
<circle cx="333.28" cy="141.694" r="1.52439" fill="#4F4F4F"/>
<circle cx="333.28" cy="153.89" r="1.52439" fill="#4F4F4F"/>
<circle cx="333.28" cy="166.085" r="1.52439" fill="#4F4F4F"/>
<circle cx="333.28" cy="178.28" r="1.52439" fill="#4F4F4F"/>
<circle cx="333.28" cy="190.475" r="1.52439" fill="#4F4F4F"/>
<circle cx="345.476" cy="68.5243" r="1.52439" fill="#4F4F4F"/>
<circle cx="345.476" cy="80.7193" r="1.52439" fill="#4F4F4F"/>
<circle cx="345.476" cy="92.914" r="1.52439" fill="#4F4F4F"/>
<circle cx="345.476" cy="105.109" r="1.52439" fill="#4F4F4F"/>
<circle cx="345.476" cy="117.304" r="1.52439" fill="#4F4F4F"/>
<circle cx="345.476" cy="129.499" r="1.52439" fill="#4F4F4F"/>
<circle cx="345.476" cy="141.694" r="1.52439" fill="#4F4F4F"/>
<circle cx="345.476" cy="153.89" r="1.52439" fill="#4F4F4F"/>
<circle cx="345.476" cy="166.085" r="1.52439" fill="#4F4F4F"/>
<circle cx="345.476" cy="178.28" r="1.52439" fill="#4F4F4F"/>
<circle cx="345.476" cy="190.475" r="1.52439" fill="#4F4F4F"/>
</svg>
