<svg width="290" height="277" viewBox="0 0 290 277" fill="none" xmlns="http://www.w3.org/2000/svg">
<path d="M144.997 232.026L74.7115 274.367C71.6066 276.342 68.3605 277.189 64.9732 276.907C61.586 276.625 58.6221 275.496 56.0817 273.52C53.5413 271.544 51.5654 269.077 50.154 266.119C48.7427 263.149 48.4604 259.83 49.3072 256.16L67.9371 176.137L5.69649 122.364C2.87379 119.824 1.11242 116.928 0.412392 113.676C-0.298929 110.435 -0.0900501 107.263 1.03903 104.158C2.16811 101.053 3.86173 98.5123 6.11989 96.5364C8.37805 94.5605 11.483 93.2903 15.4348 92.7257L97.5754 85.5279L129.331 10.1617C130.742 6.77449 132.933 4.23405 135.902 2.54043C138.86 0.846812 141.892 0 144.997 0C148.102 0 151.139 0.846812 154.108 2.54043C157.067 4.23405 159.251 6.77449 160.663 10.1617L192.418 85.5279L274.559 92.7257C278.511 93.2903 281.616 94.5605 283.874 96.5364C286.132 98.5123 287.826 101.053 288.955 104.158C290.084 107.263 290.298 110.435 289.598 113.676C288.887 116.928 287.12 119.824 284.297 122.364L222.057 176.137L240.686 256.16C241.533 259.83 241.251 263.149 239.84 266.119C238.428 269.077 236.452 271.544 233.912 273.52C231.371 275.496 228.408 276.625 225.02 276.907C221.633 277.189 218.387 276.342 215.282 274.367L144.997 232.026Z" fill="url(#paint0_linear_597_2215)"/>
<defs>
<linearGradient id="paint0_linear_597_2215" x1="6.54497e-06" y1="277" x2="298" y2="11" gradientUnits="userSpaceOnUse">
<stop stop-color="#DAB903"/>
<stop offset="0.510417" stop-color="#FFEE54"/>
<stop offset="1" stop-color="#F6F1A1"/>
</linearGradient>
</defs>
</svg>
