<svg width="1920" height="2770" viewBox="0 0 1920 2770" fill="none" xmlns="http://www.w3.org/2000/svg">
<circle cx="400.244" cy="77.2437" r="1.2439" fill="#4F4F4F"/>
<circle cx="400.244" cy="87.1949" r="1.2439" fill="#4F4F4F"/>
<circle cx="400.244" cy="97.1458" r="1.2439" fill="#4F4F4F"/>
<circle cx="400.244" cy="107.097" r="1.2439" fill="#4F4F4F"/>
<circle cx="400.244" cy="117.048" r="1.2439" fill="#4F4F4F"/>
<circle cx="400.244" cy="126.999" r="1.2439" fill="#4F4F4F"/>
<circle cx="400.244" cy="136.951" r="1.2439" fill="#4F4F4F"/>
<circle cx="400.244" cy="146.902" r="1.2439" fill="#4F4F4F"/>
<circle cx="400.244" cy="156.853" r="1.2439" fill="#4F4F4F"/>
<circle cx="400.244" cy="166.805" r="1.2439" fill="#4F4F4F"/>
<circle cx="400.244" cy="176.756" r="1.2439" fill="#4F4F4F"/>
<circle cx="420.146" cy="77.2438" r="1.2439" fill="#4F4F4F"/>
<circle cx="420.146" cy="87.195" r="1.2439" fill="#4F4F4F"/>
<circle cx="420.146" cy="97.1459" r="1.2439" fill="#4F4F4F"/>
<circle cx="420.146" cy="107.097" r="1.2439" fill="#4F4F4F"/>
<circle cx="420.146" cy="117.048" r="1.2439" fill="#4F4F4F"/>
<circle cx="420.146" cy="126.999" r="1.2439" fill="#4F4F4F"/>
<circle cx="420.146" cy="136.951" r="1.2439" fill="#4F4F4F"/>
<circle cx="420.146" cy="146.902" r="1.2439" fill="#4F4F4F"/>
<circle cx="420.146" cy="156.853" r="1.2439" fill="#4F4F4F"/>
<circle cx="420.146" cy="166.805" r="1.2439" fill="#4F4F4F"/>
<circle cx="420.146" cy="176.756" r="1.2439" fill="#4F4F4F"/>
<circle cx="410.195" cy="77.2438" r="1.2439" fill="#4F4F4F"/>
<circle cx="410.195" cy="87.195" r="1.2439" fill="#4F4F4F"/>
<circle cx="410.195" cy="97.1459" r="1.2439" fill="#4F4F4F"/>
<circle cx="410.195" cy="107.097" r="1.2439" fill="#4F4F4F"/>
<circle cx="410.195" cy="117.048" r="1.2439" fill="#4F4F4F"/>
<circle cx="410.195" cy="126.999" r="1.2439" fill="#4F4F4F"/>
<circle cx="410.195" cy="136.951" r="1.2439" fill="#4F4F4F"/>
<circle cx="410.195" cy="146.902" r="1.2439" fill="#4F4F4F"/>
<circle cx="410.195" cy="156.853" r="1.2439" fill="#4F4F4F"/>
<circle cx="410.195" cy="166.805" r="1.2439" fill="#4F4F4F"/>
<circle cx="410.195" cy="176.756" r="1.2439" fill="#4F4F4F"/>
<circle cx="430.097" cy="77.2438" r="1.2439" fill="#4F4F4F"/>
<circle cx="430.097" cy="87.195" r="1.2439" fill="#4F4F4F"/>
<circle cx="430.097" cy="97.1459" r="1.2439" fill="#4F4F4F"/>
<circle cx="430.097" cy="107.097" r="1.2439" fill="#4F4F4F"/>
<circle cx="430.097" cy="117.048" r="1.2439" fill="#4F4F4F"/>
<circle cx="430.097" cy="126.999" r="1.2439" fill="#4F4F4F"/>
<circle cx="430.097" cy="136.951" r="1.2439" fill="#4F4F4F"/>
<circle cx="430.097" cy="146.902" r="1.2439" fill="#4F4F4F"/>
<circle cx="430.097" cy="156.853" r="1.2439" fill="#4F4F4F"/>
<circle cx="430.097" cy="166.805" r="1.2439" fill="#4F4F4F"/>
<circle cx="430.097" cy="176.756" r="1.2439" fill="#4F4F4F"/>
<circle cx="450" cy="77.2436" r="1.2439" fill="#4F4F4F"/>
<circle cx="450" cy="87.195" r="1.2439" fill="#4F4F4F"/>
<circle cx="450" cy="97.1459" r="1.2439" fill="#4F4F4F"/>
<circle cx="450" cy="107.097" r="1.2439" fill="#4F4F4F"/>
<circle cx="450" cy="117.048" r="1.2439" fill="#4F4F4F"/>
<circle cx="450" cy="126.999" r="1.2439" fill="#4F4F4F"/>
<circle cx="450" cy="136.951" r="1.2439" fill="#4F4F4F"/>
<circle cx="450" cy="146.902" r="1.2439" fill="#4F4F4F"/>
<circle cx="450" cy="156.853" r="1.2439" fill="#4F4F4F"/>
<circle cx="450" cy="166.805" r="1.2439" fill="#4F4F4F"/>
<circle cx="450" cy="176.756" r="1.2439" fill="#4F4F4F"/>
<circle cx="440.049" cy="77.2436" r="1.2439" fill="#4F4F4F"/>
<circle cx="440.049" cy="87.195" r="1.2439" fill="#4F4F4F"/>
<circle cx="440.049" cy="97.1459" r="1.2439" fill="#4F4F4F"/>
<circle cx="440.049" cy="107.097" r="1.2439" fill="#4F4F4F"/>
<circle cx="440.049" cy="117.048" r="1.2439" fill="#4F4F4F"/>
<circle cx="440.049" cy="126.999" r="1.2439" fill="#4F4F4F"/>
<circle cx="440.049" cy="136.951" r="1.2439" fill="#4F4F4F"/>
<circle cx="440.049" cy="146.902" r="1.2439" fill="#4F4F4F"/>
<circle cx="440.049" cy="156.853" r="1.2439" fill="#4F4F4F"/>
<circle cx="440.049" cy="166.805" r="1.2439" fill="#4F4F4F"/>
<circle cx="440.049" cy="176.756" r="1.2439" fill="#4F4F4F"/>
<circle cx="459.951" cy="77.2436" r="1.2439" fill="#4F4F4F"/>
<circle cx="459.951" cy="87.195" r="1.2439" fill="#4F4F4F"/>
<circle cx="459.951" cy="97.1459" r="1.2439" fill="#4F4F4F"/>
<circle cx="459.951" cy="107.097" r="1.2439" fill="#4F4F4F"/>
<circle cx="459.951" cy="117.048" r="1.2439" fill="#4F4F4F"/>
<circle cx="459.951" cy="126.999" r="1.2439" fill="#4F4F4F"/>
<circle cx="459.951" cy="136.951" r="1.2439" fill="#4F4F4F"/>
<circle cx="459.951" cy="146.902" r="1.2439" fill="#4F4F4F"/>
<circle cx="459.951" cy="156.853" r="1.2439" fill="#4F4F4F"/>
<circle cx="459.951" cy="166.805" r="1.2439" fill="#4F4F4F"/>
<circle cx="459.951" cy="176.756" r="1.2439" fill="#4F4F4F"/>
<circle cx="479.854" cy="77.2438" r="1.2439" fill="#4F4F4F"/>
<circle cx="479.854" cy="87.195" r="1.2439" fill="#4F4F4F"/>
<circle cx="479.854" cy="97.1459" r="1.2439" fill="#4F4F4F"/>
<circle cx="479.854" cy="107.097" r="1.2439" fill="#4F4F4F"/>
<circle cx="479.854" cy="117.048" r="1.2439" fill="#4F4F4F"/>
<circle cx="479.854" cy="126.999" r="1.2439" fill="#4F4F4F"/>
<circle cx="479.854" cy="136.951" r="1.2439" fill="#4F4F4F"/>
<circle cx="479.854" cy="146.902" r="1.2439" fill="#4F4F4F"/>
<circle cx="479.854" cy="156.853" r="1.2439" fill="#4F4F4F"/>
<circle cx="479.854" cy="166.805" r="1.2439" fill="#4F4F4F"/>
<circle cx="479.854" cy="176.756" r="1.2439" fill="#4F4F4F"/>
<circle cx="469.902" cy="77.2438" r="1.2439" fill="#4F4F4F"/>
<circle cx="469.902" cy="87.195" r="1.2439" fill="#4F4F4F"/>
<circle cx="469.902" cy="97.1459" r="1.2439" fill="#4F4F4F"/>
<circle cx="469.902" cy="107.097" r="1.2439" fill="#4F4F4F"/>
<circle cx="469.902" cy="117.048" r="1.2439" fill="#4F4F4F"/>
<circle cx="469.902" cy="126.999" r="1.2439" fill="#4F4F4F"/>
<circle cx="469.902" cy="136.951" r="1.2439" fill="#4F4F4F"/>
<circle cx="469.902" cy="146.902" r="1.2439" fill="#4F4F4F"/>
<circle cx="469.902" cy="156.853" r="1.2439" fill="#4F4F4F"/>
<circle cx="469.902" cy="166.805" r="1.2439" fill="#4F4F4F"/>
<circle cx="469.902" cy="176.756" r="1.2439" fill="#4F4F4F"/>
<circle cx="489.804" cy="77.2438" r="1.2439" fill="#4F4F4F"/>
<circle cx="489.804" cy="87.195" r="1.2439" fill="#4F4F4F"/>
<circle cx="489.804" cy="97.1459" r="1.2439" fill="#4F4F4F"/>
<circle cx="489.804" cy="107.097" r="1.2439" fill="#4F4F4F"/>
<circle cx="489.804" cy="117.048" r="1.2439" fill="#4F4F4F"/>
<circle cx="489.804" cy="126.999" r="1.2439" fill="#4F4F4F"/>
<circle cx="489.804" cy="136.951" r="1.2439" fill="#4F4F4F"/>
<circle cx="489.804" cy="146.902" r="1.2439" fill="#4F4F4F"/>
<circle cx="489.804" cy="156.853" r="1.2439" fill="#4F4F4F"/>
<circle cx="489.804" cy="166.805" r="1.2439" fill="#4F4F4F"/>
<circle cx="489.804" cy="176.756" r="1.2439" fill="#4F4F4F"/>
<circle cx="499.756" cy="77.2438" r="1.2439" fill="#4F4F4F"/>
<circle cx="499.756" cy="87.195" r="1.2439" fill="#4F4F4F"/>
<circle cx="499.756" cy="97.1459" r="1.2439" fill="#4F4F4F"/>
<circle cx="499.756" cy="107.097" r="1.2439" fill="#4F4F4F"/>
<circle cx="499.756" cy="117.048" r="1.2439" fill="#4F4F4F"/>
<circle cx="499.756" cy="126.999" r="1.2439" fill="#4F4F4F"/>
<circle cx="499.756" cy="136.951" r="1.2439" fill="#4F4F4F"/>
<circle cx="499.756" cy="146.902" r="1.2439" fill="#4F4F4F"/>
<circle cx="499.756" cy="156.853" r="1.2439" fill="#4F4F4F"/>
<circle cx="499.756" cy="166.805" r="1.2439" fill="#4F4F4F"/>
<circle cx="499.756" cy="176.756" r="1.2439" fill="#4F4F4F"/>
<circle cx="106" cy="250" r="250" fill="#979797" fill-opacity="0.07"/>
<circle cx="190" cy="444" r="141.5" stroke="#337CFC" stroke-opacity="0.24"/>
<path d="M360 97H434.502" stroke="#337CFC" stroke-width="5" stroke-linecap="round"/>
<circle cx="1519" cy="201" r="116" fill="#9CC0FF" fill-opacity="0.15"/>
<circle cx="246" cy="800" r="106" fill="#9CC0FF" fill-opacity="0.15"/>
<circle cx="1834.5" cy="794.5" r="268.5" fill="#979797" fill-opacity="0.07"/>
<circle cx="1701.5" cy="2501.5" r="268.5" fill="#979797" fill-opacity="0.07"/>
<circle cx="1802" cy="191" r="69.5" stroke="#9CC0FF"/>
<circle cx="87.5" cy="1081.5" r="155.382" stroke="#F52525" stroke-opacity="0.12" stroke-width="2.23571"/>
<circle cx="1919.5" cy="1136.5" r="155.382" stroke="#F52525" stroke-opacity="0.12" stroke-width="2.23571"/>
<circle cx="650.5" cy="219.5" r="30.1573" stroke="#337CFC" stroke-opacity="0.43" stroke-width="0.685393"/>
<circle cx="1479.52" cy="312.524" r="1.52439" fill="#4F4F4F"/>
<circle cx="1479.52" cy="324.719" r="1.52439" fill="#4F4F4F"/>
<circle cx="1479.52" cy="336.914" r="1.52439" fill="#4F4F4F"/>
<circle cx="1479.52" cy="349.109" r="1.52439" fill="#4F4F4F"/>
<circle cx="1479.52" cy="361.304" r="1.52439" fill="#4F4F4F"/>
<circle cx="1479.52" cy="373.499" r="1.52439" fill="#4F4F4F"/>
<circle cx="1479.52" cy="385.694" r="1.52439" fill="#4F4F4F"/>
<circle cx="1479.52" cy="397.89" r="1.52439" fill="#4F4F4F"/>
<circle cx="1479.52" cy="410.085" r="1.52439" fill="#4F4F4F"/>
<circle cx="1479.52" cy="422.28" r="1.52439" fill="#4F4F4F"/>
<circle cx="1479.52" cy="434.475" r="1.52439" fill="#4F4F4F"/>
<circle cx="1503.92" cy="312.524" r="1.52439" fill="#4F4F4F"/>
<circle cx="1503.92" cy="324.719" r="1.52439" fill="#4F4F4F"/>
<circle cx="1503.92" cy="336.914" r="1.52439" fill="#4F4F4F"/>
<circle cx="1503.92" cy="349.109" r="1.52439" fill="#4F4F4F"/>
<circle cx="1503.92" cy="361.305" r="1.52439" fill="#4F4F4F"/>
<circle cx="1503.92" cy="373.499" r="1.52439" fill="#4F4F4F"/>
<circle cx="1503.92" cy="385.694" r="1.52439" fill="#4F4F4F"/>
<circle cx="1503.92" cy="397.89" r="1.52439" fill="#4F4F4F"/>
<circle cx="1503.92" cy="410.085" r="1.52439" fill="#4F4F4F"/>
<circle cx="1503.92" cy="422.28" r="1.52439" fill="#4F4F4F"/>
<circle cx="1503.92" cy="434.475" r="1.52439" fill="#4F4F4F"/>
<circle cx="1491.72" cy="312.524" r="1.52439" fill="#4F4F4F"/>
<circle cx="1491.72" cy="324.719" r="1.52439" fill="#4F4F4F"/>
<circle cx="1491.72" cy="336.914" r="1.52439" fill="#4F4F4F"/>
<circle cx="1491.72" cy="349.109" r="1.52439" fill="#4F4F4F"/>
<circle cx="1491.72" cy="361.305" r="1.52439" fill="#4F4F4F"/>
<circle cx="1491.72" cy="373.499" r="1.52439" fill="#4F4F4F"/>
<circle cx="1491.72" cy="385.694" r="1.52439" fill="#4F4F4F"/>
<circle cx="1491.72" cy="397.89" r="1.52439" fill="#4F4F4F"/>
<circle cx="1491.72" cy="410.085" r="1.52439" fill="#4F4F4F"/>
<circle cx="1491.72" cy="422.28" r="1.52439" fill="#4F4F4F"/>
<circle cx="1491.72" cy="434.475" r="1.52439" fill="#4F4F4F"/>
<circle cx="1516.11" cy="312.524" r="1.52439" fill="#4F4F4F"/>
<circle cx="1516.11" cy="324.719" r="1.52439" fill="#4F4F4F"/>
<circle cx="1516.11" cy="336.914" r="1.52439" fill="#4F4F4F"/>
<circle cx="1516.11" cy="349.109" r="1.52439" fill="#4F4F4F"/>
<circle cx="1516.11" cy="361.305" r="1.52439" fill="#4F4F4F"/>
<circle cx="1516.11" cy="373.499" r="1.52439" fill="#4F4F4F"/>
<circle cx="1516.11" cy="385.694" r="1.52439" fill="#4F4F4F"/>
<circle cx="1516.11" cy="397.89" r="1.52439" fill="#4F4F4F"/>
<circle cx="1516.11" cy="410.085" r="1.52439" fill="#4F4F4F"/>
<circle cx="1516.11" cy="422.28" r="1.52439" fill="#4F4F4F"/>
<circle cx="1516.11" cy="434.475" r="1.52439" fill="#4F4F4F"/>
<circle cx="1540.5" cy="312.524" r="1.52439" fill="#4F4F4F"/>
<circle cx="1540.5" cy="324.719" r="1.52439" fill="#4F4F4F"/>
<circle cx="1540.5" cy="336.914" r="1.52439" fill="#4F4F4F"/>
<circle cx="1540.5" cy="349.109" r="1.52439" fill="#4F4F4F"/>
<circle cx="1540.5" cy="361.305" r="1.52439" fill="#4F4F4F"/>
<circle cx="1540.5" cy="373.499" r="1.52439" fill="#4F4F4F"/>
<circle cx="1540.5" cy="385.694" r="1.52439" fill="#4F4F4F"/>
<circle cx="1540.5" cy="397.89" r="1.52439" fill="#4F4F4F"/>
<circle cx="1540.5" cy="410.085" r="1.52439" fill="#4F4F4F"/>
<circle cx="1540.5" cy="422.28" r="1.52439" fill="#4F4F4F"/>
<circle cx="1540.5" cy="434.475" r="1.52439" fill="#4F4F4F"/>
<circle cx="1528.3" cy="312.524" r="1.52439" fill="#4F4F4F"/>
<circle cx="1528.3" cy="324.719" r="1.52439" fill="#4F4F4F"/>
<circle cx="1528.3" cy="336.914" r="1.52439" fill="#4F4F4F"/>
<circle cx="1528.3" cy="349.109" r="1.52439" fill="#4F4F4F"/>
<circle cx="1528.3" cy="361.305" r="1.52439" fill="#4F4F4F"/>
<circle cx="1528.3" cy="373.499" r="1.52439" fill="#4F4F4F"/>
<circle cx="1528.3" cy="385.694" r="1.52439" fill="#4F4F4F"/>
<circle cx="1528.3" cy="397.89" r="1.52439" fill="#4F4F4F"/>
<circle cx="1528.3" cy="410.085" r="1.52439" fill="#4F4F4F"/>
<circle cx="1528.3" cy="422.28" r="1.52439" fill="#4F4F4F"/>
<circle cx="1528.3" cy="434.475" r="1.52439" fill="#4F4F4F"/>
<circle cx="1552.7" cy="312.524" r="1.52439" fill="#4F4F4F"/>
<circle cx="1552.7" cy="324.719" r="1.52439" fill="#4F4F4F"/>
<circle cx="1552.7" cy="336.914" r="1.52439" fill="#4F4F4F"/>
<circle cx="1552.7" cy="349.109" r="1.52439" fill="#4F4F4F"/>
<circle cx="1552.7" cy="361.305" r="1.52439" fill="#4F4F4F"/>
<circle cx="1552.7" cy="373.499" r="1.52439" fill="#4F4F4F"/>
<circle cx="1552.7" cy="385.694" r="1.52439" fill="#4F4F4F"/>
<circle cx="1552.7" cy="397.89" r="1.52439" fill="#4F4F4F"/>
<circle cx="1552.7" cy="410.085" r="1.52439" fill="#4F4F4F"/>
<circle cx="1552.7" cy="422.28" r="1.52439" fill="#4F4F4F"/>
<circle cx="1552.7" cy="434.475" r="1.52439" fill="#4F4F4F"/>
<circle cx="1577.08" cy="312.524" r="1.52439" fill="#4F4F4F"/>
<circle cx="1577.08" cy="324.719" r="1.52439" fill="#4F4F4F"/>
<circle cx="1577.08" cy="336.914" r="1.52439" fill="#4F4F4F"/>
<circle cx="1577.08" cy="349.109" r="1.52439" fill="#4F4F4F"/>
<circle cx="1577.08" cy="361.305" r="1.52439" fill="#4F4F4F"/>
<circle cx="1577.08" cy="373.499" r="1.52439" fill="#4F4F4F"/>
<circle cx="1577.08" cy="385.694" r="1.52439" fill="#4F4F4F"/>
<circle cx="1577.08" cy="397.89" r="1.52439" fill="#4F4F4F"/>
<circle cx="1577.08" cy="410.085" r="1.52439" fill="#4F4F4F"/>
<circle cx="1577.08" cy="422.28" r="1.52439" fill="#4F4F4F"/>
<circle cx="1577.08" cy="434.475" r="1.52439" fill="#4F4F4F"/>
<circle cx="1564.89" cy="312.524" r="1.52439" fill="#4F4F4F"/>
<circle cx="1564.89" cy="324.719" r="1.52439" fill="#4F4F4F"/>
<circle cx="1564.89" cy="336.914" r="1.52439" fill="#4F4F4F"/>
<circle cx="1564.89" cy="349.109" r="1.52439" fill="#4F4F4F"/>
<circle cx="1564.89" cy="361.305" r="1.52439" fill="#4F4F4F"/>
<circle cx="1564.89" cy="373.499" r="1.52439" fill="#4F4F4F"/>
<circle cx="1564.89" cy="385.694" r="1.52439" fill="#4F4F4F"/>
<circle cx="1564.89" cy="397.89" r="1.52439" fill="#4F4F4F"/>
<circle cx="1564.89" cy="410.085" r="1.52439" fill="#4F4F4F"/>
<circle cx="1564.89" cy="422.28" r="1.52439" fill="#4F4F4F"/>
<circle cx="1564.89" cy="434.475" r="1.52439" fill="#4F4F4F"/>
<circle cx="1589.28" cy="312.524" r="1.52439" fill="#4F4F4F"/>
<circle cx="1589.28" cy="324.719" r="1.52439" fill="#4F4F4F"/>
<circle cx="1589.28" cy="336.914" r="1.52439" fill="#4F4F4F"/>
<circle cx="1589.28" cy="349.109" r="1.52439" fill="#4F4F4F"/>
<circle cx="1589.28" cy="361.305" r="1.52439" fill="#4F4F4F"/>
<circle cx="1589.28" cy="373.499" r="1.52439" fill="#4F4F4F"/>
<circle cx="1589.28" cy="385.694" r="1.52439" fill="#4F4F4F"/>
<circle cx="1589.28" cy="397.89" r="1.52439" fill="#4F4F4F"/>
<circle cx="1589.28" cy="410.085" r="1.52439" fill="#4F4F4F"/>
<circle cx="1589.28" cy="422.28" r="1.52439" fill="#4F4F4F"/>
<circle cx="1589.28" cy="434.475" r="1.52439" fill="#4F4F4F"/>
<circle cx="1601.48" cy="312.524" r="1.52439" fill="#4F4F4F"/>
<circle cx="1601.48" cy="324.719" r="1.52439" fill="#4F4F4F"/>
<circle cx="1601.48" cy="336.914" r="1.52439" fill="#4F4F4F"/>
<circle cx="1601.48" cy="349.109" r="1.52439" fill="#4F4F4F"/>
<circle cx="1601.48" cy="361.305" r="1.52439" fill="#4F4F4F"/>
<circle cx="1601.48" cy="373.499" r="1.52439" fill="#4F4F4F"/>
<circle cx="1601.48" cy="385.694" r="1.52439" fill="#4F4F4F"/>
<circle cx="1601.48" cy="397.89" r="1.52439" fill="#4F4F4F"/>
<circle cx="1601.48" cy="410.085" r="1.52439" fill="#4F4F4F"/>
<circle cx="1601.48" cy="422.28" r="1.52439" fill="#4F4F4F"/>
<circle cx="1601.48" cy="434.475" r="1.52439" fill="#4F4F4F"/>
<g opacity="0.5">
<circle cx="49.5244" cy="810.524" r="1.52439" fill="#4F4F4F"/>
<circle cx="49.5244" cy="822.719" r="1.52439" fill="#4F4F4F"/>
<circle cx="49.5244" cy="834.913" r="1.52439" fill="#4F4F4F"/>
<circle cx="49.5244" cy="847.109" r="1.52439" fill="#4F4F4F"/>
<circle cx="49.5244" cy="859.304" r="1.52439" fill="#4F4F4F"/>
<circle cx="49.5244" cy="871.499" r="1.52439" fill="#4F4F4F"/>
<circle cx="49.5244" cy="883.694" r="1.52439" fill="#4F4F4F"/>
<circle cx="49.5244" cy="895.89" r="1.52439" fill="#4F4F4F"/>
<circle cx="49.5244" cy="908.084" r="1.52439" fill="#4F4F4F"/>
<circle cx="49.5244" cy="920.28" r="1.52439" fill="#4F4F4F"/>
<circle cx="49.5244" cy="932.475" r="1.52439" fill="#4F4F4F"/>
<circle cx="73.9145" cy="810.524" r="1.52439" fill="#4F4F4F"/>
<circle cx="73.9145" cy="822.719" r="1.52439" fill="#4F4F4F"/>
<circle cx="73.9145" cy="834.914" r="1.52439" fill="#4F4F4F"/>
<circle cx="73.9145" cy="847.109" r="1.52439" fill="#4F4F4F"/>
<circle cx="73.9145" cy="859.304" r="1.52439" fill="#4F4F4F"/>
<circle cx="73.9145" cy="871.499" r="1.52439" fill="#4F4F4F"/>
<circle cx="73.9145" cy="883.694" r="1.52439" fill="#4F4F4F"/>
<circle cx="73.9145" cy="895.89" r="1.52439" fill="#4F4F4F"/>
<circle cx="73.9145" cy="908.084" r="1.52439" fill="#4F4F4F"/>
<circle cx="73.9145" cy="920.28" r="1.52439" fill="#4F4F4F"/>
<circle cx="73.9145" cy="932.475" r="1.52439" fill="#4F4F4F"/>
<circle cx="61.7197" cy="810.524" r="1.52439" fill="#4F4F4F"/>
<circle cx="61.7197" cy="822.719" r="1.52439" fill="#4F4F4F"/>
<circle cx="61.7197" cy="834.914" r="1.52439" fill="#4F4F4F"/>
<circle cx="61.7197" cy="847.109" r="1.52439" fill="#4F4F4F"/>
<circle cx="61.7197" cy="859.304" r="1.52439" fill="#4F4F4F"/>
<circle cx="61.7197" cy="871.499" r="1.52439" fill="#4F4F4F"/>
<circle cx="61.7197" cy="883.694" r="1.52439" fill="#4F4F4F"/>
<circle cx="61.7197" cy="895.89" r="1.52439" fill="#4F4F4F"/>
<circle cx="61.7197" cy="908.084" r="1.52439" fill="#4F4F4F"/>
<circle cx="61.7197" cy="920.28" r="1.52439" fill="#4F4F4F"/>
<circle cx="61.7197" cy="932.475" r="1.52439" fill="#4F4F4F"/>
<circle cx="86.1098" cy="810.524" r="1.52439" fill="#4F4F4F"/>
<circle cx="86.1098" cy="822.719" r="1.52439" fill="#4F4F4F"/>
<circle cx="86.1098" cy="834.914" r="1.52439" fill="#4F4F4F"/>
<circle cx="86.1098" cy="847.109" r="1.52439" fill="#4F4F4F"/>
<circle cx="86.1098" cy="859.304" r="1.52439" fill="#4F4F4F"/>
<circle cx="86.1098" cy="871.499" r="1.52439" fill="#4F4F4F"/>
<circle cx="86.1098" cy="883.694" r="1.52439" fill="#4F4F4F"/>
<circle cx="86.1098" cy="895.89" r="1.52439" fill="#4F4F4F"/>
<circle cx="86.1098" cy="908.084" r="1.52439" fill="#4F4F4F"/>
<circle cx="86.1098" cy="920.28" r="1.52439" fill="#4F4F4F"/>
<circle cx="86.1098" cy="932.475" r="1.52439" fill="#4F4F4F"/>
<circle cx="110.5" cy="810.524" r="1.52439" fill="#4F4F4F"/>
<circle cx="110.5" cy="822.719" r="1.52439" fill="#4F4F4F"/>
<circle cx="110.5" cy="834.914" r="1.52439" fill="#4F4F4F"/>
<circle cx="110.5" cy="847.109" r="1.52439" fill="#4F4F4F"/>
<circle cx="110.5" cy="859.304" r="1.52439" fill="#4F4F4F"/>
<circle cx="110.5" cy="871.499" r="1.52439" fill="#4F4F4F"/>
<circle cx="110.5" cy="883.694" r="1.52439" fill="#4F4F4F"/>
<circle cx="110.5" cy="895.89" r="1.52439" fill="#4F4F4F"/>
<circle cx="110.5" cy="908.084" r="1.52439" fill="#4F4F4F"/>
<circle cx="110.5" cy="920.28" r="1.52439" fill="#4F4F4F"/>
<circle cx="110.5" cy="932.475" r="1.52439" fill="#4F4F4F"/>
<circle cx="98.3047" cy="810.524" r="1.52439" fill="#4F4F4F"/>
<circle cx="98.3047" cy="822.719" r="1.52439" fill="#4F4F4F"/>
<circle cx="98.3047" cy="834.914" r="1.52439" fill="#4F4F4F"/>
<circle cx="98.3047" cy="847.109" r="1.52439" fill="#4F4F4F"/>
<circle cx="98.3047" cy="859.304" r="1.52439" fill="#4F4F4F"/>
<circle cx="98.3047" cy="871.499" r="1.52439" fill="#4F4F4F"/>
<circle cx="98.3047" cy="883.694" r="1.52439" fill="#4F4F4F"/>
<circle cx="98.3047" cy="895.89" r="1.52439" fill="#4F4F4F"/>
<circle cx="98.3047" cy="908.084" r="1.52439" fill="#4F4F4F"/>
<circle cx="98.3047" cy="920.28" r="1.52439" fill="#4F4F4F"/>
<circle cx="98.3047" cy="932.475" r="1.52439" fill="#4F4F4F"/>
<circle cx="122.695" cy="810.524" r="1.52439" fill="#4F4F4F"/>
<circle cx="122.695" cy="822.719" r="1.52439" fill="#4F4F4F"/>
<circle cx="122.695" cy="834.914" r="1.52439" fill="#4F4F4F"/>
<circle cx="122.695" cy="847.109" r="1.52439" fill="#4F4F4F"/>
<circle cx="122.695" cy="859.304" r="1.52439" fill="#4F4F4F"/>
<circle cx="122.695" cy="871.499" r="1.52439" fill="#4F4F4F"/>
<circle cx="122.695" cy="883.694" r="1.52439" fill="#4F4F4F"/>
<circle cx="122.695" cy="895.89" r="1.52439" fill="#4F4F4F"/>
<circle cx="122.695" cy="908.084" r="1.52439" fill="#4F4F4F"/>
<circle cx="122.695" cy="920.28" r="1.52439" fill="#4F4F4F"/>
<circle cx="122.695" cy="932.475" r="1.52439" fill="#4F4F4F"/>
<circle cx="147.085" cy="810.524" r="1.52439" fill="#4F4F4F"/>
<circle cx="147.085" cy="822.719" r="1.52439" fill="#4F4F4F"/>
<circle cx="147.085" cy="834.914" r="1.52439" fill="#4F4F4F"/>
<circle cx="147.085" cy="847.109" r="1.52439" fill="#4F4F4F"/>
<circle cx="147.085" cy="859.304" r="1.52439" fill="#4F4F4F"/>
<circle cx="147.085" cy="871.499" r="1.52439" fill="#4F4F4F"/>
<circle cx="147.085" cy="883.694" r="1.52439" fill="#4F4F4F"/>
<circle cx="147.085" cy="895.89" r="1.52439" fill="#4F4F4F"/>
<circle cx="147.085" cy="908.084" r="1.52439" fill="#4F4F4F"/>
<circle cx="147.085" cy="920.28" r="1.52439" fill="#4F4F4F"/>
<circle cx="147.085" cy="932.475" r="1.52439" fill="#4F4F4F"/>
<circle cx="134.89" cy="810.524" r="1.52439" fill="#4F4F4F"/>
<circle cx="134.89" cy="822.719" r="1.52439" fill="#4F4F4F"/>
<circle cx="134.89" cy="834.914" r="1.52439" fill="#4F4F4F"/>
<circle cx="134.89" cy="847.109" r="1.52439" fill="#4F4F4F"/>
<circle cx="134.89" cy="859.304" r="1.52439" fill="#4F4F4F"/>
<circle cx="134.89" cy="871.499" r="1.52439" fill="#4F4F4F"/>
<circle cx="134.89" cy="883.694" r="1.52439" fill="#4F4F4F"/>
<circle cx="134.89" cy="895.89" r="1.52439" fill="#4F4F4F"/>
<circle cx="134.89" cy="908.084" r="1.52439" fill="#4F4F4F"/>
<circle cx="134.89" cy="920.28" r="1.52439" fill="#4F4F4F"/>
<circle cx="134.89" cy="932.475" r="1.52439" fill="#4F4F4F"/>
<circle cx="159.28" cy="810.524" r="1.52439" fill="#4F4F4F"/>
<circle cx="159.28" cy="822.719" r="1.52439" fill="#4F4F4F"/>
<circle cx="159.28" cy="834.914" r="1.52439" fill="#4F4F4F"/>
<circle cx="159.28" cy="847.109" r="1.52439" fill="#4F4F4F"/>
<circle cx="159.28" cy="859.304" r="1.52439" fill="#4F4F4F"/>
<circle cx="159.28" cy="871.499" r="1.52439" fill="#4F4F4F"/>
<circle cx="159.28" cy="883.694" r="1.52439" fill="#4F4F4F"/>
<circle cx="159.28" cy="895.89" r="1.52439" fill="#4F4F4F"/>
<circle cx="159.28" cy="908.084" r="1.52439" fill="#4F4F4F"/>
<circle cx="159.28" cy="920.28" r="1.52439" fill="#4F4F4F"/>
<circle cx="159.28" cy="932.475" r="1.52439" fill="#4F4F4F"/>
<circle cx="171.476" cy="810.524" r="1.52439" fill="#4F4F4F"/>
<circle cx="171.476" cy="822.719" r="1.52439" fill="#4F4F4F"/>
<circle cx="171.476" cy="834.914" r="1.52439" fill="#4F4F4F"/>
<circle cx="171.476" cy="847.109" r="1.52439" fill="#4F4F4F"/>
<circle cx="171.476" cy="859.304" r="1.52439" fill="#4F4F4F"/>
<circle cx="171.476" cy="871.499" r="1.52439" fill="#4F4F4F"/>
<circle cx="171.476" cy="883.694" r="1.52439" fill="#4F4F4F"/>
<circle cx="171.476" cy="895.89" r="1.52439" fill="#4F4F4F"/>
<circle cx="171.476" cy="908.084" r="1.52439" fill="#4F4F4F"/>
<circle cx="171.476" cy="920.28" r="1.52439" fill="#4F4F4F"/>
<circle cx="171.476" cy="932.475" r="1.52439" fill="#4F4F4F"/>
</g>
<g opacity="0.5">
<circle cx="1511.52" cy="1296.52" r="1.52439" fill="#4F4F4F"/>
<circle cx="1511.52" cy="1308.72" r="1.52439" fill="#4F4F4F"/>
<circle cx="1511.52" cy="1320.91" r="1.52439" fill="#4F4F4F"/>
<circle cx="1511.52" cy="1333.11" r="1.52439" fill="#4F4F4F"/>
<circle cx="1511.52" cy="1345.3" r="1.52439" fill="#4F4F4F"/>
<circle cx="1511.52" cy="1357.5" r="1.52439" fill="#4F4F4F"/>
<circle cx="1511.52" cy="1369.69" r="1.52439" fill="#4F4F4F"/>
<circle cx="1511.52" cy="1381.89" r="1.52439" fill="#4F4F4F"/>
<circle cx="1511.52" cy="1394.08" r="1.52439" fill="#4F4F4F"/>
<circle cx="1511.52" cy="1406.28" r="1.52439" fill="#4F4F4F"/>
<circle cx="1511.52" cy="1418.48" r="1.52439" fill="#4F4F4F"/>
<circle cx="1535.92" cy="1296.52" r="1.52439" fill="#4F4F4F"/>
<circle cx="1535.92" cy="1308.72" r="1.52439" fill="#4F4F4F"/>
<circle cx="1535.92" cy="1320.91" r="1.52439" fill="#4F4F4F"/>
<circle cx="1535.92" cy="1333.11" r="1.52439" fill="#4F4F4F"/>
<circle cx="1535.92" cy="1345.3" r="1.52439" fill="#4F4F4F"/>
<circle cx="1535.92" cy="1357.5" r="1.52439" fill="#4F4F4F"/>
<circle cx="1535.92" cy="1369.69" r="1.52439" fill="#4F4F4F"/>
<circle cx="1535.92" cy="1381.89" r="1.52439" fill="#4F4F4F"/>
<circle cx="1535.92" cy="1394.08" r="1.52439" fill="#4F4F4F"/>
<circle cx="1535.92" cy="1406.28" r="1.52439" fill="#4F4F4F"/>
<circle cx="1535.92" cy="1418.48" r="1.52439" fill="#4F4F4F"/>
<circle cx="1523.72" cy="1296.52" r="1.52439" fill="#4F4F4F"/>
<circle cx="1523.72" cy="1308.72" r="1.52439" fill="#4F4F4F"/>
<circle cx="1523.72" cy="1320.91" r="1.52439" fill="#4F4F4F"/>
<circle cx="1523.72" cy="1333.11" r="1.52439" fill="#4F4F4F"/>
<circle cx="1523.72" cy="1345.3" r="1.52439" fill="#4F4F4F"/>
<circle cx="1523.72" cy="1357.5" r="1.52439" fill="#4F4F4F"/>
<circle cx="1523.72" cy="1369.69" r="1.52439" fill="#4F4F4F"/>
<circle cx="1523.72" cy="1381.89" r="1.52439" fill="#4F4F4F"/>
<circle cx="1523.72" cy="1394.08" r="1.52439" fill="#4F4F4F"/>
<circle cx="1523.72" cy="1406.28" r="1.52439" fill="#4F4F4F"/>
<circle cx="1523.72" cy="1418.48" r="1.52439" fill="#4F4F4F"/>
<circle cx="1548.11" cy="1296.52" r="1.52439" fill="#4F4F4F"/>
<circle cx="1548.11" cy="1308.72" r="1.52439" fill="#4F4F4F"/>
<circle cx="1548.11" cy="1320.91" r="1.52439" fill="#4F4F4F"/>
<circle cx="1548.11" cy="1333.11" r="1.52439" fill="#4F4F4F"/>
<circle cx="1548.11" cy="1345.3" r="1.52439" fill="#4F4F4F"/>
<circle cx="1548.11" cy="1357.5" r="1.52439" fill="#4F4F4F"/>
<circle cx="1548.11" cy="1369.69" r="1.52439" fill="#4F4F4F"/>
<circle cx="1548.11" cy="1381.89" r="1.52439" fill="#4F4F4F"/>
<circle cx="1548.11" cy="1394.08" r="1.52439" fill="#4F4F4F"/>
<circle cx="1548.11" cy="1406.28" r="1.52439" fill="#4F4F4F"/>
<circle cx="1548.11" cy="1418.48" r="1.52439" fill="#4F4F4F"/>
<circle cx="1572.5" cy="1296.52" r="1.52439" fill="#4F4F4F"/>
<circle cx="1572.5" cy="1308.72" r="1.52439" fill="#4F4F4F"/>
<circle cx="1572.5" cy="1320.91" r="1.52439" fill="#4F4F4F"/>
<circle cx="1572.5" cy="1333.11" r="1.52439" fill="#4F4F4F"/>
<circle cx="1572.5" cy="1345.3" r="1.52439" fill="#4F4F4F"/>
<circle cx="1572.5" cy="1357.5" r="1.52439" fill="#4F4F4F"/>
<circle cx="1572.5" cy="1369.69" r="1.52439" fill="#4F4F4F"/>
<circle cx="1572.5" cy="1381.89" r="1.52439" fill="#4F4F4F"/>
<circle cx="1572.5" cy="1394.08" r="1.52439" fill="#4F4F4F"/>
<circle cx="1572.5" cy="1406.28" r="1.52439" fill="#4F4F4F"/>
<circle cx="1572.5" cy="1418.48" r="1.52439" fill="#4F4F4F"/>
<circle cx="1560.3" cy="1296.52" r="1.52439" fill="#4F4F4F"/>
<circle cx="1560.3" cy="1308.72" r="1.52439" fill="#4F4F4F"/>
<circle cx="1560.3" cy="1320.91" r="1.52439" fill="#4F4F4F"/>
<circle cx="1560.3" cy="1333.11" r="1.52439" fill="#4F4F4F"/>
<circle cx="1560.3" cy="1345.3" r="1.52439" fill="#4F4F4F"/>
<circle cx="1560.3" cy="1357.5" r="1.52439" fill="#4F4F4F"/>
<circle cx="1560.3" cy="1369.69" r="1.52439" fill="#4F4F4F"/>
<circle cx="1560.3" cy="1381.89" r="1.52439" fill="#4F4F4F"/>
<circle cx="1560.3" cy="1394.08" r="1.52439" fill="#4F4F4F"/>
<circle cx="1560.3" cy="1406.28" r="1.52439" fill="#4F4F4F"/>
<circle cx="1560.3" cy="1418.48" r="1.52439" fill="#4F4F4F"/>
<circle cx="1584.7" cy="1296.52" r="1.52439" fill="#4F4F4F"/>
<circle cx="1584.7" cy="1308.72" r="1.52439" fill="#4F4F4F"/>
<circle cx="1584.7" cy="1320.91" r="1.52439" fill="#4F4F4F"/>
<circle cx="1584.7" cy="1333.11" r="1.52439" fill="#4F4F4F"/>
<circle cx="1584.7" cy="1345.3" r="1.52439" fill="#4F4F4F"/>
<circle cx="1584.7" cy="1357.5" r="1.52439" fill="#4F4F4F"/>
<circle cx="1584.7" cy="1369.69" r="1.52439" fill="#4F4F4F"/>
<circle cx="1584.7" cy="1381.89" r="1.52439" fill="#4F4F4F"/>
<circle cx="1584.7" cy="1394.08" r="1.52439" fill="#4F4F4F"/>
<circle cx="1584.7" cy="1406.28" r="1.52439" fill="#4F4F4F"/>
<circle cx="1584.7" cy="1418.48" r="1.52439" fill="#4F4F4F"/>
<circle cx="1609.08" cy="1296.52" r="1.52439" fill="#4F4F4F"/>
<circle cx="1609.08" cy="1308.72" r="1.52439" fill="#4F4F4F"/>
<circle cx="1609.08" cy="1320.91" r="1.52439" fill="#4F4F4F"/>
<circle cx="1609.08" cy="1333.11" r="1.52439" fill="#4F4F4F"/>
<circle cx="1609.08" cy="1345.3" r="1.52439" fill="#4F4F4F"/>
<circle cx="1609.08" cy="1357.5" r="1.52439" fill="#4F4F4F"/>
<circle cx="1609.08" cy="1369.69" r="1.52439" fill="#4F4F4F"/>
<circle cx="1609.08" cy="1381.89" r="1.52439" fill="#4F4F4F"/>
<circle cx="1609.08" cy="1394.08" r="1.52439" fill="#4F4F4F"/>
<circle cx="1609.08" cy="1406.28" r="1.52439" fill="#4F4F4F"/>
<circle cx="1609.08" cy="1418.48" r="1.52439" fill="#4F4F4F"/>
<circle cx="1596.89" cy="1296.52" r="1.52439" fill="#4F4F4F"/>
<circle cx="1596.89" cy="1308.72" r="1.52439" fill="#4F4F4F"/>
<circle cx="1596.89" cy="1320.91" r="1.52439" fill="#4F4F4F"/>
<circle cx="1596.89" cy="1333.11" r="1.52439" fill="#4F4F4F"/>
<circle cx="1596.89" cy="1345.3" r="1.52439" fill="#4F4F4F"/>
<circle cx="1596.89" cy="1357.5" r="1.52439" fill="#4F4F4F"/>
<circle cx="1596.89" cy="1369.69" r="1.52439" fill="#4F4F4F"/>
<circle cx="1596.89" cy="1381.89" r="1.52439" fill="#4F4F4F"/>
<circle cx="1596.89" cy="1394.08" r="1.52439" fill="#4F4F4F"/>
<circle cx="1596.89" cy="1406.28" r="1.52439" fill="#4F4F4F"/>
<circle cx="1596.89" cy="1418.48" r="1.52439" fill="#4F4F4F"/>
<circle cx="1621.28" cy="1296.52" r="1.52439" fill="#4F4F4F"/>
<circle cx="1621.28" cy="1308.72" r="1.52439" fill="#4F4F4F"/>
<circle cx="1621.28" cy="1320.91" r="1.52439" fill="#4F4F4F"/>
<circle cx="1621.28" cy="1333.11" r="1.52439" fill="#4F4F4F"/>
<circle cx="1621.28" cy="1345.3" r="1.52439" fill="#4F4F4F"/>
<circle cx="1621.28" cy="1357.5" r="1.52439" fill="#4F4F4F"/>
<circle cx="1621.28" cy="1369.69" r="1.52439" fill="#4F4F4F"/>
<circle cx="1621.28" cy="1381.89" r="1.52439" fill="#4F4F4F"/>
<circle cx="1621.28" cy="1394.08" r="1.52439" fill="#4F4F4F"/>
<circle cx="1621.28" cy="1406.28" r="1.52439" fill="#4F4F4F"/>
<circle cx="1621.28" cy="1418.48" r="1.52439" fill="#4F4F4F"/>
<circle cx="1633.48" cy="1296.52" r="1.52439" fill="#4F4F4F"/>
<circle cx="1633.48" cy="1308.72" r="1.52439" fill="#4F4F4F"/>
<circle cx="1633.48" cy="1320.91" r="1.52439" fill="#4F4F4F"/>
<circle cx="1633.48" cy="1333.11" r="1.52439" fill="#4F4F4F"/>
<circle cx="1633.48" cy="1345.3" r="1.52439" fill="#4F4F4F"/>
<circle cx="1633.48" cy="1357.5" r="1.52439" fill="#4F4F4F"/>
<circle cx="1633.48" cy="1369.69" r="1.52439" fill="#4F4F4F"/>
<circle cx="1633.48" cy="1381.89" r="1.52439" fill="#4F4F4F"/>
<circle cx="1633.48" cy="1394.08" r="1.52439" fill="#4F4F4F"/>
<circle cx="1633.48" cy="1406.28" r="1.52439" fill="#4F4F4F"/>
<circle cx="1633.48" cy="1418.48" r="1.52439" fill="#4F4F4F"/>
</g>
</svg>
