<svg width="68" height="12" viewBox="0 0 68 12" fill="none" xmlns="http://www.w3.org/2000/svg">
<path fill-rule="evenodd" clip-rule="evenodd" d="M2.40115 0.712168C1.40433 1.19958 0.978039 1.67463 0.51902 2.81026C0.300564 3.35066 0.365581 4.92071 0.633125 5.56632C0.763267 5.88036 0.909555 6.13728 0.958209 6.13728C1.00686 6.13728 1.04663 6.20262 1.04663 6.28248C1.04663 6.43625 2.89799 8.32564 3.12175 8.40019C3.19392 8.42425 3.3595 8.55894 3.48975 8.69938C3.61989 8.83981 3.77821 8.95468 3.84149 8.95468C3.90488 8.95468 4.05778 9.08319 4.1812 9.24021C4.30473 9.39722 4.40584 9.49204 4.40584 9.45097C4.40584 9.4099 4.6827 9.60181 5.02122 9.87748C5.35963 10.1532 5.83003 10.4775 6.06658 10.5981C6.74904 10.9462 6.92675 10.8708 8.55185 9.54395C8.65685 9.45823 8.77464 9.38812 8.81376 9.38812C8.85277 9.38812 8.96189 9.31628 9.05627 9.2285C9.15066 9.14073 9.5983 8.75388 10.0509 8.36877C11.2165 7.37737 12.2813 6.19449 12.4314 5.72453C12.5016 5.50456 12.602 5.2783 12.6544 5.22163C12.7068 5.16506 12.7497 4.6666 12.7497 4.11407C12.7497 3.13578 12.6984 2.92903 12.1858 1.83859C12.0882 1.63118 11.3738 1.01948 10.931 0.764182C10.5039 0.517985 10.2546 0.461204 9.41387 0.418726C8.45985 0.370614 8.37316 0.385025 7.73426 0.699707C7.36378 0.882187 6.95254 1.13229 6.82034 1.2556L6.58 1.47969L6.00763 1.0443C5.31098 0.514409 4.91838 0.395537 3.86403 0.394778C3.18449 0.394345 2.9448 0.446358 2.40115 0.712168ZM61.0517 0.520044L60.7538 0.628947V1.80694V2.98494L60.3474 3.04909C58.5361 3.33473 58.3005 3.40267 57.5084 3.8683C56.8677 4.24486 55.6409 5.36737 55.7237 5.50131C55.7557 5.5531 55.7278 5.59547 55.6616 5.59547C55.5954 5.59547 55.4701 5.76614 55.3829 5.97474C55.2957 6.18333 55.1869 6.354 55.1412 6.354C55.0953 6.354 54.9924 6.58557 54.9123 6.86872C54.8321 7.15176 54.702 7.48779 54.623 7.61533C54.544 7.74287 54.4467 8.09396 54.4067 8.39542C54.3253 9.00886 54.4295 9.19199 54.9314 9.31801C55.262 9.40091 55.5098 9.29623 56.3978 8.6984C57.1407 8.19831 57.9721 7.98018 60.1849 7.70484L60.7538 7.63397V8.72137C60.7538 9.34109 60.8011 9.83804 60.8638 9.87683C60.9244 9.91432 60.9475 9.98779 60.9151 10.0403C60.8329 10.1732 61.5481 10.2926 61.8509 10.1965C61.988 10.153 62.1907 10.0021 62.3017 9.86112C62.4125 9.72014 62.5637 9.60484 62.6376 9.60484C62.7114 9.60484 62.88 9.45856 63.0122 9.27976C63.1444 9.10096 63.3131 8.95468 63.3873 8.95468C63.4613 8.95468 63.6903 8.75963 63.8962 8.52123C64.1021 8.28284 64.3123 8.08778 64.3634 8.08778C64.4144 8.08778 64.8787 7.71556 65.3952 7.26055C65.9118 6.80554 66.4705 6.31575 66.6369 6.17206C66.9967 5.86139 67.1824 5.42567 67.0981 5.08997C67.0471 4.88657 65.6885 3.62936 63.8624 2.09562C63.6352 1.90479 63.2768 1.59011 63.066 1.39647C62.8551 1.20283 62.6573 1.0443 62.6265 1.0443C62.5956 1.0443 62.4037 0.898008 62.2001 0.719212C61.8149 0.381016 61.5556 0.336046 61.0517 0.520044ZM29.5028 0.614969C29.0965 0.73655 28.5835 1.22201 28.3946 1.66391C28.195 2.13029 28.1874 7.45257 28.3857 7.88461C28.7537 8.68637 29.3721 9.06304 30.3204 9.06304H30.846V9.61026C30.846 10.9148 31.8122 11.5811 32.6117 10.8278C32.8027 10.6477 33.1011 10.3843 33.2747 10.2423C33.4483 10.1003 33.814 9.77768 34.0874 9.52541L34.5845 9.06672L36.0132 9.06488C37.5551 9.06293 37.884 8.98968 38.3634 8.54139C38.9393 8.00294 38.9731 7.79532 38.9731 4.79327C38.9731 3.11107 38.9283 1.91455 38.8581 1.7286C38.687 1.27489 38.1133 0.731457 37.6775 0.610417C37.2043 0.478975 29.9438 0.482984 29.5028 0.614969ZM4.80461 1.86188C5.40103 2.17895 5.83285 2.55247 5.75277 2.68196C5.72253 2.73094 5.79719 2.83313 5.91867 2.90898C6.04025 2.98483 6.13962 3.10663 6.13962 3.17956C6.13962 3.25259 6.23714 3.36442 6.35634 3.42825C6.63537 3.57757 6.91104 3.43366 7.11845 3.03024C7.3537 2.57262 7.86614 2.10223 8.42713 1.82927C8.93978 1.57971 9.65291 1.50537 9.7668 1.6897C9.80202 1.74669 9.90247 1.76587 9.98991 1.73228C10.0774 1.6988 10.149 1.72524 10.149 1.79123C10.149 1.85722 10.2123 1.91119 10.2895 1.91119C10.5109 1.91119 11.1959 2.68131 11.3855 3.14347C11.6954 3.89875 11.5473 4.82383 11.0069 5.50781C10.833 5.72789 10.6908 5.94494 10.6908 5.99034C10.6908 6.1298 10.0065 6.78745 9.8614 6.78745C9.7863 6.78745 9.58865 6.95812 9.42221 7.16671C9.25577 7.37531 9.0774 7.54598 9.02593 7.54598C8.97435 7.54598 8.65078 7.78979 8.30685 8.08778C7.96291 8.38578 7.6388 8.62959 7.58678 8.62959C7.53466 8.62959 7.43118 8.72712 7.35673 8.84631C7.28229 8.96551 7.16862 9.06304 7.10425 9.06304C7.03977 9.06304 6.9001 9.17053 6.79369 9.30186L6.60037 9.54059L6.28872 9.25559C5.86438 8.86755 4.31297 7.62638 4.08032 7.48876C3.97672 7.42754 3.69065 7.16151 3.44456 6.89754C3.19847 6.63368 2.99714 6.45976 2.99714 6.51102C2.99714 6.56238 2.89961 6.516 2.78041 6.40818C2.66122 6.30036 2.56369 6.14692 2.56369 6.06717C2.56369 5.98752 2.46367 5.86107 2.34133 5.78597C2.02589 5.59255 1.68423 4.77594 1.63103 4.08838C1.55723 3.13589 2.12125 2.23898 3.07917 1.78549C3.65045 1.51502 4.19789 1.53929 4.80461 1.86188ZM37.6109 1.8647C37.7569 2.01077 37.7811 2.43457 37.7811 4.84085C37.7811 7.50404 37.7705 7.65239 37.5716 7.75891C37.4563 7.82057 36.7126 7.87128 35.9191 7.8715C34.2541 7.87193 34.3294 7.84202 32.9591 9.04678L32.0922 9.809L32.038 9.01113C32.0082 8.57238 31.9433 8.17296 31.8937 8.12344C31.844 8.07402 31.3564 8.01681 30.81 7.99622C30.1057 7.96967 29.7614 7.90953 29.6269 7.78979C29.4556 7.63711 29.4373 7.35114 29.4373 4.82784C29.4373 2.43338 29.4616 2.01077 29.6076 1.8647C29.756 1.71635 30.2706 1.69446 33.6092 1.69446C36.9478 1.69446 37.4624 1.71635 37.6109 1.8647ZM62.623 2.82316C62.6466 2.79964 62.8056 2.9261 62.9762 3.10425C63.1469 3.2825 63.3264 3.42825 63.375 3.42825C63.4236 3.42825 63.6395 3.6233 63.8549 3.86169C64.0704 4.10009 64.2931 4.29514 64.3499 4.29514C64.4068 4.29514 64.7151 4.52595 65.0351 4.80801L65.6167 5.32078L65.0067 5.86453C64.6712 6.1635 64.3681 6.40818 64.3331 6.40818C64.2981 6.40818 64.1003 6.56704 63.8933 6.76123C63.3602 7.26142 61.9789 8.41287 61.912 8.41287C61.8813 8.41287 61.8588 8.08378 61.8621 7.68143C61.8654 7.27908 61.8612 6.83274 61.8528 6.68949L61.8374 6.42899L60.3982 6.49401C58.9342 6.56021 57.494 6.79037 56.9069 7.05196C56.7281 7.1316 56.468 7.23119 56.3287 7.27323C56.0903 7.34529 56.0838 7.335 56.2163 7.09574C56.2937 6.95595 56.3466 6.805 56.3339 6.76036C56.3213 6.71571 56.3597 6.67909 56.4193 6.67909C56.4789 6.67909 56.5277 6.62588 56.5277 6.56076C56.5277 6.36636 57.8467 5.14046 58.3428 4.87379C58.9983 4.5215 59.8004 4.31681 60.8621 4.23109C61.3687 4.19013 61.8199 4.10247 61.8648 4.03626C61.9096 3.97005 61.9182 3.50139 61.8837 2.9948L61.8211 2.07373L62.2006 2.4699C62.4094 2.68781 62.5995 2.84678 62.623 2.82316Z" fill="#554F4F"/>
</svg>
