<?xml version="1.0" encoding="utf-8"?>
<svg width="46px" height="18px" viewBox="0 0 46 18" version="1.1" xmlns:xlink="http://www.w3.org/1999/xlink" xmlns="http://www.w3.org/2000/svg">
  <g id="yt-post-1">
    <path d="M0 9C0 6.51472 0.87868 4.3934 2.63604 2.63604C4.3934 0.87868 6.51472 0 9 0L37 0C39.4853 0 41.6066 0.87868 43.364 2.63604C45.1213 4.3934 46 6.51472 46 9C46 11.4853 45.1213 13.6066 43.364 15.364C41.6066 17.1213 39.4853 18 37 18L9 18C6.51472 18 4.3934 17.1213 2.63604 15.364C0.87868 13.6066 0 11.4853 0 9L0 9Z" id="Rectangle" fill="#EFEFEF" fill-rule="evenodd" stroke="none" />
    <path d="M14.3 8.1L12.3358 8.1L12.7288 6.9215C12.7995 6.7087 12.7638 6.4728 12.6326 6.2909C12.5013 6.1089 12.2885 6 12.0642 6L11.5 6C11.396 6 11.2977 6.0462 11.2308 6.126L9.5858 8.1L8.7 8.1C8.3139 8.1 8 8.4139 8 8.8L8 11.95C8 12.336 8.3139 12.65 8.7 12.65L13.3574 12.65C13.4999 12.6495 13.6388 12.6058 13.7558 12.5247C13.8729 12.4436 13.9626 12.3289 14.013 12.1957L14.9779 9.6228C14.9926 9.5836 15.0001 9.5419 15 9.5L15 8.8C15 8.4139 14.686 8.1 14.3 8.1L14.3 8.1ZM8.7 8.8L9.7 8.8L9.7 11.95L8.7 11.95L8.7 8.8L8.7 8.8ZM14.3 9.4366L13.3574 11.95L10.1 11.95L10.1 8.5767L11.6638 6.7L12.0649 6.7L11.5182 8.339C11.5005 8.3917 11.4955 8.4477 11.5038 8.5026C11.512 8.5576 11.5332 8.6097 11.5657 8.6548C11.5981 8.6998 11.6408 8.7365 11.6903 8.7618C11.7397 8.787 11.7945 8.8001 11.85 8.8L14.3 8.8L14.3 9.4366L14.3 9.4366Z" id="Shape" fill="#554F4F" fill-rule="evenodd" stroke="none" />
    <path d="M30.7 10.9L32.6642 10.9L32.2712 12.0785C32.2005 12.2913 32.2362 12.5272 32.3674 12.7091C32.4987 12.8911 32.7115 13 32.9358 13L33.5 13C33.604 13 33.7023 12.9538 33.7692 12.874L35.4142 10.9L36.3 10.9C36.6861 10.9 37 10.5861 37 10.2L37 7.05C37 6.664 36.6861 6.35 36.3 6.35L31.6426 6.35C31.5001 6.3505 31.3612 6.3942 31.2442 6.4753C31.1271 6.5564 31.0374 6.6711 30.987 6.8043L30.0221 9.3772C30.0074 9.4164 29.9999 9.4581 30 9.5L30 10.2C30 10.5861 30.314 10.9 30.7 10.9L30.7 10.9ZM36.6 10.2L35.6 10.2L35.6 7.05L36.6 7.05L36.6 10.2L36.6 10.2ZM30.7 9.5634L31.6426 7.05L34.9 7.05L34.9 10.4233L33.3362 12.3L32.9351 12.3L33.4818 10.661C33.4995 10.6083 33.5045 10.5523 33.4962 10.4974C33.488 10.4424 33.4668 10.3903 33.4343 10.3452C33.4019 10.3002 33.3592 10.2635 33.3097 10.2382C33.2603 10.213 33.2055 10.1999 33.15 10.2L30.7 10.2L30.7 9.5634L30.7 9.5634Z" id="Shape" fill="#554F4F" fill-rule="evenodd" stroke="none" />
    <path d="M23.5 3.5L23.5 15.5" id="Line" fill="none" fill-rule="evenodd" stroke="#BCBCBC" stroke-width="1" stroke-linecap="round" />
  </g>
</svg>