<?xml version="1.0" encoding="utf-8"?>
<svg width="51px" height="18px" viewBox="0 0 51 18" version="1.1" xmlns:xlink="http://www.w3.org/1999/xlink" xmlns="http://www.w3.org/2000/svg">
  <g id="yt-post-3">
    <path d="M0 9C0 6.51472 0.87868 4.3934 2.63604 2.63604C4.3934 0.87868 6.51472 0 9 0L42 0C44.4853 0 46.6066 0.87868 48.364 2.63604C50.1213 4.3934 51 6.51472 51 9C51 11.4853 50.1213 13.6066 48.364 15.364C46.6066 17.1213 44.4853 18 42 18L9 18C6.51472 18 4.3934 17.1213 2.63604 15.364C0.87868 13.6066 0 11.4853 0 9L0 9Z" id="Rectangle" fill="#EFEFEF" fill-rule="evenodd" stroke="none" />
    <path d="M10.1895 6.0672L10.0023 6.1356L10.0023 6.8756L10.0023 7.6155L9.7471 7.6558C8.6094 7.8352 8.4614 7.8779 7.9639 8.1703C7.5614 8.4069 6.7909 9.1119 6.8429 9.1961C6.863 9.2286 6.8455 9.2552 6.8039 9.2552C6.7623 9.2552 6.6835 9.3624 6.6288 9.4934C6.574 9.6245 6.5057 9.7317 6.477 9.7317C6.4482 9.7317 6.3835 9.8771 6.3332 10.055C6.2828 10.2328 6.2011 10.4438 6.1515 10.5239C6.1019 10.6041 6.0407 10.8246 6.0156 11.0139C5.96451 11.3992 6.0299 11.5143 6.3452 11.5934C6.5529 11.6455 6.7085 11.5797 7.2663 11.2042C7.7329 10.8901 8.2551 10.7531 9.645 10.5802L10.0023 10.5356L10.0023 11.2187C10.0023 11.6079 10.0321 11.9201 10.0715 11.9444C10.1095 11.968 10.124 12.0141 10.1037 12.0471C10.052 12.1306 10.5013 12.2056 10.6915 12.1452C10.7776 12.1179 10.9049 12.0231 10.9746 11.9346C11.0443 11.846 11.1392 11.7736 11.1856 11.7736C11.232 11.7736 11.3379 11.6817 11.4209 11.5694C11.504 11.4571 11.6099 11.3652 11.6565 11.3652C11.703 11.3652 11.8469 11.2427 11.9762 11.093C12.1055 10.9432 12.2376 10.8207 12.2696 10.8207C12.3017 10.8207 12.5933 10.5869 12.9177 10.3011C13.2422 10.0153 13.5931 9.7076 13.6977 9.6174C13.9237 9.4223 14.0403 9.1486 13.9874 8.9377C13.9553 8.8099 13.102 8.0203 11.955 7.0569C11.8122 6.937 11.5871 6.7394 11.4547 6.6177C11.3222 6.4961 11.198 6.3965 11.1786 6.3965C11.1592 6.3965 11.0387 6.3046 10.9108 6.1923C10.6689 5.97991 10.506 5.95166 10.1895 6.0672L10.1895 6.0672ZM11.1764 7.5139C11.1913 7.4991 11.2911 7.5785 11.3983 7.6904C11.5055 7.8024 11.6183 7.8939 11.6488 7.8939C11.6793 7.8939 11.815 8.0165 11.9503 8.1662C12.0856 8.3159 12.2255 8.4385 12.2612 8.4385C12.2969 8.4385 12.4906 8.5834 12.6916 8.7606L13.0569 9.0827L12.6737 9.4242C12.463 9.612 12.2726 9.7657 12.2506 9.7657C12.2287 9.7657 12.1044 9.8655 11.9744 9.9875C11.6395 10.3016 10.7719 11.0249 10.7299 11.0249C10.7106 11.0249 10.6965 10.8182 10.6985 10.5655C10.7006 10.3127 10.698 10.0324 10.6927 9.9424L10.683 9.7788L9.779 9.8196C8.8594 9.8612 7.9548 10.0058 7.5861 10.1701C7.4738 10.2201 7.3103 10.2827 7.2229 10.3091C7.0731 10.3543 7.0691 10.3479 7.1523 10.1976C7.2009 10.1098 7.2341 10.015 7.2261 9.9869C7.2182 9.9589 7.2423 9.9359 7.2798 9.9359C7.3172 9.9359 7.3478 9.9024 7.3478 9.8615C7.3478 9.7394 8.1764 8.9694 8.488 8.8019C8.8997 8.5806 9.4035 8.4521 10.0704 8.3982C10.3886 8.3725 10.672 8.3174 10.7002 8.2758C10.7284 8.2343 10.7338 7.9399 10.7121 7.6217L10.6728 7.0431L10.9111 7.292C11.0423 7.4289 11.1617 7.5287 11.1764 7.5139L11.1764 7.5139Z" id="Shape" fill="#554F4F" fill-rule="evenodd" stroke="none" />
    <path d="M17.5635 7.8601L19.7875 7.8601L19.7875 10.6562L19.2229 10.6562L19.2229 8.3293L18.1281 8.3293L18.1281 10.6562L17.5635 10.6562L17.5635 7.8601L17.5635 7.8601ZM20.2357 9.6148C20.2357 9.4368 20.2796 9.2645 20.3673 9.0979C20.4551 8.9314 20.5791 8.8042 20.7393 8.7165C20.9008 8.6287 21.0807 8.5849 21.2791 8.5849C21.5855 8.5849 21.8366 8.6847 22.0325 8.8843C22.2283 9.0827 22.3262 9.3338 22.3262 9.6377C22.3262 9.9442 22.227 10.1985 22.0286 10.4007C21.8315 10.6016 21.583 10.702 21.2829 10.702C21.0972 10.702 20.9198 10.6601 20.7507 10.5761C20.5829 10.4922 20.4551 10.3695 20.3673 10.208C20.2796 10.0453 20.2357 9.8475 20.2357 9.6148L20.2357 9.6148ZM20.785 9.6434C20.785 9.8444 20.8332 9.9982 20.9295 10.105C21.0259 10.2118 21.1447 10.2652 21.286 10.2652C21.4272 10.2652 21.5454 10.2118 21.6405 10.105C21.7368 9.9982 21.785 9.8431 21.785 9.6396C21.785 9.4413 21.7368 9.2887 21.6405 9.1819C21.5454 9.0751 21.4272 9.0217 21.286 9.0217C21.1447 9.0217 21.0259 9.0751 20.9295 9.1819C20.8332 9.2887 20.785 9.4425 20.785 9.6434L20.785 9.6434ZM24.369 10.6562L22.8354 10.6562L22.8354 11.1903L22.4006 11.1903L22.4006 10.2176L22.6199 10.2176C22.7115 10.1158 22.7871 9.9569 22.8469 9.7407C22.9067 9.5246 22.9423 9.1545 22.9537 8.6306L24.5883 8.6306L24.5883 10.2176L24.8057 10.2176L24.8057 11.1903L24.369 11.1903L24.369 10.6562L24.369 10.6562ZM24.1423 10.2176L24.1444 9.0712L23.4361 9.0712C23.4125 9.6307 23.3152 10.0128 23.1444 10.2176L24.1423 10.2176L24.1423 10.2176ZM26.3469 10.0116L26.8809 10.1012C26.8123 10.297 26.7036 10.4464 26.5548 10.5494C26.4073 10.6512 26.2223 10.702 25.9997 10.702C25.6475 10.702 25.3868 10.5869 25.2177 10.3568C25.0842 10.1724 25.0175 9.9397 25.0175 9.6587C25.0175 9.323 25.1052 9.0604 25.2807 8.871C25.4561 8.6802 25.678 8.5849 25.9463 8.5849C26.2477 8.5849 26.4855 8.6847 26.6597 8.8843C26.8339 9.0827 26.9172 9.3872 26.9095 9.7979L25.5668 9.7979C25.5706 9.9569 25.6138 10.0809 25.6965 10.1699C25.7791 10.2576 25.8821 10.3015 26.0055 10.3015C26.0894 10.3015 26.16 10.2786 26.2172 10.2328C26.2744 10.187 26.3176 10.1133 26.3469 10.0116L26.3469 10.0116ZM26.5763 9.9949C26.5715 9.66816 26.5215 9.42058 26.4262 9.25195C26.331 9.08058 26.2152 8.9949 26.0787 8.9949C25.9327 8.9949 25.812 9.08459 25.7167 9.26395C25.6215 9.44332 25.5747 9.6869 25.5763 9.9949L26.5763 9.9949L26.5763 9.9949ZM27.4932 8.6306L29.288 8.6306L29.288 10.6562L28.754 10.6562L28.754 9.0655L28.0234 9.0655L28.0234 9.9753C28.0234 10.2068 27.9967 10.3695 27.9433 10.4636C27.8899 10.5564 27.8308 10.6175 27.7659 10.6467C27.7011 10.676 27.5968 10.6906 27.4531 10.6906C27.3679 10.6906 27.2554 10.6791 27.1155 10.6562L27.1155 10.2614C27.127 10.2614 27.1569 10.2627 27.2052 10.2652C27.2611 10.2691 27.3044 10.271 27.3349 10.271C27.4074 10.271 27.4519 10.2474 27.4684 10.2004C27.4849 10.1521 27.4932 10.0192 27.4932 9.8018L27.4932 8.6306L27.4932 8.6306ZM29.8183 8.6306L30.3332 8.6306L30.3332 9.9028L31.1572 8.6306L31.6836 8.6306L31.6836 10.6562L31.1687 10.6562L31.1687 9.3612L30.3332 10.6562L29.8183 10.6562L29.8183 8.6306L29.8183 8.6306ZM31.9945 8.6306L33.8275 8.6306L33.8275 9.0636L33.179 9.0636L33.179 10.6562L32.643 10.6562L32.643 9.0636L31.9945 9.0636L31.9945 8.6306L31.9945 8.6306ZM34.1613 8.6306L34.6973 8.6306L34.6973 9.4718L35.2351 9.4718C35.4462 9.4718 35.6083 9.487 35.7215 9.5176C35.8347 9.5481 35.9288 9.6142 36.0038 9.7159C36.0788 9.8164 36.1163 9.9334 36.1163 10.0669C36.1163 10.2627 36.0489 10.4102 35.9141 10.5094C35.7806 10.6073 35.5797 10.6562 35.3114 10.6562L34.1613 10.6562L34.1613 8.6306L34.1613 8.6306ZM34.6973 10.8018L35.2744 10.8018C35.455 10.8018 35.5703 10.7525 35.6202 10.6536C35.6715 10.555 35.6973 10.4377 35.6973 10.3017C35.6973 10.1116 35.6532 9.98067 35.5651 9.9092C35.4785 9.83753 35.3236 9.8018 35.1003 9.8018L34.6973 9.8018L34.6973 10.8018L34.6973 10.8018ZM38.3193 9.2296L37.791 9.3249C37.7732 9.2194 37.7325 9.1399 37.6689 9.0865C37.6066 9.0331 37.5252 9.0064 37.4248 9.0064C37.2912 9.0064 37.1844 9.0528 37.1043 9.1456C37.0255 9.2372 36.9861 9.391 36.9861 9.6072C36.9861 9.8475 37.0261 10.0173 37.1062 10.1165C37.1876 10.2157 37.2963 10.2652 37.4324 10.2652C37.5341 10.2652 37.6174 10.2366 37.6823 10.1794C37.7471 10.1209 37.7929 10.0211 37.8196 9.88L38.346 9.9696C38.2913 10.2112 38.1864 10.3937 38.0313 10.517C37.8762 10.6404 37.6683 10.702 37.4076 10.702C37.1113 10.702 36.8748 10.6086 36.6981 10.4216C36.5226 10.2347 36.4348 9.976 36.4348 9.6454C36.4348 9.3109 36.5232 9.0509 36.7 8.8652C36.8767 8.6783 37.1158 8.5849 37.4171 8.5849C37.6638 8.5849 37.8596 8.6383 38.0046 8.7451C38.1508 8.8506 38.2557 9.0121 38.3193 9.2296L38.3193 9.2296ZM40.4632 8.6306L40.4632 10.6562L39.931 10.6562L39.931 9.8151L39.8814 9.8151C39.7657 9.8151 39.6805 9.8304 39.6258 9.8609C39.5724 9.8901 39.5127 9.9531 39.4465 10.0497L39.4141 10.0898L39.0613 10.6562L38.4376 10.6562L38.8209 10.0688C38.9303 9.9009 39.0295 9.8043 39.1185 9.7789C38.9684 9.77 38.8464 9.7134 38.7523 9.6091C38.6594 9.5036 38.613 9.3694 38.613 9.2067C38.613 9.0757 38.6436 8.9638 38.7046 8.871C38.7669 8.7781 38.8489 8.7152 38.9506 8.6821C39.0536 8.6478 39.2062 8.6306 39.4084 8.6306L40.4632 8.6306L40.4632 8.6306ZM40.1643 8.9759L39.6642 8.9759C39.4802 8.9759 39.3508 9.01488 39.2762 9.09305C39.2016 9.16872 39.1643 9.29585 39.1643 9.47408C39.1643 9.6523 39.2066 9.78059 39.2911 9.85856C39.3757 9.93672 39.5142 9.9759 39.7066 9.9759L40.1643 9.9759L40.1643 8.9759L40.1643 8.9759Z" id="Shape" fill="#554F4F" fill-rule="evenodd" stroke="none" />
  </g>
</svg>