<?xml version="1.0" encoding="utf-8"?>
<svg width="51px" height="18px" viewBox="0 0 51 18" version="1.1" xmlns:xlink="http://www.w3.org/1999/xlink" xmlns="http://www.w3.org/2000/svg">
  <g id="yt-post-2">
    <path d="M0 9C0 6.51472 0.87868 4.3934 2.63604 2.63604C4.3934 0.87868 6.51472 0 9 0L42 0C44.4853 0 46.6066 0.87868 48.364 2.63604C50.1213 4.3934 51 6.51472 51 9C51 11.4853 50.1213 13.6066 48.364 15.364C46.6066 17.1213 44.4853 18 42 18L9 18C6.51472 18 4.3934 17.1213 2.63604 15.364C0.87868 13.6066 0 11.4853 0 9L0 9Z" id="Rectangle" fill="#EFEFEF" fill-rule="evenodd" stroke="none" />
    <path d="M6.6999 6L12.3 6C12.686 6 13 6.314 13 6.7L13 13.0001L11.1334 11.6001L6.6999 11.6001C6.3139 11.6001 5.99993 11.2861 5.99993 10.9L5.99993 6.7C5.99993 6.314 6.3139 6 6.6999 6L6.6999 6ZM6.6999 10.9L11.3665 10.9L12.3 11.6001L12.3 6.7L6.6999 6.7L6.6999 10.9L6.6999 10.9Z" id="Shape" fill="#554F4F" fill-rule="evenodd" stroke="none" />
    <path d="M16.633 7.8601L17.1976 7.8601L17.1976 9.0503C17.3235 9.0375 17.4087 9.0051 17.4532 8.953C17.4977 8.9009 17.5664 8.7559 17.6592 8.5181C17.7762 8.2155 17.8938 8.0273 18.012 7.9535C18.129 7.8798 18.3179 7.8429 18.5785 7.8429C18.5912 7.8429 18.6186 7.8423 18.6605 7.841L18.6605 8.2587L18.5804 8.2568C18.4647 8.2568 18.3802 8.2714 18.3268 8.3007C18.2733 8.3286 18.2301 8.3719 18.1971 8.4304C18.164 8.4889 18.115 8.609 18.0502 8.7909C18.0159 8.8875 17.9783 8.9682 17.9377 9.0331C17.8982 9.0979 17.8277 9.159 17.7259 9.2162C17.8518 9.2518 17.9555 9.3236 18.0368 9.4317C18.1195 9.5398 18.2098 9.6924 18.3077 9.8895L18.6891 10.6562L18.0254 10.6562L17.6916 9.9334C17.6865 9.9232 17.6757 9.9035 17.6592 9.8742C17.6528 9.8641 17.6293 9.8202 17.5886 9.7426C17.5161 9.6053 17.4564 9.5195 17.4093 9.4851C17.3635 9.4508 17.293 9.433 17.1976 9.4317L17.1976 10.6562L16.633 10.6562L16.633 7.8601L16.633 7.8601ZM18.8799 9.6148C18.8799 9.4368 18.9238 9.2645 19.0115 9.0979C19.0992 8.9314 19.2232 8.8042 19.3834 8.7165C19.5449 8.6287 19.7248 8.5849 19.9232 8.5849C20.2296 8.5849 20.4808 8.6847 20.6766 8.8843C20.8724 9.0827 20.9703 9.3338 20.9703 9.6377C20.9703 9.9442 20.8712 10.1985 20.6728 10.4007C20.4757 10.6016 20.2271 10.702 19.927 10.702C19.7414 10.702 19.564 10.6601 19.3949 10.5761C19.227 10.4922 19.0992 10.3695 19.0115 10.208C18.9238 10.0453 18.8799 9.8475 18.8799 9.6148L18.8799 9.6148ZM19.4292 9.6434C19.4292 9.8444 19.4774 9.9982 19.5738 10.105C19.67 10.2118 19.7888 10.2652 19.9302 10.2652C20.0715 10.2652 20.1897 10.2118 20.2847 10.105C20.381 9.9982 20.4292 9.8431 20.4292 9.6396C20.4292 9.4413 20.381 9.2887 20.2847 9.1819C20.1897 9.0751 20.0715 9.0217 19.9302 9.0217C19.7888 9.0217 19.67 9.0751 19.5738 9.1819C19.4774 9.2887 19.4292 9.4425 19.4292 9.6434L19.4292 9.6434ZM21.3537 8.6306L22.0175 8.6306L22.521 10.0421L23.0284 8.6306L23.6902 8.6306L23.6902 10.6562L23.2344 10.6562L23.2344 9.323L22.7404 10.6562L22.2826 10.6562L21.8115 9.323L21.8115 10.6562L21.3537 10.6562L21.3537 8.6306L21.3537 8.6306ZM24.2453 8.6306L24.909 8.6306L25.4126 10.0421L25.9199 8.6306L26.5818 8.6306L26.5818 10.6562L26.1259 10.6562L26.1259 9.323L25.6319 10.6562L25.1741 10.6562L24.703 9.323L24.703 10.6562L24.2453 10.6562L24.2453 8.6306L24.2453 8.6306ZM28.2946 10.0116L28.8286 10.1012C28.7599 10.297 28.6512 10.4464 28.5025 10.5494C28.355 10.6512 28.1699 10.702 27.9474 10.702C27.5952 10.702 27.3345 10.5869 27.1654 10.3568C27.0319 10.1724 26.9651 9.9397 26.9651 9.6587C26.9651 9.323 27.0529 9.0604 27.2283 8.871C27.4038 8.6802 27.6257 8.5849 27.894 8.5849C28.1954 8.5849 28.4332 8.6847 28.6074 8.8843C28.7816 9.0827 28.8649 9.3872 28.8572 9.7979L27.5145 9.7979C27.5183 9.9569 27.5615 10.0809 27.6441 10.1699C27.7268 10.2576 27.8298 10.3015 27.9531 10.3015C28.0371 10.3015 28.1076 10.2786 28.1649 10.2328C28.2221 10.187 28.2653 10.1133 28.2946 10.0116L28.2946 10.0116ZM28.524 9.9949C28.5192 9.66816 28.4692 9.42058 28.3739 9.25195C28.2787 9.08058 28.1629 8.9949 28.0263 8.9949C27.8804 8.9949 27.7597 9.08459 27.6644 9.26395C27.5692 9.44332 27.5224 9.6869 27.524 9.9949L28.524 9.9949L28.524 9.9949ZM29.2749 8.6306L29.8109 8.6306L29.8109 9.3726L30.5777 9.3726L30.5777 8.6306L31.1155 8.6306L31.1155 10.6562L30.5777 10.6562L30.5777 9.8056L29.8109 9.8056L29.8109 10.6562L29.2749 10.6562L29.2749 8.6306L29.2749 8.6306ZM31.4169 8.6306L33.2498 8.6306L33.2498 9.0636L32.6013 9.0636L32.6013 10.6562L32.0654 10.6562L32.0654 9.0636L31.4169 9.0636L31.4169 8.6306L31.4169 8.6306ZM33.9727 9.2486L33.4864 9.1609C33.541 8.9651 33.6351 8.8201 33.7686 8.726C33.9022 8.6319 34.1005 8.5849 34.3637 8.5849C34.6028 8.5849 34.7808 8.6135 34.8978 8.6707C35.0148 8.7266 35.0968 8.7985 35.1438 8.8862C35.1922 8.9727 35.2163 9.1323 35.2163 9.365L35.2106 9.9906C35.2106 10.1686 35.2189 10.3002 35.2354 10.3854C35.2532 10.4693 35.2856 10.5596 35.3327 10.6562L34.8024 10.6562C34.7884 10.6206 34.7713 10.5679 34.7509 10.4979C34.742 10.4662 34.7357 10.4452 34.7319 10.435C34.6403 10.524 34.5424 10.5908 34.4381 10.6353C34.3339 10.6798 34.2226 10.702 34.1043 10.702C33.8958 10.702 33.7311 10.6454 33.6103 10.5323C33.4908 10.4191 33.431 10.2761 33.431 10.1031C33.431 9.9887 33.4584 9.887 33.5131 9.7979C33.5677 9.7077 33.644 9.639 33.7419 9.5919C33.8411 9.5436 33.9835 9.5017 34.1692 9.4661C34.4197 9.419 34.5933 9.3751 34.6899 9.3345L34.6899 9.2811C34.6899 9.1781 34.6645 9.1049 34.6136 9.0617C34.5627 9.0172 34.4667 8.9949 34.3256 8.9949C34.2302 8.9949 34.1558 9.014 34.1024 9.0522C34.049 9.089 34.0058 9.1545 33.9727 9.2486L33.9727 9.2486ZM34.967 9.6835C34.872 9.71923 34.7216 9.76183 34.5158 9.81145C34.3101 9.86106 34.1755 9.90974 34.1121 9.95733C34.0154 10.0347 33.967 10.1329 33.967 10.2519C33.967 10.3689 34.0057 10.4702 34.0831 10.5556C34.1605 10.6407 34.259 10.6835 34.3787 10.6835C34.5123 10.6835 34.6398 10.6339 34.7612 10.5346C34.8509 10.4593 34.9099 10.3671 34.938 10.2578C34.9573 10.1864 34.967 10.0505 34.967 9.85014L34.967 9.6835L34.967 9.6835ZM35.7313 8.6306L36.231 8.6306L36.231 8.9282C36.2959 8.8265 36.3836 8.7438 36.4942 8.6802C36.6049 8.6167 36.7276 8.5849 36.8624 8.5849C37.0976 8.5849 37.2972 8.6771 37.4613 8.8614C37.6253 9.0458 37.7073 9.3027 37.7073 9.632C37.7073 9.9702 37.6247 10.2335 37.4594 10.4216C37.2941 10.6086 37.0938 10.702 36.8586 10.702C36.7467 10.702 36.6449 10.6798 36.5534 10.6353C36.4631 10.5908 36.3677 10.5145 36.2673 10.4064L36.2673 11.4268L35.7313 11.4268L35.7313 8.6306L35.7313 8.6306ZM36.2616 9.6091C36.2616 9.8367 36.3117 10.0052 36.412 10.1146C36.5123 10.2226 36.6344 10.2767 36.7785 10.2767C36.917 10.2767 37.0321 10.2271 37.1239 10.1279C37.2157 10.0275 37.2616 9.8634 37.2616 9.6358C37.2616 9.4235 37.2143 9.2658 37.1196 9.1628C37.025 9.0598 36.9078 9.0083 36.7679 9.0083C36.6224 9.0083 36.5017 9.0592 36.4057 9.1609C36.3096 9.2613 36.2616 9.4108 36.2616 9.6091L36.2616 9.6091ZM38.1212 8.6306L38.6362 8.6306L38.6362 9.9028L39.4602 8.6306L39.9866 8.6306L39.9866 10.6562L39.4716 10.6562L39.4716 9.3612L38.6362 10.6562L38.1212 10.6562L38.1212 8.6306L38.1212 8.6306ZM40.5245 8.6306L41.0395 8.6306L41.0395 9.9028L41.8634 8.6306L42.3899 8.6306L42.3899 10.6562L41.8749 10.6562L41.8749 9.3612L41.0395 10.6562L40.5245 10.6562L40.5245 8.6306L40.5245 8.6306Z" id="Shape" fill="#554F4F" fill-rule="evenodd" stroke="none" />
  </g>
</svg>