<svg width="19" height="19" viewBox="0 0 19 19" fill="none" xmlns="http://www.w3.org/2000/svg">
<path d="M9.32285 6.37904C7.70362 6.37582 6.37958 7.69464 6.37636 9.3139C6.37315 10.9332 7.69194 12.2572 9.31116 12.2604C10.9304 12.2637 12.2544 10.9448 12.2576 9.32558C12.2609 7.70632 10.9421 6.38226 9.32285 6.37904ZM18.1367 9.33726C18.1392 8.11951 18.1526 6.9128 18.0866 5.69712C18.021 4.2851 17.7014 3.03141 16.6711 1.99691C15.6385 0.960208 14.3883 0.637842 12.9766 0.566649C11.759 0.495842 10.5523 0.504475 9.33673 0.50206C8.119 0.499641 6.91232 0.486214 5.69666 0.552187C4.28466 0.617771 3.03099 0.937369 1.99652 1.96776C0.959833 3.00036 0.637473 4.25056 0.566281 5.66232C0.495475 6.87993 0.504108 8.08668 0.501693 9.30223C0.499278 10.5178 0.485847 11.7267 0.551819 12.9424C0.617401 14.3544 0.936993 15.6081 1.96737 16.6426C2.99994 17.6793 4.25013 18.0016 5.66185 18.0728C6.87945 18.1436 8.08617 18.135 9.30169 18.1374C10.5194 18.1398 11.7261 18.1533 12.9418 18.0873C14.3538 18.0217 15.6074 17.7021 16.6419 16.6717C17.6786 15.6391 18.001 14.3889 18.0721 12.9772C18.1452 11.7618 18.1343 10.555 18.1367 9.33726ZM9.30802 13.8444C6.80417 13.8394 4.78746 11.8146 4.79243 9.31075C4.7974 6.80686 6.82215 4.7901 9.32599 4.79508C11.8298 4.80005 13.8466 6.82483 13.8416 9.32873C13.8366 11.8326 11.8119 13.8494 9.30802 13.8444ZM14.0341 5.67583C13.4495 5.67467 12.9784 5.20163 12.9796 4.61703C12.9807 4.03242 13.4537 3.56125 14.0383 3.56241C14.6229 3.56358 15.0941 4.03661 15.0929 4.62122C15.0928 4.76004 15.0653 4.89748 15.0121 5.02566C14.9588 5.15383 14.8807 5.27024 14.7823 5.3682C14.684 5.46617 14.5673 5.54377 14.4389 5.59656C14.3105 5.64934 14.173 5.67628 14.0341 5.67583Z" fill="white"/>
</svg>
