<svg width="14" height="14" viewBox="0 0 14 14" fill="none" xmlns="http://www.w3.org/2000/svg">
<g clip-path="url(#clip0_567_1062)">
<path d="M9.13246 0.0375977H5.12524C1.46844 0.0375977 0.601562 0.904476 0.601562 4.56127V8.56849C0.601562 12.2253 1.46844 13.0922 5.12524 13.0922H9.13246C12.7893 13.0922 13.6561 12.2253 13.6561 8.56849V4.56127C13.6561 0.904476 12.7807 0.0375977 9.13246 0.0375977V0.0375977ZM11.1404 9.35011H10.1927C9.83371 9.35011 9.72316 9.06537 9.07739 8.41103C8.51647 7.86724 8.26803 7.79504 8.12974 7.79504C7.93433 7.79504 7.87885 7.85011 7.87885 8.11813V8.9744C7.87885 9.20407 7.80665 9.34195 7.19881 9.34195C6.19364 9.34195 5.07833 8.73412 4.2963 7.60167C3.11694 5.94216 2.79425 4.69916 2.79425 4.44215C2.79425 4.30386 2.84933 4.17454 3.1149 4.17454H4.06459C4.30487 4.17454 4.39625 4.2851 4.48966 4.5421C4.95921 5.89769 5.74123 7.08521 6.06391 7.08521C6.18303 7.08521 6.23811 7.03014 6.23811 6.72623V5.32617C6.2018 4.68039 5.86198 4.62491 5.86198 4.39565C5.86198 4.2851 5.95336 4.17454 6.09981 4.17454H7.59329C7.79522 4.17454 7.86947 4.2851 7.86947 4.52293V6.4117C7.86947 6.61567 7.96085 6.68788 8.01592 6.68788C8.13504 6.68788 8.23702 6.61567 8.45772 6.39457C9.1398 5.62968 9.62852 4.45031 9.62852 4.45031C9.69216 4.31202 9.80271 4.1827 10.043 4.1827H10.9927C11.2774 4.1827 11.3411 4.32915 11.2774 4.53313C11.1583 5.08548 9.99607 6.72582 9.99607 6.72582C9.89613 6.89144 9.85778 6.96365 9.99607 7.14845C10.0981 7.28674 10.4297 7.57352 10.6504 7.83053C11.0563 8.2915 11.3684 8.67823 11.4516 8.94584C11.545 9.21141 11.4071 9.3497 11.1391 9.3497L11.1404 9.35011Z" fill="#337CFC"/>
</g>
<defs>
<clipPath id="clip0_567_1062">
<rect width="13.0542" height="13.0542" fill="white" transform="translate(0.601074 0.0375977)"/>
</clipPath>
</defs>
</svg>
