<svg width="21" height="13" viewBox="0 0 21 13" fill="none" xmlns="http://www.w3.org/2000/svg">
<path fill-rule="evenodd" clip-rule="evenodd" d="M1.42788 0.79543C1.32681 0.807067 1.18145 0.850654 1.11456 0.889374C0.841062 1.04764 0.811032 1.34077 0.996278 2.04414C1.32895 3.30729 2.14494 5.01678 3.19118 6.64231C3.6114 7.29522 4.34687 8.31798 4.70177 8.74298C5.35419 9.52427 6.12014 10.2111 6.91152 10.7246C8.00622 11.4348 9.1198 11.8486 10.3387 11.998C10.619 12.0324 11.4207 12.0336 11.6817 12.0001C12.1627 11.9384 12.4014 11.8076 12.4958 11.5543C12.5244 11.4774 12.5284 11.3645 12.5381 10.3561C12.549 9.21973 12.5549 9.12086 12.6231 8.93051C12.6611 8.82441 12.7609 8.74315 12.8817 8.72001C13.009 8.69562 13.2285 8.70014 13.3574 8.72981C13.7076 8.81042 14.1974 9.10565 14.7825 9.58877C15.1138 9.86228 15.7644 10.4872 16.2685 11.0161C17.022 11.8066 17.1975 11.9497 17.5377 12.051C17.6369 12.0806 17.7334 12.0835 18.9602 12.0941C20.3731 12.1062 20.373 12.1062 20.5635 12.021C20.6832 11.9675 20.7773 11.881 20.8286 11.7771C20.891 11.6511 20.889 11.4079 20.8241 11.2265C20.578 10.5387 19.6677 9.45026 17.887 7.71508C17.5065 7.34429 17.4165 7.24071 17.3441 7.09014C17.2684 6.93254 17.2762 6.80611 17.3727 6.62774C17.414 6.55132 17.5557 6.34659 17.6876 6.17275C18.7323 4.79543 19.7314 3.31777 20.1524 2.52721C20.6031 1.6807 20.6671 1.25718 20.3728 1.06811C20.1899 0.950638 20.2332 0.954042 18.7608 0.941363C17.5254 0.930725 17.4284 0.931967 17.328 0.959817C17.161 1.00613 17.0239 1.0807 16.9182 1.18281C16.7934 1.30327 16.76 1.35815 16.5672 1.75964C15.939 3.06711 15.0201 4.49356 14.2396 5.37288C13.8709 5.78821 13.4864 6.11403 13.2172 6.23916C13.1049 6.29135 12.9386 6.31554 12.8613 6.29094C12.7819 6.26568 12.6748 6.15186 12.6284 6.0435C12.5941 5.96322 12.5935 5.9124 12.6038 3.68447C12.6136 1.55262 12.6123 1.39971 12.5827 1.28563C12.525 1.06351 12.3887 0.931049 12.1785 0.892873C12.1126 0.880886 11.4495 0.87084 10.2359 0.863387L8.39328 0.852092L8.30342 0.889811C8.19627 0.934798 8.08984 1.02522 8.03614 1.11691C8.0055 1.1692 7.99685 1.21237 7.99598 1.31748C7.99459 1.48314 8.02515 1.54474 8.23381 1.797C8.57925 2.21457 8.71324 2.49007 8.80129 2.96386C8.83853 3.16433 8.83878 3.1853 8.82366 4.9244C8.8098 6.51993 8.80547 6.69359 8.77687 6.80447C8.71938 7.02729 8.63933 7.11315 8.47019 7.13334C7.92486 7.19847 6.85365 5.91079 5.85922 3.99474C5.43574 3.17881 5.17883 2.59585 4.82228 1.64176C4.61677 1.09182 4.41892 0.88203 4.05104 0.823944C3.94135 0.806608 1.55576 0.780675 1.42788 0.79543Z" fill="white"/>
</svg>
