<svg width="24" height="14" viewBox="0 0 24 14" fill="none" xmlns="http://www.w3.org/2000/svg">
<path fill-rule="evenodd" clip-rule="evenodd" d="M0.750853 0.0166417C0.632228 0.0302986 0.461643 0.081452 0.383136 0.126894C0.0621598 0.312631 0.0269173 0.656651 0.244321 1.48213C0.634744 2.96455 1.59239 4.97081 2.82025 6.87853C3.31343 7.64477 4.17657 8.84509 4.59307 9.34387C5.35875 10.2608 6.25767 11.0669 7.18643 11.6695C8.47117 12.503 9.77806 12.9886 11.2086 13.164C11.5375 13.2043 12.4784 13.2058 12.7848 13.1664C13.3492 13.094 13.6294 12.9405 13.7401 12.6432C13.7737 12.553 13.7784 12.4204 13.7898 11.237C13.8025 9.90337 13.8095 9.78734 13.8895 9.56394C13.9341 9.43943 14.0513 9.34406 14.193 9.3169C14.3424 9.28828 14.6 9.29359 14.7513 9.32841C15.1623 9.42301 15.7371 9.76949 16.4238 10.3365C16.8126 10.6575 17.5762 11.3909 18.1677 12.0116C19.0521 12.9393 19.258 13.1073 19.6573 13.2262C19.7737 13.2609 19.8869 13.2643 21.3267 13.2767C22.9849 13.291 22.9848 13.291 23.2084 13.191C23.3488 13.1281 23.4592 13.0266 23.5195 12.9047C23.5927 12.7568 23.5903 12.4714 23.5142 12.2585C23.2254 11.4513 22.157 10.1739 20.0672 8.13753C19.6207 7.70237 19.5151 7.58081 19.4301 7.40409C19.3412 7.21913 19.3504 7.07075 19.4636 6.86142C19.5121 6.77174 19.6785 6.53146 19.8332 6.32745C21.0593 4.71103 22.2318 2.97685 22.7258 2.04905C23.2548 1.05559 23.3299 0.558551 22.9845 0.336658C22.7699 0.198794 22.8207 0.202788 21.0927 0.187908C19.6428 0.175424 19.5291 0.176881 19.4112 0.209566C19.2151 0.263919 19.0543 0.351429 18.9302 0.471266C18.7838 0.612644 18.7446 0.677052 18.5183 1.14823C17.7811 2.68268 16.7027 4.35676 15.7866 5.38872C15.354 5.87616 14.9027 6.25853 14.5868 6.40538C14.455 6.46664 14.2598 6.49502 14.169 6.46616C14.0758 6.43651 13.9501 6.30293 13.8958 6.17576C13.8555 6.08155 13.8548 6.0219 13.8669 3.40721C13.8784 0.905277 13.8768 0.725821 13.8421 0.591942C13.7744 0.331255 13.6145 0.175804 13.3678 0.131C13.2904 0.116933 12.5122 0.105143 11.0879 0.0963956L8.92542 0.0831398L8.81996 0.127407C8.69421 0.180204 8.56931 0.286318 8.50628 0.393928C8.47032 0.455299 8.46017 0.505967 8.45915 0.629319C8.45752 0.82374 8.49338 0.896026 8.73827 1.19208C9.14367 1.68214 9.30092 2.00547 9.40426 2.56151C9.44796 2.79678 9.44826 2.82138 9.43051 4.86239C9.41424 6.7349 9.40917 6.9387 9.3756 7.06883C9.30814 7.33034 9.21419 7.4311 9.01568 7.4548C8.37568 7.53122 7.11852 6.02002 5.95146 3.77135C5.45446 2.81378 5.15295 2.12961 4.7345 1.00989C4.49331 0.364482 4.26113 0.118275 3.82938 0.050106C3.70064 0.0297604 0.900929 -0.000674451 0.750853 0.0166417Z" fill="#337CFC"/>
</svg>
