<svg width="25" height="25" viewBox="0 0 25 25" fill="none" xmlns="http://www.w3.org/2000/svg">
<path d="M12.5 0C19.4038 0 25 5.59625 25 12.5C25 19.4037 19.4038 25 12.5 25C10.3725 25.0031 8.27961 24.4609 6.42126 23.425L6.04001 23.2025L2.25001 24.3175C2.04376 24.3783 1.82541 24.3854 1.61565 24.3381C1.4059 24.2908 1.21169 24.1908 1.05143 24.0474C0.891177 23.9041 0.77019 23.7222 0.699939 23.519C0.629689 23.3157 0.612503 23.098 0.650011 22.8862L0.682511 22.75L1.79751 18.96C0.618709 17.0116 -0.00301755 14.7772 1.10119e-05 12.5C1.10119e-05 5.59625 5.59626 0 12.5 0ZM12.5 2.5C10.7095 2.49967 8.95183 2.98007 7.41042 3.89102C5.86901 4.80196 4.60045 6.11005 3.73721 7.67867C2.87397 9.2473 2.44772 11.0189 2.50296 12.8085C2.5582 14.5981 3.09291 16.3401 4.05126 17.8525C4.29876 18.2425 4.40501 18.7225 4.32126 19.1987L4.27251 19.4025L3.72126 21.2787L5.59751 20.7275C6.13876 20.5675 6.70126 20.665 7.14751 20.9487C8.45792 21.7785 9.94337 22.292 11.4864 22.4488C13.0295 22.6055 14.5879 22.4012 16.0384 21.852C17.4889 21.3027 18.7917 20.4236 19.844 19.2841C20.8962 18.1446 21.6689 16.776 22.1011 15.2864C22.5333 13.7968 22.613 12.2271 22.3341 10.7014C22.0551 9.17566 21.425 7.73575 20.4937 6.49547C19.5624 5.25519 18.3554 4.24854 16.968 3.5551C15.5807 2.86166 14.051 2.50044 12.5 2.5ZM8.87751 6.48C9.0159 6.42007 9.16751 6.3972 9.31742 6.41363C9.46734 6.43007 9.61039 6.48525 9.73251 6.57375C10.3625 7.03375 10.8625 7.65125 11.2925 8.25375L11.7013 8.84625L11.8925 9.1275C12.0029 9.28884 12.057 9.48203 12.0466 9.67723C12.0362 9.87243 11.9619 10.0588 11.835 10.2075L11.7413 10.3025L10.5863 11.16C10.5307 11.2002 10.4915 11.2593 10.4761 11.3262C10.4608 11.393 10.4701 11.4632 10.5025 11.5237C10.765 11.9987 11.2288 12.7075 11.7613 13.24C12.295 13.7725 13.0363 14.2675 13.5438 14.5587C13.6538 14.6212 13.7863 14.6012 13.8763 14.52L13.9238 14.4637L14.675 13.32C14.8129 13.1363 15.0166 13.0131 15.2433 12.9763C15.4701 12.9394 15.7023 12.9918 15.8913 13.1225L16.57 13.5962C17.245 14.0775 17.8938 14.595 18.4075 15.2512C18.503 15.3743 18.5638 15.5208 18.5833 15.6754C18.6029 15.83 18.5806 15.987 18.5188 16.13C18.0238 17.285 16.77 18.2687 15.4675 18.2212L15.2688 18.2087L15.03 18.1862C14.9849 18.1809 14.9399 18.1751 14.895 18.1687L14.5975 18.1187C13.4425 17.9012 11.5913 17.2462 9.67251 15.3287C7.75501 13.41 7.10001 11.5587 6.88251 10.4037L6.83251 10.1062L6.80126 9.84624L6.78501 9.62749C6.78303 9.59626 6.78136 9.56501 6.78001 9.53374C6.73251 8.22875 7.72126 6.975 8.87751 6.48Z" fill="#337CFC"/>
</svg>
