<svg width="20" height="14" viewBox="0 0 20 14" fill="none" xmlns="http://www.w3.org/2000/svg">
<path d="M19.2381 2.2188C19.1266 1.8045 18.9082 1.42675 18.6048 1.12336C18.3015 0.819978 17.9237 0.601599 17.5094 0.490081C15.9836 0.0771486 9.85264 0.0771484 9.85264 0.0771484C9.85264 0.0771484 3.72164 0.0771486 2.19589 0.490081C1.78158 0.601599 1.40384 0.819978 1.10045 1.12336C0.797067 1.42675 0.578688 1.8045 0.46717 2.2188C0.182279 3.77483 0.0440284 5.35417 0.0542376 6.93603C0.0440284 8.5179 0.182279 10.0972 0.46717 11.6533C0.578688 12.0676 0.797067 12.4453 1.10045 12.7487C1.40384 13.0521 1.78158 13.2705 2.19589 13.382C3.72164 13.7949 9.85264 13.7949 9.85264 13.7949C9.85264 13.7949 15.9836 13.7949 17.5094 13.382C17.9237 13.2705 18.3015 13.0521 18.6048 12.7487C18.9082 12.4453 19.1266 12.0676 19.2381 11.6533C19.523 10.0972 19.6613 8.5179 19.6511 6.93603C19.6613 5.35417 19.523 3.77483 19.2381 2.2188ZM7.89296 9.87556V3.99651L12.9811 6.93603L7.89296 9.87556Z" fill="white"/>
</svg>
