<svg width="92" height="93" viewBox="0 0 92 93" fill="none" xmlns="http://www.w3.org/2000/svg">
<g opacity="0.5">
<ellipse cx="1.12195" cy="1.12337" rx="1.12195" ry="1.12337" fill="#A7C4FE" fill-opacity="0.92"/>
<ellipse cx="1.12195" cy="10.1102" rx="1.12195" ry="1.12337" fill="#A7C4FE" fill-opacity="0.92"/>
<ellipse cx="1.12195" cy="19.0975" rx="1.12195" ry="1.12337" fill="#A7C4FE" fill-opacity="0.92"/>
<ellipse cx="1.12195" cy="28.0843" rx="1.12195" ry="1.12337" fill="#A7C4FE" fill-opacity="0.92"/>
<ellipse cx="1.12195" cy="37.0711" rx="1.12195" ry="1.12337" fill="#A7C4FE" fill-opacity="0.92"/>
<ellipse cx="1.12195" cy="46.057" rx="1.12195" ry="1.12337" fill="#A7C4FE" fill-opacity="0.92"/>
<ellipse cx="1.12195" cy="55.0452" rx="1.12195" ry="1.12337" fill="#A7C4FE" fill-opacity="0.92"/>
<ellipse cx="1.12195" cy="64.0321" rx="1.12195" ry="1.12337" fill="#A7C4FE" fill-opacity="0.92"/>
<ellipse cx="1.12195" cy="73.0189" rx="1.12195" ry="1.12337" fill="#A7C4FE" fill-opacity="0.92"/>
<ellipse cx="1.12195" cy="82.0062" rx="1.12195" ry="1.12337" fill="#A7C4FE" fill-opacity="0.92"/>
<ellipse cx="1.12195" cy="90.993" rx="1.12195" ry="1.12337" fill="#A7C4FE" fill-opacity="0.92"/>
<ellipse cx="19.0731" cy="1.12337" rx="1.12195" ry="1.12337" fill="#A7C4FE" fill-opacity="0.92"/>
<ellipse cx="19.0731" cy="10.1102" rx="1.12195" ry="1.12337" fill="#A7C4FE" fill-opacity="0.92"/>
<ellipse cx="19.0731" cy="19.0975" rx="1.12195" ry="1.12337" fill="#A7C4FE" fill-opacity="0.92"/>
<ellipse cx="19.0731" cy="28.0843" rx="1.12195" ry="1.12337" fill="#A7C4FE" fill-opacity="0.92"/>
<ellipse cx="19.0731" cy="37.0711" rx="1.12195" ry="1.12337" fill="#A7C4FE" fill-opacity="0.92"/>
<ellipse cx="19.0731" cy="46.057" rx="1.12195" ry="1.12337" fill="#A7C4FE" fill-opacity="0.92"/>
<ellipse cx="19.0731" cy="55.0452" rx="1.12195" ry="1.12337" fill="#A7C4FE" fill-opacity="0.92"/>
<ellipse cx="19.0731" cy="64.0321" rx="1.12195" ry="1.12337" fill="#A7C4FE" fill-opacity="0.92"/>
<ellipse cx="19.0731" cy="73.0189" rx="1.12195" ry="1.12337" fill="#A7C4FE" fill-opacity="0.92"/>
<ellipse cx="19.0731" cy="82.0062" rx="1.12195" ry="1.12337" fill="#A7C4FE" fill-opacity="0.92"/>
<ellipse cx="19.0731" cy="90.993" rx="1.12195" ry="1.12337" fill="#A7C4FE" fill-opacity="0.92"/>
<ellipse cx="10.0966" cy="1.12337" rx="1.12195" ry="1.12337" fill="#A7C4FE" fill-opacity="0.92"/>
<ellipse cx="10.0966" cy="10.1102" rx="1.12195" ry="1.12337" fill="#A7C4FE" fill-opacity="0.92"/>
<ellipse cx="10.0966" cy="19.0975" rx="1.12195" ry="1.12337" fill="#A7C4FE" fill-opacity="0.92"/>
<ellipse cx="10.0966" cy="28.0843" rx="1.12195" ry="1.12337" fill="#A7C4FE" fill-opacity="0.92"/>
<ellipse cx="10.0966" cy="37.0711" rx="1.12195" ry="1.12337" fill="#A7C4FE" fill-opacity="0.92"/>
<ellipse cx="10.0966" cy="46.057" rx="1.12195" ry="1.12337" fill="#A7C4FE" fill-opacity="0.92"/>
<ellipse cx="10.0966" cy="55.0452" rx="1.12195" ry="1.12337" fill="#A7C4FE" fill-opacity="0.92"/>
<ellipse cx="10.0966" cy="64.0321" rx="1.12195" ry="1.12337" fill="#A7C4FE" fill-opacity="0.92"/>
<ellipse cx="10.0966" cy="73.0189" rx="1.12195" ry="1.12337" fill="#A7C4FE" fill-opacity="0.92"/>
<ellipse cx="10.0966" cy="82.0062" rx="1.12195" ry="1.12337" fill="#A7C4FE" fill-opacity="0.92"/>
<ellipse cx="10.0966" cy="90.993" rx="1.12195" ry="1.12337" fill="#A7C4FE" fill-opacity="0.92"/>
<ellipse cx="28.0497" cy="1.12337" rx="1.12195" ry="1.12337" fill="#A7C4FE" fill-opacity="0.92"/>
<ellipse cx="28.0497" cy="10.1102" rx="1.12195" ry="1.12337" fill="#A7C4FE" fill-opacity="0.92"/>
<ellipse cx="28.0497" cy="19.0975" rx="1.12195" ry="1.12337" fill="#A7C4FE" fill-opacity="0.92"/>
<ellipse cx="28.0497" cy="28.0843" rx="1.12195" ry="1.12337" fill="#A7C4FE" fill-opacity="0.92"/>
<ellipse cx="28.0497" cy="37.0711" rx="1.12195" ry="1.12337" fill="#A7C4FE" fill-opacity="0.92"/>
<ellipse cx="28.0497" cy="46.057" rx="1.12195" ry="1.12337" fill="#A7C4FE" fill-opacity="0.92"/>
<ellipse cx="28.0497" cy="55.0452" rx="1.12195" ry="1.12337" fill="#A7C4FE" fill-opacity="0.92"/>
<ellipse cx="28.0497" cy="64.0321" rx="1.12195" ry="1.12337" fill="#A7C4FE" fill-opacity="0.92"/>
<ellipse cx="28.0497" cy="73.0189" rx="1.12195" ry="1.12337" fill="#A7C4FE" fill-opacity="0.92"/>
<ellipse cx="28.0497" cy="82.0062" rx="1.12195" ry="1.12337" fill="#A7C4FE" fill-opacity="0.92"/>
<ellipse cx="28.0497" cy="90.993" rx="1.12195" ry="1.12337" fill="#A7C4FE" fill-opacity="0.92"/>
<ellipse cx="46.0009" cy="1.12337" rx="1.12195" ry="1.12337" fill="#A7C4FE" fill-opacity="0.92"/>
<ellipse cx="46.0009" cy="10.1102" rx="1.12195" ry="1.12337" fill="#A7C4FE" fill-opacity="0.92"/>
<ellipse cx="46.0009" cy="19.0975" rx="1.12195" ry="1.12337" fill="#A7C4FE" fill-opacity="0.92"/>
<ellipse cx="46.0009" cy="28.0843" rx="1.12195" ry="1.12337" fill="#A7C4FE" fill-opacity="0.92"/>
<ellipse cx="46.0009" cy="37.0711" rx="1.12195" ry="1.12337" fill="#A7C4FE" fill-opacity="0.92"/>
<ellipse cx="46.0009" cy="46.057" rx="1.12195" ry="1.12337" fill="#A7C4FE" fill-opacity="0.92"/>
<ellipse cx="46.0009" cy="55.0452" rx="1.12195" ry="1.12337" fill="#A7C4FE" fill-opacity="0.92"/>
<ellipse cx="46.0009" cy="64.0321" rx="1.12195" ry="1.12337" fill="#A7C4FE" fill-opacity="0.92"/>
<ellipse cx="46.0009" cy="73.0189" rx="1.12195" ry="1.12337" fill="#A7C4FE" fill-opacity="0.92"/>
<ellipse cx="46.0009" cy="82.0062" rx="1.12195" ry="1.12337" fill="#A7C4FE" fill-opacity="0.92"/>
<ellipse cx="46.0009" cy="90.993" rx="1.12195" ry="1.12337" fill="#A7C4FE" fill-opacity="0.92"/>
<ellipse cx="37.0262" cy="1.12337" rx="1.12195" ry="1.12337" fill="#A7C4FE" fill-opacity="0.92"/>
<ellipse cx="37.0262" cy="10.1102" rx="1.12195" ry="1.12337" fill="#A7C4FE" fill-opacity="0.92"/>
<ellipse cx="37.0262" cy="19.0975" rx="1.12195" ry="1.12337" fill="#A7C4FE" fill-opacity="0.92"/>
<ellipse cx="37.0262" cy="28.0843" rx="1.12195" ry="1.12337" fill="#A7C4FE" fill-opacity="0.92"/>
<ellipse cx="37.0262" cy="37.0711" rx="1.12195" ry="1.12337" fill="#A7C4FE" fill-opacity="0.92"/>
<ellipse cx="37.0262" cy="46.057" rx="1.12195" ry="1.12337" fill="#A7C4FE" fill-opacity="0.92"/>
<ellipse cx="37.0262" cy="55.0452" rx="1.12195" ry="1.12337" fill="#A7C4FE" fill-opacity="0.92"/>
<ellipse cx="37.0262" cy="64.0321" rx="1.12195" ry="1.12337" fill="#A7C4FE" fill-opacity="0.92"/>
<ellipse cx="37.0262" cy="73.0189" rx="1.12195" ry="1.12337" fill="#A7C4FE" fill-opacity="0.92"/>
<ellipse cx="37.0262" cy="82.0062" rx="1.12195" ry="1.12337" fill="#A7C4FE" fill-opacity="0.92"/>
<ellipse cx="37.0262" cy="90.993" rx="1.12195" ry="1.12337" fill="#A7C4FE" fill-opacity="0.92"/>
<ellipse cx="54.9755" cy="1.12337" rx="1.12195" ry="1.12337" fill="#A7C4FE" fill-opacity="0.92"/>
<ellipse cx="54.9755" cy="10.1102" rx="1.12195" ry="1.12337" fill="#A7C4FE" fill-opacity="0.92"/>
<ellipse cx="54.9755" cy="19.0975" rx="1.12195" ry="1.12337" fill="#A7C4FE" fill-opacity="0.92"/>
<ellipse cx="54.9755" cy="28.0843" rx="1.12195" ry="1.12337" fill="#A7C4FE" fill-opacity="0.92"/>
<ellipse cx="54.9755" cy="37.0711" rx="1.12195" ry="1.12337" fill="#A7C4FE" fill-opacity="0.92"/>
<ellipse cx="54.9755" cy="46.057" rx="1.12195" ry="1.12337" fill="#A7C4FE" fill-opacity="0.92"/>
<ellipse cx="54.9755" cy="55.0452" rx="1.12195" ry="1.12337" fill="#A7C4FE" fill-opacity="0.92"/>
<ellipse cx="54.9755" cy="64.0321" rx="1.12195" ry="1.12337" fill="#A7C4FE" fill-opacity="0.92"/>
<ellipse cx="54.9755" cy="73.0189" rx="1.12195" ry="1.12337" fill="#A7C4FE" fill-opacity="0.92"/>
<ellipse cx="54.9755" cy="82.0062" rx="1.12195" ry="1.12337" fill="#A7C4FE" fill-opacity="0.92"/>
<ellipse cx="54.9755" cy="90.993" rx="1.12195" ry="1.12337" fill="#A7C4FE" fill-opacity="0.92"/>
<ellipse cx="72.9266" cy="1.12337" rx="1.12195" ry="1.12337" fill="#A7C4FE" fill-opacity="0.92"/>
<ellipse cx="72.9266" cy="10.1102" rx="1.12195" ry="1.12337" fill="#A7C4FE" fill-opacity="0.92"/>
<ellipse cx="72.9266" cy="19.0975" rx="1.12195" ry="1.12337" fill="#A7C4FE" fill-opacity="0.92"/>
<ellipse cx="72.9266" cy="28.0843" rx="1.12195" ry="1.12337" fill="#A7C4FE" fill-opacity="0.92"/>
<ellipse cx="72.9266" cy="37.0711" rx="1.12195" ry="1.12337" fill="#A7C4FE" fill-opacity="0.92"/>
<ellipse cx="72.9266" cy="46.057" rx="1.12195" ry="1.12337" fill="#A7C4FE" fill-opacity="0.92"/>
<ellipse cx="72.9266" cy="55.0452" rx="1.12195" ry="1.12337" fill="#A7C4FE" fill-opacity="0.92"/>
<ellipse cx="72.9266" cy="64.0321" rx="1.12195" ry="1.12337" fill="#A7C4FE" fill-opacity="0.92"/>
<ellipse cx="72.9266" cy="73.0189" rx="1.12195" ry="1.12337" fill="#A7C4FE" fill-opacity="0.92"/>
<ellipse cx="72.9266" cy="82.0062" rx="1.12195" ry="1.12337" fill="#A7C4FE" fill-opacity="0.92"/>
<ellipse cx="72.9266" cy="90.993" rx="1.12195" ry="1.12337" fill="#A7C4FE" fill-opacity="0.92"/>
<ellipse cx="63.952" cy="1.12337" rx="1.12195" ry="1.12337" fill="#A7C4FE" fill-opacity="0.92"/>
<ellipse cx="63.952" cy="10.1102" rx="1.12195" ry="1.12337" fill="#A7C4FE" fill-opacity="0.92"/>
<ellipse cx="63.952" cy="19.0975" rx="1.12195" ry="1.12337" fill="#A7C4FE" fill-opacity="0.92"/>
<ellipse cx="63.952" cy="28.0843" rx="1.12195" ry="1.12337" fill="#A7C4FE" fill-opacity="0.92"/>
<ellipse cx="63.952" cy="37.0711" rx="1.12195" ry="1.12337" fill="#A7C4FE" fill-opacity="0.92"/>
<ellipse cx="63.952" cy="46.057" rx="1.12195" ry="1.12337" fill="#A7C4FE" fill-opacity="0.92"/>
<ellipse cx="63.952" cy="55.0452" rx="1.12195" ry="1.12337" fill="#A7C4FE" fill-opacity="0.92"/>
<ellipse cx="63.952" cy="64.0321" rx="1.12195" ry="1.12337" fill="#A7C4FE" fill-opacity="0.92"/>
<ellipse cx="63.952" cy="73.0189" rx="1.12195" ry="1.12337" fill="#A7C4FE" fill-opacity="0.92"/>
<ellipse cx="63.952" cy="82.0062" rx="1.12195" ry="1.12337" fill="#A7C4FE" fill-opacity="0.92"/>
<ellipse cx="63.952" cy="90.993" rx="1.12195" ry="1.12337" fill="#A7C4FE" fill-opacity="0.92"/>
<ellipse cx="81.9012" cy="1.12337" rx="1.12195" ry="1.12337" fill="#A7C4FE" fill-opacity="0.92"/>
<ellipse cx="81.9012" cy="10.1102" rx="1.12195" ry="1.12337" fill="#A7C4FE" fill-opacity="0.92"/>
<ellipse cx="81.9012" cy="19.0975" rx="1.12195" ry="1.12337" fill="#A7C4FE" fill-opacity="0.92"/>
<ellipse cx="81.9012" cy="28.0843" rx="1.12195" ry="1.12337" fill="#A7C4FE" fill-opacity="0.92"/>
<ellipse cx="81.9012" cy="37.0711" rx="1.12195" ry="1.12337" fill="#A7C4FE" fill-opacity="0.92"/>
<ellipse cx="81.9012" cy="46.057" rx="1.12195" ry="1.12337" fill="#A7C4FE" fill-opacity="0.92"/>
<ellipse cx="81.9012" cy="55.0452" rx="1.12195" ry="1.12337" fill="#A7C4FE" fill-opacity="0.92"/>
<ellipse cx="81.9012" cy="64.0321" rx="1.12195" ry="1.12337" fill="#A7C4FE" fill-opacity="0.92"/>
<ellipse cx="81.9012" cy="73.0189" rx="1.12195" ry="1.12337" fill="#A7C4FE" fill-opacity="0.92"/>
<ellipse cx="81.9012" cy="82.0062" rx="1.12195" ry="1.12337" fill="#A7C4FE" fill-opacity="0.92"/>
<ellipse cx="81.9012" cy="90.993" rx="1.12195" ry="1.12337" fill="#A7C4FE" fill-opacity="0.92"/>
<ellipse cx="90.8778" cy="1.12337" rx="1.12195" ry="1.12337" fill="#A7C4FE" fill-opacity="0.92"/>
<ellipse cx="90.8778" cy="10.1102" rx="1.12195" ry="1.12337" fill="#A7C4FE" fill-opacity="0.92"/>
<ellipse cx="90.8778" cy="19.0975" rx="1.12195" ry="1.12337" fill="#A7C4FE" fill-opacity="0.92"/>
<ellipse cx="90.8778" cy="28.0843" rx="1.12195" ry="1.12337" fill="#A7C4FE" fill-opacity="0.92"/>
<ellipse cx="90.8778" cy="37.0711" rx="1.12195" ry="1.12337" fill="#A7C4FE" fill-opacity="0.92"/>
<ellipse cx="90.8778" cy="46.057" rx="1.12195" ry="1.12337" fill="#A7C4FE" fill-opacity="0.92"/>
<ellipse cx="90.8778" cy="55.0452" rx="1.12195" ry="1.12337" fill="#A7C4FE" fill-opacity="0.92"/>
<ellipse cx="90.8778" cy="64.0321" rx="1.12195" ry="1.12337" fill="#A7C4FE" fill-opacity="0.92"/>
<ellipse cx="90.8778" cy="73.0189" rx="1.12195" ry="1.12337" fill="#A7C4FE" fill-opacity="0.92"/>
<ellipse cx="90.8778" cy="82.0062" rx="1.12195" ry="1.12337" fill="#A7C4FE" fill-opacity="0.92"/>
<ellipse cx="90.8778" cy="90.993" rx="1.12195" ry="1.12337" fill="#A7C4FE" fill-opacity="0.92"/>
</g>
</svg>
