<svg width="70" height="71" viewBox="0 0 70 71" fill="none" xmlns="http://www.w3.org/2000/svg">
<ellipse cx="0.853659" cy="0.854741" rx="0.853659" ry="0.854741" fill="#4F4F4F" fill-opacity="0.16"/>
<ellipse cx="0.853659" cy="7.69263" rx="0.853659" ry="0.854741" fill="#4F4F4F" fill-opacity="0.16"/>
<ellipse cx="0.853659" cy="14.5305" rx="0.853659" ry="0.854741" fill="#4F4F4F" fill-opacity="0.16"/>
<ellipse cx="0.853659" cy="21.3684" rx="0.853659" ry="0.854741" fill="#4F4F4F" fill-opacity="0.16"/>
<ellipse cx="0.853659" cy="28.2063" rx="0.853659" ry="0.854741" fill="#4F4F4F" fill-opacity="0.16"/>
<ellipse cx="0.853659" cy="35.0442" rx="0.853659" ry="0.854741" fill="#4F4F4F" fill-opacity="0.16"/>
<ellipse cx="0.853659" cy="41.8821" rx="0.853659" ry="0.854741" fill="#4F4F4F" fill-opacity="0.16"/>
<ellipse cx="0.853659" cy="48.72" rx="0.853659" ry="0.854741" fill="#4F4F4F" fill-opacity="0.16"/>
<ellipse cx="0.853659" cy="55.5579" rx="0.853659" ry="0.854741" fill="#4F4F4F" fill-opacity="0.16"/>
<ellipse cx="0.853659" cy="62.3958" rx="0.853659" ry="0.854741" fill="#4F4F4F" fill-opacity="0.16"/>
<ellipse cx="0.853659" cy="69.2337" rx="0.853659" ry="0.854741" fill="#4F4F4F" fill-opacity="0.16"/>
<ellipse cx="14.5119" cy="0.854741" rx="0.853659" ry="0.854741" fill="#4F4F4F" fill-opacity="0.16"/>
<ellipse cx="14.5119" cy="7.69263" rx="0.853659" ry="0.854741" fill="#4F4F4F" fill-opacity="0.16"/>
<ellipse cx="14.5119" cy="14.5305" rx="0.853659" ry="0.854741" fill="#4F4F4F" fill-opacity="0.16"/>
<ellipse cx="14.5119" cy="21.3684" rx="0.853659" ry="0.854741" fill="#4F4F4F" fill-opacity="0.16"/>
<ellipse cx="14.5119" cy="28.2063" rx="0.853659" ry="0.854741" fill="#4F4F4F" fill-opacity="0.16"/>
<ellipse cx="14.5119" cy="35.0442" rx="0.853659" ry="0.854741" fill="#4F4F4F" fill-opacity="0.16"/>
<ellipse cx="14.5119" cy="41.8821" rx="0.853659" ry="0.854741" fill="#4F4F4F" fill-opacity="0.16"/>
<ellipse cx="14.5119" cy="48.72" rx="0.853659" ry="0.854741" fill="#4F4F4F" fill-opacity="0.16"/>
<ellipse cx="14.5119" cy="55.5579" rx="0.853659" ry="0.854741" fill="#4F4F4F" fill-opacity="0.16"/>
<ellipse cx="14.5119" cy="62.3958" rx="0.853659" ry="0.854741" fill="#4F4F4F" fill-opacity="0.16"/>
<ellipse cx="14.5119" cy="69.2337" rx="0.853659" ry="0.854741" fill="#4F4F4F" fill-opacity="0.16"/>
<ellipse cx="7.68178" cy="0.854741" rx="0.853659" ry="0.854741" fill="#4F4F4F" fill-opacity="0.16"/>
<ellipse cx="7.68178" cy="7.69263" rx="0.853659" ry="0.854741" fill="#4F4F4F" fill-opacity="0.16"/>
<ellipse cx="7.68178" cy="14.5305" rx="0.853659" ry="0.854741" fill="#4F4F4F" fill-opacity="0.16"/>
<ellipse cx="7.68178" cy="21.3684" rx="0.853659" ry="0.854741" fill="#4F4F4F" fill-opacity="0.16"/>
<ellipse cx="7.68178" cy="28.2063" rx="0.853659" ry="0.854741" fill="#4F4F4F" fill-opacity="0.16"/>
<ellipse cx="7.68178" cy="35.0442" rx="0.853659" ry="0.854741" fill="#4F4F4F" fill-opacity="0.16"/>
<ellipse cx="7.68178" cy="41.8821" rx="0.853659" ry="0.854741" fill="#4F4F4F" fill-opacity="0.16"/>
<ellipse cx="7.68178" cy="48.72" rx="0.853659" ry="0.854741" fill="#4F4F4F" fill-opacity="0.16"/>
<ellipse cx="7.68178" cy="55.5579" rx="0.853659" ry="0.854741" fill="#4F4F4F" fill-opacity="0.16"/>
<ellipse cx="7.68178" cy="62.3958" rx="0.853659" ry="0.854741" fill="#4F4F4F" fill-opacity="0.16"/>
<ellipse cx="7.68178" cy="69.2337" rx="0.853659" ry="0.854741" fill="#4F4F4F" fill-opacity="0.16"/>
<ellipse cx="21.34" cy="0.854741" rx="0.853659" ry="0.854741" fill="#4F4F4F" fill-opacity="0.16"/>
<ellipse cx="21.34" cy="7.69263" rx="0.853659" ry="0.854741" fill="#4F4F4F" fill-opacity="0.16"/>
<ellipse cx="21.34" cy="14.5305" rx="0.853659" ry="0.854741" fill="#4F4F4F" fill-opacity="0.16"/>
<ellipse cx="21.34" cy="21.3684" rx="0.853659" ry="0.854741" fill="#4F4F4F" fill-opacity="0.16"/>
<ellipse cx="21.34" cy="28.2063" rx="0.853659" ry="0.854741" fill="#4F4F4F" fill-opacity="0.16"/>
<ellipse cx="21.34" cy="35.0442" rx="0.853659" ry="0.854741" fill="#4F4F4F" fill-opacity="0.16"/>
<ellipse cx="21.34" cy="41.8821" rx="0.853659" ry="0.854741" fill="#4F4F4F" fill-opacity="0.16"/>
<ellipse cx="21.34" cy="48.72" rx="0.853659" ry="0.854741" fill="#4F4F4F" fill-opacity="0.16"/>
<ellipse cx="21.34" cy="55.5579" rx="0.853659" ry="0.854741" fill="#4F4F4F" fill-opacity="0.16"/>
<ellipse cx="21.34" cy="62.3958" rx="0.853659" ry="0.854741" fill="#4F4F4F" fill-opacity="0.16"/>
<ellipse cx="21.34" cy="69.2337" rx="0.853659" ry="0.854741" fill="#4F4F4F" fill-opacity="0.16"/>
<ellipse cx="35.0001" cy="0.854741" rx="0.853659" ry="0.854741" fill="#4F4F4F" fill-opacity="0.16"/>
<ellipse cx="35.0001" cy="7.69263" rx="0.853659" ry="0.854741" fill="#4F4F4F" fill-opacity="0.16"/>
<ellipse cx="35.0001" cy="14.5305" rx="0.853659" ry="0.854741" fill="#4F4F4F" fill-opacity="0.16"/>
<ellipse cx="35.0001" cy="21.3684" rx="0.853659" ry="0.854741" fill="#4F4F4F" fill-opacity="0.16"/>
<ellipse cx="35.0001" cy="28.2063" rx="0.853659" ry="0.854741" fill="#4F4F4F" fill-opacity="0.16"/>
<ellipse cx="35.0001" cy="35.0442" rx="0.853659" ry="0.854741" fill="#4F4F4F" fill-opacity="0.16"/>
<ellipse cx="35.0001" cy="41.8821" rx="0.853659" ry="0.854741" fill="#4F4F4F" fill-opacity="0.16"/>
<ellipse cx="35.0001" cy="48.72" rx="0.853659" ry="0.854741" fill="#4F4F4F" fill-opacity="0.16"/>
<ellipse cx="35.0001" cy="55.5579" rx="0.853659" ry="0.854741" fill="#4F4F4F" fill-opacity="0.16"/>
<ellipse cx="35.0001" cy="62.3958" rx="0.853659" ry="0.854741" fill="#4F4F4F" fill-opacity="0.16"/>
<ellipse cx="35.0001" cy="69.2337" rx="0.853659" ry="0.854741" fill="#4F4F4F" fill-opacity="0.16"/>
<ellipse cx="28.172" cy="0.854741" rx="0.853659" ry="0.854741" fill="#4F4F4F" fill-opacity="0.16"/>
<ellipse cx="28.172" cy="7.69263" rx="0.853659" ry="0.854741" fill="#4F4F4F" fill-opacity="0.16"/>
<ellipse cx="28.172" cy="14.5305" rx="0.853659" ry="0.854741" fill="#4F4F4F" fill-opacity="0.16"/>
<ellipse cx="28.172" cy="21.3684" rx="0.853659" ry="0.854741" fill="#4F4F4F" fill-opacity="0.16"/>
<ellipse cx="28.172" cy="28.2063" rx="0.853659" ry="0.854741" fill="#4F4F4F" fill-opacity="0.16"/>
<ellipse cx="28.172" cy="35.0442" rx="0.853659" ry="0.854741" fill="#4F4F4F" fill-opacity="0.16"/>
<ellipse cx="28.172" cy="41.8821" rx="0.853659" ry="0.854741" fill="#4F4F4F" fill-opacity="0.16"/>
<ellipse cx="28.172" cy="48.72" rx="0.853659" ry="0.854741" fill="#4F4F4F" fill-opacity="0.16"/>
<ellipse cx="28.172" cy="55.5579" rx="0.853659" ry="0.854741" fill="#4F4F4F" fill-opacity="0.16"/>
<ellipse cx="28.172" cy="62.3958" rx="0.853659" ry="0.854741" fill="#4F4F4F" fill-opacity="0.16"/>
<ellipse cx="28.172" cy="69.2337" rx="0.853659" ry="0.854741" fill="#4F4F4F" fill-opacity="0.16"/>
<ellipse cx="41.8302" cy="0.854741" rx="0.853659" ry="0.854741" fill="#4F4F4F" fill-opacity="0.16"/>
<ellipse cx="41.8302" cy="7.69263" rx="0.853659" ry="0.854741" fill="#4F4F4F" fill-opacity="0.16"/>
<ellipse cx="41.8302" cy="14.5305" rx="0.853659" ry="0.854741" fill="#4F4F4F" fill-opacity="0.16"/>
<ellipse cx="41.8302" cy="21.3684" rx="0.853659" ry="0.854741" fill="#4F4F4F" fill-opacity="0.16"/>
<ellipse cx="41.8302" cy="28.2063" rx="0.853659" ry="0.854741" fill="#4F4F4F" fill-opacity="0.16"/>
<ellipse cx="41.8302" cy="35.0442" rx="0.853659" ry="0.854741" fill="#4F4F4F" fill-opacity="0.16"/>
<ellipse cx="41.8302" cy="41.8821" rx="0.853659" ry="0.854741" fill="#4F4F4F" fill-opacity="0.16"/>
<ellipse cx="41.8302" cy="48.72" rx="0.853659" ry="0.854741" fill="#4F4F4F" fill-opacity="0.16"/>
<ellipse cx="41.8302" cy="55.5579" rx="0.853659" ry="0.854741" fill="#4F4F4F" fill-opacity="0.16"/>
<ellipse cx="41.8302" cy="62.3958" rx="0.853659" ry="0.854741" fill="#4F4F4F" fill-opacity="0.16"/>
<ellipse cx="41.8302" cy="69.2337" rx="0.853659" ry="0.854741" fill="#4F4F4F" fill-opacity="0.16"/>
<ellipse cx="55.4865" cy="0.854741" rx="0.853659" ry="0.854741" fill="#4F4F4F" fill-opacity="0.16"/>
<ellipse cx="55.4865" cy="7.69263" rx="0.853659" ry="0.854741" fill="#4F4F4F" fill-opacity="0.16"/>
<ellipse cx="55.4865" cy="14.5305" rx="0.853659" ry="0.854741" fill="#4F4F4F" fill-opacity="0.16"/>
<ellipse cx="55.4865" cy="21.3684" rx="0.853659" ry="0.854741" fill="#4F4F4F" fill-opacity="0.16"/>
<ellipse cx="55.4865" cy="28.2063" rx="0.853659" ry="0.854741" fill="#4F4F4F" fill-opacity="0.16"/>
<ellipse cx="55.4865" cy="35.0442" rx="0.853659" ry="0.854741" fill="#4F4F4F" fill-opacity="0.16"/>
<ellipse cx="55.4865" cy="41.8821" rx="0.853659" ry="0.854741" fill="#4F4F4F" fill-opacity="0.16"/>
<ellipse cx="55.4865" cy="48.72" rx="0.853659" ry="0.854741" fill="#4F4F4F" fill-opacity="0.16"/>
<ellipse cx="55.4865" cy="55.5579" rx="0.853659" ry="0.854741" fill="#4F4F4F" fill-opacity="0.16"/>
<ellipse cx="55.4865" cy="62.3958" rx="0.853659" ry="0.854741" fill="#4F4F4F" fill-opacity="0.16"/>
<ellipse cx="55.4865" cy="69.2337" rx="0.853659" ry="0.854741" fill="#4F4F4F" fill-opacity="0.16"/>
<ellipse cx="48.6583" cy="0.854741" rx="0.853659" ry="0.854741" fill="#4F4F4F" fill-opacity="0.16"/>
<ellipse cx="48.6583" cy="7.69263" rx="0.853659" ry="0.854741" fill="#4F4F4F" fill-opacity="0.16"/>
<ellipse cx="48.6583" cy="14.5305" rx="0.853659" ry="0.854741" fill="#4F4F4F" fill-opacity="0.16"/>
<ellipse cx="48.6583" cy="21.3684" rx="0.853659" ry="0.854741" fill="#4F4F4F" fill-opacity="0.16"/>
<ellipse cx="48.6583" cy="28.2063" rx="0.853659" ry="0.854741" fill="#4F4F4F" fill-opacity="0.16"/>
<ellipse cx="48.6583" cy="35.0442" rx="0.853659" ry="0.854741" fill="#4F4F4F" fill-opacity="0.16"/>
<ellipse cx="48.6583" cy="41.8821" rx="0.853659" ry="0.854741" fill="#4F4F4F" fill-opacity="0.16"/>
<ellipse cx="48.6583" cy="48.72" rx="0.853659" ry="0.854741" fill="#4F4F4F" fill-opacity="0.16"/>
<ellipse cx="48.6583" cy="55.5579" rx="0.853659" ry="0.854741" fill="#4F4F4F" fill-opacity="0.16"/>
<ellipse cx="48.6583" cy="62.3958" rx="0.853659" ry="0.854741" fill="#4F4F4F" fill-opacity="0.16"/>
<ellipse cx="48.6583" cy="69.2337" rx="0.853659" ry="0.854741" fill="#4F4F4F" fill-opacity="0.16"/>
<ellipse cx="62.3165" cy="0.854741" rx="0.853659" ry="0.854741" fill="#4F4F4F" fill-opacity="0.16"/>
<ellipse cx="62.3165" cy="7.69263" rx="0.853659" ry="0.854741" fill="#4F4F4F" fill-opacity="0.16"/>
<ellipse cx="62.3165" cy="14.5305" rx="0.853659" ry="0.854741" fill="#4F4F4F" fill-opacity="0.16"/>
<ellipse cx="62.3165" cy="21.3684" rx="0.853659" ry="0.854741" fill="#4F4F4F" fill-opacity="0.16"/>
<ellipse cx="62.3165" cy="28.2063" rx="0.853659" ry="0.854741" fill="#4F4F4F" fill-opacity="0.16"/>
<ellipse cx="62.3165" cy="35.0442" rx="0.853659" ry="0.854741" fill="#4F4F4F" fill-opacity="0.16"/>
<ellipse cx="62.3165" cy="41.8821" rx="0.853659" ry="0.854741" fill="#4F4F4F" fill-opacity="0.16"/>
<ellipse cx="62.3165" cy="48.72" rx="0.853659" ry="0.854741" fill="#4F4F4F" fill-opacity="0.16"/>
<ellipse cx="62.3165" cy="55.5579" rx="0.853659" ry="0.854741" fill="#4F4F4F" fill-opacity="0.16"/>
<ellipse cx="62.3165" cy="62.3958" rx="0.853659" ry="0.854741" fill="#4F4F4F" fill-opacity="0.16"/>
<ellipse cx="62.3165" cy="69.2337" rx="0.853659" ry="0.854741" fill="#4F4F4F" fill-opacity="0.16"/>
<ellipse cx="69.1447" cy="0.854741" rx="0.853659" ry="0.854741" fill="#4F4F4F" fill-opacity="0.16"/>
<ellipse cx="69.1447" cy="7.69263" rx="0.853659" ry="0.854741" fill="#4F4F4F" fill-opacity="0.16"/>
<ellipse cx="69.1447" cy="14.5305" rx="0.853659" ry="0.854741" fill="#4F4F4F" fill-opacity="0.16"/>
<ellipse cx="69.1447" cy="21.3684" rx="0.853659" ry="0.854741" fill="#4F4F4F" fill-opacity="0.16"/>
<ellipse cx="69.1447" cy="28.2063" rx="0.853659" ry="0.854741" fill="#4F4F4F" fill-opacity="0.16"/>
<ellipse cx="69.1447" cy="35.0442" rx="0.853659" ry="0.854741" fill="#4F4F4F" fill-opacity="0.16"/>
<ellipse cx="69.1447" cy="41.8821" rx="0.853659" ry="0.854741" fill="#4F4F4F" fill-opacity="0.16"/>
<ellipse cx="69.1447" cy="48.72" rx="0.853659" ry="0.854741" fill="#4F4F4F" fill-opacity="0.16"/>
<ellipse cx="69.1447" cy="55.5579" rx="0.853659" ry="0.854741" fill="#4F4F4F" fill-opacity="0.16"/>
<ellipse cx="69.1447" cy="62.3958" rx="0.853659" ry="0.854741" fill="#4F4F4F" fill-opacity="0.16"/>
<ellipse cx="69.1447" cy="69.2337" rx="0.853659" ry="0.854741" fill="#4F4F4F" fill-opacity="0.16"/>
</svg>
