<svg width="90" height="90" viewBox="0 0 90 90" fill="none" xmlns="http://www.w3.org/2000/svg">
<circle cx="1.09756" cy="1.09756" r="1.09756" fill="white" fill-opacity="0.5"/>
<circle cx="1.09756" cy="9.87783" r="1.09756" fill="white" fill-opacity="0.5"/>
<circle cx="1.09756" cy="18.6581" r="1.09756" fill="white" fill-opacity="0.5"/>
<circle cx="1.09756" cy="27.4394" r="1.09756" fill="white" fill-opacity="0.5"/>
<circle cx="1.09756" cy="36.2196" r="1.09756" fill="white" fill-opacity="0.5"/>
<circle cx="1.09756" cy="44.9999" r="1.09756" fill="white" fill-opacity="0.5"/>
<circle cx="1.09756" cy="53.7802" r="1.09756" fill="white" fill-opacity="0.5"/>
<circle cx="1.09756" cy="62.5614" r="1.09756" fill="white" fill-opacity="0.5"/>
<circle cx="1.09756" cy="71.3417" r="1.09756" fill="white" fill-opacity="0.5"/>
<circle cx="1.09756" cy="80.122" r="1.09756" fill="white" fill-opacity="0.5"/>
<circle cx="1.09756" cy="88.9022" r="1.09756" fill="white" fill-opacity="0.5"/>
<circle cx="18.6581" cy="1.09756" r="1.09756" fill="white" fill-opacity="0.5"/>
<circle cx="18.6581" cy="9.87783" r="1.09756" fill="white" fill-opacity="0.5"/>
<circle cx="18.6581" cy="18.6581" r="1.09756" fill="white" fill-opacity="0.5"/>
<circle cx="18.6581" cy="27.4384" r="1.09756" fill="white" fill-opacity="0.5"/>
<circle cx="18.6581" cy="36.2196" r="1.09756" fill="white" fill-opacity="0.5"/>
<circle cx="18.6581" cy="44.9999" r="1.09756" fill="white" fill-opacity="0.5"/>
<circle cx="18.6581" cy="53.7802" r="1.09756" fill="white" fill-opacity="0.5"/>
<circle cx="18.6581" cy="62.5614" r="1.09756" fill="white" fill-opacity="0.5"/>
<circle cx="18.6581" cy="71.3407" r="1.09756" fill="white" fill-opacity="0.5"/>
<circle cx="18.6581" cy="80.122" r="1.09756" fill="white" fill-opacity="0.5"/>
<circle cx="18.6581" cy="88.9022" r="1.09756" fill="white" fill-opacity="0.5"/>
<circle cx="9.87881" cy="1.09756" r="1.09756" fill="white" fill-opacity="0.5"/>
<circle cx="9.87881" cy="9.87783" r="1.09756" fill="white" fill-opacity="0.5"/>
<circle cx="9.87881" cy="18.6581" r="1.09756" fill="white" fill-opacity="0.5"/>
<circle cx="9.87881" cy="27.4384" r="1.09756" fill="white" fill-opacity="0.5"/>
<circle cx="9.87881" cy="36.2196" r="1.09756" fill="white" fill-opacity="0.5"/>
<circle cx="9.87881" cy="44.9999" r="1.09756" fill="white" fill-opacity="0.5"/>
<circle cx="9.87881" cy="53.7802" r="1.09756" fill="white" fill-opacity="0.5"/>
<circle cx="9.87881" cy="62.5614" r="1.09756" fill="white" fill-opacity="0.5"/>
<circle cx="9.87881" cy="71.3407" r="1.09756" fill="white" fill-opacity="0.5"/>
<circle cx="9.87881" cy="80.122" r="1.09756" fill="white" fill-opacity="0.5"/>
<circle cx="9.87881" cy="88.9022" r="1.09756" fill="white" fill-opacity="0.5"/>
<circle cx="27.4394" cy="1.09756" r="1.09756" fill="white" fill-opacity="0.5"/>
<circle cx="27.4394" cy="9.87783" r="1.09756" fill="white" fill-opacity="0.5"/>
<circle cx="27.4394" cy="18.6581" r="1.09756" fill="white" fill-opacity="0.5"/>
<circle cx="27.4394" cy="27.4394" r="1.09756" fill="white" fill-opacity="0.5"/>
<circle cx="27.4394" cy="36.2196" r="1.09756" fill="white" fill-opacity="0.5"/>
<circle cx="27.4394" cy="44.9999" r="1.09756" fill="white" fill-opacity="0.5"/>
<circle cx="27.4394" cy="53.7802" r="1.09756" fill="white" fill-opacity="0.5"/>
<circle cx="27.4394" cy="62.5614" r="1.09756" fill="white" fill-opacity="0.5"/>
<circle cx="27.4394" cy="71.3407" r="1.09756" fill="white" fill-opacity="0.5"/>
<circle cx="27.4394" cy="80.122" r="1.09756" fill="white" fill-opacity="0.5"/>
<circle cx="27.4394" cy="88.9022" r="1.09756" fill="white" fill-opacity="0.5"/>
<circle cx="44.9999" cy="1.09756" r="1.09756" fill="white" fill-opacity="0.5"/>
<circle cx="44.9999" cy="9.87783" r="1.09756" fill="white" fill-opacity="0.5"/>
<circle cx="44.9999" cy="18.6581" r="1.09756" fill="white" fill-opacity="0.5"/>
<circle cx="44.9999" cy="27.4394" r="1.09756" fill="white" fill-opacity="0.5"/>
<circle cx="44.9999" cy="36.2196" r="1.09756" fill="white" fill-opacity="0.5"/>
<circle cx="44.9999" cy="44.9999" r="1.09756" fill="white" fill-opacity="0.5"/>
<circle cx="44.9999" cy="53.7802" r="1.09756" fill="white" fill-opacity="0.5"/>
<circle cx="44.9999" cy="62.5614" r="1.09756" fill="white" fill-opacity="0.5"/>
<circle cx="44.9999" cy="71.3417" r="1.09756" fill="white" fill-opacity="0.5"/>
<circle cx="44.9999" cy="80.122" r="1.09756" fill="white" fill-opacity="0.5"/>
<circle cx="44.9999" cy="88.9022" r="1.09756" fill="white" fill-opacity="0.5"/>
<circle cx="36.2206" cy="1.09756" r="1.09756" fill="white" fill-opacity="0.5"/>
<circle cx="36.2206" cy="9.87783" r="1.09756" fill="white" fill-opacity="0.5"/>
<circle cx="36.2206" cy="18.6581" r="1.09756" fill="white" fill-opacity="0.5"/>
<circle cx="36.2206" cy="27.4384" r="1.09756" fill="white" fill-opacity="0.5"/>
<circle cx="36.2206" cy="36.2196" r="1.09756" fill="white" fill-opacity="0.5"/>
<circle cx="36.2206" cy="44.9999" r="1.09756" fill="white" fill-opacity="0.5"/>
<circle cx="36.2206" cy="53.7802" r="1.09756" fill="white" fill-opacity="0.5"/>
<circle cx="36.2206" cy="62.5614" r="1.09756" fill="white" fill-opacity="0.5"/>
<circle cx="36.2206" cy="71.3417" r="1.09756" fill="white" fill-opacity="0.5"/>
<circle cx="36.2206" cy="80.122" r="1.09756" fill="white" fill-opacity="0.5"/>
<circle cx="36.2206" cy="88.9022" r="1.09756" fill="white" fill-opacity="0.5"/>
<circle cx="53.7812" cy="1.09756" r="1.09756" fill="white" fill-opacity="0.5"/>
<circle cx="53.7812" cy="9.87783" r="1.09756" fill="white" fill-opacity="0.5"/>
<circle cx="53.7812" cy="18.6581" r="1.09756" fill="white" fill-opacity="0.5"/>
<circle cx="53.7812" cy="27.4394" r="1.09756" fill="white" fill-opacity="0.5"/>
<circle cx="53.7812" cy="36.2196" r="1.09756" fill="white" fill-opacity="0.5"/>
<circle cx="53.7812" cy="44.9999" r="1.09756" fill="white" fill-opacity="0.5"/>
<circle cx="53.7812" cy="53.7802" r="1.09756" fill="white" fill-opacity="0.5"/>
<circle cx="53.7812" cy="62.5614" r="1.09756" fill="white" fill-opacity="0.5"/>
<circle cx="53.7812" cy="71.3417" r="1.09756" fill="white" fill-opacity="0.5"/>
<circle cx="53.7812" cy="80.122" r="1.09756" fill="white" fill-opacity="0.5"/>
<circle cx="53.7812" cy="88.9022" r="1.09756" fill="white" fill-opacity="0.5"/>
<circle cx="71.3417" cy="1.09756" r="1.09756" fill="white" fill-opacity="0.5"/>
<circle cx="71.3417" cy="9.87783" r="1.09756" fill="white" fill-opacity="0.5"/>
<circle cx="71.3417" cy="18.6581" r="1.09756" fill="white" fill-opacity="0.5"/>
<circle cx="71.3417" cy="27.4394" r="1.09756" fill="white" fill-opacity="0.5"/>
<circle cx="71.3417" cy="36.2196" r="1.09756" fill="white" fill-opacity="0.5"/>
<circle cx="71.3417" cy="44.9999" r="1.09756" fill="white" fill-opacity="0.5"/>
<circle cx="71.3417" cy="53.7802" r="1.09756" fill="white" fill-opacity="0.5"/>
<circle cx="71.3417" cy="62.5614" r="1.09756" fill="white" fill-opacity="0.5"/>
<circle cx="71.3417" cy="71.3407" r="1.09756" fill="white" fill-opacity="0.5"/>
<circle cx="71.3417" cy="80.122" r="1.09756" fill="white" fill-opacity="0.5"/>
<circle cx="71.3417" cy="88.9022" r="1.09756" fill="white" fill-opacity="0.5"/>
<circle cx="62.5624" cy="1.09756" r="1.09756" fill="white" fill-opacity="0.5"/>
<circle cx="62.5624" cy="9.87783" r="1.09756" fill="white" fill-opacity="0.5"/>
<circle cx="62.5624" cy="18.6581" r="1.09756" fill="white" fill-opacity="0.5"/>
<circle cx="62.5624" cy="27.4384" r="1.09756" fill="white" fill-opacity="0.5"/>
<circle cx="62.5624" cy="36.2196" r="1.09756" fill="white" fill-opacity="0.5"/>
<circle cx="62.5624" cy="44.9999" r="1.09756" fill="white" fill-opacity="0.5"/>
<circle cx="62.5624" cy="53.7802" r="1.09756" fill="white" fill-opacity="0.5"/>
<circle cx="62.5624" cy="62.5614" r="1.09756" fill="white" fill-opacity="0.5"/>
<circle cx="62.5624" cy="71.3407" r="1.09756" fill="white" fill-opacity="0.5"/>
<circle cx="62.5624" cy="80.122" r="1.09756" fill="white" fill-opacity="0.5"/>
<circle cx="62.5624" cy="88.9022" r="1.09756" fill="white" fill-opacity="0.5"/>
<circle cx="80.1229" cy="1.09756" r="1.09756" fill="white" fill-opacity="0.5"/>
<circle cx="80.1229" cy="9.87783" r="1.09756" fill="white" fill-opacity="0.5"/>
<circle cx="80.1229" cy="18.6581" r="1.09756" fill="white" fill-opacity="0.5"/>
<circle cx="80.1229" cy="27.4384" r="1.09756" fill="white" fill-opacity="0.5"/>
<circle cx="80.1229" cy="36.2196" r="1.09756" fill="white" fill-opacity="0.5"/>
<circle cx="80.1229" cy="44.9999" r="1.09756" fill="white" fill-opacity="0.5"/>
<circle cx="80.1229" cy="53.7802" r="1.09756" fill="white" fill-opacity="0.5"/>
<circle cx="80.1229" cy="62.5614" r="1.09756" fill="white" fill-opacity="0.5"/>
<circle cx="80.1229" cy="71.3407" r="1.09756" fill="white" fill-opacity="0.5"/>
<circle cx="80.1229" cy="80.122" r="1.09756" fill="white" fill-opacity="0.5"/>
<circle cx="80.1229" cy="88.9022" r="1.09756" fill="white" fill-opacity="0.5"/>
<circle cx="88.9022" cy="1.09756" r="1.09756" fill="white" fill-opacity="0.5"/>
<circle cx="88.9022" cy="9.87783" r="1.09756" fill="white" fill-opacity="0.5"/>
<circle cx="88.9022" cy="18.6581" r="1.09756" fill="white" fill-opacity="0.5"/>
<circle cx="88.9022" cy="27.4384" r="1.09756" fill="white" fill-opacity="0.5"/>
<circle cx="88.9022" cy="36.2196" r="1.09756" fill="white" fill-opacity="0.5"/>
<circle cx="88.9022" cy="44.9999" r="1.09756" fill="white" fill-opacity="0.5"/>
<circle cx="88.9022" cy="53.7802" r="1.09756" fill="white" fill-opacity="0.5"/>
<circle cx="88.9022" cy="62.5614" r="1.09756" fill="white" fill-opacity="0.5"/>
<circle cx="88.9022" cy="71.3407" r="1.09756" fill="white" fill-opacity="0.5"/>
<circle cx="88.9022" cy="80.122" r="1.09756" fill="white" fill-opacity="0.5"/>
<circle cx="88.9022" cy="88.9022" r="1.09756" fill="white" fill-opacity="0.5"/>
</svg>
