<svg width="16" height="12" viewBox="0 0 16 12" fill="none" xmlns="http://www.w3.org/2000/svg">
<path d="M6.7 0.725196C6.9 0.925196 6.996 1.16686 6.988 1.4502C6.97933 1.73353 6.875 1.9752 6.675 2.1752L3.85 5.0002L15 5.0002C15.2833 5.0002 15.521 5.0962 15.713 5.2882C15.9043 5.47953 16 5.71686 16 6.0002C16 6.28353 15.9043 6.5212 15.713 6.7132C15.521 6.90453 15.2833 7.0002 15 7.0002L3.85 7.0002L6.7 9.8502C6.9 10.0502 7 10.2879 7 10.5632C7 10.8379 6.9 11.0752 6.7 11.2752C6.5 11.4752 6.26233 11.5752 5.987 11.5752C5.71233 11.5752 5.475 11.4752 5.275 11.2752L0.700001 6.7002C0.6 6.6002 0.528999 6.49186 0.487 6.3752C0.445666 6.25853 0.424999 6.13353 0.424999 6.0002C0.424999 5.86686 0.445666 5.74186 0.487 5.6252C0.528999 5.50853 0.6 5.4002 0.700001 5.3002L5.3 0.700196C5.48333 0.516863 5.71233 0.425195 5.987 0.425195C6.26233 0.425195 6.5 0.525196 6.7 0.725196Z" fill="white"/>
</svg>
