<svg width="11" height="7" viewBox="0 0 11 7" fill="none" xmlns="http://www.w3.org/2000/svg">
<path d="M10.261 1.6676L5.86588 6.07584C5.81356 6.12816 5.75688 6.16514 5.69583 6.18676C5.63479 6.20874 5.56938 6.21973 5.49962 6.21973C5.42985 6.21973 5.36445 6.20874 5.30341 6.18676C5.24236 6.16514 5.18568 6.12816 5.13336 6.07584L0.725123 1.6676C0.603036 1.54552 0.541992 1.39291 0.541992 1.20978C0.541992 1.02665 0.607396 0.869676 0.738204 0.738867C0.869012 0.608059 1.02162 0.542655 1.19603 0.542655C1.37044 0.542655 1.52305 0.608059 1.65386 0.738867L5.49962 4.58463L9.34538 0.738867C9.46747 0.61678 9.61781 0.555736 9.7964 0.555736C9.97535 0.555736 10.1302 0.62114 10.261 0.751948C10.3918 0.882756 10.4572 1.03537 10.4572 1.20978C10.4572 1.38419 10.3918 1.5368 10.261 1.6676Z" fill="#252525"/>
</svg>
