<svg width="14" height="17" viewBox="0 0 14 17" fill="none" xmlns="http://www.w3.org/2000/svg">
<path fill-rule="evenodd" clip-rule="evenodd" d="M7.11227 16.8297L7.11422 16.8288L7.1191 16.8255L7.13374 16.8147L7.19131 16.7748C7.24011 16.74 7.31135 16.6892 7.40113 16.6225C7.58069 16.49 7.8354 16.295 8.13939 16.0446C8.93738 15.3877 9.68355 14.6747 10.3717 13.9113C11.9858 12.1135 13.6624 9.54752 13.6624 6.61405C13.6624 4.86139 12.9432 3.17922 11.6628 1.93873C11.03 1.32478 10.2773 0.837415 9.44809 0.504688C8.61888 0.171961 7.72952 0.000440907 6.83121 0C5.93293 0.000379356 5.0436 0.171825 4.21439 0.504471C3.38519 0.837117 2.63248 1.32439 1.99959 1.93826C0.717972 3.18158 -0.000860253 4.86265 7.72618e-07 6.61452C7.72618e-07 9.54752 1.67657 12.1135 3.29069 13.9113C3.97887 14.6747 4.72505 15.3877 5.52303 16.0446C5.82751 16.295 6.08173 16.49 6.26129 16.6225C6.34936 16.6879 6.43834 16.7521 6.5282 16.8152L6.54381 16.8255L6.5482 16.8288L6.55016 16.8297C6.7185 16.9439 6.94393 16.9439 7.11227 16.8297ZM9.27093 6.57834C9.27093 7.20144 9.01389 7.79902 8.55635 8.23962C8.09882 8.68022 7.47826 8.92775 6.83121 8.92775C6.18416 8.92775 5.56361 8.68022 5.10607 8.23962C4.64853 7.79902 4.39149 7.20144 4.39149 6.57834C4.39149 5.95524 4.64853 5.35766 5.10607 4.91706C5.56361 4.47646 6.18416 4.22893 6.83121 4.22893C7.47826 4.22893 8.09882 4.47646 8.55635 4.91706C9.01389 5.35766 9.27093 5.95524 9.27093 6.57834Z" fill="white"/>
</svg>
