<svg width="12" height="16" viewBox="0 0 12 16" fill="none" xmlns="http://www.w3.org/2000/svg">
<path fill-rule="evenodd" clip-rule="evenodd" d="M6.20044 15.5979L6.20214 15.597L6.20639 15.5942L6.21915 15.5848L6.26935 15.5499C6.31189 15.5196 6.374 15.4754 6.45227 15.4172C6.60881 15.3017 6.83086 15.1317 7.09588 14.9134C7.79156 14.3407 8.44207 13.7191 9.04202 13.0536C10.4492 11.4863 11.9108 9.24926 11.9108 6.69188C11.9108 5.16392 11.2838 3.69741 10.1676 2.61596C9.61588 2.08072 8.95969 1.65584 8.23679 1.36577C7.51389 1.0757 6.73856 0.926166 5.95541 0.925781C5.1723 0.926112 4.39698 1.07558 3.67409 1.36558C2.95119 1.65558 2.29498 2.08038 1.74324 2.61555C0.625924 3.69947 -0.000749964 5.16501 6.73565e-07 6.69229C6.73565e-07 9.24926 1.46163 11.4863 2.86881 13.0536C3.46876 13.7191 4.11927 14.3407 4.81495 14.9134C5.08039 15.1317 5.30202 15.3017 5.45856 15.4172C5.53534 15.4742 5.61291 15.5302 5.69125 15.5852L5.70486 15.5942L5.70869 15.597L5.71039 15.5979C5.85715 15.6974 6.05368 15.6974 6.20044 15.5979ZM8.08235 6.66074C8.08235 7.20396 7.85826 7.72493 7.45938 8.10904C7.06051 8.49315 6.51951 8.70894 5.95541 8.70894C5.39132 8.70894 4.85032 8.49315 4.45145 8.10904C4.05257 7.72493 3.82848 7.20396 3.82848 6.66074C3.82848 6.11753 4.05257 5.59656 4.45145 5.21245C4.85032 4.82833 5.39132 4.61254 5.95541 4.61254C6.51951 4.61254 7.06051 4.82833 7.45938 5.21245C7.85826 5.59656 8.08235 6.11753 8.08235 6.66074Z" fill="#D8DEFF"/>
</svg>
