<svg width="15" height="15" viewBox="0 0 15 15" fill="none" xmlns="http://www.w3.org/2000/svg">
<path d="M7.50286 5.01171C6.13286 5.00899 5.01262 6.12481 5.00989 7.49484C5.00717 8.86486 6.12298 9.98513 7.49298 9.98785C8.86298 9.99057 9.98322 8.87475 9.98594 7.50472C9.98866 6.13469 8.87286 5.01443 7.50286 5.01171ZM14.9601 7.5146C14.9622 6.48428 14.9735 5.46331 14.9177 4.43475C14.8622 3.24006 14.5918 2.17934 13.72 1.30407C12.8464 0.426932 11.7886 0.154184 10.5942 0.0939494C9.56402 0.0340406 8.54304 0.0413451 7.5146 0.0393021C6.4843 0.0372554 5.46336 0.0258946 4.43481 0.0817137C3.24014 0.137203 2.17944 0.407609 1.30419 1.2794C0.427068 2.15306 0.154325 3.21084 0.0940913 4.4053C0.0341835 5.4355 0.0414878 6.45651 0.0394447 7.48496C0.0374017 8.51341 0.0260373 9.53625 0.0818553 10.5648C0.137343 11.7595 0.407744 12.8202 1.27952 13.6955C2.15317 14.5726 3.21093 14.8454 4.40536 14.9056C5.43555 14.9655 6.45653 14.9582 7.48496 14.9603C8.51526 14.9623 9.53621 14.9737 10.5648 14.9178C11.7594 14.8624 12.8201 14.592 13.6954 13.7202C14.5725 12.8465 14.8452 11.7887 14.9055 10.5943C14.9672 9.56593 14.9581 8.54492 14.9601 7.5146ZM7.49031 11.328C5.37185 11.3238 3.66555 9.61067 3.66976 7.49217C3.67397 5.37367 5.38706 3.66734 7.50552 3.67155C9.62398 3.67575 11.3303 5.38888 11.3261 7.50738C11.3219 9.62588 9.60877 11.3322 7.49031 11.328ZM11.489 4.41674C10.9944 4.41575 10.5958 4.01553 10.5967 3.5209C10.5977 3.02627 10.9979 2.62763 11.4926 2.62861C11.9872 2.62959 12.3858 3.02982 12.3848 3.52445C12.3847 3.6419 12.3615 3.75818 12.3164 3.86663C12.2713 3.97508 12.2053 4.07357 12.122 4.15646C12.0388 4.23934 11.9401 4.305 11.8315 4.34966C11.7228 4.39432 11.6065 4.41712 11.489 4.41674Z" fill="#337CFC"/>
</svg>
