<svg width="18" height="11" viewBox="0 0 18 11" fill="none" xmlns="http://www.w3.org/2000/svg">
<path fill-rule="evenodd" clip-rule="evenodd" d="M0.876002 0.338364C0.789097 0.348369 0.664127 0.385843 0.606613 0.419134C0.371467 0.555204 0.345649 0.807232 0.504918 1.41197C0.790941 2.49799 1.49251 3.96777 2.39203 5.36536C2.75333 5.92671 3.38567 6.80605 3.6908 7.17146C4.25173 7.84318 4.91028 8.43374 5.59068 8.87519C6.53188 9.48584 7.48931 9.8416 8.53731 9.97007C8.77826 9.99961 9.46758 10.0007 9.692 9.97186C10.1055 9.91876 10.3108 9.80633 10.3919 9.58855C10.4165 9.52244 10.4199 9.42535 10.4283 8.55835C10.4376 7.58135 10.4427 7.49634 10.5013 7.33268C10.534 7.24147 10.6199 7.1716 10.7237 7.15171C10.8331 7.13074 11.0219 7.13462 11.1327 7.16014C11.4338 7.22944 11.8549 7.48327 12.358 7.89865C12.6428 8.1338 13.2022 8.67113 13.6356 9.1258C14.2834 9.80548 14.4343 9.92851 14.7268 10.0156C14.8121 10.041 14.895 10.0436 15.9498 10.0526C17.1646 10.0631 17.1645 10.0631 17.3283 9.98984C17.4312 9.94381 17.5121 9.8694 17.5563 9.7801C17.6099 9.67178 17.6081 9.4627 17.5523 9.30673C17.3408 8.71533 16.5581 7.77956 15.0271 6.2877C14.7 5.9689 14.6226 5.87985 14.5604 5.75039C14.4952 5.61488 14.5019 5.50618 14.5849 5.35282C14.6205 5.28713 14.7423 5.1111 14.8557 4.96164C15.7539 3.77745 16.6129 2.507 16.9748 1.8273C17.3624 1.0995 17.4174 0.735364 17.1643 0.572806C17.0071 0.471808 17.0443 0.474734 15.7784 0.463833C14.7162 0.454687 14.6329 0.455754 14.5465 0.479699C14.4029 0.519518 14.2851 0.583628 14.1941 0.67142C14.0869 0.774993 14.0582 0.822178 13.8924 1.16736C13.3523 2.2915 12.5622 3.51792 11.8912 4.27393C11.5742 4.63103 11.2436 4.91115 11.0121 5.01874C10.9156 5.06361 10.7726 5.0844 10.7061 5.06326C10.6379 5.04154 10.5458 4.94368 10.5059 4.85051C10.4764 4.78149 10.4759 4.7378 10.4848 2.82228C10.4932 0.989375 10.4921 0.857906 10.4666 0.759827C10.417 0.568848 10.2998 0.454965 10.1191 0.422142C10.0624 0.411836 9.49231 0.403199 8.44886 0.396791L6.86467 0.38708L6.78741 0.419509C6.69528 0.458188 6.60378 0.535927 6.5576 0.614762C6.53126 0.659722 6.52382 0.696842 6.52308 0.787209C6.52188 0.929641 6.54815 0.982598 6.72756 1.19948C7.02455 1.5585 7.13975 1.79537 7.21546 2.20272C7.24748 2.37508 7.24769 2.39311 7.23469 3.88834C7.22277 5.26014 7.21906 5.40944 7.19446 5.50477C7.14504 5.69635 7.07622 5.77017 6.93079 5.78753C6.46193 5.84352 5.54093 4.73642 4.68595 3.08905C4.32185 2.38753 4.10097 1.88631 3.79441 1.06602C3.61772 0.59319 3.44762 0.41282 3.13132 0.362879C3.03701 0.347974 0.985947 0.325678 0.876002 0.338364Z" fill="#337CFC"/>
</svg>
