<svg width="18" height="13" viewBox="0 0 18 13" fill="none" xmlns="http://www.w3.org/2000/svg">
<path d="M16.7943 2.15717C16.6986 1.80135 16.511 1.47694 16.2505 1.21638C15.9899 0.955829 15.6655 0.768281 15.3097 0.672507C13.9993 0.317871 8.7339 0.317871 8.7339 0.317871C8.7339 0.317871 3.46846 0.317871 2.15811 0.672507C1.80229 0.768281 1.47788 0.955829 1.21732 1.21638C0.95677 1.47694 0.769221 1.80135 0.673447 2.15717C0.428776 3.49352 0.310044 4.84989 0.318812 6.20843C0.310044 7.56697 0.428776 8.92334 0.673447 10.2597C0.769221 10.6155 0.95677 10.9399 1.21732 11.2005C1.47788 11.461 1.80229 11.6486 2.15811 11.7444C3.46846 12.099 8.7339 12.099 8.7339 12.099C8.7339 12.099 13.9993 12.099 15.3097 11.7444C15.6655 11.6486 15.9899 11.461 16.2505 11.2005C16.511 10.9399 16.6986 10.6155 16.7943 10.2597C17.039 8.92334 17.1578 7.56697 17.149 6.20843C17.1578 4.84989 17.039 3.49352 16.7943 2.15717ZM7.05088 8.73296V3.68391L11.4207 6.20843L7.05088 8.73296Z" fill="#337CFC"/>
</svg>
