<svg width="196" height="102" viewBox="0 0 196 102" fill="none" xmlns="http://www.w3.org/2000/svg">
<path d="M30.0298 22.8596H38.2568V24.8479H32.1755V29.5043H37.7485V31.4205H32.1755V33.5941C32.1755 34.5832 32.501 35.397 33.0196 35.9533C33.5993 36.5096 34.4434 36.8187 35.4806 36.8187H38.267V38.7451H35.8671C33.8636 38.7451 32.44 38.3124 31.4638 37.3853C30.4975 36.52 30.04 35.088 30.04 33.2337V22.8596H30.0298ZM178.35 79.6954C178.35 80.6226 178.025 81.3127 177.384 81.869C176.745 82.4254 175.9 82.7345 174.924 82.7345C173.113 82.7345 171.944 81.6218 171.619 79.5099L169.483 66.4162L165.019 80.0662C164.439 81.8073 163.269 82.7345 161.52 82.7345C159.771 82.7345 158.612 81.8073 158.022 80.0662L153.558 66.4162H153.425L151.615 78.5724C151.229 81.3025 149.927 82.7241 147.924 82.7241C147.08 82.7241 146.307 82.415 145.656 81.8587C145.005 81.3025 144.69 80.6226 144.69 79.8705C144.69 79.3759 144.822 78.5106 145.076 77.2023L148.249 59.5241C148.503 57.9068 148.961 56.7941 149.48 56.1142C150.253 55.3106 151.361 54.8779 152.846 54.8779C154.208 54.8779 155.307 55.3106 155.958 56.3099C156.67 57.2371 157.32 58.5454 157.839 60.2761L161.53 71.0109H161.591L165.476 59.2873C165.863 58.051 166.514 56.9898 167.358 56.001C168.008 55.2591 168.974 54.8883 170.205 54.8883C171.374 54.8883 172.401 55.1974 173.185 55.8774C173.968 56.5571 174.416 57.4947 174.609 58.6073L178.106 77.4701C178.229 78.3251 178.35 79.067 178.35 79.6954ZM142.687 71.4434C142.687 74.9771 141.588 77.8307 139.32 79.9426C136.992 82.0545 134.012 83.1053 130.32 83.1053C126.568 83.1053 123.588 82.0545 121.321 79.9426C118.992 77.8307 117.893 74.9771 117.893 71.4434V58.1025C117.893 55.9287 118.992 54.8779 121.199 54.8779C123.334 54.8779 124.433 55.9287 124.433 58.1025V71.4434C124.433 73.1226 124.951 74.4825 126.049 75.4716C127.087 76.5223 128.51 77.0271 130.32 77.0271C132.07 77.0271 133.493 76.5327 134.592 75.5333C135.69 74.4825 136.209 73.1741 136.209 71.4434V58.1025C136.209 57.1753 136.463 56.3614 137.053 55.7434C137.571 55.187 138.344 54.8779 139.32 54.8779C140.419 54.8779 141.202 55.1251 141.842 55.7434C142.422 56.3614 142.687 57.1753 142.687 58.1025V71.4434ZM195.252 31.4205C195.252 32.1005 195.119 32.7804 194.794 33.4705L185.084 55.0634C184.309 56.8045 183.202 57.6698 181.778 57.6698C180.09 57.6698 179.062 56.7426 178.737 54.8779C178.87 54.1363 179.062 53.518 179.318 52.9515L181.839 47.1825L175.829 33.3469C175.371 32.358 175.178 31.6058 175.178 31.235C175.178 30.4933 175.502 29.803 176.083 29.2467C176.662 28.7523 177.374 28.505 178.219 28.505C179.774 28.505 180.873 29.2467 181.452 30.7406L185.144 39.8578L188.835 31.3586C189.68 29.4322 190.716 28.505 192.069 28.505C192.913 28.505 193.687 28.7523 194.336 29.3086C194.927 29.8751 195.252 30.617 195.252 31.4205ZM174.863 43.0926C174.863 45.1426 174.018 46.8116 172.401 48.0581C170.846 49.1708 169.036 49.7992 166.829 49.7992C165.019 49.7992 163.269 49.4901 161.713 48.9337C159.578 48.1921 158.48 47.069 158.48 45.6474C158.48 44.8439 158.734 44.1537 159.192 43.5974C159.649 43.0411 160.229 42.732 161.002 42.732C161.713 42.732 162.751 43.0411 163.981 43.5974C165.273 44.2155 166.249 44.5246 166.89 44.5246C168.181 44.5246 168.832 44.0919 168.832 43.3502C168.832 42.9175 168.7 42.6084 168.446 42.423C168.191 42.1756 167.48 41.8667 166.31 41.434C164.042 40.5685 162.68 40.002 162.171 39.7548C160.554 38.8893 159.578 37.8284 159.192 36.6538C159.059 36.1594 158.998 35.603 158.998 34.9129C158.998 32.8627 159.842 31.1939 161.52 29.8855C163.076 28.6492 164.947 28.0208 167.154 28.0208C168.771 28.0208 170.266 28.3918 171.69 29.0716C173.439 29.8751 174.345 30.9363 174.345 32.358C174.345 33.0378 174.089 33.656 173.633 34.1609C173.113 34.6553 172.534 34.9025 171.751 34.9025C171.364 34.9025 170.652 34.6553 169.422 34.1609C168.252 33.6662 167.347 33.419 166.707 33.419C165.669 33.419 165.09 33.8517 165.09 34.6553C165.09 35.2116 165.934 35.8297 167.683 36.4581C170.012 37.3235 171.568 38.0137 172.34 38.5081C174.018 39.6723 174.863 41.2279 174.863 43.0926ZM156.863 46.317C156.863 47.0588 156.609 47.8109 156.019 48.4289C155.5 49.0472 154.849 49.418 154.015 49.418C152.398 49.418 151.361 48.738 150.842 47.4916C149.612 48.9853 147.802 49.7888 145.534 49.7888C141.649 49.7888 138.802 47.9241 137.053 44.2053C136.148 42.4023 135.761 40.6716 135.761 38.9306C135.761 34.7789 137.378 31.6058 140.612 29.5043C142.097 28.5154 143.724 28.0106 145.341 28.0106C147.609 28.0106 149.48 28.8141 150.842 30.3697C151.361 29.1335 152.327 28.505 153.751 28.505C154.656 28.505 155.439 28.8141 156.019 29.3705C156.598 29.9885 156.863 30.7302 156.863 31.6677V46.317ZM150.578 38.9306C150.578 37.4987 150.253 36.3241 149.541 35.397C148.768 34.4081 147.659 33.8414 146.236 33.8414C144.873 33.8414 143.775 34.3977 143.002 35.5206C142.29 36.5096 141.964 37.6944 141.964 39.0543C141.964 40.3523 142.351 41.537 143.063 42.4023C143.836 43.4531 144.944 43.9579 146.236 43.9579C147.659 43.9579 148.758 43.4634 149.541 42.4023C150.253 41.537 150.578 40.3626 150.578 38.9306ZM134.785 46.1934C134.785 48.1817 133.687 49.1708 131.48 49.1708H121.443C120.476 49.1708 119.694 48.8617 119.043 48.3672C118.392 47.8109 118.077 47.0073 118.077 46.0698V24.9096C118.077 23.9825 118.402 23.2304 118.921 22.6741C119.5 22.056 120.283 21.7469 121.188 21.7469H131.48C133.483 21.7469 134.52 22.736 134.52 24.6624C134.52 26.5271 133.483 27.4543 131.48 27.4543H124.555V32.4817H131.032C131.937 32.4817 132.649 32.7289 133.229 33.2852C133.809 33.7796 134.073 34.5213 134.073 35.397C134.073 36.2624 133.819 36.9525 133.229 37.4472C132.649 38.0035 131.937 38.2507 131.032 38.2507H124.555V43.4634H131.48C133.687 43.4634 134.785 44.3289 134.785 46.1934ZM36.1823 42.6495V57.3505C36.1823 59.4624 36.6399 61.0076 37.5451 62.1305C38.4502 63.1814 39.7416 63.7479 41.4298 63.7479C43.1179 63.7479 44.4703 63.1916 45.3754 62.1305C46.2805 61.018 46.7382 59.4624 46.7382 57.3505V42.6495C46.7382 41.7842 47.4501 41.0322 48.3552 41.0322C49.2602 41.0322 50.0431 41.7739 50.0431 42.6495V57.5358C50.0431 59.4005 49.6568 61.0076 48.9449 62.4396C48.233 63.8716 47.1957 64.9223 45.9043 65.6023C44.6127 66.3441 43.1179 66.7149 41.44 66.7149C39.7518 66.7149 38.267 66.3441 36.9756 65.6023C35.684 64.9223 34.7077 63.8612 33.9348 62.4396C33.2229 61.0076 32.8976 59.4005 32.8976 57.5358V45.1941C31.6062 44.9469 30.4365 44.5761 29.4705 44.0815C27.5281 43.0307 26.0434 41.4134 24.6807 39.4251C19.6977 42.0315 12.3757 41.3515 9.14185 36.8804C6.87407 37.6223 4.93173 39.3015 4.15884 41.4751C3.06055 44.3906 3.70122 47.2442 5.77578 49.7271C6.29441 50.3451 6.29441 51.0251 5.77578 51.6535C5.58255 51.8388 5.8368 51.5299 5.52154 51.9625C5.26732 52.3335 5.00291 52.7043 4.74867 53.0751C4.06733 54.1878 3.48767 55.3725 3.16224 56.6705C2.19616 60.5749 4.06733 63.6759 7.10798 65.9114C8.33848 62.8723 10.6673 60.2659 13.7079 58.9061C14.9994 58.4116 16.4231 58.1025 17.9181 58.1025C19.7282 58.1025 19.7282 60.8325 17.9181 60.8325C16.6265 60.8325 15.4571 61.1416 14.4198 61.6979C11.8978 62.934 10.0774 65.5406 9.36557 68.2705C9.36557 68.3322 9.36557 68.3941 9.36557 68.5178C9.4266 68.2705 9.36557 68.4559 9.36557 68.8269C9.30456 69.3213 9.23337 69.8157 9.23337 70.3206C9.23337 71.8144 9.23337 73.2979 9.61982 74.7916C10.6571 78.9434 13.5045 80.9315 18.0401 80.4989C19.0062 80.3753 19.5961 81.4261 19.4027 82.2399C18.2333 87.9472 25.0367 92.5419 30.5383 92.171C33.1925 91.1201 35.1959 89.3173 36.6908 87.0818C33.2637 85.1553 31.6366 81.4363 31.3824 77.532C31.1892 77.6556 30.9959 77.7173 30.7315 77.7173C26.0028 77.8411 21.9959 76.1 20.1756 72.4428C19.7181 71.5157 19.4027 70.3926 19.2705 69.0947C19.0774 67.3536 21.9857 67.3536 22.1791 69.0947C22.2401 70.2073 22.5655 71.083 23.0232 71.8246C24.5078 74.1838 27.5587 74.9873 30.7315 74.9256C30.9857 74.9256 31.2502 74.9873 31.4434 75.1109C31.5756 73.751 31.8297 72.4428 32.2875 71.2066C32.6738 70.0322 33.1925 68.971 33.8434 68.0439C34.8807 66.55 37.4027 67.9203 36.3653 69.4038C35.7146 70.269 35.267 71.3302 34.8807 72.5046C33.7823 75.9764 33.9756 80.3238 36.2433 83.0538C36.762 83.6718 37.3416 84.1663 37.9925 84.6094C38.4502 83.6822 38.7043 82.7447 38.9585 81.7558C39.3451 80.0147 42.1315 80.7667 41.7449 82.4975C41.4196 83.7337 41.0332 84.9802 40.4535 86.1546C39.1619 89.0083 37.0874 91.4911 34.3722 93.232C36.1213 98.9393 45.3144 100.495 50.5619 98.2594C52.25 97.7031 53.5414 98.1358 53.4702 99.2485C53.4702 99.6193 53.2771 100.052 52.7585 100.299C46.4127 103.771 34.6975 101.917 31.9111 94.8391C24.7925 96.1373 16.4333 90.4299 16.4333 83.301C11.9689 83.2391 8.33848 80.7564 7.04696 76.3576C6.39612 73.9365 6.2029 71.3919 6.46731 68.9091C2.19616 66.1175 -0.783489 62.0276 0.182606 56.9383C0.569043 54.7028 1.54531 52.5292 2.89784 50.6748C0.762263 47.5739 -0.0817987 43.9167 1.53514 40.3111C2.70462 37.6429 4.96222 35.4073 7.81983 34.4183C6.72153 30.0091 7.24018 25.3012 10.6063 21.8911C12.6808 19.7175 15.5283 18.1104 18.5688 17.5438C18.5688 11.8983 25.3621 6.43829 31.1892 7.67453C31.6468 6.68555 32.2265 5.80987 32.9384 5.00632C32.9994 4.88271 33.0705 4.82088 33.1315 4.69727C33.2637 4.57365 33.3247 4.51184 33.4569 4.45002C36.1111 1.83334 40.067 0.586796 44.084 1.52427C45.8941 1.95695 45.1212 4.62515 43.3111 4.19248C39.945 3.38892 36.5789 4.74877 34.6975 7.29335C34.4434 7.66423 34.179 8.0969 33.9246 8.59139C33.7925 8.96226 33.5993 9.33314 33.4671 9.70401C33.4671 9.88944 33.3349 10.0749 33.2129 10.1985C32.562 12.125 32.2467 14.2265 32.44 16.0912C32.5722 17.8941 33.2129 18.4504 31.9213 19.1302C30.9553 19.5629 30.1722 19.1921 29.8468 17.9558C29.2671 15.5967 29.4603 12.8667 30.2332 10.3221C25.8908 9.95124 20.5214 14.1029 21.4976 18.3266C21.691 19.254 21.0401 20.006 20.135 20.0677C17.3486 20.2532 14.4401 21.8088 12.63 23.7868C9.97575 26.7639 9.7215 30.4213 10.6876 34.0269C10.7486 34.1505 10.8198 34.2124 10.8808 34.336C12.691 38.8688 19.5553 38.9306 23.5011 36.8187C23.1756 35.5825 22.9824 34.336 22.9824 33.0378C23.0434 31.8634 23.3078 30.6787 23.7553 29.5662C24.4062 27.887 27.1824 28.639 26.4705 30.2461C26.013 31.4205 25.8908 32.5434 25.8908 33.656C25.952 34.8923 26.2163 36.1388 26.7349 37.3132C26.7349 37.3751 26.7349 37.3751 26.7349 37.3751C27.4468 38.5494 28.2196 39.7959 29.2569 40.7231C29.5824 41.0322 29.9688 41.2794 30.2942 41.4649C31.3926 42.083 32.1755 42.5774 33.6603 42.6393H33.9858H36.1823V42.6495ZM49.972 38.7451V32.9761H42.8534V38.7451H40.6569V28.7523C40.6569 26.8876 41.1756 25.3423 42.2738 24.2195C43.3111 23.1068 44.6737 22.602 46.4127 22.602C47.5111 22.602 48.5483 22.8492 49.3924 23.2819C50.2975 23.7764 50.9482 24.5182 51.4669 25.4556C51.9246 26.3829 52.1788 27.5058 52.1788 28.7421V38.7348H49.972V38.7451ZM46.4127 24.5388C45.3144 24.5388 44.4093 24.9096 43.8196 25.6515C43.1687 26.3314 42.8534 27.4543 42.8534 28.8141V30.9878H49.972V28.8141C49.972 27.4543 49.6466 26.3314 49.0669 25.6515C48.4162 24.9096 47.5721 24.5388 46.4127 24.5388ZM54.5687 38.7451V36.6332H56.3178C56.8974 36.6332 57.3551 36.5096 57.7414 36.2624C58.128 35.9533 58.4533 35.5825 58.7787 35.088C59.1042 34.5934 59.3584 34.0372 59.6228 33.3469C59.8871 32.6568 60.2737 31.7296 60.721 30.4315C60.9144 29.7515 61.2397 28.8759 61.6263 27.8251C62.0838 26.7743 62.4702 25.8368 62.8567 25.1568C63.3143 24.4769 63.8228 23.9207 64.4737 23.4776C65.0532 23.0451 65.8363 22.8596 66.6702 22.8596H68.6737V24.9715H67.4431C66.7923 24.9715 66.3448 25.0951 65.8871 25.2804C65.5007 25.5278 65.1144 25.8987 64.7888 26.3931C64.4635 26.8876 64.1381 27.5058 63.8838 28.2578C63.5584 29.0614 63.1719 30.1842 62.6533 31.7296C62.1956 33.0276 61.7483 34.1505 61.2905 35.0776C60.9042 35.9431 60.4465 36.6951 59.9991 37.1896C59.4804 37.7459 58.9618 38.1167 58.3821 38.3639C57.8634 38.6112 57.1517 38.7348 56.4398 38.7348H54.5687V38.7451ZM74.704 38.7451V32.667C71.9888 32.0489 70.565 30.1842 70.565 27.207V22.9213H72.7617V27.207C72.7617 28.3814 73.0871 29.319 73.6058 29.937C74.1243 30.5551 74.8362 30.8642 75.8023 30.8642C76.7685 30.8642 77.4904 30.5551 77.9989 29.937C78.5787 29.319 78.843 28.3814 78.843 27.207V22.9213H81.0497V27.207C81.0497 30.1842 79.6261 32.0489 76.9109 32.667V38.7451H74.704ZM69.4566 66.2926C69.4566 67.1579 68.7449 67.8482 67.8396 67.8482C66.9957 67.8482 66.2838 67.1682 66.2228 66.2926V66.2307V50.5306C66.2228 48.7896 65.8363 47.4297 65.0532 46.5644C64.2803 45.6371 63.2431 45.2045 61.8194 45.2045C60.3957 45.2045 59.2974 45.6371 58.5143 46.5644C57.7414 47.4297 57.4161 48.7998 57.4161 50.5306V66.2926C57.3551 67.1579 56.6432 67.8482 55.7279 67.8482C54.8228 67.8482 54.111 67.1682 54.111 66.2926V66.2307V50.4688C54.111 48.7896 54.4363 47.368 55.077 46.0596C55.7279 44.8233 56.633 43.8858 57.7922 43.2058C58.9619 42.5259 60.3143 42.217 61.8092 42.217C64.2703 42.217 66.2736 43.2058 67.8296 45.1324C68.2871 44.5142 68.8668 43.9579 69.5176 43.5149C70.1685 43.0822 70.8804 42.7733 71.5923 42.5259C72.3041 42.3406 73.0769 42.217 73.8599 42.217C75.4159 42.217 76.7073 42.5259 77.877 43.2058C79.1074 43.8858 80.0125 44.8233 80.6634 46.0596C81.3141 47.2957 81.6294 48.7896 81.6294 50.4688C81.6294 56.9796 84.4158 75.6569 74.2465 76.8314C75.6091 81.6733 75.3447 87.1952 73.9921 92.0886C79.5649 92.8302 86.8769 88.1223 85.6463 82.2193C85.4531 81.4157 86.0328 80.3546 87.0091 80.4782C91.4734 80.9109 94.514 78.9226 95.4293 74.771C95.7548 73.2772 95.887 71.7937 95.8158 70.3C95.8158 69.8055 95.7548 69.3109 95.6836 68.8061C95.6836 68.4353 95.6224 68.25 95.6836 68.4972C95.6224 67.879 95.7446 67.3228 96.3343 66.9416C100.219 64.7061 103.128 61.1725 101.907 56.6396C101.582 55.2797 101.002 54.0332 100.219 52.8588C99.9648 52.488 99.7614 52.117 99.5073 51.8081C99.4463 51.7462 99.4463 51.6845 99.3751 51.6845C99.3751 51.6845 99.3751 51.6845 99.3751 51.6226C98.7954 51.0045 98.7954 50.3246 99.3751 49.6961C101.378 47.2134 102.355 43.8035 100.667 40.888C99.7004 39.1469 98.2666 37.787 96.3953 37.0454C94.9717 40.0845 92.6429 42.6908 89.7243 44.8645C89.5921 44.9263 89.5311 44.9881 89.4701 44.9881C89.4701 45.1736 89.4701 45.3591 89.4701 45.5444C89.4089 46.9043 89.1446 48.2127 88.6972 49.4489C88.0463 51.1281 85.2701 50.3761 85.9108 48.7071C86.3683 47.5944 86.5615 46.348 86.6225 45.1117C86.6225 43.9373 86.4293 42.7525 85.9718 41.7018C85.4531 40.4655 84.6802 39.3426 83.5717 38.4774C82.148 37.3647 84.1515 35.3764 85.5751 36.489C86.7447 37.4162 87.6498 38.5391 88.2903 39.8372C88.6158 40.4553 88.87 41.1352 89.0632 41.8873C91.331 40.0226 93.009 37.7974 94.0463 35.2528C94.0463 35.1292 94.0463 35.0056 94.1073 34.9437C95.3379 31.0393 95.3379 26.6301 92.1649 23.5292C90.2836 21.7264 87.7006 20.3047 85.0463 20.0575C83.7547 20.1192 82.4531 20.2429 81.1617 20.552C79.026 21.1083 78.3753 18.3782 79.6769 18.0692C80.9683 17.6984 82.3311 17.5129 83.6937 17.3893C83.7547 12.98 77.409 9.01378 73.3312 10.693C72.6193 11.0021 71.7752 10.3839 71.5821 9.70401C70.3516 5.35659 66.2736 3.25499 61.7381 4.18217C61.0262 4.3058 60.5076 3.93492 59.8567 3.68768C58.8195 3.31682 57.721 3.00776 56.6228 2.82232C54.5483 2.38963 54.3551 4.25428 53.1245 4.31609C51.8331 4.37791 50.0127 3.57436 51.5075 1.83334C53.8364 -1.08212 58.3719 0.0304919 61.5449 1.40065C66.9143 0.535286 71.8362 2.89443 73.8497 7.66423C79.6769 6.42799 86.4701 11.888 86.4701 17.5335C89.6429 18.1515 92.6836 19.8309 94.6972 22.1281C97.4836 25.3527 98.5818 30.3799 97.4124 34.4698C100.26 35.5825 102.66 37.8799 103.697 40.7335C105.06 44.267 104.216 47.6769 102.141 50.6645C103.504 52.5292 104.541 54.6926 104.856 56.9281C105.629 62.079 102.914 66.1071 98.5716 68.8989C98.826 71.3198 98.7038 73.9881 97.9919 76.3472C96.6293 80.7564 93.1412 83.2289 88.6056 83.2906C88.6666 90.3681 80.3176 96.1373 73.199 94.8289C71.3889 99.7944 65.5617 101.525 60.3753 100.722C58.5651 100.412 59.338 97.7444 61.1482 98.0533C64.5753 98.6097 68.2667 97.6208 69.9549 94.8289C72.2838 89.3071 73.0668 82.6107 71.2465 76.9035C69.1718 76.718 67.4227 75.6055 66.0702 74.1117C65.1042 73.0609 64.3821 71.7525 63.9957 70.4545C63.416 68.7753 66.1922 68.0335 66.7821 69.7746C67.1075 70.8254 67.7482 71.8865 68.5923 72.6901C69.6295 73.6172 70.921 74.2457 72.4769 74.122C72.4769 74.122 72.4769 74.122 72.5379 74.122C80.9583 74.431 78.3041 55.2591 78.3041 50.5512C78.3041 48.8101 77.9176 47.4502 77.1345 46.585C76.3616 45.6578 75.2531 45.2251 73.8295 45.2251C72.4667 45.2251 71.3685 45.6578 70.5956 46.585C69.8227 47.4502 69.4262 48.8205 69.4262 50.5512V66.2926H69.4566Z" fill="#2575FC"/>
</svg>
