<?xml version="1.0" encoding="utf-8"?>
<!-- Generator: Adobe Illustrator 22.1.0, SVG Export Plug-In . SVG Version: 6.00 Build 0)  -->
<svg version="1.1" id="Слой_1" xmlns="http://www.w3.org/2000/svg" xmlns:xlink="http://www.w3.org/1999/xlink" x="0px" y="0px"
	 viewBox="0 0 1920 990" style="enable-background:new 0 0 1920 990;" xml:space="preserve">
<style type="text/css">
	.st0{fill:#2575FC;}
</style>
<g id="Слой_x0020_1">
	<path class="st0" d="M295.3,221.9h80.9v19.3h-59.8v45.2h54.8V305h-54.8v21.1c0,9.6,3.2,17.5,8.3,22.9c5.7,5.4,14,8.4,24.2,8.4h27.4
		v18.7h-23.6c-19.7,0-33.7-4.2-43.3-13.2c-9.5-8.4-14-22.3-14-40.3V221.9z M1753.8,773.6c0,9-3.2,15.7-9.5,21.1s-14.6,8.4-24.2,8.4
		c-17.8,0-29.3-10.8-32.5-31.3l-21-127.1l0,0l-43.9,132.5c-5.7,16.9-17.2,25.9-34.4,25.9s-28.6-9-34.4-25.9L1510,644.7h-1.3
		l-17.8,118c-3.8,26.5-16.6,40.3-36.3,40.3c-8.3,0-15.9-3-22.3-8.4c-6.4-5.4-9.5-12-9.5-19.3c0-4.8,1.3-13.2,3.8-25.9l31.2-171.6
		c2.5-15.7,7-26.5,12.1-33.1c7.6-7.8,18.5-12,33.1-12c13.4,0,24.2,4.2,30.6,13.9c7,9,13.4,21.7,18.5,38.5l36.3,104.2h0.6l38.2-113.8
		c3.8-12,10.2-22.3,18.5-31.9c6.4-7.2,15.9-10.8,28-10.8c11.5,0,21.6,3,29.3,9.6s12.1,15.7,14,26.5l34.4,183.1
		C1752.6,760.3,1753.8,767.5,1753.8,773.6z M1403.1,693.5c0,34.3-10.8,62-33.1,82.5c-22.9,20.5-52.2,30.7-88.5,30.7
		c-36.9,0-66.2-10.2-88.5-30.7c-22.9-20.5-33.7-48.2-33.7-82.5V564c0-21.1,10.8-31.3,32.5-31.3c21,0,31.8,10.2,31.8,31.3v129.5
		c0,16.3,5.1,29.5,15.9,39.1c10.2,10.2,24.2,15.1,42,15.1c17.2,0,31.2-4.8,42-14.5c10.8-10.2,15.9-22.9,15.9-39.7V564
		c0-9,2.5-16.9,8.3-22.9c5.1-5.4,12.7-8.4,22.3-8.4c10.8,0,18.5,2.4,24.8,8.4c5.7,6,8.3,13.9,8.3,22.9V693.5z M1920,305
		c0,6.6-1.3,13.2-4.5,19.9L1820,534.5c-7.6,16.9-18.5,25.3-32.5,25.3c-16.6,0-26.7-9-29.9-27.1c1.3-7.2,3.2-13.2,5.7-18.7l24.8-56
		L1729,323.7c-4.5-9.6-6.4-16.9-6.4-20.5c0-7.2,3.2-13.9,8.9-19.3c5.7-4.8,12.7-7.2,21-7.2c15.3,0,26.1,7.2,31.8,21.7l36.3,88.5
		l36.3-82.5c8.3-18.7,18.5-27.7,31.8-27.7c8.3,0,15.9,2.4,22.3,7.8C1916.8,290,1920,297.2,1920,305z M1719.5,418.3
		c0,19.9-8.3,36.1-24.2,48.2c-15.3,10.8-33.1,16.9-54.8,16.9c-17.8,0-35-3-50.3-8.4c-21-7.2-31.8-18.1-31.8-31.9
		c0-7.8,2.5-14.5,7-19.9c4.5-5.4,10.2-8.4,17.8-8.4c7,0,17.2,3,29.3,8.4c12.7,6,22.3,9,28.6,9c12.7,0,19.1-4.2,19.1-11.4
		c0-4.2-1.3-7.2-3.8-9c-2.5-2.4-9.5-5.4-21-9.6c-22.3-8.4-35.7-13.9-40.7-16.3c-15.9-8.4-25.5-18.7-29.3-30.1
		c-1.3-4.8-1.9-10.2-1.9-16.9c0-19.9,8.3-36.1,24.8-48.8c15.3-12,33.7-18.1,55.4-18.1c15.9,0,30.6,3.6,44.6,10.2
		c17.2,7.8,26.1,18.1,26.1,31.9c0,6.6-2.5,12.6-7,17.5c-5.1,4.8-10.8,7.2-18.5,7.2c-3.8,0-10.8-2.4-22.9-7.2
		c-11.5-4.8-20.4-7.2-26.7-7.2c-10.2,0-15.9,4.2-15.9,12c0,5.4,8.3,11.4,25.5,17.5c22.9,8.4,38.2,15.1,45.8,19.9
		C1711.2,385.1,1719.5,400.2,1719.5,418.3z M1542.5,449.6c0,7.2-2.5,14.5-8.3,20.5c-5.1,6-11.5,9.6-19.7,9.6
		c-15.9,0-26.1-6.6-31.2-18.7c-12.1,14.5-29.9,22.3-52.2,22.3c-38.2,0-66.2-18.1-83.4-54.2c-8.9-17.5-12.7-34.3-12.7-51.2
		c0-40.3,15.9-71.1,47.7-91.5c14.6-9.6,30.6-14.5,46.5-14.5c22.3,0,40.7,7.8,54.1,22.9c5.1-12,14.6-18.1,28.6-18.1
		c8.9,0,16.6,3,22.3,8.4c5.7,6,8.3,13.2,8.3,22.3V449.6z M1480.7,377.9c0-13.9-3.2-25.3-10.2-34.3c-7.6-9.6-18.5-15.1-32.5-15.1
		c-13.4,0-24.2,5.4-31.8,16.3c-7,9.6-10.2,21.1-10.2,34.3c0,12.6,3.8,24.1,10.8,32.5c7.6,10.2,18.5,15.1,31.2,15.1
		c14,0,24.8-4.8,32.5-15.1C1477.5,403.2,1480.7,391.8,1480.7,377.9z M1325.4,448.4c0,19.3-10.8,28.9-32.5,28.9h-98.7
		c-9.5,0-17.2-3-23.6-7.8c-6.4-5.4-9.5-13.2-9.5-22.3V241.8c0-9,3.2-16.3,8.3-21.7c5.7-6,13.4-9,22.3-9h101.2
		c19.7,0,29.9,9.6,29.9,28.3c0,18.1-10.2,27.1-29.9,27.1h-68.1v48.8h63.7c8.9,0,15.9,2.4,21.6,7.8c5.7,4.8,8.3,12,8.3,20.5
		c0,8.4-2.5,15.1-8.3,19.9c-5.7,5.4-12.7,7.8-21.6,7.8h-63.7v50.6h68.1C1314.6,421.9,1325.4,430.3,1325.4,448.4z M355.8,414v142.7
		c0,20.5,4.5,35.5,13.4,46.4c8.9,10.2,21.6,15.7,38.2,15.7c16.6,0,29.9-5.4,38.8-15.7c8.9-10.8,13.4-25.9,13.4-46.4V414
		c0-8.4,7-15.7,15.9-15.7c8.9,0,16.6,7.2,16.6,15.7l0,0v144.5c0,18.1-3.8,33.7-10.8,47.6c-7,13.9-17.2,24.1-29.9,30.7
		c-12.7,7.2-27.4,10.8-43.9,10.8c-16.6,0-31.2-3.6-43.9-10.8c-12.7-6.6-22.3-16.9-29.9-30.7c-7-13.9-10.2-29.5-10.2-47.6V438.7
		c-12.7-2.4-24.2-6-33.7-10.8c-19.1-10.2-33.7-25.9-47.1-45.2c-49,25.3-121,18.7-152.8-24.7c-22.3,7.2-41.4,23.5-49,44.6
		c-10.8,28.3-4.5,56,15.9,80.1c5.1,6,5.1,12.6,0,18.7c-1.9,1.8,0.6-1.2-2.5,3c-2.5,3.6-5.1,7.2-7.6,10.8
		C40,526,34.3,537.5,31.1,550.1c-9.5,37.9,8.9,68,38.8,89.7c12.1-29.5,35-54.8,64.9-68c12.7-4.8,26.7-7.8,41.4-7.8
		c17.8,0,17.8,26.5,0,26.5c-12.7,0-24.2,3-34.4,8.4c-24.8,12-42.7,37.3-49.7,63.8c0,0.6,0,1.2,0,2.4l0,0l0,0l0,0l0,0l0,0l0,0l0,0
		l0,0l0,0l0,0l0,0l0,0l0,0l0,0l0,0l0,0c0.6-2.4,0-0.6,0,3c-0.6,4.8-1.3,9.6-1.3,14.5c0,14.5,0,28.9,3.8,43.4
		c10.2,40.3,38.2,59.6,82.8,55.4c9.5-1.2,15.3,9,13.4,16.9c-11.5,55.4,55.4,100,109.5,96.4l0,0c26.1-10.2,45.8-27.7,60.5-49.4
		c-33.7-18.7-49.7-54.8-52.2-92.7c-1.9,1.2-3.8,1.8-6.4,1.8c-46.5,1.2-85.9-15.7-103.8-51.2c-4.5-9-7.6-19.9-8.9-32.5
		c-1.9-16.9,26.7-16.9,28.6,0c0.6,10.8,3.8,19.3,8.3,26.5c14.6,22.9,44.6,30.7,75.8,30.1c2.5,0,5.1,0.6,7,1.8
		c1.3-13.2,3.8-25.9,8.3-37.9c3.8-11.4,8.9-21.7,15.3-30.7c10.2-14.5,35-1.2,24.8,13.2c-6.4,8.4-10.8,18.7-14.6,30.1
		c-10.8,33.7-8.9,75.9,13.4,102.4c5.1,6,10.8,10.8,17.2,15.1c4.5-9,7-18.1,9.5-27.7c3.8-16.9,31.2-9.6,27.4,7.2
		c-3.2,12-7,24.1-12.7,35.5c-12.7,27.7-33.1,51.8-59.8,68.7c17.2,55.4,107.6,70.5,159.2,48.8c16.6-5.4,29.3-1.2,28.6,9.6
		c0,3.6-1.9,7.8-7,10.2c-62.4,33.7-177.6,15.7-205-53c-70,12.6-152.2-42.8-152.2-112c-43.9-0.6-79.6-24.7-92.3-67.4
		c-6.4-23.5-8.3-48.2-5.7-72.3c-42-27.1-71.3-66.8-61.8-116.2c3.8-21.7,13.4-42.8,26.7-60.8c-21-30.1-29.3-65.6-13.4-100.6
		c11.5-25.9,33.7-47.6,61.8-57.2c-10.8-42.8-5.7-88.5,27.4-121.6c20.4-21.1,48.4-36.7,78.3-42.2c0-54.8,66.8-107.8,124.1-95.8
		c4.5-9.6,10.2-18.1,17.2-25.9c0.6-1.2,1.3-1.8,1.9-3c1.3-1.2,1.9-1.8,3.2-2.4C355.1,17.8,394,5.7,433.5,14.8
		c17.8,4.2,10.2,30.1-7.6,25.9c-33.1-7.8-66.2,5.4-84.7,30.1c-2.5,3.6-5.1,7.8-7.6,12.6c-1.3,3.6-3.2,7.2-4.5,10.8
		c0,1.8-1.3,3.6-2.5,4.8c-6.4,18.7-9.5,39.1-7.6,57.2c1.3,17.5,7.6,22.9-5.1,29.5c-9.5,4.2-17.2,0.6-20.4-11.4
		c-5.7-22.9-3.8-49.4,3.8-74.1c-42.7-3.6-95.5,36.7-85.9,77.7c1.9,9-4.5,16.3-13.4,16.9c-27.4,1.8-56,16.9-73.8,36.1
		c-26.1,28.9-28.6,64.4-19.1,99.4c0.6,1.2,1.3,1.8,1.9,3c17.8,44,85.3,44.6,124.1,24.1c-3.2-12-5.1-24.1-5.1-36.7
		c0.6-11.4,3.2-22.9,7.6-33.7c6.4-16.3,33.7-9,26.7,6.6c-4.5,11.4-5.7,22.3-5.7,33.1c0.6,12,3.2,24.1,8.3,35.5c0,0.6,0,0.6,0,0.6
		c7,11.4,14.6,23.5,24.8,32.5c3.2,3,7,5.4,10.2,7.2c10.8,6,18.5,10.8,33.1,11.4h3.2H355.8z M491.4,376.1v-56h-70v56h-21.6v-97
		c0-18.1,5.1-33.1,15.9-44c10.2-10.8,23.6-15.7,40.7-15.7c10.8,0,21,2.4,29.3,6.6c8.9,4.8,15.3,12,20.4,21.1c4.5,9,7,19.9,7,31.9v97
		H491.4z M456.4,238.2c-10.8,0-19.7,3.6-25.5,10.8c-6.4,6.6-9.5,17.5-9.5,30.7v21.1h70v-21.1c0-13.2-3.2-24.1-8.9-30.7
		C476.1,241.8,467.8,238.2,456.4,238.2z M536.6,376.1v-20.5h17.2c5.7,0,10.2-1.2,14-3.6c3.8-3,7-6.6,10.2-11.4
		c3.2-4.8,5.7-10.2,8.3-16.9s6.4-15.7,10.8-28.3c1.9-6.6,5.1-15.1,8.9-25.3c4.5-10.2,8.3-19.3,12.1-25.9c4.5-6.6,9.5-12,15.9-16.3
		c5.7-4.2,13.4-6,21.6-6h19.7v20.5h-12.1c-6.4,0-10.8,1.2-15.3,3c-3.8,2.4-7.6,6-10.8,10.8c-3.2,4.8-6.4,10.8-8.9,18.1
		c-3.2,7.8-7,18.7-12.1,33.7c-4.5,12.6-8.9,23.5-13.4,32.5c-3.8,8.4-8.3,15.7-12.7,20.5c-5.1,5.4-10.2,9-15.9,11.4
		c-5.1,2.4-12.1,3.6-19.1,3.6H536.6z M734.6,376.1v-59c-26.7-6-40.7-24.1-40.7-53v-41.6h21.6v41.6c0,11.4,3.2,20.5,8.3,26.5
		c5.1,6,12.1,9,21.6,9s16.6-3,21.6-9c5.7-6,8.3-15.1,8.3-26.5v-41.6H797v41.6c0,28.9-14,47-40.7,53v59H734.6z M683,643.5
		c0,8.4-7,15.1-15.9,15.1c-8.3,0-15.3-6.6-15.9-15.1l0,0l0,0l0,0v-0.6V490.5c0-16.9-3.8-30.1-11.5-38.5c-7.6-9-17.8-13.2-31.8-13.2
		c-14,0-24.8,4.2-32.5,13.2c-7.6,8.4-10.8,21.7-10.8,38.5v153l0,0c-0.6,8.4-7.6,15.1-16.6,15.1c-8.9,0-15.9-6.6-15.9-15.1l0,0v-0.6
		v-153c0-16.3,3.2-30.1,9.5-42.8c6.4-12,15.3-21.1,26.7-27.7c11.5-6.6,24.8-9.6,39.5-9.6c24.2,0,43.9,9.6,59.2,28.3
		c4.5-6,10.2-11.4,16.6-15.7c6.4-4.2,13.4-7.2,20.4-9.6c7-1.8,14.6-3,22.3-3c15.3,0,28,3,39.5,9.6c12.1,6.6,21,15.7,27.4,27.7
		c6.4,12,9.5,26.5,9.5,42.8c0,63.2,27.4,244.5-72.6,255.9c13.4,47,10.8,100.6-2.5,148.1c54.8,7.2,126.7-38.5,114.6-95.8
		c-1.9-7.8,3.8-18.1,13.4-16.9c43.9,4.2,73.8-15.1,82.8-55.4c3.2-14.5,4.5-28.9,3.8-43.4c0-4.8-0.6-9.6-1.3-14.5c0-3.6-0.6-5.4,0-3
		l0,0l0,0l0,0l0,0l0,0l0,0c-0.6-6,0.6-11.4,6.4-15.1c38.2-21.7,66.8-56,54.8-100c-3.2-13.2-8.9-25.3-16.6-36.7
		c-2.5-3.6-4.5-7.2-7-10.2c-0.6-0.6-0.6-1.2-1.3-1.2c0,0,0,0,0-0.6c-5.7-6-5.7-12.6,0-18.7c19.7-24.1,29.3-57.2,12.7-85.5
		c-9.5-16.9-23.6-30.1-42-37.3c-14,29.5-36.9,54.8-65.6,75.9c-1.3,0.6-1.9,1.2-2.5,1.2c0,1.8,0,3.6,0,5.4
		c-0.6,13.2-3.2,25.9-7.6,37.9c-6.4,16.3-33.7,9-27.4-7.2c4.5-10.8,6.4-22.9,7-34.9c0-11.4-1.9-22.9-6.4-33.1
		c-5.1-12-12.7-22.9-23.6-31.3c-14-10.8,5.7-30.1,19.7-19.3c11.5,9,20.4,19.9,26.7,32.5c3.2,6,5.7,12.6,7.6,19.9
		c22.3-18.1,38.8-39.7,49-64.4c0-1.2,0-2.4,0.6-3c12.1-37.9,12.1-80.7-19.1-110.8c-18.5-17.5-43.9-31.3-70-33.7
		c-12.7,0.6-25.5,1.8-38.2,4.8c-21,5.4-27.4-21.1-14.6-24.1c12.7-3.6,26.1-5.4,39.5-6.6c0.6-42.8-61.8-81.3-101.9-65
		c-7,3-15.3-3-17.2-9.6c-12.1-42.2-52.2-62.6-96.8-53.6c-7,1.2-12.1-2.4-18.5-4.8c-10.2-3.6-21-6.6-31.8-8.4
		c-20.4-4.2-22.3,13.9-34.4,14.5c-12.7,0.6-30.6-7.2-15.9-24.1c22.9-28.3,67.5-17.5,98.7-4.2c52.8-8.4,101.2,14.5,121,60.8
		c57.3-12,124.1,41,124.1,95.8c31.2,6,61.1,22.3,80.9,44.6c27.4,31.3,38.2,80.1,26.7,119.8c28,10.8,51.6,33.1,61.8,60.8
		c13.4,34.3,5.1,67.4-15.3,96.4c13.4,18.1,23.6,39.1,26.7,60.8c7.6,50-19.1,89.1-61.8,116.2c2.5,23.5,1.3,49.4-5.7,72.3
		c-13.4,42.8-47.7,66.8-92.3,67.4c0.6,68.7-81.5,124.7-151.5,112c-17.8,48.2-75.1,65-126.1,57.2c-17.8-3-10.2-28.9,7.6-25.9
		c33.7,5.4,70-4.2,86.6-31.3c22.9-53.6,30.6-118.6,12.7-174c-20.4-1.8-37.6-12.6-50.9-27.1c-9.5-10.2-16.6-22.9-20.4-35.5
		c-5.7-16.3,21.6-23.5,27.4-6.6c3.2,10.2,9.5,20.5,17.8,28.3c10.2,9,22.9,15.1,38.2,13.9c0,0,0,0,0.6,0
		c82.8,3,56.7-183.1,56.7-228.8c0-16.9-3.8-30.1-11.5-38.5c-7.6-9-18.5-13.2-32.5-13.2c-13.4,0-24.2,4.2-31.8,13.2
		c-7.6,8.4-11.5,21.7-11.5,38.5V643.5L683,643.5L683,643.5z"/>
</g>
</svg>
